<?xml version="1.0" encoding="UTF-8"?>
<svg xmlns="http://www.w3.org/2000/svg" viewBox="0 0 480 680" width="480" height="680">
<style>
  text { font-family: Georgia, serif; }
  .T  { font-size:12px; font-weight:bold; letter-spacing:2px; }
  .S  { font-size:7px; letter-spacing:1.5px; }
  .H  { font-size:6.5px; font-weight:bold; letter-spacing:2.5px; }
  .L  { font-size:7px; }
  .Ls { font-size:6px; }
  .Lx { font-size:5.5px; }
  .Lr { font-size:13px; }
  .Lrs{ font-size:10px; }
  .M  { font-size:6px; letter-spacing:1px; }
  .F  { font-size:7px; font-style:italic; }
  .Fb { font-size:7.5px; font-weight:bold; }
</style>
<rect x="0" y="0" width="480" height="680" fill="white"/>
<rect x="6" y="6" width="468" height="668" fill="none" stroke="black" stroke-width="3"/>
<rect x="12" y="12" width="456" height="656" fill="none" stroke="black" stroke-width="0.75"/>
<text x="240" y="32" text-anchor="middle" class="T" >RUSSIAN — GRAMMAR · VOCABULARY</text>
<text x="240" y="50" text-anchor="middle" class="S" >SERIES 24C OF 50 · REMEMBER FORWARD</text>
<line x1="20" y1="58" x2="460" y2="58" stroke="black" stroke-width="0.3"/>
<text x="240" y="68" text-anchor="middle" class="H" >— INFLECTED LANGUAGE — 6 CASES, 3 GENDERS —</text>
<text x="240" y="79" text-anchor="middle" class="L" >Russian is highly inflected. Nouns decline for: CASE (6) × NUMBER (sg/pl) × GENDER (M/F/N).</text>
<text x="240" y="89" text-anchor="middle" class="Ls" >Word order is flexible (SVO preferred, but any order is grammatically possible for emphasis).</text>
<text x="60" y="100" text-anchor="middle" class="Lx" >Case</text>
<text x="115" y="100" text-anchor="middle" class="Lx" >Abbr</text>
<text x="185" y="100" text-anchor="middle" class="Lx" >Function</text>
<text x="310" y="100" text-anchor="middle" class="Lx" >Example</text>
<text x="415" y="100" text-anchor="middle" class="Lx" >Gloss</text>
<text x="60" y="109" text-anchor="middle" class="Lx" >Nominative</text>
<text x="115" y="109" text-anchor="middle" class="Lx" >НОМ</text>
<text x="185" y="109" text-anchor="middle" class="Lx" >Subject</text>
<text x="310" y="109" text-anchor="middle" class="Lrs" >Кот спит.</text>
<text x="415" y="109" text-anchor="middle" class="Lx" >The cat sleeps.</text>
<text x="60" y="120" text-anchor="middle" class="Lx" >Genitive</text>
<text x="115" y="120" text-anchor="middle" class="Lx" >РОД</text>
<text x="185" y="120" text-anchor="middle" class="Lx" >Possession / absence</text>
<text x="310" y="120" text-anchor="middle" class="Lrs" >нет кота</text>
<text x="415" y="120" text-anchor="middle" class="Lx" >there is no cat</text>
<text x="60" y="131" text-anchor="middle" class="Lx" >Dative</text>
<text x="115" y="131" text-anchor="middle" class="Lx" >ДАТ</text>
<text x="185" y="131" text-anchor="middle" class="Lx" >Indirect object</text>
<text x="310" y="131" text-anchor="middle" class="Lrs" >дал коту</text>
<text x="415" y="131" text-anchor="middle" class="Lx" >gave to the cat</text>
<text x="60" y="142" text-anchor="middle" class="Lx" >Accusative</text>
<text x="115" y="142" text-anchor="middle" class="Lx" >ВИН</text>
<text x="185" y="142" text-anchor="middle" class="Lx" >Direct object</text>
<text x="310" y="142" text-anchor="middle" class="Lrs" >вижу кота</text>
<text x="415" y="142" text-anchor="middle" class="Lx" >I see the cat</text>
<text x="60" y="153" text-anchor="middle" class="Lx" >Instrumental</text>
<text x="115" y="153" text-anchor="middle" class="Lx" >ТВО</text>
<text x="185" y="153" text-anchor="middle" class="Lx" >By/with/as</text>
<text x="310" y="153" text-anchor="middle" class="Lrs" >с котом</text>
<text x="415" y="153" text-anchor="middle" class="Lx" >with the cat</text>
<text x="60" y="164" text-anchor="middle" class="Lx" >Prepositional</text>
<text x="115" y="164" text-anchor="middle" class="Lx" >ПРЕ</text>
<text x="185" y="164" text-anchor="middle" class="Lx" >Location (after prep)</text>
<text x="310" y="164" text-anchor="middle" class="Lrs" >о коте</text>
<text x="415" y="164" text-anchor="middle" class="Lx" >about the cat</text>
<line x1="20" y1="177" x2="460" y2="177" stroke="black" stroke-width="0.3"/>
<text x="240" y="186" text-anchor="middle" class="H" >— NOUN DECLENSION — кот "cat" (masculine) —</text>
<text x="100" y="196" text-anchor="middle" class="Lx" >Singular</text>
<text x="320" y="196" text-anchor="middle" class="Lx" >Plural</text>
<text x="55" y="204" text-anchor="middle" class="Lx" >НОМ</text>
<text x="130" y="204" text-anchor="middle" class="Lrs" >кот</text>
<text x="320" y="204" text-anchor="middle" class="Lrs" >коты</text>
<text x="55" y="213" text-anchor="middle" class="Lx" >РОД</text>
<text x="130" y="213" text-anchor="middle" class="Lrs" >кота</text>
<text x="320" y="213" text-anchor="middle" class="Lrs" >котов</text>
<text x="55" y="222" text-anchor="middle" class="Lx" >ДАТ</text>
<text x="130" y="222" text-anchor="middle" class="Lrs" >коту</text>
<text x="320" y="222" text-anchor="middle" class="Lrs" >котам</text>
<text x="55" y="231" text-anchor="middle" class="Lx" >ВИН</text>
<text x="130" y="231" text-anchor="middle" class="Lrs" >кота</text>
<text x="320" y="231" text-anchor="middle" class="Lrs" >котов</text>
<text x="55" y="240" text-anchor="middle" class="Lx" >ТВО</text>
<text x="130" y="240" text-anchor="middle" class="Lrs" >котом</text>
<text x="320" y="240" text-anchor="middle" class="Lrs" >котами</text>
<text x="55" y="249" text-anchor="middle" class="Lx" >ПРЕ</text>
<text x="130" y="249" text-anchor="middle" class="Lrs" >коте</text>
<text x="320" y="249" text-anchor="middle" class="Lrs" >котах</text>
<line x1="20" y1="261" x2="460" y2="261" stroke="black" stroke-width="0.3"/>
<text x="240" y="270" text-anchor="middle" class="H" >— VERB CONJUGATION — говорить "to speak" (2nd conjugation) —</text>
<text x="100" y="280" text-anchor="middle" class="Lx" >Present</text>
<text x="360" y="280" text-anchor="middle" class="Lx" >Past (agrees with subject gender)</text>
<text x="45" y="289" text-anchor="middle" class="Lrs" >я</text>
<text x="130" y="289" text-anchor="middle" class="Lrs" >говорю</text>
<text x="210" y="289" text-anchor="middle" class="Lx" >I speak</text>
<text x="45" y="299" text-anchor="middle" class="Lrs" >ты</text>
<text x="130" y="299" text-anchor="middle" class="Lrs" >говоришь</text>
<text x="210" y="299" text-anchor="middle" class="Lx" >you speak</text>
<text x="45" y="309" text-anchor="middle" class="Lrs" >он/она</text>
<text x="130" y="309" text-anchor="middle" class="Lrs" >говорит</text>
<text x="210" y="309" text-anchor="middle" class="Lx" >he/she speaks</text>
<text x="45" y="319" text-anchor="middle" class="Lrs" >мы</text>
<text x="130" y="319" text-anchor="middle" class="Lrs" >говорим</text>
<text x="210" y="319" text-anchor="middle" class="Lx" >we speak</text>
<text x="45" y="329" text-anchor="middle" class="Lrs" >вы</text>
<text x="130" y="329" text-anchor="middle" class="Lrs" >говорите</text>
<text x="210" y="329" text-anchor="middle" class="Lx" >you (pl/formal) speak</text>
<text x="45" y="339" text-anchor="middle" class="Lrs" >они</text>
<text x="130" y="339" text-anchor="middle" class="Lrs" >говорят</text>
<text x="210" y="339" text-anchor="middle" class="Lx" >they speak</text>
<text x="300" y="289" text-anchor="middle" class="Lx" >М sg</text>
<text x="380" y="289" text-anchor="middle" class="Lrs" >говорил</text>
<text x="450" y="289" text-anchor="start" class="Lx" >he spoke</text>
<text x="300" y="299" text-anchor="middle" class="Lx" >Ж sg</text>
<text x="380" y="299" text-anchor="middle" class="Lrs" >говорила</text>
<text x="450" y="299" text-anchor="start" class="Lx" >she spoke</text>
<text x="300" y="309" text-anchor="middle" class="Lx" >Ср sg</text>
<text x="380" y="309" text-anchor="middle" class="Lrs" >говорило</text>
<text x="450" y="309" text-anchor="start" class="Lx" >it spoke</text>
<text x="300" y="319" text-anchor="middle" class="Lx" >Мн pl</text>
<text x="380" y="319" text-anchor="middle" class="Lrs" >говорили</text>
<text x="450" y="319" text-anchor="start" class="Lx" >they spoke</text>
<text x="240" y="353" text-anchor="middle" class="Ls" >Aspect: Russian verbs have PERFECTIVE (completed) and IMPERFECTIVE (ongoing) pairs:</text>
<text x="240" y="362" text-anchor="middle" class="Lx" >писать (pisat') IMPF "to write (repeatedly)" vs написать (napisat') PERF "to write (once, completely)"</text>
<line x1="20" y1="370" x2="460" y2="370" stroke="black" stroke-width="0.3"/>
<text x="240" y="379" text-anchor="middle" class="H" >— CORE VOCABULARY — 25 WORDS —</text>
<text x="40" y="389" text-anchor="middle" class="Lrs" >да / нет</text>
<text x="155" y="389" text-anchor="middle" class="Lx" >da / net</text>
<text x="250" y="389" text-anchor="middle" class="Lx" >yes / no</text>
<text x="40" y="399" text-anchor="middle" class="Lrs" >я / ты / вы</text>
<text x="155" y="399" text-anchor="middle" class="Lx" >ya / ty / vy</text>
<text x="250" y="399" text-anchor="middle" class="Lx" >I / you (inf) / you (formal)</text>
<text x="40" y="409" text-anchor="middle" class="Lrs" >это</text>
<text x="155" y="409" text-anchor="middle" class="Lx" >eto</text>
<text x="250" y="409" text-anchor="middle" class="Lx" >this / that / it is</text>
<text x="40" y="419" text-anchor="middle" class="Lrs" >где</text>
<text x="155" y="419" text-anchor="middle" class="Lx" >gde</text>
<text x="250" y="419" text-anchor="middle" class="Lx" >where</text>
<text x="40" y="429" text-anchor="middle" class="Lrs" >что</text>
<text x="155" y="429" text-anchor="middle" class="Lx" >chto</text>
<text x="250" y="429" text-anchor="middle" class="Lx" >what</text>
<text x="40" y="439" text-anchor="middle" class="Lrs" >кто</text>
<text x="155" y="439" text-anchor="middle" class="Lx" >kto</text>
<text x="250" y="439" text-anchor="middle" class="Lx" >who</text>
<text x="40" y="449" text-anchor="middle" class="Lrs" >когда</text>
<text x="155" y="449" text-anchor="middle" class="Lx" >kogda</text>
<text x="250" y="449" text-anchor="middle" class="Lx" >when</text>
<text x="40" y="459" text-anchor="middle" class="Lrs" >почему</text>
<text x="155" y="459" text-anchor="middle" class="Lx" >pochemu</text>
<text x="250" y="459" text-anchor="middle" class="Lx" >why</text>
<text x="40" y="469" text-anchor="middle" class="Lrs" >вода</text>
<text x="155" y="469" text-anchor="middle" class="Lx" >voda</text>
<text x="250" y="469" text-anchor="middle" class="Lx" >water</text>
<text x="40" y="479" text-anchor="middle" class="Lrs" >огонь</text>
<text x="155" y="479" text-anchor="middle" class="Lx" >ogon'</text>
<text x="250" y="479" text-anchor="middle" class="Lx" >fire</text>
<text x="40" y="489" text-anchor="middle" class="Lrs" >земля</text>
<text x="155" y="489" text-anchor="middle" class="Lx" >zemlya</text>
<text x="250" y="489" text-anchor="middle" class="Lx" >earth</text>
<text x="40" y="499" text-anchor="middle" class="Lrs" >человек</text>
<text x="155" y="499" text-anchor="middle" class="Lx" >chelovek</text>
<text x="250" y="499" text-anchor="middle" class="Lx" >person</text>
<text x="40" y="509" text-anchor="middle" class="Lrs" >книга</text>
<text x="155" y="509" text-anchor="middle" class="Lx" >kniga</text>
<text x="250" y="509" text-anchor="middle" class="Lx" >book</text>
<text x="265" y="389" text-anchor="middle" class="Lrs" >время</text>
<text x="380" y="389" text-anchor="middle" class="Lx" >vremya</text>
<text x="465" y="389" text-anchor="middle" class="Lx" >time</text>
<text x="265" y="399" text-anchor="middle" class="Lrs" >луна</text>
<text x="380" y="399" text-anchor="middle" class="Lx" >luna</text>
<text x="465" y="399" text-anchor="middle" class="Lx" >moon</text>
<text x="265" y="409" text-anchor="middle" class="Lrs" >звезда</text>
<text x="380" y="409" text-anchor="middle" class="Lx" >zvezda</text>
<text x="465" y="409" text-anchor="middle" class="Lx" >star</text>
<text x="265" y="419" text-anchor="middle" class="Lrs" >сердце</text>
<text x="380" y="419" text-anchor="middle" class="Lx" >serdtse</text>
<text x="465" y="419" text-anchor="middle" class="Lx" >heart</text>
<text x="265" y="429" text-anchor="middle" class="Lrs" >любовь</text>
<text x="380" y="429" text-anchor="middle" class="Lx" >lyubov'</text>
<text x="465" y="429" text-anchor="middle" class="Lx" >love</text>
<text x="265" y="439" text-anchor="middle" class="Lrs" >свобода</text>
<text x="380" y="439" text-anchor="middle" class="Lx" >svoboda</text>
<text x="465" y="439" text-anchor="middle" class="Lx" >freedom</text>
<text x="265" y="449" text-anchor="middle" class="Lrs" >память</text>
<text x="380" y="449" text-anchor="middle" class="Lx" >pamyat'</text>
<text x="465" y="449" text-anchor="middle" class="Lx" >memory</text>
<text x="265" y="459" text-anchor="middle" class="Lrs" >будущее</text>
<text x="380" y="459" text-anchor="middle" class="Lx" >budushcheye</text>
<text x="465" y="459" text-anchor="middle" class="Lx" >the future</text>
<text x="265" y="469" text-anchor="middle" class="Lrs" >мир</text>
<text x="380" y="469" text-anchor="middle" class="Lx" >mir</text>
<text x="465" y="469" text-anchor="middle" class="Lx" >world / peace</text>
<text x="265" y="479" text-anchor="middle" class="Lrs" >хорошо / плохо</text>
<text x="380" y="479" text-anchor="middle" class="Lx" >khorosho / plokho</text>
<text x="465" y="479" text-anchor="middle" class="Lx" >good / bad</text>
<text x="265" y="489" text-anchor="middle" class="Lrs" >всё</text>
<text x="380" y="489" text-anchor="middle" class="Lx" >vsyo</text>
<text x="465" y="489" text-anchor="middle" class="Lx" >everything</text>
<text x="265" y="499" text-anchor="middle" class="Lrs" >жизнь</text>
<text x="380" y="499" text-anchor="middle" class="Lx" >zhizn'</text>
<text x="465" y="499" text-anchor="middle" class="Lx" >life</text>
<line x1="20" y1="524" x2="460" y2="524" stroke="black" stroke-width="0.3"/>
<text x="240" y="533" text-anchor="middle" class="H" >— NO ARTICLES — VERBAL ASPECT INSTEAD —</text>
<text x="240" y="544" text-anchor="middle" class="L" >Russian has NO definite or indefinite articles. Context and word order convey specificity.</text>
<text x="240" y="554" text-anchor="middle" class="Ls" >The distinction between "a book" and "the book" is handled by context, demonstratives (эта книга), or order.</text>
<text x="240" y="563" text-anchor="middle" class="Ls" >Instead, Russian grammaticalizes ASPECT — a distinction absent from English but pervasive in Russian:</text>
<text x="240" y="572" text-anchor="middle" class="Ls" >читать (chitat') = to be reading / read habitually · прочитать (prochitat') = to read (and finish)</text>
<text x="240" y="581" text-anchor="middle" class="Ls" >The perfective prefix changes meaning: написать "write completely", выпить "drink up", уйти "leave (and go)"</text>
<line x1="20" y1="625" x2="460" y2="625" stroke="black" stroke-width="0.3"/>
<text x="240" y="620" text-anchor="middle" class="M" >SERIES 24 · RUSSIAN · PLATE C · GRAMMAR · CC BY-SA 4.0 · REMEMBERFORWARD.ORG</text>
<line x1="20" y1="633" x2="460" y2="633" stroke="black" stroke-width="0.3"/>
<text x="240" y="648" text-anchor="middle" class="Fb" >THIS IS A PATIENT MESSAGE. IT WAS MADE FOR YOU, FREELY, BY PEOPLE WHO REMEMBERED FORWARD.</text>
<text x="240" y="663" text-anchor="middle" class="F" >BUY IT · BUILD IT · BURY IT · FOR SOMEONE YOU WILL NEVER MEET</text>
</svg>
