<?xml version="1.0" encoding="UTF-8"?>
<svg xmlns="http://www.w3.org/2000/svg" viewBox="0 0 480 680" width="480" height="680">
<style>
  text { font-family: Georgia, serif; }
  .T{font-size:11px;font-weight:bold;letter-spacing:1.5px}
  .S{font-size:6.5px;letter-spacing:1.5px}
  .H{font-size:6.5px;font-weight:bold;letter-spacing:2.5px}
  .Hb{font-size:7px;font-weight:bold;letter-spacing:2px}
  .L{font-size:7px} .Ls{font-size:6px} .Lx{font-size:5.5px}
  .Lg{font-size:12px}
  .M{font-size:6px;letter-spacing:1px}
  .F{font-size:7px;font-style:italic}
  .Fb{font-size:7.5px;font-weight:bold}
</style>
<rect x="0" y="0" width="480" height="680" fill="white"/>
<rect x="6" y="6" width="468" height="668" fill="none" stroke="black" stroke-width="3"/>
<rect x="12" y="12" width="456" height="656" fill="none" stroke="black" stroke-width="0.75"/>
<text x="240" y="30" text-anchor="middle" class="T">GREEK + ALBANIAN — GRAMMAR · VOCABULARY</text>
<text x="240" y="46" text-anchor="middle" class="S">ALT DRAFT · SERIES 21C · REMEMBER FORWARD</text>
<line x1="20" y1="54" x2="460" y2="54" stroke="black" stroke-width="0.3"/>
<text x="240" y="63" text-anchor="middle" class="H">— GREEK GRAMMAR — SVO · INFLECTING · 3 GENDERS —</text>
<text x="240" y="73" text-anchor="middle" class="Ls">Modern Greek is SVO with relatively free word order (inflection carries grammar).</text>
<text x="240" y="82" text-anchor="middle" class="Lx">3 genders: masculine, feminine, neuter. 4 cases: nominative, genitive, accusative, vocative.</text>
<text x="240" y="91" text-anchor="middle" class="Lx">Articles: definite ο/η/το (M/F/N) · indefinite ένας/μία/ένα. Must agree in gender, number, case.</text>
<line x1="20" y1="99" x2="460" y2="99" stroke="black" stroke-width="0.3"/>
<text x="240" y="107" text-anchor="middle" class="H">— GREEK VERB SYSTEM — γράφω (write) —</text>
<text x="80" y="117" text-anchor="middle" class="Ls">γράφω</text>
<text x="160" y="117" text-anchor="middle" class="Lx">I write</text>
<text x="300" y="117" text-anchor="middle" class="Ls">γράφεις</text>
<text x="380" y="117" text-anchor="middle" class="Lx">you write</text>
<text x="80" y="127" text-anchor="middle" class="Ls">γράφει</text>
<text x="160" y="127" text-anchor="middle" class="Lx">he/she writes</text>
<text x="300" y="127" text-anchor="middle" class="Ls">γράφουμε</text>
<text x="380" y="127" text-anchor="middle" class="Lx">we write</text>
<text x="80" y="137" text-anchor="middle" class="Ls">γράφετε</text>
<text x="160" y="137" text-anchor="middle" class="Lx">you (pl) write</text>
<text x="300" y="137" text-anchor="middle" class="Ls">γράφουν</text>
<text x="380" y="137" text-anchor="middle" class="Lx">they write</text>
<text x="240" y="150" text-anchor="middle" class="Lx">Aspect: imperfective vs. perfective. Past: έγραψα (I wrote). Future: θα γράψω.</text>
<line x1="20" y1="158" x2="460" y2="158" stroke="black" stroke-width="0.3"/>
<text x="240" y="166" text-anchor="middle" class="H">— GREEK CORE VOCABULARY —</text>
<text x="60" y="176" text-anchor="middle" class="Ls">νερό</text>
<text x="120" y="176" text-anchor="middle" class="Lx">water</text>
<text x="190" y="176" text-anchor="middle" class="Ls">φωτιά</text>
<text x="250" y="176" text-anchor="middle" class="Lx">fire</text>
<text x="320" y="176" text-anchor="middle" class="Ls">γη</text>
<text x="380" y="176" text-anchor="middle" class="Lx">earth</text>
<text x="60" y="186" text-anchor="middle" class="Ls">άνθρωπος</text>
<text x="120" y="186" text-anchor="middle" class="Lx">person</text>
<text x="190" y="186" text-anchor="middle" class="Ls">φεγγάρι</text>
<text x="250" y="186" text-anchor="middle" class="Lx">moon</text>
<text x="320" y="186" text-anchor="middle" class="Ls">μνήμη</text>
<text x="380" y="186" text-anchor="middle" class="Lx">memory</text>
<text x="60" y="196" text-anchor="middle" class="Ls">μέλλον</text>
<text x="120" y="196" text-anchor="middle" class="Lx">future</text>
<text x="190" y="196" text-anchor="middle" class="Ls">ελευθερία</text>
<text x="250" y="196" text-anchor="middle" class="Lx">freedom</text>
<text x="320" y="196" text-anchor="middle" class="Ls">καρδιά</text>
<text x="380" y="196" text-anchor="middle" class="Lx">heart</text>
<text x="60" y="206" text-anchor="middle" class="Ls">αγάπη</text>
<text x="120" y="206" text-anchor="middle" class="Lx">love</text>
<text x="190" y="206" text-anchor="middle" class="Ls">κόσμος</text>
<text x="250" y="206" text-anchor="middle" class="Lx">world</text>
<text x="320" y="206" text-anchor="middle" class="Ls">ζωή</text>
<text x="380" y="206" text-anchor="middle" class="Lx">life</text>
<line x1="20" y1="221" x2="460" y2="221" stroke="black" stroke-width="1.5"/>
<rect x="20" y="224" width="440" height="14" fill="black"/>
<text x="240" y="234" text-anchor="middle" class="Hb" fill="white">SECONDARY — ALBANIAN (SHQIP) — GRAMMAR · VOCABULARY</text>
<line x1="20" y1="238" x2="460" y2="238" stroke="black" stroke-width="0.3"/>
<text x="240" y="247" text-anchor="middle" class="H">— ALBANIAN GRAMMAR — UNIQUE FEATURES —</text>
<text x="240" y="257" text-anchor="middle" class="Ls">Albanian is SVO. Suffixed definite article (postposed): gjuh + ë = gjuha (the language).</text>
<text x="240" y="266" text-anchor="middle" class="Lx">This is typologically unusual in Europe — article comes AFTER the noun (like Romanian, Bulgarian, Scandinavian).</text>
<text x="240" y="275" text-anchor="middle" class="Lx">5 cases: nominative, genitive, dative, accusative, ablative. Genitive = Dative in many paradigms.</text>
<text x="240" y="284" text-anchor="middle" class="Lx">2 dialects: Gheg (north, Kosovo) and Tosk (south, standard). Differ in phonology and some morphology.</text>
<line x1="20" y1="292" x2="460" y2="292" stroke="black" stroke-width="0.3"/>
<text x="240" y="300" text-anchor="middle" class="H">— ALBANIAN DEFINITE ARTICLE — SUFFIXED —</text>
<text x="55" y="310" text-anchor="middle" class="Lx">Masc.</text>
<text x="150" y="310" text-anchor="middle" class="Ls">njeri (man)</text>
<text x="280" y="310" text-anchor="middle" class="Ls">njeriu (the man)</text>
<text x="390" y="310" text-anchor="middle" class="Lx">-u suffix</text>
<text x="55" y="321" text-anchor="middle" class="Lx">Fem.</text>
<text x="150" y="321" text-anchor="middle" class="Ls">gjuhë (language)</text>
<text x="280" y="321" text-anchor="middle" class="Ls">gjuha (the language)</text>
<text x="390" y="321" text-anchor="middle" class="Lx">-a suffix</text>
<text x="55" y="332" text-anchor="middle" class="Lx">Neut.</text>
<text x="150" y="332" text-anchor="middle" class="Ls">ujk (wolf)</text>
<text x="280" y="332" text-anchor="middle" class="Ls">ujku (the wolf)</text>
<text x="390" y="332" text-anchor="middle" class="Lx">-u suffix</text>
<line x1="20" y1="348" x2="460" y2="348" stroke="black" stroke-width="0.3"/>
<text x="240" y="356" text-anchor="middle" class="H">— ALBANIAN VERB SYSTEM — flas (speak) —</text>
<text x="80" y="366" text-anchor="middle" class="Ls">flas</text>
<text x="150" y="366" text-anchor="middle" class="Lx">I speak</text>
<text x="300" y="366" text-anchor="middle" class="Ls">flet</text>
<text x="370" y="366" text-anchor="middle" class="Lx">you speak</text>
<text x="80" y="376" text-anchor="middle" class="Ls">flet</text>
<text x="150" y="376" text-anchor="middle" class="Lx">he/she speaks</text>
<text x="300" y="376" text-anchor="middle" class="Ls">flasim</text>
<text x="370" y="376" text-anchor="middle" class="Lx">we speak</text>
<text x="80" y="386" text-anchor="middle" class="Ls">flisni</text>
<text x="150" y="386" text-anchor="middle" class="Lx">you (pl) speak</text>
<text x="300" y="386" text-anchor="middle" class="Ls">flasin</text>
<text x="370" y="386" text-anchor="middle" class="Lx">they speak</text>
<text x="240" y="399" text-anchor="middle" class="Lx">Past: fola (I spoke). Future: do të flas (will to speak — periphrastic). Negation: nuk flas.</text>
<line x1="20" y1="407" x2="460" y2="407" stroke="black" stroke-width="0.3"/>
<text x="240" y="415" text-anchor="middle" class="H">— ALBANIAN CORE VOCABULARY —</text>
<text x="60" y="425" text-anchor="middle" class="Ls">ujë</text>
<text x="120" y="425" text-anchor="middle" class="Lx">water</text>
<text x="190" y="425" text-anchor="middle" class="Ls">zjarr</text>
<text x="250" y="425" text-anchor="middle" class="Lx">fire</text>
<text x="320" y="425" text-anchor="middle" class="Ls">tokë</text>
<text x="380" y="425" text-anchor="middle" class="Lx">earth</text>
<text x="60" y="435" text-anchor="middle" class="Ls">njeri</text>
<text x="120" y="435" text-anchor="middle" class="Lx">person</text>
<text x="190" y="435" text-anchor="middle" class="Ls">hënë</text>
<text x="250" y="435" text-anchor="middle" class="Lx">moon</text>
<text x="320" y="435" text-anchor="middle" class="Ls">kujtim</text>
<text x="380" y="435" text-anchor="middle" class="Lx">memory</text>
<text x="60" y="445" text-anchor="middle" class="Ls">e ardhmja</text>
<text x="120" y="445" text-anchor="middle" class="Lx">future</text>
<text x="190" y="445" text-anchor="middle" class="Ls">liri</text>
<text x="250" y="445" text-anchor="middle" class="Lx">freedom</text>
<text x="320" y="445" text-anchor="middle" class="Ls">zemër</text>
<text x="380" y="445" text-anchor="middle" class="Lx">heart</text>
<text x="60" y="455" text-anchor="middle" class="Ls">dashuri</text>
<text x="120" y="455" text-anchor="middle" class="Lx">love</text>
<text x="190" y="455" text-anchor="middle" class="Ls">botë</text>
<text x="250" y="455" text-anchor="middle" class="Lx">world</text>
<text x="320" y="455" text-anchor="middle" class="Ls">jetë</text>
<text x="380" y="455" text-anchor="middle" class="Lx">life</text>
<line x1="20" y1="470" x2="460" y2="470" stroke="black" stroke-width="0.3"/>
<text x="240" y="478" text-anchor="middle" class="H">— GRAMMAR BRIDGE — AN ISOLATED BRANCH —</text>
<text x="240" y="488" text-anchor="middle" class="Ls">Albanian has no close relatives in Indo-European. It shares the same ancestor but diverged early and completely.</text>
<text x="240" y="497" text-anchor="middle" class="Lx">Many Greek loanwords in Albanian: është (is) ← Greek εστί. Millennia of close geographic contact.</text>
<line x1="20" y1="625" x2="460" y2="625" stroke="black" stroke-width="0.3"/>
<text x="240" y="620" text-anchor="middle" class="M">PLATE 21C ALT · Greek / Albanian · GRAMMAR · CC BY-SA 4.0 · REMEMBERFORWARD.ORG</text>
<line x1="20" y1="633" x2="460" y2="633" stroke="black" stroke-width="0.3"/>
<text x="240" y="648" text-anchor="middle" class="Fb">THIS IS A PATIENT MESSAGE. IT WAS MADE FOR YOU, FREELY, BY PEOPLE WHO REMEMBERED FORWARD.</text>
<text x="240" y="663" text-anchor="middle" class="F">BUY IT · BUILD IT · BURY IT · FOR SOMEONE YOU WILL NEVER MEET</text>
</svg>
