<?xml version="1.0" encoding="UTF-8"?>
<svg xmlns="http://www.w3.org/2000/svg" viewBox="0 0 480 680" width="480" height="680">
<style>
  text { font-family: Georgia, serif; }
  .T{font-size:12px;font-weight:bold;letter-spacing:2px}
  .S{font-size:7px;letter-spacing:1.5px}
  .H{font-size:6.5px;font-weight:bold;letter-spacing:2.5px}
  .L{font-size:7px} .Ls{font-size:6px} .Lx{font-size:5.5px}
  .M{font-size:6px;letter-spacing:1px}
  .F{font-size:7px;font-style:italic}
  .Fb{font-size:7.5px;font-weight:bold}
</style>
<rect x="0" y="0" width="480" height="680" fill="white"/>
<rect x="6" y="6" width="468" height="668" fill="none" stroke="black" stroke-width="3"/>
<rect x="12" y="12" width="456" height="656" fill="none" stroke="black" stroke-width="0.75"/>
<text x="240" y="32" text-anchor="middle" class="T" >LINGALA — GRAMMAR · VOCABULARY</text>
<text x="240" y="50" text-anchor="middle" class="S" >SERIES 33C OF 60 · REMEMBER FORWARD</text>
<line x1="20" y1="58" x2="460" y2="58" stroke="black" stroke-width="0.3"/>
<text x="240" y="68" text-anchor="middle" class="H" >— SVO — BANTU NOUN CLASSES — TONAL ASPECT —</text>
<text x="240" y="79" text-anchor="middle" class="L" >Lingala is SVO. Verb agreement with noun class. Tense/aspect marked by verb prefixes and tone.</text>
<text x="240" y="89" text-anchor="middle" class="Ls" >Subject prefixes agree with noun class: a- (class 1 sg), ba- (class 2 pl), e- (class 7), etc.</text>
<line x1="20" y1="97" x2="460" y2="97" stroke="black" stroke-width="0.3"/>
<text x="240" y="106" text-anchor="middle" class="H" >— VERB CONJUGATION — kosala "to do/work" —</text>
<text x="55" y="116" text-anchor="middle" class="Lx" >Subject</text>
<text x="130" y="116" text-anchor="middle" class="Lx" >Pronoun</text>
<text x="260" y="116" text-anchor="middle" class="Lx" >Past form</text>
<text x="390" y="116" text-anchor="middle" class="Lx" >Gloss</text>
<text x="55" y="125" text-anchor="middle" class="Lx" >Ngái</text>
<text x="130" y="125" text-anchor="middle" class="Lx" >I</text>
<text x="260" y="125" text-anchor="middle" class="Ls" >nasali</text>
<text x="390" y="125" text-anchor="middle" class="Lx" >I did</text>
<text x="55" y="136" text-anchor="middle" class="Lx" >Yo</text>
<text x="130" y="136" text-anchor="middle" class="Lx" >you sg</text>
<text x="260" y="136" text-anchor="middle" class="Ls" >osali</text>
<text x="390" y="136" text-anchor="middle" class="Lx" >you did</text>
<text x="55" y="147" text-anchor="middle" class="Lx" >Ye</text>
<text x="130" y="147" text-anchor="middle" class="Lx" >he/she</text>
<text x="260" y="147" text-anchor="middle" class="Ls" >asali</text>
<text x="390" y="147" text-anchor="middle" class="Lx" >he/she did</text>
<text x="55" y="158" text-anchor="middle" class="Lx" >Biso</text>
<text x="130" y="158" text-anchor="middle" class="Lx" >we</text>
<text x="260" y="158" text-anchor="middle" class="Ls" >tosali</text>
<text x="390" y="158" text-anchor="middle" class="Lx" >we did</text>
<text x="55" y="169" text-anchor="middle" class="Lx" >Bino</text>
<text x="130" y="169" text-anchor="middle" class="Lx" >you pl</text>
<text x="260" y="169" text-anchor="middle" class="Ls" >bosali</text>
<text x="390" y="169" text-anchor="middle" class="Lx" >you pl did</text>
<text x="55" y="180" text-anchor="middle" class="Lx" >Bango</text>
<text x="130" y="180" text-anchor="middle" class="Lx" >they</text>
<text x="260" y="180" text-anchor="middle" class="Ls" >basali</text>
<text x="390" y="180" text-anchor="middle" class="Lx" >they did</text>
<text x="240" y="197" text-anchor="middle" class="Ls" >Present: na-sala (I work) · Future: na-ko-sala (I will work) · Neg: na-sala-ki te (I did not work)</text>
<line x1="20" y1="205" x2="460" y2="205" stroke="black" stroke-width="0.3"/>
<text x="240" y="214" text-anchor="middle" class="H" >— NOUN AGREEMENT —</text>
<text x="240" y="225" text-anchor="middle" class="Ls" >All adjectives, demonstratives, and verbs agree with the noun class prefix.</text>
<text x="240" y="234" text-anchor="middle" class="Ls" >moto mokóló (1 elder person) · bato bakóló (2/pl elder people) · class changes prefix throughout.</text>
<line x1="20" y1="242" x2="460" y2="242" stroke="black" stroke-width="0.3"/>
<text x="240" y="251" text-anchor="middle" class="H" >— CORE VOCABULARY — 25 WORDS —</text>
<text x="50" y="261" text-anchor="middle" class="Ls" >eyó / té</text>
<text x="185" y="261" text-anchor="middle" class="Lx" >yes / no</text>
<text x="50" y="271" text-anchor="middle" class="Ls" >ngái / yo</text>
<text x="185" y="271" text-anchor="middle" class="Lx" >I / you</text>
<text x="50" y="281" text-anchor="middle" class="Ls" >oyo / wana</text>
<text x="185" y="281" text-anchor="middle" class="Lx" >this / that</text>
<text x="50" y="291" text-anchor="middle" class="Ls" >wapi?</text>
<text x="185" y="291" text-anchor="middle" class="Lx" >where</text>
<text x="50" y="301" text-anchor="middle" class="Ls" >nini?</text>
<text x="185" y="301" text-anchor="middle" class="Lx" >what</text>
<text x="50" y="311" text-anchor="middle" class="Ls" >nani?</text>
<text x="185" y="311" text-anchor="middle" class="Lx" >who</text>
<text x="50" y="321" text-anchor="middle" class="Ls" >ntango nini?</text>
<text x="185" y="321" text-anchor="middle" class="Lx" >when</text>
<text x="50" y="331" text-anchor="middle" class="Ls" >pona nini?</text>
<text x="185" y="331" text-anchor="middle" class="Lx" >why</text>
<text x="50" y="341" text-anchor="middle" class="Ls" >mai</text>
<text x="185" y="341" text-anchor="middle" class="Lx" >water</text>
<text x="50" y="351" text-anchor="middle" class="Ls" >moto (fire)</text>
<text x="185" y="351" text-anchor="middle" class="Lx" >fire</text>
<text x="50" y="361" text-anchor="middle" class="Ls" >mabélé ya mwási</text>
<text x="185" y="361" text-anchor="middle" class="Lx" >earth/ground</text>
<text x="50" y="371" text-anchor="middle" class="Ls" >moto (person)</text>
<text x="185" y="371" text-anchor="middle" class="Lx" >person</text>
<text x="50" y="381" text-anchor="middle" class="Ls" >buku</text>
<text x="185" y="381" text-anchor="middle" class="Lx" >book</text>
<text x="280" y="261" text-anchor="middle" class="Ls" >ntango</text>
<text x="415" y="261" text-anchor="middle" class="Lx" >time</text>
<text x="280" y="271" text-anchor="middle" class="Ls" >ngondé</text>
<text x="415" y="271" text-anchor="middle" class="Lx" >moon</text>
<text x="280" y="281" text-anchor="middle" class="Ls" >nyóté</text>
<text x="415" y="281" text-anchor="middle" class="Lx" >star</text>
<text x="280" y="291" text-anchor="middle" class="Ls" >motó ya pemó</text>
<text x="415" y="291" text-anchor="middle" class="Lx" >heart/mind</text>
<text x="280" y="301" text-anchor="middle" class="Ls" >bolingo</text>
<text x="415" y="301" text-anchor="middle" class="Lx" >love</text>
<text x="280" y="311" text-anchor="middle" class="Ls" >bonsomi</text>
<text x="415" y="311" text-anchor="middle" class="Lx" >freedom</text>
<text x="280" y="321" text-anchor="middle" class="Ls" >makanisi</text>
<text x="415" y="321" text-anchor="middle" class="Lx" >memory/thought</text>
<text x="280" y="331" text-anchor="middle" class="Ls" >lobi / mikeó</text>
<text x="415" y="331" text-anchor="middle" class="Lx" >tomorrow / future</text>
<text x="280" y="341" text-anchor="middle" class="Ls" >dúnya</text>
<text x="415" y="341" text-anchor="middle" class="Lx" >world</text>
<text x="280" y="351" text-anchor="middle" class="Ls" >malàmu / mabé</text>
<text x="415" y="351" text-anchor="middle" class="Lx" >good / bad</text>
<text x="280" y="361" text-anchor="middle" class="Ls" >nyonso</text>
<text x="415" y="361" text-anchor="middle" class="Lx" >everything</text>
<text x="280" y="371" text-anchor="middle" class="Ls" >bomoi</text>
<text x="415" y="371" text-anchor="middle" class="Lx" >life</text>
<line x1="20" y1="398" x2="460" y2="398" stroke="black" stroke-width="0.3"/>
<text x="240" y="407" text-anchor="middle" class="H" >— URBAN LINGALA —</text>
<text x="240" y="418" text-anchor="middle" class="Ls" >Urban Kinshasa/Brazzaville Lingala has absorbed many French words: foló (floor), tabló (table).</text>
<text x="240" y="427" text-anchor="middle" class="Ls" >Also creative coinages: kobeta nótà (to take notes, lit. "to hit notes"), mwaísé (baby, from French moi aussi).</text>
<text x="240" y="436" text-anchor="middle" class="Ls" >Lingala is the language of Congolese rumba music (soukous) — hugely influential across Africa.</text>
<line x1="20" y1="625" x2="460" y2="625" stroke="black" stroke-width="0.3"/>
<text x="240" y="620" text-anchor="middle" class="M" >SERIES 33 · LINGALA · PLATE C · GRAMMAR · CC BY-SA 4.0 · REMEMBERFORWARD.ORG</text>
<line x1="20" y1="633" x2="460" y2="633" stroke="black" stroke-width="0.3"/>
<text x="240" y="648" text-anchor="middle" class="Fb" >THIS IS A PATIENT MESSAGE. IT WAS MADE FOR YOU, FREELY, BY PEOPLE WHO REMEMBERED FORWARD.</text>
<text x="240" y="663" text-anchor="middle" class="F" >BUY IT · BUILD IT · BURY IT · FOR SOMEONE YOU WILL NEVER MEET</text>
</svg>
