<?xml version="1.0" encoding="UTF-8"?>
<svg xmlns="http://www.w3.org/2000/svg" viewBox="0 0 480 680" width="480" height="680">
<style>
  text { font-family: Georgia, serif; }
  .T  { font-size:12px; font-weight:bold; letter-spacing:2px; }
  .S  { font-size:7px; letter-spacing:1.5px; }
  .H  { font-size:6.5px; font-weight:bold; letter-spacing:2.5px; }
  .L  { font-size:7px; }
  .Ls { font-size:6px; }
  .Lx { font-size:5.5px; }
  .M  { font-size:6px; letter-spacing:1px; }
  .F  { font-size:7px; font-style:italic; }
  .Fb { font-size:7.5px; font-weight:bold; }
</style>
<rect x="0" y="0" width="480" height="680" fill="white"/>
<rect x="6" y="6" width="468" height="668" fill="none" stroke="black" stroke-width="3"/>
<rect x="12" y="12" width="456" height="656" fill="none" stroke="black" stroke-width="0.75"/>
<text x="240" y="32" text-anchor="middle" class="T" >SPANISH — GRAMMAR · VOCABULARY</text>
<text x="240" y="50" text-anchor="middle" class="S" >SERIES 26C OF 60 · REMEMBER FORWARD</text>
<line x1="20" y1="58" x2="460" y2="58" stroke="black" stroke-width="0.3"/>
<text x="240" y="68" text-anchor="middle" class="H" >— SVO LANGUAGE — FLEXIBLE ORDER, NULL SUBJECT —</text>
<text x="240" y="79" text-anchor="middle" class="L" >Spanish is SVO but highly flexible — any constituent can front for emphasis or topic.</text>
<text x="240" y="89" text-anchor="middle" class="Ls" >NULL SUBJECT: subject pronouns optional — verb ending marks person/number: (yo) hablo = "I speak".</text>
<text x="240" y="98" text-anchor="middle" class="Ls" >Two genders: masculine (-o) and feminine (-a). Adjectives agree: libro rojo / mesa roja.</text>
<line x1="20" y1="106" x2="460" y2="106" stroke="black" stroke-width="0.3"/>
<text x="240" y="115" text-anchor="middle" class="H" >— VERB CONJUGATION — hablar "to speak" (regular -ar) —</text>
<text x="105" y="125" text-anchor="middle" class="Lx" >Present Indicative</text>
<text x="355" y="125" text-anchor="middle" class="Lx" >Preterite (simple past)</text>
<text x="45" y="134" text-anchor="middle" class="Lx" >yo</text>
<text x="115" y="134" text-anchor="middle" class="Ls" >hablo</text>
<text x="200" y="134" text-anchor="middle" class="Lx" >I speak</text>
<text x="280" y="134" text-anchor="middle" class="Lx" >yo</text>
<text x="355" y="134" text-anchor="middle" class="Ls" >hablé</text>
<text x="440" y="134" text-anchor="start" class="Lx" >I spoke</text>
<text x="45" y="145" text-anchor="middle" class="Lx" >tú</text>
<text x="115" y="145" text-anchor="middle" class="Ls" >hablas</text>
<text x="200" y="145" text-anchor="middle" class="Lx" >you speak</text>
<text x="280" y="145" text-anchor="middle" class="Lx" >tú</text>
<text x="355" y="145" text-anchor="middle" class="Ls" >hablaste</text>
<text x="440" y="145" text-anchor="start" class="Lx" >you spoke</text>
<text x="45" y="156" text-anchor="middle" class="Lx" >él/ella</text>
<text x="115" y="156" text-anchor="middle" class="Ls" >habla</text>
<text x="200" y="156" text-anchor="middle" class="Lx" >he/she speaks</text>
<text x="280" y="156" text-anchor="middle" class="Lx" >él/ella</text>
<text x="355" y="156" text-anchor="middle" class="Ls" >habló</text>
<text x="440" y="156" text-anchor="start" class="Lx" >he/she spoke</text>
<text x="45" y="167" text-anchor="middle" class="Lx" >nosotros</text>
<text x="115" y="167" text-anchor="middle" class="Ls" >hablamos</text>
<text x="200" y="167" text-anchor="middle" class="Lx" >we speak</text>
<text x="280" y="167" text-anchor="middle" class="Lx" >nosotros</text>
<text x="355" y="167" text-anchor="middle" class="Ls" >hablamos</text>
<text x="440" y="167" text-anchor="start" class="Lx" >we spoke</text>
<text x="45" y="178" text-anchor="middle" class="Lx" >vosotros</text>
<text x="115" y="178" text-anchor="middle" class="Ls" >habláis</text>
<text x="200" y="178" text-anchor="middle" class="Lx" >you pl. (Spain)</text>
<text x="280" y="178" text-anchor="middle" class="Lx" >vosotros</text>
<text x="355" y="178" text-anchor="middle" class="Ls" >hablasteis</text>
<text x="440" y="178" text-anchor="start" class="Lx" >you pl.</text>
<text x="45" y="189" text-anchor="middle" class="Lx" >ellos</text>
<text x="115" y="189" text-anchor="middle" class="Ls" >hablan</text>
<text x="200" y="189" text-anchor="middle" class="Lx" >they speak</text>
<text x="280" y="189" text-anchor="middle" class="Lx" >ellos</text>
<text x="355" y="189" text-anchor="middle" class="Ls" >hablaron</text>
<text x="440" y="189" text-anchor="start" class="Lx" >they spoke</text>
<text x="240" y="208" text-anchor="middle" class="Ls" >Subjunctive: hable, hables, hable... — used for doubt, wishes, emotions, hypotheticals.</text>
<text x="240" y="217" text-anchor="middle" class="Ls" >Ser vs Estar: both mean "to be" — ser = permanent identity; estar = state/location/condition.</text>
<line x1="20" y1="225" x2="460" y2="225" stroke="black" stroke-width="0.3"/>
<text x="240" y="234" text-anchor="middle" class="H" >— OBJECT PRONOUNS AND REFLEXIVES —</text>
<text x="240" y="245" text-anchor="middle" class="Ls" >Direct: me, te, lo/la, nos, os, los/las — Lo veo "I see him/it"</text>
<text x="240" y="254" text-anchor="middle" class="Ls" >Indirect: me, te, le, nos, os, les — Le doy el libro "I give him the book"</text>
<text x="240" y="263" text-anchor="middle" class="Ls" >Reflexive: me, te, se, nos, os, se — Se lava "he/she washes (him/herself)"</text>
<text x="240" y="272" text-anchor="middle" class="Ls" >Clitic climbing: with infinitives — Quiero verlo OR Lo quiero ver (both = "I want to see it")</text>
<line x1="20" y1="280" x2="460" y2="280" stroke="black" stroke-width="0.3"/>
<text x="240" y="289" text-anchor="middle" class="H" >— CORE VOCABULARY — 25 WORDS —</text>
<text x="50" y="299" text-anchor="middle" class="Ls" >sí / no</text>
<text x="175" y="299" text-anchor="middle" class="Lx" >yes / no</text>
<text x="50" y="309" text-anchor="middle" class="Ls" >yo / tú</text>
<text x="175" y="309" text-anchor="middle" class="Lx" >I / you</text>
<text x="50" y="319" text-anchor="middle" class="Ls" >esto / eso</text>
<text x="175" y="319" text-anchor="middle" class="Lx" >this / that</text>
<text x="50" y="329" text-anchor="middle" class="Ls" >¿dónde?</text>
<text x="175" y="329" text-anchor="middle" class="Lx" >where</text>
<text x="50" y="339" text-anchor="middle" class="Ls" >¿qué?</text>
<text x="175" y="339" text-anchor="middle" class="Lx" >what</text>
<text x="50" y="349" text-anchor="middle" class="Ls" >¿quién?</text>
<text x="175" y="349" text-anchor="middle" class="Lx" >who</text>
<text x="50" y="359" text-anchor="middle" class="Ls" >¿cuándo?</text>
<text x="175" y="359" text-anchor="middle" class="Lx" >when</text>
<text x="50" y="369" text-anchor="middle" class="Ls" >¿por qué?</text>
<text x="175" y="369" text-anchor="middle" class="Lx" >why</text>
<text x="50" y="379" text-anchor="middle" class="Ls" >agua</text>
<text x="175" y="379" text-anchor="middle" class="Lx" >water</text>
<text x="50" y="389" text-anchor="middle" class="Ls" >fuego</text>
<text x="175" y="389" text-anchor="middle" class="Lx" >fire</text>
<text x="50" y="399" text-anchor="middle" class="Ls" >tierra</text>
<text x="175" y="399" text-anchor="middle" class="Lx" >earth</text>
<text x="50" y="409" text-anchor="middle" class="Ls" >persona</text>
<text x="175" y="409" text-anchor="middle" class="Lx" >person</text>
<text x="50" y="419" text-anchor="middle" class="Ls" >libro</text>
<text x="175" y="419" text-anchor="middle" class="Lx" >book</text>
<text x="280" y="299" text-anchor="middle" class="Ls" >tiempo</text>
<text x="405" y="299" text-anchor="middle" class="Lx" >time / weather</text>
<text x="280" y="309" text-anchor="middle" class="Ls" >luna</text>
<text x="405" y="309" text-anchor="middle" class="Lx" >moon</text>
<text x="280" y="319" text-anchor="middle" class="Ls" >estrella</text>
<text x="405" y="319" text-anchor="middle" class="Lx" >star</text>
<text x="280" y="329" text-anchor="middle" class="Ls" >corazón</text>
<text x="405" y="329" text-anchor="middle" class="Lx" >heart</text>
<text x="280" y="339" text-anchor="middle" class="Ls" >amor</text>
<text x="405" y="339" text-anchor="middle" class="Lx" >love</text>
<text x="280" y="349" text-anchor="middle" class="Ls" >libertad</text>
<text x="405" y="349" text-anchor="middle" class="Lx" >freedom</text>
<text x="280" y="359" text-anchor="middle" class="Ls" >memoria</text>
<text x="405" y="359" text-anchor="middle" class="Lx" >memory</text>
<text x="280" y="369" text-anchor="middle" class="Ls" >futuro</text>
<text x="405" y="369" text-anchor="middle" class="Lx" >future</text>
<text x="280" y="379" text-anchor="middle" class="Ls" >mundo</text>
<text x="405" y="379" text-anchor="middle" class="Lx" >world</text>
<text x="280" y="389" text-anchor="middle" class="Ls" >bueno / malo</text>
<text x="405" y="389" text-anchor="middle" class="Lx" >good / bad</text>
<text x="280" y="399" text-anchor="middle" class="Ls" >todo</text>
<text x="405" y="399" text-anchor="middle" class="Lx" >everything</text>
<text x="280" y="409" text-anchor="middle" class="Ls" >vida</text>
<text x="405" y="409" text-anchor="middle" class="Lx" >life</text>
<line x1="20" y1="430" x2="460" y2="430" stroke="black" stroke-width="0.3"/>
<text x="240" y="439" text-anchor="middle" class="H" >— THE TWO "TO BE" VERBS — SER AND ESTAR —</text>
<text x="100" y="449" text-anchor="middle" class="Lx" >SER (permanent / identity)</text>
<text x="360" y="449" text-anchor="middle" class="Lx" >ESTAR (state / position)</text>
<text x="40" y="458" text-anchor="start" class="Ls" >Mi madre es médica</text>
<text x="40" y="465" text-anchor="start" class="Lx" >My mother is a doctor (identity)</text>
<text x="255" y="458" text-anchor="start" class="Ls" >Estoy cansado</text>
<text x="255" y="465" text-anchor="start" class="Lx" >I am tired (state)</text>
<text x="40" y="472" text-anchor="start" class="Ls" >El cielo es azul</text>
<text x="40" y="479" text-anchor="start" class="Lx" >The sky is blue (inherent)</text>
<text x="255" y="472" text-anchor="start" class="Ls" >El libro está en la mesa</text>
<text x="255" y="479" text-anchor="start" class="Lx" >The book is on the table (position)</text>
<text x="40" y="486" text-anchor="start" class="Ls" >La fiesta es en Madrid</text>
<text x="40" y="493" text-anchor="start" class="Lx" >The party is in Madrid (event location)</text>
<text x="255" y="486" text-anchor="start" class="Ls" >Está muerto</text>
<text x="255" y="493" text-anchor="start" class="Lx" >He is dead (resulting state)</text>
<line x1="20" y1="508" x2="460" y2="508" stroke="black" stroke-width="0.3"/>
<text x="240" y="517" text-anchor="middle" class="H" >— TENSE SYSTEM OVERVIEW —</text>
<text x="240" y="528" text-anchor="middle" class="Ls" >Spanish has 14 indicative tenses/moods + 6 subjunctive forms + imperative.</text>
<text x="240" y="537" text-anchor="middle" class="Ls" >Key distinction: pretérito indefinido (completed) vs imperfecto (ongoing/habitual in past).</text>
<text x="240" y="546" text-anchor="middle" class="Ls" >Hablé (I spoke once, done) vs hablaba (I was speaking / I used to speak).</text>
<text x="240" y="555" text-anchor="middle" class="Ls" >Future can be expressed with ir a + infinitive: voy a hablar "I am going to speak".</text>
<line x1="20" y1="625" x2="460" y2="625" stroke="black" stroke-width="0.3"/>
<text x="240" y="620" text-anchor="middle" class="M" >SERIES 26 · SPANISH · PLATE C · GRAMMAR · CC BY-SA 4.0 · REMEMBERFORWARD.ORG</text>
<line x1="20" y1="633" x2="460" y2="633" stroke="black" stroke-width="0.3"/>
<text x="240" y="648" text-anchor="middle" class="Fb" >THIS IS A PATIENT MESSAGE. IT WAS MADE FOR YOU, FREELY, BY PEOPLE WHO REMEMBERED FORWARD.</text>
<text x="240" y="663" text-anchor="middle" class="F" >BUY IT · BUILD IT · BURY IT · FOR SOMEONE YOU WILL NEVER MEET</text>
</svg>
