<?xml version="1.0" encoding="UTF-8"?>
<svg xmlns="http://www.w3.org/2000/svg" viewBox="0 0 480 680" width="480" height="680">
<style>
  text{font-family:Georgia,serif;}
  .T{font-size:11px;font-weight:bold;letter-spacing:1.5px}
  .S{font-size:6.5px;letter-spacing:1.5px}
  .H{font-size:6.5px;font-weight:bold;letter-spacing:2.5px}
  .Hb{font-size:7px;font-weight:bold;letter-spacing:2px}
  .L{font-size:7px} .Ls{font-size:6px} .Lx{font-size:5.5px}
  .La{font-size:14px} .Lam{font-size:11px} .Las{font-size:9px}
  .Lg{font-size:12px}
  .M{font-size:6px;letter-spacing:1px}
  .F{font-size:7px;font-style:italic}
  .Fb{font-size:7.5px;font-weight:bold}
</style>
<rect x="0" y="0" width="480" height="680" fill="white"/>
<rect x="6" y="6" width="468" height="668" fill="none" stroke="black" stroke-width="3"/>
<rect x="12" y="12" width="456" height="656" fill="none" stroke="black" stroke-width="0.75"/>
<text x="240" y="30" text-anchor="middle" class="T">ARABIC + GREEK — SCRIPT · WRITING SYSTEMS</text>
<text x="240" y="46" text-anchor="middle" class="S">ALT DRAFT · SERIES 13A · REMEMBER FORWARD</text>
<line x1="20" y1="54" x2="460" y2="54" stroke="black" stroke-width="0.3"/>
<text x="240" y="63" text-anchor="middle" class="H">— ARABIC — ABJAD · 28 LETTERS · RIGHT TO LEFT —</text>
<text x="240" y="73" text-anchor="middle" class="Ls">Consonant-only script. Vowels marked optionally with harakat (diacritics). 4 positional forms per letter.</text>
<text x="240" y="82" text-anchor="middle" class="Lx">Cursive: letters join. 22 letters connect on both sides; 6 connect only on right (break word).</text>
<line x1="20" y1="89" x2="460" y2="89" stroke="black" stroke-width="0.3"/>
<text x="240" y="97" text-anchor="middle" class="H">— THE 28 ARABIC LETTERS — ISOLATED FORM (READ RIGHT TO LEFT) —</text>
<text x="40" y="110" text-anchor="middle" class="La">ا</text>
<text x="40" y="122" text-anchor="middle" class="Lx">Alif</text>
<text x="40" y="130" text-anchor="middle" class="Lx">ā/ˀ</text>
<text x="100" y="110" text-anchor="middle" class="La">ب</text>
<text x="100" y="122" text-anchor="middle" class="Lx">Ba</text>
<text x="100" y="130" text-anchor="middle" class="Lx">/b/</text>
<text x="160" y="110" text-anchor="middle" class="La">ت</text>
<text x="160" y="122" text-anchor="middle" class="Lx">Ta</text>
<text x="160" y="130" text-anchor="middle" class="Lx">/t/</text>
<text x="220" y="110" text-anchor="middle" class="La">ث</text>
<text x="220" y="122" text-anchor="middle" class="Lx">Tha</text>
<text x="220" y="130" text-anchor="middle" class="Lx">/θ/</text>
<text x="280" y="110" text-anchor="middle" class="La">ج</text>
<text x="280" y="122" text-anchor="middle" class="Lx">Jim</text>
<text x="280" y="130" text-anchor="middle" class="Lx">/dʒ/</text>
<text x="340" y="110" text-anchor="middle" class="La">ح</text>
<text x="340" y="122" text-anchor="middle" class="Lx">Ha</text>
<text x="340" y="130" text-anchor="middle" class="Lx">/ḥ/</text>
<text x="400" y="110" text-anchor="middle" class="La">خ</text>
<text x="400" y="122" text-anchor="middle" class="Lx">Kha</text>
<text x="400" y="130" text-anchor="middle" class="Lx">/x/</text>
<text x="40" y="138" text-anchor="middle" class="La">د</text>
<text x="40" y="150" text-anchor="middle" class="Lx">Dal</text>
<text x="40" y="158" text-anchor="middle" class="Lx">/d/</text>
<text x="100" y="138" text-anchor="middle" class="La">ذ</text>
<text x="100" y="150" text-anchor="middle" class="Lx">Dhal</text>
<text x="100" y="158" text-anchor="middle" class="Lx">/ð/</text>
<text x="160" y="138" text-anchor="middle" class="La">ر</text>
<text x="160" y="150" text-anchor="middle" class="Lx">Ra</text>
<text x="160" y="158" text-anchor="middle" class="Lx">/r/</text>
<text x="220" y="138" text-anchor="middle" class="La">ز</text>
<text x="220" y="150" text-anchor="middle" class="Lx">Zay</text>
<text x="220" y="158" text-anchor="middle" class="Lx">/z/</text>
<text x="280" y="138" text-anchor="middle" class="La">س</text>
<text x="280" y="150" text-anchor="middle" class="Lx">Sin</text>
<text x="280" y="158" text-anchor="middle" class="Lx">/s/</text>
<text x="340" y="138" text-anchor="middle" class="La">ش</text>
<text x="340" y="150" text-anchor="middle" class="Lx">Shin</text>
<text x="340" y="158" text-anchor="middle" class="Lx">/ʃ/</text>
<text x="400" y="138" text-anchor="middle" class="La">ص</text>
<text x="400" y="150" text-anchor="middle" class="Lx">Sad</text>
<text x="400" y="158" text-anchor="middle" class="Lx">/sˤ/</text>
<text x="40" y="166" text-anchor="middle" class="La">ض</text>
<text x="40" y="178" text-anchor="middle" class="Lx">Dad</text>
<text x="40" y="186" text-anchor="middle" class="Lx">/dˤ/</text>
<text x="100" y="166" text-anchor="middle" class="La">ط</text>
<text x="100" y="178" text-anchor="middle" class="Lx">Tta</text>
<text x="100" y="186" text-anchor="middle" class="Lx">/tˤ/</text>
<text x="160" y="166" text-anchor="middle" class="La">ظ</text>
<text x="160" y="178" text-anchor="middle" class="Lx">Dha</text>
<text x="160" y="186" text-anchor="middle" class="Lx">/ðˤ/</text>
<text x="220" y="166" text-anchor="middle" class="La">ع</text>
<text x="220" y="178" text-anchor="middle" class="Lx">Ayn</text>
<text x="220" y="186" text-anchor="middle" class="Lx">/ʿ/</text>
<text x="280" y="166" text-anchor="middle" class="La">غ</text>
<text x="280" y="178" text-anchor="middle" class="Lx">Ghayn</text>
<text x="280" y="186" text-anchor="middle" class="Lx">/ɣ/</text>
<text x="340" y="166" text-anchor="middle" class="La">ف</text>
<text x="340" y="178" text-anchor="middle" class="Lx">Fa</text>
<text x="340" y="186" text-anchor="middle" class="Lx">/f/</text>
<text x="400" y="166" text-anchor="middle" class="La">ق</text>
<text x="400" y="178" text-anchor="middle" class="Lx">Qaf</text>
<text x="400" y="186" text-anchor="middle" class="Lx">/q/</text>
<text x="40" y="194" text-anchor="middle" class="La">ك</text>
<text x="40" y="206" text-anchor="middle" class="Lx">Kaf</text>
<text x="40" y="214" text-anchor="middle" class="Lx">/k/</text>
<text x="100" y="194" text-anchor="middle" class="La">ل</text>
<text x="100" y="206" text-anchor="middle" class="Lx">Lam</text>
<text x="100" y="214" text-anchor="middle" class="Lx">/l/</text>
<text x="160" y="194" text-anchor="middle" class="La">م</text>
<text x="160" y="206" text-anchor="middle" class="Lx">Mim</text>
<text x="160" y="214" text-anchor="middle" class="Lx">/m/</text>
<text x="220" y="194" text-anchor="middle" class="La">ن</text>
<text x="220" y="206" text-anchor="middle" class="Lx">Nun</text>
<text x="220" y="214" text-anchor="middle" class="Lx">/n/</text>
<text x="280" y="194" text-anchor="middle" class="La">ه</text>
<text x="280" y="206" text-anchor="middle" class="Lx">Ha</text>
<text x="280" y="214" text-anchor="middle" class="Lx">/h/</text>
<text x="340" y="194" text-anchor="middle" class="La">و</text>
<text x="340" y="206" text-anchor="middle" class="Lx">Waw</text>
<text x="340" y="214" text-anchor="middle" class="Lx">/w/ū</text>
<text x="400" y="194" text-anchor="middle" class="La">ي</text>
<text x="400" y="206" text-anchor="middle" class="Lx">Ya</text>
<text x="400" y="214" text-anchor="middle" class="Lx">/j/ī</text>
<line x1="20" y1="228" x2="460" y2="228" stroke="black" stroke-width="0.3"/>
<text x="240" y="236" text-anchor="middle" class="H">— HARAKAT — OPTIONAL VOWEL MARKS —</text>
<text x="240" y="246" text-anchor="middle" class="Ls">Fatḥa (َ) = /a/ · Kasra (ُ) = /i/ · Ẍamma (ُ) = /u/ · Sukun = no vowel</text>
<text x="240" y="255" text-anchor="middle" class="Lx">Long vowels: ا Alif = /ā/ · ي Ya = /ī/ · و Waw = /ū/. Script reads right to left.</text>
<text x="240" y="264" text-anchor="middle" class="Lx">The Quran preserves Classical Arabic exactly as recited in 650 CE — the standard reference for script.</text>
<line x1="20" y1="276" x2="460" y2="276" stroke="black" stroke-width="1.5"/>
<rect x="20" y="279" width="440" height="14" fill="black"/>
<text x="240" y="289" text-anchor="middle" class="Hb" fill="white">GREEK (ELLINIKΑ) · SCRIPT · 24-LETTER ALPHABET</text>
<line x1="20" y1="293" x2="460" y2="293" stroke="black" stroke-width="0.3"/>
<text x="240" y="308" text-anchor="middle" class="Ls">Greek alphabet: 24 letters, left-to-right. Ancestor of Latin, Cyrillic, and Coptic scripts.</text>
<text x="240" y="317" text-anchor="middle" class="Lx">Adopted from Phoenician ~800 BCE. Greeks added vowel letters — world’s first complete vowel alphabet.</text>
<line x1="20" y1="324" x2="460" y2="324" stroke="black" stroke-width="0.3"/>
<text x="240" y="332" text-anchor="middle" class="H">— THE 24 GREEK LETTERS — UPPER · LOWER · NAME · SOUND —</text>
<text x="50" y="344" text-anchor="middle" class="Lg">Α</text>
<text x="70" y="344" text-anchor="middle" class="Lg">α</text>
<text x="60" y="355" text-anchor="middle" class="Lx">Alpha</text>
<text x="60" y="363" text-anchor="middle" class="Lx">/a/</text>
<text x="160" y="344" text-anchor="middle" class="Lg">Β</text>
<text x="180" y="344" text-anchor="middle" class="Lg">β</text>
<text x="170" y="355" text-anchor="middle" class="Lx">Beta</text>
<text x="170" y="363" text-anchor="middle" class="Lx">/v/</text>
<text x="270" y="344" text-anchor="middle" class="Lg">Γ</text>
<text x="290" y="344" text-anchor="middle" class="Lg">γ</text>
<text x="280" y="355" text-anchor="middle" class="Lx">Gamma</text>
<text x="280" y="363" text-anchor="middle" class="Lx">/ɣ/</text>
<text x="380" y="344" text-anchor="middle" class="Lg">Δ</text>
<text x="400" y="344" text-anchor="middle" class="Lg">δ</text>
<text x="390" y="355" text-anchor="middle" class="Lx">Delta</text>
<text x="390" y="363" text-anchor="middle" class="Lx">/ð/</text>
<text x="50" y="368" text-anchor="middle" class="Lg">Ε</text>
<text x="70" y="368" text-anchor="middle" class="Lg">ε</text>
<text x="60" y="379" text-anchor="middle" class="Lx">Epsilon</text>
<text x="60" y="387" text-anchor="middle" class="Lx">/e/</text>
<text x="160" y="368" text-anchor="middle" class="Lg">Ζ</text>
<text x="180" y="368" text-anchor="middle" class="Lg">ζ</text>
<text x="170" y="379" text-anchor="middle" class="Lx">Zeta</text>
<text x="170" y="387" text-anchor="middle" class="Lx">/z/</text>
<text x="270" y="368" text-anchor="middle" class="Lg">Η</text>
<text x="290" y="368" text-anchor="middle" class="Lg">η</text>
<text x="280" y="379" text-anchor="middle" class="Lx">Eta</text>
<text x="280" y="387" text-anchor="middle" class="Lx">/i/</text>
<text x="380" y="368" text-anchor="middle" class="Lg">Θ</text>
<text x="400" y="368" text-anchor="middle" class="Lg">θ</text>
<text x="390" y="379" text-anchor="middle" class="Lx">Theta</text>
<text x="390" y="387" text-anchor="middle" class="Lx">/θ/</text>
<text x="50" y="392" text-anchor="middle" class="Lg">Ι</text>
<text x="70" y="392" text-anchor="middle" class="Lg">ι</text>
<text x="60" y="403" text-anchor="middle" class="Lx">Iota</text>
<text x="60" y="411" text-anchor="middle" class="Lx">/i/</text>
<text x="160" y="392" text-anchor="middle" class="Lg">Κ</text>
<text x="180" y="392" text-anchor="middle" class="Lg">κ</text>
<text x="170" y="403" text-anchor="middle" class="Lx">Kappa</text>
<text x="170" y="411" text-anchor="middle" class="Lx">/k/</text>
<text x="270" y="392" text-anchor="middle" class="Lg">Λ</text>
<text x="290" y="392" text-anchor="middle" class="Lg">λ</text>
<text x="280" y="403" text-anchor="middle" class="Lx">Lambda</text>
<text x="280" y="411" text-anchor="middle" class="Lx">/l/</text>
<text x="380" y="392" text-anchor="middle" class="Lg">Μ</text>
<text x="400" y="392" text-anchor="middle" class="Lg">μ</text>
<text x="390" y="403" text-anchor="middle" class="Lx">Mu</text>
<text x="390" y="411" text-anchor="middle" class="Lx">/m/</text>
<text x="50" y="416" text-anchor="middle" class="Lg">Ν</text>
<text x="70" y="416" text-anchor="middle" class="Lg">ν</text>
<text x="60" y="427" text-anchor="middle" class="Lx">Nu</text>
<text x="60" y="435" text-anchor="middle" class="Lx">/n/</text>
<text x="160" y="416" text-anchor="middle" class="Lg">Ξ</text>
<text x="180" y="416" text-anchor="middle" class="Lg">ξ</text>
<text x="170" y="427" text-anchor="middle" class="Lx">Xi</text>
<text x="170" y="435" text-anchor="middle" class="Lx">/ks/</text>
<text x="270" y="416" text-anchor="middle" class="Lg">Ο</text>
<text x="290" y="416" text-anchor="middle" class="Lg">ο</text>
<text x="280" y="427" text-anchor="middle" class="Lx">Omicron</text>
<text x="280" y="435" text-anchor="middle" class="Lx">/o/</text>
<text x="380" y="416" text-anchor="middle" class="Lg">Π</text>
<text x="400" y="416" text-anchor="middle" class="Lg">π</text>
<text x="390" y="427" text-anchor="middle" class="Lx">Pi</text>
<text x="390" y="435" text-anchor="middle" class="Lx">/p/</text>
<text x="50" y="440" text-anchor="middle" class="Lg">Ρ</text>
<text x="70" y="440" text-anchor="middle" class="Lg">ρ</text>
<text x="60" y="451" text-anchor="middle" class="Lx">Rho</text>
<text x="60" y="459" text-anchor="middle" class="Lx">/r/</text>
<text x="160" y="440" text-anchor="middle" class="Lg">Σ</text>
<text x="180" y="440" text-anchor="middle" class="Lg">σ</text>
<text x="170" y="451" text-anchor="middle" class="Lx">Sigma</text>
<text x="170" y="459" text-anchor="middle" class="Lx">/s/</text>
<text x="270" y="440" text-anchor="middle" class="Lg">Τ</text>
<text x="290" y="440" text-anchor="middle" class="Lg">τ</text>
<text x="280" y="451" text-anchor="middle" class="Lx">Tau</text>
<text x="280" y="459" text-anchor="middle" class="Lx">/t/</text>
<text x="380" y="440" text-anchor="middle" class="Lg">Υ</text>
<text x="400" y="440" text-anchor="middle" class="Lg">υ</text>
<text x="390" y="451" text-anchor="middle" class="Lx">Upsilon</text>
<text x="390" y="459" text-anchor="middle" class="Lx">/i/</text>
<text x="50" y="464" text-anchor="middle" class="Lg">Φ</text>
<text x="70" y="464" text-anchor="middle" class="Lg">φ</text>
<text x="60" y="475" text-anchor="middle" class="Lx">Phi</text>
<text x="60" y="483" text-anchor="middle" class="Lx">/f/</text>
<text x="160" y="464" text-anchor="middle" class="Lg">Χ</text>
<text x="180" y="464" text-anchor="middle" class="Lg">χ</text>
<text x="170" y="475" text-anchor="middle" class="Lx">Chi</text>
<text x="170" y="483" text-anchor="middle" class="Lx">/x/</text>
<text x="270" y="464" text-anchor="middle" class="Lg">Ψ</text>
<text x="290" y="464" text-anchor="middle" class="Lg">ψ</text>
<text x="280" y="475" text-anchor="middle" class="Lx">Psi</text>
<text x="280" y="483" text-anchor="middle" class="Lx">/ps/</text>
<text x="380" y="464" text-anchor="middle" class="Lg">Ω</text>
<text x="400" y="464" text-anchor="middle" class="Lg">ω</text>
<text x="390" y="475" text-anchor="middle" class="Lx">Omega</text>
<text x="390" y="483" text-anchor="middle" class="Lx">/o/</text>
<line x1="20" y1="492" x2="460" y2="492" stroke="black" stroke-width="0.3"/>
<text x="240" y="500" text-anchor="middle" class="H">— SCRIPT BRIDGE — ARABIC AND GREEK ROOTS IN SCIENCE —</text>
<text x="240" y="510" text-anchor="middle" class="Lx">Algebra: from Arabic al-jabr (الجبر) — Greek: αλγεβρα. Arabic transmitted Greek mathematics to Europe.</text>
<text x="240" y="519" text-anchor="middle" class="Lx">Algorithm: from al-Khwārizmī (Arabic mathematician) — Greek αριθμός = arithmetic/number.</text>
<text x="240" y="528" text-anchor="middle" class="Lx">Chemistry: from Arabic al-kīmyā’ — originally from Greek khēmeīa (pouring, fusion).</text>
<text x="240" y="537" text-anchor="middle" class="Lx">Both scripts shaped science: Greek gave the framework; Arabic preserved and extended it.</text>
<line x1="20" y1="625" x2="460" y2="625" stroke="black" stroke-width="0.3"/>
<text x="240" y="620" text-anchor="middle" class="M">PLATE 13A ALT · ARABIC / GREEK · SCRIPT · CC BY-SA 4.0 · REMEMBERFORWARD.ORG</text>
<line x1="20" y1="633" x2="460" y2="633" stroke="black" stroke-width="0.3"/>
<text x="240" y="648" text-anchor="middle" class="Fb">THIS IS A PATIENT MESSAGE. IT WAS MADE FOR YOU, FREELY, BY PEOPLE WHO REMEMBERED FORWARD.</text>
<text x="240" y="663" text-anchor="middle" class="F">BUY IT · BUILD IT · BURY IT · FOR SOMEONE YOU WILL NEVER MEET</text>
</svg>
