<?xml version="1.0" encoding="UTF-8"?>
<svg xmlns="http://www.w3.org/2000/svg" viewBox="0 0 480 680" width="480" height="680">
<style>
  text { font-family: Georgia, serif; }
  .T{font-size:11px;font-weight:bold;letter-spacing:1.5px}
  .S{font-size:6.5px;letter-spacing:1.5px}
  .H{font-size:6.5px;font-weight:bold;letter-spacing:2.5px}
  .Hb{font-size:7px;font-weight:bold;letter-spacing:2px}
  .L{font-size:7px} .Ls{font-size:6px} .Lx{font-size:5.5px}
  .M{font-size:6px;letter-spacing:1px}
  .F{font-size:7px;font-style:italic}
  .Fb{font-size:7.5px;font-weight:bold}
</style>
<rect x="0" y="0" width="480" height="680" fill="white"/>
<rect x="6" y="6" width="468" height="668" fill="none" stroke="black" stroke-width="3"/>
<rect x="12" y="12" width="456" height="656" fill="none" stroke="black" stroke-width="0.75"/>
<text x="240" y="30" text-anchor="middle" class="T">GERMAN + POLISH — GRAMMAR · VOCABULARY</text>
<text x="240" y="46" text-anchor="middle" class="S">ALT DRAFT · SERIES 52C · REMEMBER FORWARD</text>
<line x1="20" y1="54" x2="460" y2="54" stroke="black" stroke-width="0.3"/>
<text x="240" y="63" text-anchor="middle" class="H">— GERMAN GRAMMAR — 4 CASES · 3 GENDERS · SOV SUBORDINATE —</text>
<text x="240" y="73" text-anchor="middle" class="Ls">German has 4 cases: Nominative (subject), Accusative (direct object), Dative (indirect object), Genitive (possession).</text>
<text x="240" y="82" text-anchor="middle" class="Lx">3 genders: masculine (der), feminine (die), neuter (das). Gender is grammatical, not natural.</text>
<text x="240" y="91" text-anchor="middle" class="Lx">Main clause: SVO — Ich lese das Buch. Subordinate clause: SOV — …weil ich das Buch lese.</text>
<line x1="20" y1="99" x2="460" y2="99" stroke="black" stroke-width="0.3"/>
<text x="240" y="107" text-anchor="middle" class="H">— GERMAN CASE SYSTEM — DER/DIE/DAS TABLE —</text>
<text x="55" y="117" text-anchor="middle" class="Lx">Case</text>
<text x="160" y="117" text-anchor="middle" class="Lx">Masc.</text>
<text x="255" y="117" text-anchor="middle" class="Lx">Fem.</text>
<text x="340" y="117" text-anchor="middle" class="Lx">Neut.</text>
<text x="425" y="117" text-anchor="middle" class="Lx">Plural</text>
<text x="55" y="128" text-anchor="middle" class="Lx">Nom.</text>
<text x="160" y="128" text-anchor="middle" class="Ls">der</text>
<text x="255" y="128" text-anchor="middle" class="Ls">die</text>
<text x="340" y="128" text-anchor="middle" class="Ls">das</text>
<text x="425" y="128" text-anchor="middle" class="Ls">die</text>
<text x="55" y="139" text-anchor="middle" class="Lx">Acc.</text>
<text x="160" y="139" text-anchor="middle" class="Ls">den</text>
<text x="255" y="139" text-anchor="middle" class="Ls">die</text>
<text x="340" y="139" text-anchor="middle" class="Ls">das</text>
<text x="425" y="139" text-anchor="middle" class="Ls">die</text>
<text x="55" y="150" text-anchor="middle" class="Lx">Dat.</text>
<text x="160" y="150" text-anchor="middle" class="Ls">dem</text>
<text x="255" y="150" text-anchor="middle" class="Ls">der</text>
<text x="340" y="150" text-anchor="middle" class="Ls">dem</text>
<text x="425" y="150" text-anchor="middle" class="Ls">den</text>
<text x="55" y="161" text-anchor="middle" class="Lx">Gen.</text>
<text x="160" y="161" text-anchor="middle" class="Ls">des</text>
<text x="255" y="161" text-anchor="middle" class="Ls">der</text>
<text x="340" y="161" text-anchor="middle" class="Ls">des</text>
<text x="425" y="161" text-anchor="middle" class="Ls">der</text>
<line x1="20" y1="175" x2="460" y2="175" stroke="black" stroke-width="0.3"/>
<text x="240" y="183" text-anchor="middle" class="H">— GERMAN CORE VOCABULARY —</text>
<text x="60" y="193" text-anchor="middle" class="Ls">Wasser</text>
<text x="115" y="193" text-anchor="middle" class="Lx">water</text>
<text x="190" y="193" text-anchor="middle" class="Ls">Feuer</text>
<text x="245" y="193" text-anchor="middle" class="Lx">fire</text>
<text x="320" y="193" text-anchor="middle" class="Ls">Erde</text>
<text x="375" y="193" text-anchor="middle" class="Lx">earth</text>
<text x="60" y="203" text-anchor="middle" class="Ls">Mensch</text>
<text x="115" y="203" text-anchor="middle" class="Lx">person</text>
<text x="190" y="203" text-anchor="middle" class="Ls">Mond</text>
<text x="245" y="203" text-anchor="middle" class="Lx">moon</text>
<text x="320" y="203" text-anchor="middle" class="Ls">Erinnerung</text>
<text x="375" y="203" text-anchor="middle" class="Lx">memory</text>
<text x="60" y="213" text-anchor="middle" class="Ls">Zukunft</text>
<text x="115" y="213" text-anchor="middle" class="Lx">future</text>
<text x="190" y="213" text-anchor="middle" class="Ls">Freiheit</text>
<text x="245" y="213" text-anchor="middle" class="Lx">freedom</text>
<text x="320" y="213" text-anchor="middle" class="Ls">Herz</text>
<text x="375" y="213" text-anchor="middle" class="Lx">heart</text>
<text x="60" y="223" text-anchor="middle" class="Ls">Liebe</text>
<text x="115" y="223" text-anchor="middle" class="Lx">love</text>
<text x="190" y="223" text-anchor="middle" class="Ls">Welt</text>
<text x="245" y="223" text-anchor="middle" class="Lx">world</text>
<text x="320" y="223" text-anchor="middle" class="Ls">Leben</text>
<text x="375" y="223" text-anchor="middle" class="Lx">life</text>
<line x1="20" y1="238" x2="460" y2="238" stroke="black" stroke-width="1.5"/>
<rect x="20" y="241" width="440" height="14" fill="black"/>
<text x="240" y="251" text-anchor="middle" class="Hb" fill="white">SECONDARY — POLISH (JĘZYK POLSKI) — GRAMMAR · VOCABULARY</text>
<line x1="20" y1="255" x2="460" y2="255" stroke="black" stroke-width="0.3"/>
<text x="240" y="264" text-anchor="middle" class="H">— POLISH GRAMMAR — 7 CASES · 3 GENDERS · FREE WORD ORDER —</text>
<text x="240" y="274" text-anchor="middle" class="Ls">Polish has 7 grammatical cases: Nominative, Genitive, Dative, Accusative, Instrumental, Locative, Vocative.</text>
<text x="240" y="283" text-anchor="middle" class="Lx">3 genders: masculine (animate/inanimate), feminine, neuter. Animacy affects accusative form.</text>
<text x="240" y="292" text-anchor="middle" class="Lx">Free word order: case endings mark grammar, so subject-verb order is flexible (SOV, SVO, OVS all possible).</text>
<line x1="20" y1="300" x2="460" y2="300" stroke="black" stroke-width="0.3"/>
<text x="240" y="308" text-anchor="middle" class="H">— POLISH CASE ENDINGS — woda (water, fem.) —</text>
<text x="80" y="318" text-anchor="middle" class="Lx">Nominative</text>
<text x="185" y="318" text-anchor="middle" class="Ls">woda</text>
<text x="360" y="318" text-anchor="middle" class="Lx">subject: Woda jest zimna (Water is cold)</text>
<text x="80" y="328" text-anchor="middle" class="Lx">Genitive</text>
<text x="185" y="328" text-anchor="middle" class="Ls">wody</text>
<text x="360" y="328" text-anchor="middle" class="Lx">possession/negation: szklanka wody (glass of water)</text>
<text x="80" y="338" text-anchor="middle" class="Lx">Dative</text>
<text x="185" y="338" text-anchor="middle" class="Ls">wodzie</text>
<text x="360" y="338" text-anchor="middle" class="Lx">indirect object: daj mi wodę (give me water)</text>
<text x="80" y="348" text-anchor="middle" class="Lx">Accusative</text>
<text x="185" y="348" text-anchor="middle" class="Ls">wodę</text>
<text x="360" y="348" text-anchor="middle" class="Lx">direct object: piję wodę (I drink water)</text>
<text x="80" y="358" text-anchor="middle" class="Lx">Instrumental</text>
<text x="185" y="358" text-anchor="middle" class="Ls">wodą</text>
<text x="360" y="358" text-anchor="middle" class="Lx">with/by: myję wodą (I wash with water)</text>
<text x="80" y="368" text-anchor="middle" class="Lx">Locative</text>
<text x="185" y="368" text-anchor="middle" class="Ls">wodzie</text>
<text x="360" y="368" text-anchor="middle" class="Lx">location: mówić o wodzie (to talk about water)</text>
<text x="80" y="378" text-anchor="middle" class="Lx">Vocative</text>
<text x="185" y="378" text-anchor="middle" class="Ls">wodo!</text>
<text x="360" y="378" text-anchor="middle" class="Lx">address: direct address, poetry</text>
<line x1="20" y1="393" x2="460" y2="393" stroke="black" stroke-width="0.3"/>
<text x="240" y="401" text-anchor="middle" class="H">— POLISH CORE VOCABULARY —</text>
<text x="60" y="411" text-anchor="middle" class="Ls">woda</text>
<text x="120" y="411" text-anchor="middle" class="Lx">water</text>
<text x="190" y="411" text-anchor="middle" class="Ls">ogień</text>
<text x="250" y="411" text-anchor="middle" class="Lx">fire</text>
<text x="320" y="411" text-anchor="middle" class="Ls">ziemia</text>
<text x="380" y="411" text-anchor="middle" class="Lx">earth</text>
<text x="60" y="421" text-anchor="middle" class="Ls">człowiek</text>
<text x="120" y="421" text-anchor="middle" class="Lx">person</text>
<text x="190" y="421" text-anchor="middle" class="Ls">księżyc</text>
<text x="250" y="421" text-anchor="middle" class="Lx">moon</text>
<text x="320" y="421" text-anchor="middle" class="Ls">pamięć</text>
<text x="380" y="421" text-anchor="middle" class="Lx">memory</text>
<text x="60" y="431" text-anchor="middle" class="Ls">przyszłość</text>
<text x="120" y="431" text-anchor="middle" class="Lx">future</text>
<text x="190" y="431" text-anchor="middle" class="Ls">wolność</text>
<text x="250" y="431" text-anchor="middle" class="Lx">freedom</text>
<text x="320" y="431" text-anchor="middle" class="Ls">serce</text>
<text x="380" y="431" text-anchor="middle" class="Lx">heart</text>
<text x="60" y="441" text-anchor="middle" class="Ls">miłość</text>
<text x="120" y="441" text-anchor="middle" class="Lx">love</text>
<text x="190" y="441" text-anchor="middle" class="Ls">świat</text>
<text x="250" y="441" text-anchor="middle" class="Lx">world</text>
<text x="320" y="441" text-anchor="middle" class="Ls">życie</text>
<text x="380" y="441" text-anchor="middle" class="Lx">life</text>
<line x1="20" y1="455" x2="460" y2="455" stroke="black" stroke-width="0.3"/>
<text x="240" y="463" text-anchor="middle" class="H">— GRAMMAR BRIDGE — CASE SYSTEMS COMPARED —</text>
<text x="240" y="473" text-anchor="middle" class="Ls">German: 4 cases, marked on articles and adjectives (not always noun endings).</text>
<text x="240" y="482" text-anchor="middle" class="Ls">Polish: 7 cases, marked directly on noun endings (and adjectives). No articles at all.</text>
<text x="240" y="491" text-anchor="middle" class="Lx">Both descended from Proto-Indo-European — German cases simplified from PIE; Polish preserved more.</text>
<line x1="20" y1="625" x2="460" y2="625" stroke="black" stroke-width="0.3"/>
<text x="240" y="620" text-anchor="middle" class="M">PLATE 52C ALT · German / Polish · GRAMMAR · CC BY-SA 4.0 · REMEMBERFORWARD.ORG</text>
<line x1="20" y1="633" x2="460" y2="633" stroke="black" stroke-width="0.3"/>
<text x="240" y="648" text-anchor="middle" class="Fb">THIS IS A PATIENT MESSAGE. IT WAS MADE FOR YOU, FREELY, BY PEOPLE WHO REMEMBERED FORWARD.</text>
<text x="240" y="663" text-anchor="middle" class="F">BUY IT · BUILD IT · BURY IT · FOR SOMEONE YOU WILL NEVER MEET</text>
</svg>
