<?xml version="1.0" encoding="UTF-8"?>
<svg xmlns="http://www.w3.org/2000/svg" viewBox="0 0 480 680" width="480" height="680">
<style>
  text { font-family: Georgia, serif; }
  .T{font-size:12px;font-weight:bold;letter-spacing:2px}
  .S{font-size:7px;letter-spacing:1.5px}
  .H{font-size:6.5px;font-weight:bold;letter-spacing:2.5px}
  .L{font-size:7px} .Ls{font-size:6px} .Lx{font-size:5.5px}
  .M{font-size:6px;letter-spacing:1px}
  .F{font-size:7px;font-style:italic}
  .Fb{font-size:7.5px;font-weight:bold}
</style>
<rect x="0" y="0" width="480" height="680" fill="white"/>
<rect x="6" y="6" width="468" height="668" fill="none" stroke="black" stroke-width="3"/>
<rect x="12" y="12" width="456" height="656" fill="none" stroke="black" stroke-width="0.75"/>
<text x="240" y="32" text-anchor="middle" class="T" >HAUSA — GRAMMAR · VOCABULARY</text>
<text x="240" y="50" text-anchor="middle" class="S" >SERIES 29C OF 60 · REMEMBER FORWARD</text>
<line x1="20" y1="58" x2="460" y2="58" stroke="black" stroke-width="0.3"/>
<text x="240" y="68" text-anchor="middle" class="H" >— SVO — ASPECT-BASED VERB SYSTEM — TWO GENDERS —</text>
<text x="240" y="79" text-anchor="middle" class="L" >Hausa is SVO with postverbal objects. Two grammatical genders: masculine and feminine.</text>
<text x="240" y="89" text-anchor="middle" class="Ls" >Verbs do not conjugate for tense — instead, ASPECT is marked by a pronominal aspect complex (PAC).</text>
<text x="240" y="98" text-anchor="middle" class="Ls" >The PAC (subject pronoun + aspect marker) precedes the verb and encodes person, number, gender, aspect.</text>
<line x1="20" y1="106" x2="460" y2="106" stroke="black" stroke-width="0.3"/>
<text x="240" y="115" text-anchor="middle" class="H" >— PRONOMINAL ASPECT COMPLEX — COMPLETIVE ASPECT —</text>
<text x="80" y="125" text-anchor="middle" class="Lx" >PAC</text>
<text x="155" y="125" text-anchor="middle" class="Lx" >Person</text>
<text x="260" y="125" text-anchor="middle" class="Lx" >Gloss</text>
<text x="360" y="125" text-anchor="middle" class="Lx" >Example: zo (come)</text>
<text x="80" y="134" text-anchor="middle" class="Ls" >nā</text>
<text x="155" y="134" text-anchor="middle" class="Lx" >1sg</text>
<text x="260" y="134" text-anchor="middle" class="Lx" >I (did)</text>
<text x="380" y="134" text-anchor="middle" class="Ls" >nā zo</text>
<text x="80" y="145" text-anchor="middle" class="Ls" >kā</text>
<text x="155" y="145" text-anchor="middle" class="Lx" >2sg M</text>
<text x="260" y="145" text-anchor="middle" class="Lx" >you-m (did)</text>
<text x="380" y="145" text-anchor="middle" class="Ls" >kā zo</text>
<text x="80" y="156" text-anchor="middle" class="Ls" >kī</text>
<text x="155" y="156" text-anchor="middle" class="Lx" >2sg F</text>
<text x="260" y="156" text-anchor="middle" class="Lx" >you-f (did)</text>
<text x="380" y="156" text-anchor="middle" class="Ls" >kī zo</text>
<text x="80" y="167" text-anchor="middle" class="Ls" >yā</text>
<text x="155" y="167" text-anchor="middle" class="Lx" >3sg M</text>
<text x="260" y="167" text-anchor="middle" class="Lx" >he (did)</text>
<text x="380" y="167" text-anchor="middle" class="Ls" >yā zo</text>
<text x="80" y="178" text-anchor="middle" class="Ls" >tā</text>
<text x="155" y="178" text-anchor="middle" class="Lx" >3sg F</text>
<text x="260" y="178" text-anchor="middle" class="Lx" >she (did)</text>
<text x="380" y="178" text-anchor="middle" class="Ls" >tā zo</text>
<text x="80" y="189" text-anchor="middle" class="Ls" >mun</text>
<text x="155" y="189" text-anchor="middle" class="Lx" >1pl</text>
<text x="260" y="189" text-anchor="middle" class="Lx" >we (did)</text>
<text x="380" y="189" text-anchor="middle" class="Ls" >mun zo</text>
<text x="80" y="200" text-anchor="middle" class="Ls" >kun</text>
<text x="155" y="200" text-anchor="middle" class="Lx" >2pl</text>
<text x="260" y="200" text-anchor="middle" class="Lx" >you pl (did)</text>
<text x="380" y="200" text-anchor="middle" class="Ls" >kun zo</text>
<text x="80" y="211" text-anchor="middle" class="Ls" >sun</text>
<text x="155" y="211" text-anchor="middle" class="Lx" >3pl</text>
<text x="260" y="211" text-anchor="middle" class="Lx" >they (did)</text>
<text x="380" y="211" text-anchor="middle" class="Ls" >sun zo</text>
<line x1="20" y1="225" x2="460" y2="225" stroke="black" stroke-width="0.3"/>
<text x="240" y="234" text-anchor="middle" class="H" >— ASPECT SYSTEM —</text>
<text x="80" y="244" text-anchor="middle" class="Ls" >Completive</text>
<text x="185" y="244" text-anchor="middle" class="Lx" >nā/yā…</text>
<text x="285" y="244" text-anchor="middle" class="Lx" >completed action</text>
<text x="400" y="244" text-anchor="middle" class="Lx" >yā ci ya’yi (he has eaten)</text>
<text x="80" y="257" text-anchor="middle" class="Ls" >Continuative</text>
<text x="185" y="257" text-anchor="middle" class="Lx" >inā/yā na…</text>
<text x="285" y="257" text-anchor="middle" class="Lx" >ongoing action</text>
<text x="400" y="257" text-anchor="middle" class="Lx" >yā na cin (he is eating)</text>
<text x="80" y="270" text-anchor="middle" class="Ls" >Future/Intentive</text>
<text x="185" y="270" text-anchor="middle" class="Lx" >ɓan/zā…</text>
<text x="285" y="270" text-anchor="middle" class="Lx" >future intention</text>
<text x="400" y="270" text-anchor="middle" class="Lx" >zā yā ci (he will eat)</text>
<text x="80" y="283" text-anchor="middle" class="Ls" >Subjunctive</text>
<text x="185" y="283" text-anchor="middle" class="Lx" >yā… (no asp)</text>
<text x="285" y="283" text-anchor="middle" class="Lx" >wish/command</text>
<text x="400" y="283" text-anchor="middle" class="Lx" >yā ci! (let him eat!)</text>
<line x1="20" y1="298" x2="460" y2="298" stroke="black" stroke-width="0.3"/>
<text x="240" y="307" text-anchor="middle" class="H" >— CORE VOCABULARY — 25 WORDS —</text>
<text x="50" y="317" text-anchor="middle" class="Ls" >iɗɗā / aʾa</text>
<text x="175" y="317" text-anchor="middle" class="Lx" >yes / no</text>
<text x="50" y="327" text-anchor="middle" class="Ls" >ni / kai</text>
<text x="175" y="327" text-anchor="middle" class="Lx" >I / you (m)</text>
<text x="50" y="337" text-anchor="middle" class="Ls" >wannan / wancan</text>
<text x="175" y="337" text-anchor="middle" class="Lx" >this / that</text>
<text x="50" y="347" text-anchor="middle" class="Ls" >ina?</text>
<text x="175" y="347" text-anchor="middle" class="Lx" >where</text>
<text x="50" y="357" text-anchor="middle" class="Ls" >me?</text>
<text x="175" y="357" text-anchor="middle" class="Lx" >what</text>
<text x="50" y="367" text-anchor="middle" class="Ls" >wane?</text>
<text x="175" y="367" text-anchor="middle" class="Lx" >who</text>
<text x="50" y="377" text-anchor="middle" class="Ls" >yaushe?</text>
<text x="175" y="377" text-anchor="middle" class="Lx" >when</text>
<text x="50" y="387" text-anchor="middle" class="Ls" >don me?</text>
<text x="175" y="387" text-anchor="middle" class="Lx" >why</text>
<text x="50" y="397" text-anchor="middle" class="Ls" >ruwa</text>
<text x="175" y="397" text-anchor="middle" class="Lx" >water</text>
<text x="50" y="407" text-anchor="middle" class="Ls" >wuta</text>
<text x="175" y="407" text-anchor="middle" class="Lx" >fire</text>
<text x="50" y="417" text-anchor="middle" class="Ls" >kāsa</text>
<text x="175" y="417" text-anchor="middle" class="Lx" >earth/land</text>
<text x="50" y="427" text-anchor="middle" class="Ls" >mutum</text>
<text x="175" y="427" text-anchor="middle" class="Lx" >person</text>
<text x="50" y="437" text-anchor="middle" class="Ls" >littafi</text>
<text x="175" y="437" text-anchor="middle" class="Lx" >book</text>
<text x="280" y="317" text-anchor="middle" class="Ls" >lokaci</text>
<text x="405" y="317" text-anchor="middle" class="Lx" >time</text>
<text x="280" y="327" text-anchor="middle" class="Ls" >wata</text>
<text x="405" y="327" text-anchor="middle" class="Lx" >moon</text>
<text x="280" y="337" text-anchor="middle" class="Ls" >tauraro</text>
<text x="405" y="337" text-anchor="middle" class="Lx" >star</text>
<text x="280" y="347" text-anchor="middle" class="Ls" >zuciya</text>
<text x="405" y="347" text-anchor="middle" class="Lx" >heart</text>
<text x="280" y="357" text-anchor="middle" class="Ls" >koyayya</text>
<text x="405" y="357" text-anchor="middle" class="Lx" >love</text>
<text x="280" y="367" text-anchor="middle" class="Ls" >yanci</text>
<text x="405" y="367" text-anchor="middle" class="Lx" >freedom</text>
<text x="280" y="377" text-anchor="middle" class="Ls" >tunawa</text>
<text x="405" y="377" text-anchor="middle" class="Lx" >memory</text>
<text x="280" y="387" text-anchor="middle" class="Ls" >gobe</text>
<text x="405" y="387" text-anchor="middle" class="Lx" >tomorrow / future</text>
<text x="280" y="397" text-anchor="middle" class="Ls" >duniya</text>
<text x="405" y="397" text-anchor="middle" class="Lx" >world</text>
<text x="280" y="407" text-anchor="middle" class="Ls" >mai kyau / mugu</text>
<text x="405" y="407" text-anchor="middle" class="Lx" >good / bad</text>
<text x="280" y="417" text-anchor="middle" class="Ls" >duka</text>
<text x="405" y="417" text-anchor="middle" class="Lx" >everything</text>
<text x="280" y="427" text-anchor="middle" class="Ls" >rai</text>
<text x="405" y="427" text-anchor="middle" class="Lx" >life</text>
<line x1="20" y1="450" x2="460" y2="450" stroke="black" stroke-width="0.3"/>
<text x="240" y="459" text-anchor="middle" class="H" >— GENDER AND PLURALITY —</text>
<text x="240" y="470" text-anchor="middle" class="Ls" >Gender: masculine default; feminine marked by final -aa or -iyaa suffix in many nouns.</text>
<text x="240" y="479" text-anchor="middle" class="Ls" >Plural formation is complex and partly irregular — several plural patterns exist.</text>
<text x="240" y="488" text-anchor="middle" class="Ls" >gida (house) → gidaje (houses) · mutum (person) → mutane (people) · kīfi (fish, unchanged)</text>
<line x1="20" y1="625" x2="460" y2="625" stroke="black" stroke-width="0.3"/>
<text x="240" y="620" text-anchor="middle" class="M" >SERIES 29 · HAUSA · PLATE C · GRAMMAR · CC BY-SA 4.0 · REMEMBERFORWARD.ORG</text>
<line x1="20" y1="633" x2="460" y2="633" stroke="black" stroke-width="0.3"/>
<text x="240" y="648" text-anchor="middle" class="Fb" >THIS IS A PATIENT MESSAGE. IT WAS MADE FOR YOU, FREELY, BY PEOPLE WHO REMEMBERED FORWARD.</text>
<text x="240" y="663" text-anchor="middle" class="F" >BUY IT · BUILD IT · BURY IT · FOR SOMEONE YOU WILL NEVER MEET</text>
</svg>
