<?xml version="1.0" encoding="UTF-8"?>
<svg xmlns="http://www.w3.org/2000/svg" viewBox="0 0 480 680" width="480" height="680">
<style>
  text{font-family:Georgia,serif;}
  .T{font-size:11px;font-weight:bold;letter-spacing:1.5px}
  .S{font-size:6.5px;letter-spacing:1.5px}
  .H{font-size:6.5px;font-weight:bold;letter-spacing:2.5px}
  .Hb{font-size:7px;font-weight:bold;letter-spacing:2px}
  .L{font-size:7px} .Ls{font-size:6px} .Lx{font-size:5.5px}
  .Lb{font-size:12px} .Lbs{font-size:9px}
  .Lo{font-size:12px} .Los{font-size:9px}
  .M{font-size:6px;letter-spacing:1px}
  .F{font-size:7px;font-style:italic} .Fb{font-size:7.5px;font-weight:bold}
</style>
<rect x="0" y="0" width="480" height="680" fill="white"/>
<rect x="6" y="6" width="468" height="668" fill="none" stroke="black" stroke-width="3"/>
<rect x="12" y="12" width="456" height="656" fill="none" stroke="black" stroke-width="0.75"/>
<text x="240" y="30" text-anchor="middle" class="T">BENGALI + ODIA — GRAMMAR · VOCABULARY</text>
<text x="240" y="46" text-anchor="middle" class="S">ALT DRAFT · SERIES 16C · REMEMBER FORWARD</text>
<line x1="20" y1="54" x2="460" y2="54" stroke="black" stroke-width="0.3"/>
<text x="240" y="63" text-anchor="middle" class="H">— BENGALI — SOV · POSTPOSITIONS · ASPECT-HEAVY VERB SYSTEM —</text>
<text x="240" y="73" text-anchor="middle" class="Ls">Bengali is SOV. Postpositions follow their noun: ghor-e (house-in = in the house).</text>
<text x="240" y="82" text-anchor="middle" class="Lx">Verb agrees with person/formality, not gender. Three registers: formal, neutral, intimate.</text>
<text x="240" y="91" text-anchor="middle" class="Lx">Aspect: Bengali emphasizes perfect/imperfect aspect more than tense. "I have eaten" vs. "I am eating."</text>
<line x1="20" y1="99" x2="460" y2="99" stroke="black" stroke-width="0.3"/>
<text x="240" y="107" text-anchor="middle" class="H">— BENGALI CORE VOCABULARY — 20 WORDS —</text>
<text x="25" y="116" text-anchor="start" class="Lbs">জল</text>
<text x="85" y="116" text-anchor="start" class="Lx">jal</text>
<text x="150" y="116" text-anchor="start" class="Lx">water</text>
<text x="25" y="126" text-anchor="start" class="Lbs">আগুন</text>
<text x="85" y="126" text-anchor="start" class="Lx">āgun</text>
<text x="150" y="126" text-anchor="start" class="Lx">fire</text>
<text x="25" y="136" text-anchor="start" class="Lbs">মাটি</text>
<text x="85" y="136" text-anchor="start" class="Lx">māṭi</text>
<text x="150" y="136" text-anchor="start" class="Lx">earth</text>
<text x="25" y="146" text-anchor="start" class="Lbs">মানুষ</text>
<text x="85" y="146" text-anchor="start" class="Lx">mānuṣ</text>
<text x="150" y="146" text-anchor="start" class="Lx">person</text>
<text x="25" y="156" text-anchor="start" class="Lbs">চাঁদ</text>
<text x="85" y="156" text-anchor="start" class="Lx">cā̂d</text>
<text x="150" y="156" text-anchor="start" class="Lx">moon</text>
<text x="25" y="166" text-anchor="start" class="Lbs">সূর্য</text>
<text x="85" y="166" text-anchor="start" class="Lx">sūrya</text>
<text x="150" y="166" text-anchor="start" class="Lx">sun</text>
<text x="25" y="176" text-anchor="start" class="Lbs">হ্যাঁ</text>
<text x="85" y="176" text-anchor="start" class="Lx">hyā̂</text>
<text x="150" y="176" text-anchor="start" class="Lx">yes</text>
<text x="25" y="186" text-anchor="start" class="Lbs">না</text>
<text x="85" y="186" text-anchor="start" class="Lx">nā</text>
<text x="150" y="186" text-anchor="start" class="Lx">no</text>
<text x="25" y="196" text-anchor="start" class="Lbs">আমি</text>
<text x="85" y="196" text-anchor="start" class="Lx">āmi</text>
<text x="150" y="196" text-anchor="start" class="Lx">I</text>
<text x="25" y="206" text-anchor="start" class="Lbs">তুমি</text>
<text x="85" y="206" text-anchor="start" class="Lx">tumi</text>
<text x="150" y="206" text-anchor="start" class="Lx">you</text>
<text x="265" y="116" text-anchor="start" class="Lbs">ভালোবাসা</text>
<text x="325" y="116" text-anchor="start" class="Lx">bhālobāsā</text>
<text x="390" y="116" text-anchor="start" class="Lx">love</text>
<text x="265" y="126" text-anchor="start" class="Lbs">স্বাধীনতা</text>
<text x="325" y="126" text-anchor="start" class="Lx">svādhīnatā</text>
<text x="390" y="126" text-anchor="start" class="Lx">freedom</text>
<text x="265" y="136" text-anchor="start" class="Lbs">ভবিষ্যৎ</text>
<text x="325" y="136" text-anchor="start" class="Lx">bhaviṣyat</text>
<text x="390" y="136" text-anchor="start" class="Lx">future</text>
<text x="265" y="146" text-anchor="start" class="Lbs">পৃথিবী</text>
<text x="325" y="146" text-anchor="start" class="Lx">pṛthivī</text>
<text x="390" y="146" text-anchor="start" class="Lx">world</text>
<text x="265" y="156" text-anchor="start" class="Lbs">ভালো</text>
<text x="325" y="156" text-anchor="start" class="Lx">bhālo</text>
<text x="390" y="156" text-anchor="start" class="Lx">good</text>
<text x="265" y="166" text-anchor="start" class="Lbs">মৃত্যু</text>
<text x="325" y="166" text-anchor="start" class="Lx">mṛtyu</text>
<text x="390" y="166" text-anchor="start" class="Lx">death</text>
<text x="265" y="176" text-anchor="start" class="Lbs">জীবন</text>
<text x="325" y="176" text-anchor="start" class="Lx">jīvan</text>
<text x="390" y="176" text-anchor="start" class="Lx">life</text>
<text x="265" y="186" text-anchor="start" class="Lbs">ধন্যবাদ</text>
<text x="325" y="186" text-anchor="start" class="Lx">dhanyavād</text>
<text x="390" y="186" text-anchor="start" class="Lx">thanks</text>
<text x="265" y="196" text-anchor="start" class="Lbs">কখন</text>
<text x="325" y="196" text-anchor="start" class="Lx">kakhan</text>
<text x="390" y="196" text-anchor="start" class="Lx">when</text>
<text x="265" y="206" text-anchor="start" class="Lbs">কোথায়</text>
<text x="325" y="206" text-anchor="start" class="Lx">kothai</text>
<text x="390" y="206" text-anchor="start" class="Lx">where</text>
<line x1="20" y1="222" x2="460" y2="222" stroke="black" stroke-width="0.3"/>
<line x1="20" y1="230" x2="460" y2="230" stroke="black" stroke-width="1.5"/>
<rect x="20" y="233" width="440" height="14" fill="black"/>
<text x="240" y="243" text-anchor="middle" class="Hb" fill="white">ODIA (ଓଡ଼ିଆ) · GRAMMAR · VOCABULARY</text>
<line x1="20" y1="247" x2="460" y2="247" stroke="black" stroke-width="0.3"/>
<text x="240" y="262" text-anchor="middle" class="Ls">Odia is also SOV. Postpositions. Verb-final. Very similar structural grammar to Bengali.</text>
<text x="240" y="271" text-anchor="middle" class="Lx">Three grammatical numbers: singular, plural, honorific-plural. Second person honorific widespread.</text>
<line x1="20" y1="278" x2="460" y2="278" stroke="black" stroke-width="0.3"/>
<text x="240" y="286" text-anchor="middle" class="H">— ODIA CORE VOCABULARY — 20 WORDS —</text>
<text x="25" y="295" text-anchor="start" class="Los">ଜଳ</text>
<text x="85" y="295" text-anchor="start" class="Lx">jaḷa</text>
<text x="150" y="295" text-anchor="start" class="Lx">water</text>
<text x="25" y="305" text-anchor="start" class="Los">ଆଗ</text>
<text x="85" y="305" text-anchor="start" class="Lx">āga</text>
<text x="150" y="305" text-anchor="start" class="Lx">fire</text>
<text x="25" y="315" text-anchor="start" class="Los">ମାଟି</text>
<text x="85" y="315" text-anchor="start" class="Lx">māṭi</text>
<text x="150" y="315" text-anchor="start" class="Lx">earth</text>
<text x="25" y="325" text-anchor="start" class="Los">ମଣିଷ</text>
<text x="85" y="325" text-anchor="start" class="Lx">maṇiṣa</text>
<text x="150" y="325" text-anchor="start" class="Lx">person</text>
<text x="25" y="335" text-anchor="start" class="Los">ଚାଂଦ</text>
<text x="85" y="335" text-anchor="start" class="Lx">cā̂da</text>
<text x="150" y="335" text-anchor="start" class="Lx">moon</text>
<text x="25" y="345" text-anchor="start" class="Los">ସୂର୍ୟ</text>
<text x="85" y="345" text-anchor="start" class="Lx">sūrya</text>
<text x="150" y="345" text-anchor="start" class="Lx">sun</text>
<text x="25" y="355" text-anchor="start" class="Los">ହଁ</text>
<text x="85" y="355" text-anchor="start" class="Lx">hā̂</text>
<text x="150" y="355" text-anchor="start" class="Lx">yes</text>
<text x="25" y="365" text-anchor="start" class="Los">ନା</text>
<text x="85" y="365" text-anchor="start" class="Lx">nā</text>
<text x="150" y="365" text-anchor="start" class="Lx">no</text>
<text x="25" y="375" text-anchor="start" class="Los">ମୁଁ</text>
<text x="85" y="375" text-anchor="start" class="Lx">mû</text>
<text x="150" y="375" text-anchor="start" class="Lx">I</text>
<text x="25" y="385" text-anchor="start" class="Los">ତୁ</text>
<text x="85" y="385" text-anchor="start" class="Lx">tu</text>
<text x="150" y="385" text-anchor="start" class="Lx">you (inf.)</text>
<text x="265" y="295" text-anchor="start" class="Los">ଭାଲପାଇବା</text>
<text x="325" y="295" text-anchor="start" class="Lx">bhālapāibā</text>
<text x="390" y="295" text-anchor="start" class="Lx">love</text>
<text x="265" y="305" text-anchor="start" class="Los">ସ୍ବାଧୀନତା</text>
<text x="325" y="305" text-anchor="start" class="Lx">svādhīnatā</text>
<text x="390" y="305" text-anchor="start" class="Lx">freedom</text>
<text x="265" y="315" text-anchor="start" class="Los">ଭବିଷ୍ୟତ</text>
<text x="325" y="315" text-anchor="start" class="Lx">bhaviṣyata</text>
<text x="390" y="315" text-anchor="start" class="Lx">future</text>
<text x="265" y="325" text-anchor="start" class="Los">ପୃଥିବୀ</text>
<text x="325" y="325" text-anchor="start" class="Lx">pṛthivī</text>
<text x="390" y="325" text-anchor="start" class="Lx">world</text>
<text x="265" y="335" text-anchor="start" class="Los">ଭଲା</text>
<text x="325" y="335" text-anchor="start" class="Lx">bhalā</text>
<text x="390" y="335" text-anchor="start" class="Lx">good</text>
<text x="265" y="345" text-anchor="start" class="Los">ମୃତ୍ୟୁ</text>
<text x="325" y="345" text-anchor="start" class="Lx">mṛtyu</text>
<text x="390" y="345" text-anchor="start" class="Lx">death</text>
<text x="265" y="355" text-anchor="start" class="Los">ଜୀବନ</text>
<text x="325" y="355" text-anchor="start" class="Lx">jīvana</text>
<text x="390" y="355" text-anchor="start" class="Lx">life</text>
<text x="265" y="365" text-anchor="start" class="Los">ଧନ୍ୟବାଦ</text>
<text x="325" y="365" text-anchor="start" class="Lx">dhanyavāda</text>
<text x="390" y="365" text-anchor="start" class="Lx">thanks</text>
<text x="265" y="375" text-anchor="start" class="Los">କାହିଁ</text>
<text x="325" y="375" text-anchor="start" class="Lx">kāhî</text>
<text x="390" y="375" text-anchor="start" class="Lx">when</text>
<text x="265" y="385" text-anchor="start" class="Los">କୁଆ</text>
<text x="325" y="385" text-anchor="start" class="Lx">kuā</text>
<text x="390" y="385" text-anchor="start" class="Lx">where</text>
<line x1="20" y1="625" x2="460" y2="625" stroke="black" stroke-width="0.3"/>
<text x="240" y="620" text-anchor="middle" class="M">PLATE 16C ALT · BENGALI/ODIA · GRAMMAR · CC BY-SA 4.0 · REMEMBERFORWARD.ORG</text>
<line x1="20" y1="633" x2="460" y2="633" stroke="black" stroke-width="0.3"/>
<text x="240" y="648" text-anchor="middle" class="Fb">THIS IS A PATIENT MESSAGE. IT WAS MADE FOR YOU, FREELY, BY PEOPLE WHO REMEMBERED FORWARD.</text>
<text x="240" y="663" text-anchor="middle" class="F">BUY IT · BUILD IT · BURY IT · FOR SOMEONE YOU WILL NEVER MEET</text>
</svg>
