<svg viewBox="0 0 480 680" xmlns="http://www.w3.org/2000/svg">
<defs><style>
  text{font-family:Georgia,serif;fill:#000;}
  .T{font-size:13px;font-weight:bold;letter-spacing:2px;}
  .S{font-size:7.5px;letter-spacing:1.5px;}
  .H{font-size:7px;font-weight:bold;letter-spacing:2.5px;}
  .L{font-size:7px;}
  .Ls{font-size:6px;}
  .Lx{font-size:5.5px;}
  .M{font-size:6px;letter-spacing:1px;}
  .F{font-size:7px;font-style:italic;}
  .Fb{font-size:7px;font-weight:bold;}
</style></defs>
<rect x="6" y="6" width="468" height="668" rx="4" fill="none" stroke="#000" stroke-width="3"/>
<rect x="12" y="12" width="456" height="656" rx="2" fill="none" stroke="#000" stroke-width="0.75"/>
<text x="240" y="34" text-anchor="middle" class="T">PLATE 8  ·  PHYSICS OF SOUND</text>
<line x1="18" y1="40" x2="462" y2="40" stroke="#000" stroke-width="0.75"/>
<text x="240" y="51" text-anchor="middle" class="S">sound is a wave  ·  the wave has shape  ·  shape can be stored  ·  resonance can destroy</text>
<line x1="18" y1="57" x2="462" y2="57" stroke="#000" stroke-width="0.5"/>
<text x="240" y="69" text-anchor="middle" class="H">— · —  THE WAVE  — · —</text>
<line x1="22" y1="73" x2="458" y2="73" stroke="#000" stroke-width="0.3"/>
<ellipse cx="90" cy="104" rx="12" ry="6" fill="none" stroke="#000" stroke-width="0.7"/>
<ellipse cx="90" cy="104" rx="28" ry="16" fill="none" stroke="#000" stroke-width="0.7"/>
<ellipse cx="90" cy="104" rx="46" ry="26" fill="none" stroke="#000" stroke-width="0.7"/>
<ellipse cx="90" cy="104" rx="64" ry="37" fill="none" stroke="#000" stroke-width="0.7"/>
<circle cx="90" cy="104" r="2.5" fill="#000" stroke="#000" stroke-width="0.8"/>
<text x="90" y="80" text-anchor="middle" class="Lx">IN WATER</text>
<text x="90" y="128" text-anchor="middle" class="Lx">disturbance spreads</text>
<line x1="180" y1="104" x2="462" y2="104" stroke="#000" stroke-width="0.4" stroke-dasharray="2,2"/>
<polyline points="188.0,104.0 191.4,101.4 194.8,98.9 198.1,96.4 201.5,94.0 204.9,91.8 208.2,89.7 211.6,87.8 215.0,86.2 218.4,84.8 221.8,83.7 225.1,82.8 228.5,82.3 231.9,82.0 235.2,82.1 238.6,82.4 242.0,83.1 245.4,84.0 248.8,85.2 252.1,86.7 255.5,88.4 258.9,90.4 262.2,92.5 265.6,94.8 269.0,97.2 272.4,99.7 275.8,102.3 279.1,104.9 282.5,107.4 285.9,110.0 289.2,112.4 292.6,114.7 296.0,116.9 299.4,118.9 302.8,120.7 306.1,122.3 309.5,123.6 312.9,124.6 316.2,125.4 319.6,125.8 323.0,126.0 326.4,125.8 329.8,125.4 333.1,124.6 336.5,123.6 339.9,122.3 343.2,120.7 346.6,118.9 350.0,116.9 353.4,114.7 356.8,112.4 360.1,110.0 363.5,107.4 366.9,104.9 370.2,102.3 373.6,99.7 377.0,97.2 380.4,94.8 383.8,92.5 387.1,90.4 390.5,88.4 393.9,86.7 397.2,85.2 400.6,84.0 404.0,83.1 407.4,82.4 410.8,82.1 414.1,82.0 417.5,82.3 420.9,82.8 424.2,83.7 427.6,84.8 431.0,86.2 434.4,87.8 437.8,89.7 441.1,91.8 444.5,94.0 447.9,96.4 451.2,98.9 454.6,101.4 458.0,104.0" fill="none" stroke="#000" stroke-width="1.2"/>
<text x="320" y="80" text-anchor="middle" class="Lx">IN AIR</text>
<text x="270" y="108" text-anchor="middle" class="Lx">C</text>
<text x="302" y="87" text-anchor="middle" class="Lx">R</text>
<text x="338" y="108" text-anchor="middle" class="Lx">C</text>
<text x="370" y="87" text-anchor="middle" class="Lx">R</text>
<text x="320" y="128" text-anchor="middle" class="Lx">C=compression  R=rarefaction</text>
<text x="240" y="137" text-anchor="middle" class="Lx">frequency=pitch  ·  amplitude=loudness  ·  wavelength=spacing between peaks</text>
<line x1="22" y1="141" x2="458" y2="141" stroke="#000" stroke-width="0.3"/>
<text x="240" y="152" text-anchor="middle" class="H">— · —  VIBRATING STRING  — · —</text>
<line x1="22" y1="156" x2="458" y2="156" stroke="#000" stroke-width="0.3"/>
<circle cx="28" cy="170" r="2" fill="#000" stroke="#000" stroke-width="0.8"/>
<circle cx="200" cy="170" r="2" fill="#000" stroke="#000" stroke-width="0.8"/>
<line x1="28" y1="170" x2="200" y2="170" stroke="#000" stroke-width="0.9"/>
<text x="210" y="173" text-anchor="start" class="Lx">AT REST</text>
<circle cx="28" cy="183" r="2" fill="#000" stroke="#000" stroke-width="0.8"/>
<circle cx="200" cy="183" r="2" fill="#000" stroke="#000" stroke-width="0.8"/>
<polyline points="28.0,183.0 30.1,182.6 32.3,182.1 34.5,181.7 36.6,181.3 38.8,180.9 40.9,180.4 43.0,180.0 45.2,179.6 47.4,179.2 49.5,178.8 51.7,178.4 53.8,178.0 56.0,177.6 58.1,177.3 60.2,176.9 62.4,176.5 64.5,176.2 66.7,175.9 68.8,175.5 71.0,175.2 73.2,174.9 75.3,174.6 77.4,174.4 79.6,174.1 81.8,173.9 83.9,173.6 86.1,173.4 88.2,173.2 90.3,173.0 92.5,172.8 94.7,172.7 96.8,172.5 99.0,172.4 101.1,172.3 103.2,172.2 105.4,172.1 107.5,172.1 109.7,172.0 111.8,172.0 114.0,172.0 116.1,172.0 118.3,172.0 120.5,172.1 122.6,172.1 124.8,172.2 126.9,172.3 129.1,172.4 131.2,172.5 133.4,172.7 135.5,172.8 137.6,173.0 139.8,173.2 141.9,173.4 144.1,173.6 146.2,173.9 148.4,174.1 150.6,174.4 152.7,174.6 154.9,174.9 157.0,175.2 159.2,175.5 161.3,175.9 163.4,176.2 165.6,176.5 167.8,176.9 169.9,177.3 172.1,177.6 174.2,178.0 176.3,178.4 178.5,178.8 180.7,179.2 182.8,179.6 184.9,180.0 187.1,180.4 189.2,180.9 191.4,181.3 193.6,181.7 195.7,182.1 197.8,182.6 200.0,183.0" fill="none" stroke="#000" stroke-width="1.1"/>
<text x="210" y="186" text-anchor="start" class="Lx">FUNDAMENTAL — lowest pitch</text>
<circle cx="28" cy="196" r="2" fill="#000" stroke="#000" stroke-width="0.8"/>
<circle cx="200" cy="196" r="2" fill="#000" stroke="#000" stroke-width="0.8"/>
<polyline points="28.0,196.0 30.1,195.1 32.3,194.3 34.5,193.4 36.6,192.6 38.8,191.8 40.9,191.0 43.0,190.3 45.2,189.5 47.4,188.9 49.5,188.2 51.7,187.6 53.8,187.1 56.0,186.6 58.1,186.2 60.2,185.8 62.4,185.5 64.5,185.3 66.7,185.1 68.8,185.0 71.0,185.0 73.2,185.0 75.3,185.1 77.4,185.3 79.6,185.5 81.8,185.8 83.9,186.2 86.1,186.6 88.2,187.1 90.3,187.6 92.5,188.2 94.7,188.9 96.8,189.5 99.0,190.3 101.1,191.0 103.2,191.8 105.4,192.6 107.5,193.4 109.7,194.3 111.8,195.1 114.0,196.0 116.1,196.9 118.3,197.7 120.5,198.6 122.6,199.4 124.8,200.2 126.9,201.0 129.1,201.7 131.2,202.5 133.4,203.1 135.5,203.8 137.6,204.4 139.8,204.9 141.9,205.4 144.1,205.8 146.2,206.2 148.4,206.5 150.6,206.7 152.7,206.9 154.9,207.0 157.0,207.0 159.2,207.0 161.3,206.9 163.4,206.7 165.6,206.5 167.8,206.2 169.9,205.8 172.1,205.4 174.2,204.9 176.3,204.4 178.5,203.8 180.7,203.1 182.8,202.5 184.9,201.7 187.1,201.0 189.2,200.2 191.4,199.4 193.6,198.6 195.7,197.7 197.8,196.9 200.0,196.0" fill="none" stroke="#000" stroke-width="1.1"/>
<text x="210" y="199" text-anchor="start" class="Lx">2ND HARMONIC — higher pitch</text>
<line x1="22" y1="203" x2="458" y2="203" stroke="#000" stroke-width="0.3"/>
<text x="240" y="214" text-anchor="middle" class="H">— · —  THE RUBENS TUBE — FIRE SHOWS THE WAVE  — · —</text>
<line x1="22" y1="218" x2="458" y2="218" stroke="#000" stroke-width="0.3"/>
<rect x="22" y="248" width="360" height="15" fill="none" stroke="#000" stroke-width="1.2"/>
<line x1="32" y1="248" x2="32" y2="241" stroke="#000" stroke-width="1.1"/>
<circle cx="32" cy="239.0" r="2.2" fill="none" stroke="#000" stroke-width="0.6"/>
<line x1="51" y1="248" x2="51" y2="234" stroke="#000" stroke-width="1.1"/>
<circle cx="51" cy="232.43208823827" r="2.2" fill="none" stroke="#000" stroke-width="0.6"/>
<line x1="70" y1="248" x2="70" y2="228" stroke="#000" stroke-width="1.1"/>
<circle cx="70" cy="226.36562809094346" r="2.2" fill="none" stroke="#000" stroke-width="0.6"/>
<line x1="89" y1="248" x2="89" y2="223" stroke="#000" stroke-width="1.1"/>
<circle cx="89" cy="221.2637859867042" r="2.2" fill="none" stroke="#000" stroke-width="0.6"/>
<line x1="108" y1="248" x2="108" y2="220" stroke="#000" stroke-width="1.1"/>
<circle cx="108" cy="217.5160810074785" r="2.2" fill="none" stroke="#000" stroke-width="0.6"/>
<line x1="127" y1="248" x2="127" y2="217" stroke="#000" stroke-width="1.1"/>
<circle cx="127" cy="215.40864560758635" r="2.2" fill="none" stroke="#000" stroke-width="0.6"/>
<line x1="146" y1="248" x2="146" y2="217" stroke="#000" stroke-width="1.1"/>
<circle cx="146" cy="215.10237976891918" r="2.2" fill="none" stroke="#000" stroke-width="0.6"/>
<line x1="165" y1="248" x2="165" y2="219" stroke="#000" stroke-width="1.1"/>
<circle cx="165" cy="216.62066649429545" r="2.2" fill="none" stroke="#000" stroke-width="0.6"/>
<line x1="184" y1="248" x2="184" y2="222" stroke="#000" stroke-width="1.1"/>
<circle cx="184" cy="219.84758654527425" r="2.2" fill="none" stroke="#000" stroke-width="0.6"/>
<line x1="203" y1="248" x2="203" y2="227" stroke="#000" stroke-width="1.1"/>
<circle cx="203" cy="224.53676872689783" r="2.2" fill="none" stroke="#000" stroke-width="0.6"/>
<line x1="222" y1="248" x2="222" y2="232" stroke="#000" stroke-width="1.1"/>
<circle cx="222" cy="230.3302000115083" r="2.2" fill="none" stroke="#000" stroke-width="0.6"/>
<line x1="241" y1="248" x2="241" y2="239" stroke="#000" stroke-width="1.1"/>
<circle cx="241" cy="236.78555937288075" r="2.2" fill="none" stroke="#000" stroke-width="0.6"/>
<line x1="260" y1="248" x2="260" y2="237" stroke="#000" stroke-width="1.1"/>
<circle cx="260" cy="234.59001157240232" r="2.2" fill="none" stroke="#000" stroke-width="0.6"/>
<line x1="279" y1="248" x2="279" y2="230" stroke="#000" stroke-width="1.1"/>
<circle cx="279" cy="228.30227946136307" r="2.2" fill="none" stroke="#000" stroke-width="0.6"/>
<line x1="298" y1="248" x2="298" y2="225" stroke="#000" stroke-width="1.1"/>
<circle cx="298" cy="222.83130455248264" r="2.2" fill="none" stroke="#000" stroke-width="0.6"/>
<line x1="317" y1="248" x2="317" y2="221" stroke="#000" stroke-width="1.1"/>
<circle cx="317" cy="218.59478874248927" r="2.2" fill="none" stroke="#000" stroke-width="0.6"/>
<line x1="336" y1="248" x2="336" y2="218" stroke="#000" stroke-width="1.1"/>
<circle cx="336" cy="215.91618456385234" r="2.2" fill="none" stroke="#000" stroke-width="0.6"/>
<line x1="355" y1="248" x2="355" y2="217" stroke="#000" stroke-width="1.1"/>
<circle cx="355" cy="215.0" r="2.2" fill="none" stroke="#000" stroke-width="0.6"/>
<line x1="386" y1="255" x2="425" y2="255" stroke="#000" stroke-width="0.7"/><polygon points="425,253 430,255 425,257" fill="#000"/>
<text x="408" y="266" text-anchor="middle" class="Lx">SOUND</text>
<text x="200" y="231" text-anchor="middle" class="Lx">sound enters tube · pressure pattern visible in flame heights</text>
<text x="200" y="265" text-anchor="middle" class="Lx">build: metal pipe + drilled holes + any flammable gas</text>
<line x1="22" y1="270" x2="458" y2="270" stroke="#000" stroke-width="0.3"/>
<text x="240" y="281" text-anchor="middle" class="H">— · —  RESONANT FREQUENCY  ·  FATIGUE  ·  DIRECTED SOUND  — · —</text>
<line x1="22" y1="285" x2="458" y2="285" stroke="#000" stroke-width="0.3"/>
<line x1="52" y1="345" x2="52" y2="361" stroke="#000" stroke-width="1.0"/>
<line x1="38" y1="361" x2="66" y2="361" stroke="#000" stroke-width="1.0"/>
<path d="M34,335 Q32,343 52,345 Q72,343 70,335" fill="none" stroke="#000" stroke-width="1.0"/>
<line x1="34" y1="335" x2="70" y2="335" stroke="#000" stroke-width="1.0"/>
<line x1="30" y1="337" x2="30" y2="347" stroke="#000" stroke-width="0.6" stroke-dasharray="2,1"/>
<line x1="26" y1="337" x2="26" y2="347" stroke="#000" stroke-width="0.6" stroke-dasharray="2,1"/>
<line x1="74" y1="337" x2="74" y2="347" stroke="#000" stroke-width="0.6" stroke-dasharray="2,1"/>
<line x1="78" y1="337" x2="78" y2="347" stroke="#000" stroke-width="0.6" stroke-dasharray="2,1"/>
<text x="52" y="294" text-anchor="middle" class="Lx">MATCHING</text>
<text x="52" y="302" text-anchor="middle" class="Lx">FREQUENCY</text>
<text x="52" y="383" text-anchor="middle" class="Lx">SHATTERS</text>
<rect x="185" y="295" width="70" height="80" fill="none" stroke="#000" stroke-width="1.0"/>
<path d="M195,310 L210,323 L203,337" fill="none" stroke="#000" stroke-width="0.6"/>
<path d="M225,315 L237,330 L230,350" fill="none" stroke="#000" stroke-width="0.6"/>
<path d="M205,350 L220,360 L215,373" fill="none" stroke="#000" stroke-width="0.6"/>
<path d="M240,345 L250,357 L245,370" fill="none" stroke="#000" stroke-width="0.6"/>
<text x="220" y="294" text-anchor="middle" class="Lx">STONE WALL</text>
<text x="220" y="383" text-anchor="middle" class="Lx">MICRO-CRACKS</text>
<text x="220" y="390" text-anchor="middle" class="Lx">accumulate each cycle</text>
<polyline points="330.0,310.0 332.0,307.5 334.0,305.3 336.0,303.5 338.0,302.4 340.0,302.0 342.0,302.4 344.0,303.5 346.0,305.3 348.0,307.5 350.0,310.0 352.0,312.5 354.0,314.7 356.0,316.5 358.0,317.6 360.0,318.0 362.0,317.6 364.0,316.5 366.0,314.7 368.0,312.5 370.0,310.0 372.0,307.5 374.0,305.3 376.0,303.5 378.0,302.4 380.0,302.0 382.0,302.4 384.0,303.5 386.0,305.3 388.0,307.5 390.0,310.0 392.0,312.5 394.0,314.7 396.0,316.5 398.0,317.6 400.0,318.0 402.0,317.6 404.0,316.5 406.0,314.7 408.0,312.5 410.0,310.0 412.0,307.5 414.0,305.3 416.0,303.5 418.0,302.4 420.0,302.0 422.0,302.4 424.0,303.5 426.0,305.3 428.0,307.5 430.0,310.0 432.0,312.5 434.0,314.7 436.0,316.5 438.0,317.6 440.0,318.0 442.0,317.6 444.0,316.5 446.0,314.7 448.0,312.5 450.0,310.0" fill="none" stroke="#000" stroke-width="0.9"/>
<polyline points="330.0,328.0 332.0,325.1 334.0,322.6 336.0,320.9 338.0,320.0 340.0,320.3 342.0,321.5 344.0,323.6 346.0,326.3 348.0,329.3 350.0,332.0 352.0,334.2 354.0,335.6 356.0,336.0 358.0,335.3 360.0,333.7 362.0,331.3 364.0,328.4 366.0,325.5 368.0,323.0 370.0,321.1 372.0,320.1 374.0,320.2 376.0,321.3 378.0,323.3 380.0,325.9 382.0,328.8 384.0,331.6 386.0,333.9 388.0,335.5 390.0,336.0 392.0,335.5 394.0,333.9 396.0,331.6 398.0,328.8 400.0,325.9 402.0,323.3 404.0,321.3 406.0,320.2 408.0,320.1 410.0,321.1 412.0,323.0 414.0,325.5 416.0,328.4 418.0,331.3 420.0,333.7 422.0,335.3 424.0,336.0 426.0,335.6 428.0,334.2 430.0,332.0 432.0,329.3 434.0,326.3 436.0,323.6 438.0,321.5 440.0,320.3 442.0,320.0 444.0,320.9 446.0,322.6 448.0,325.1 450.0,328.0" fill="none" stroke="#000" stroke-width="0.9" stroke-dasharray="2,1"/>
<polyline points="330.0,353.0 332.0,353.1 334.0,353.5 336.0,353.9 338.0,354.4 340.0,354.8 342.0,355.0 344.0,354.8 346.0,354.2 348.0,353.3 350.0,352.1 352.0,350.7 354.0,349.5 356.0,348.5 358.0,348.0 360.0,348.1 362.0,348.8 364.0,350.1 366.0,352.0 368.0,354.2 370.0,356.5 372.0,358.6 374.0,360.1 376.0,360.9 378.0,360.8 380.0,359.8 382.0,357.8 384.0,355.1 386.0,352.0 388.0,348.9 390.0,346.0 392.0,343.8 394.0,342.7 396.0,342.6 398.0,343.9 400.0,346.2 402.0,349.5 404.0,353.3 406.0,357.2 408.0,360.8 410.0,363.5 412.0,365.1 414.0,365.3 416.0,364.1 418.0,361.6 420.0,357.9 422.0,353.7 424.0,349.3 426.0,345.2 428.0,341.9 430.0,339.9 432.0,339.4 434.0,340.5 436.0,343.0 438.0,346.7 440.0,351.2 442.0,355.9 444.0,360.3 446.0,363.9 448.0,366.2 450.0,367.0" fill="none" stroke="#000" stroke-width="1.2"/>
<text x="390" y="294" text-anchor="middle" class="Lx">TWO CLOSE TONES</text>
<text x="390" y="355" text-anchor="middle" class="Lx">= BEAT FREQUENCY</text>
<text x="390" y="363" text-anchor="middle" class="Lx">(infrasound: 1–15 Hz)</text>
<text x="240" y="372" text-anchor="middle" class="Lx">seven detuned horns → beat frequencies in infrasound range (1–15 Hz)</text>
<text x="240" y="380" text-anchor="middle" class="Lx">infrasound matches resonant frequency of stone walls → fatigue fracture over days</text>
<path d="M22,388 L22,396 L60,403 L60,381 Z" fill="none" stroke="#000" stroke-width="1.0"/>
<path d="M60,378 Q90,370 120,365" fill="none" stroke="#000" stroke-width="0.8"/>
<path d="M60,406 Q90,414 120,419" fill="none" stroke="#000" stroke-width="0.8"/>
<line x1="62" y1="384" x2="126" y2="384" stroke="#000" stroke-width="0.7"/><polygon points="126,382 130,384 126,386" fill="#000"/>
<line x1="62" y1="392" x2="126" y2="392" stroke="#000" stroke-width="0.7"/><polygon points="126,390 130,392 126,394" fill="#000"/>
<line x1="62" y1="400" x2="126" y2="400" stroke="#000" stroke-width="0.7"/><polygon points="126,398 130,400 126,402" fill="#000"/>
<text x="150" y="388" text-anchor="start" class="Lx">HORN GEOMETRY</text>
<text x="150" y="396" text-anchor="start" class="Lx">directs acoustic energy</text>
<text x="150" y="404" text-anchor="start" class="Lx">in a focused beam</text>
<line x1="22" y1="411" x2="458" y2="411" stroke="#000" stroke-width="0.3"/>
<text x="240" y="422" text-anchor="middle" class="H">— · —  THE GROOVE IS THE FROZEN WAVE  — · —</text>
<line x1="22" y1="426" x2="458" y2="426" stroke="#000" stroke-width="0.3"/>
<polyline points="24.0,455.0 26.6,451.7 29.2,448.5 31.8,445.6 34.4,443.1 37.0,441.1 39.6,439.8 42.2,439.1 44.8,439.1 47.4,439.8 50.0,441.1 52.6,443.1 55.2,445.6 57.8,448.5 60.4,451.7 63.0,455.0 65.6,458.3 68.2,461.5 70.8,464.4 73.4,466.9 76.0,468.9 78.6,470.2 81.2,470.9 83.8,470.9 86.4,470.2 89.0,468.9 91.6,466.9 94.2,464.4 96.8,461.5 99.4,458.3 102.0,455.0 104.6,451.7 107.2,448.5 109.8,445.6 112.4,443.1 115.0,441.1 117.6,439.8 120.2,439.1 122.8,439.1 125.4,439.8 128.0,441.1 130.6,443.1 133.2,445.6 135.8,448.5 138.4,451.7 141.0,455.0 143.6,458.3 146.2,461.5 148.8,464.4 151.4,466.9 154.0,468.9 156.6,470.2 159.2,470.9 161.8,470.9 164.4,470.2 167.0,468.9 169.6,466.9 172.2,464.4 174.8,461.5 177.4,458.3 180.0,455.0" fill="none" stroke="#000" stroke-width="1.2"/>
<text x="102" y="434" text-anchor="middle" class="Lx">SOUND WAVE</text>
<text x="102" y="484" text-anchor="middle" class="Lx">wave in air</text>
<text x="200" y="459" text-anchor="middle" class="L">=</text>
<line x1="188" y1="455" x2="194" y2="455" stroke="#000" stroke-width="0.7"/><polygon points="194,453 198,455 194,457" fill="#000"/>
<line x1="198" y1="468" x2="184" y2="468" stroke="#000" stroke-width="0.7"/><polygon points="184,466 188,468 184,470" fill="#000"/>
<polyline points="212.0,447.0 216.1,444.9 220.2,442.9 224.3,441.1 228.4,439.6 232.5,438.3 236.6,437.5 240.7,437.1 244.8,437.1 248.9,437.5 253.0,438.3 257.1,439.6 261.2,441.1 265.3,442.9 269.4,444.9 273.5,447.0 277.6,449.1 281.7,451.1 285.8,452.9 289.9,454.4 294.0,455.7 298.1,456.5 302.2,456.9 306.3,456.9 310.4,456.5 314.5,455.7 318.6,454.4 322.7,452.9 326.8,451.1 330.9,449.1 335.0,447.0 339.1,444.9 343.2,442.9 347.3,441.1 351.4,439.6 355.5,438.3 359.6,437.5 363.7,437.1 367.8,437.1 371.9,437.5 376.0,438.3 380.1,439.6 384.2,441.1 388.3,442.9 392.4,444.9 396.5,447.0 400.6,449.1 404.7,451.1 408.8,452.9 412.9,454.4 417.0,455.7 421.1,456.5 425.2,456.9 429.3,456.9 433.4,456.5 437.5,455.7 441.6,454.4 445.7,452.9 449.8,451.1 453.9,449.1 458.0,447.0" fill="none" stroke="#000" stroke-width="1.1"/>
<polyline points="212.0,463.0 216.1,460.9 220.2,458.9 224.3,457.1 228.4,455.6 232.5,454.3 236.6,453.5 240.7,453.1 244.8,453.1 248.9,453.5 253.0,454.3 257.1,455.6 261.2,457.1 265.3,458.9 269.4,460.9 273.5,463.0 277.6,465.1 281.7,467.1 285.8,468.9 289.9,470.4 294.0,471.7 298.1,472.5 302.2,472.9 306.3,472.9 310.4,472.5 314.5,471.7 318.6,470.4 322.7,468.9 326.8,467.1 330.9,465.1 335.0,463.0 339.1,460.9 343.2,458.9 347.3,457.1 351.4,455.6 355.5,454.3 359.6,453.5 363.7,453.1 367.8,453.1 371.9,453.5 376.0,454.3 380.1,455.6 384.2,457.1 388.3,458.9 392.4,460.9 396.5,463.0 400.6,465.1 404.7,467.1 408.8,468.9 412.9,470.4 417.0,471.7 421.1,472.5 425.2,472.9 429.3,472.9 433.4,472.5 437.5,471.7 441.6,470.4 445.7,468.9 449.8,467.1 453.9,465.1 458.0,463.0" fill="none" stroke="#000" stroke-width="1.1"/>
<polygon points="329,435 341,435 335,447" fill="none" stroke="#000" stroke-width="0.9"/>
<line x1="335" y1="425" x2="335" y2="435" stroke="#000" stroke-width="0.8"/>
<text x="335" y="434" text-anchor="middle" class="Lx">GROOVE IN METAL</text>
<text x="335" y="484" text-anchor="middle" class="Lx">needle reads the shape</text>
<text x="240" y="490" text-anchor="middle" class="Lx">NEEDLE TRACKS GROOVE → VIBRATES → CONE AMPLIFIES → SOUND RESTORED</text>
<line x1="22" y1="494" x2="458" y2="494" stroke="#000" stroke-width="0.3"/>
<text x="240" y="505" text-anchor="middle" class="H">— · —  THE COMPLETE CHAIN  — · —</text>
<line x1="22" y1="509" x2="458" y2="509" stroke="#000" stroke-width="0.3"/>
<rect x="41" y="530" width="58" height="26" fill="none" stroke="#000" stroke-width="0.9"/>
<text x="70" y="539" text-anchor="middle" class="Lx">VOICE</text>
<line x1="100" y1="543" x2="104" y2="543" stroke="#000" stroke-width="0.7"/><polygon points="104,541 108,543 104,545" fill="#000"/>
<rect x="109" y="530" width="58" height="26" fill="none" stroke="#000" stroke-width="0.9"/>
<text x="138" y="539" text-anchor="middle" class="Lx">AIR</text>
<text x="138" y="549" text-anchor="middle" class="Lx">WAVE</text>
<line x1="168" y1="543" x2="172" y2="543" stroke="#000" stroke-width="0.7"/><polygon points="172,541 176,543 172,545" fill="#000"/>
<rect x="177" y="530" width="58" height="26" fill="none" stroke="#000" stroke-width="0.9"/>
<text x="206" y="539" text-anchor="middle" class="Lx">GROOVE</text>
<text x="206" y="549" text-anchor="middle" class="Lx">IN METAL</text>
<line x1="236" y1="543" x2="240" y2="543" stroke="#000" stroke-width="0.7"/><polygon points="240,541 244,543 240,545" fill="#000"/>
<rect x="245" y="530" width="58" height="26" fill="none" stroke="#000" stroke-width="0.9"/>
<text x="274" y="539" text-anchor="middle" class="Lx">NEEDLE</text>
<text x="274" y="549" text-anchor="middle" class="Lx">READS</text>
<line x1="304" y1="543" x2="308" y2="543" stroke="#000" stroke-width="0.7"/><polygon points="308,541 312,543 308,545" fill="#000"/>
<rect x="313" y="530" width="58" height="26" fill="none" stroke="#000" stroke-width="0.9"/>
<text x="342" y="539" text-anchor="middle" class="Lx">CONE</text>
<text x="342" y="549" text-anchor="middle" class="Lx">SPEAKS</text>
<line x1="372" y1="543" x2="376" y2="543" stroke="#000" stroke-width="0.7"/><polygon points="376,541 380,543 376,545" fill="#000"/>
<rect x="381" y="530" width="58" height="26" fill="none" stroke="#000" stroke-width="0.9"/>
<text x="410" y="539" text-anchor="middle" class="Lx">VOICE</text>
<line x1="41" y1="562" x2="172.0" y2="562" stroke="#000" stroke-width="0.5"/>
<text x="106.0" y="571" text-anchor="middle" class="Lx">ENCODING</text>
<line x1="245" y1="562" x2="439" y2="562" stroke="#000" stroke-width="0.5"/>
<text x="342" y="571" text-anchor="middle" class="Lx">DECODING</text>
<text x="240" y="572" text-anchor="middle" class="Lx">sound can build  ·  sound can preserve  ·  sound can destroy</text>
<text x="240" y="582" text-anchor="middle" class="Lx">match frequency to structure → resonance  ·  sustain resonance → fatigue  ·  fatigue + impulse → failure</text>
<text x="240" y="592" text-anchor="middle" class="Lx">applications: test vessel integrity  ·  locate cracks  ·  break ore  ·  find water below ground</text>
<text x="240" y="608" text-anchor="middle" class="Lx">see Plate 9 for audio playback construction  ·  see Plate 10 for electrical generation</text>
<line x1="18" y1="615" x2="462" y2="615" stroke="#000" stroke-width="0.5"/>
<text x="240" y="624" text-anchor="middle" class="M">REMEMBER FORWARD · THE PATIENT MESSAGE · CC BY-SA 4.0 · rememberforward.org</text>
<line x1="18" y1="630" x2="462" y2="630" stroke="#000" stroke-width="1"/>
<text x="240" y="648" text-anchor="middle" class="Fb">THIS WAS MADE FOR YOU, FREELY, BY PEOPLE WHO CARED ABOUT THE FUTURE.</text>
<text x="240" y="663" text-anchor="middle" class="F">UNDERSTAND IT · BUILD WITH IT · LEAVE MORE CAPSULES FOR OTHERS</text>
</svg>