<svg viewBox="0 0 480 680" xmlns="http://www.w3.org/2000/svg">
<defs><style>
  text{font-family:Georgia,serif;fill:#000;}
  .T{font-size:12px;font-weight:bold;letter-spacing:2px;}
  .S{font-size:7px;letter-spacing:1.5px;}
  .H{font-size:6.5px;font-weight:bold;letter-spacing:2.5px;}
  .L{font-size:7px;}
  .Ls{font-size:6px;}
  .Lx{font-size:5.5px;}
  .Lheb{font-size:11px;}
  .M{font-size:6px;letter-spacing:1px;}
  .F{font-size:7px;font-style:italic;}
  .Fb{font-size:7.5px;font-weight:bold;}
</style></defs>
<rect x="6" y="6" width="468" height="668" rx="4" fill="none" stroke="#000" stroke-width="3"/>
<rect x="12" y="12" width="456" height="656" rx="2" fill="none" stroke="#000" stroke-width="0.75"/>
<text x="240" y="32" text-anchor="middle" class="T">PLATE 09B  ·  BIBLICAL HEBREW  ·  PHONOLOGY</text>
<line x1="18" y1="39" x2="462" y2="39" stroke="#000" stroke-width="0.75"/>
<text x="240" y="50" text-anchor="middle" class="S">how the sounds were made  ·  where in the mouth  ·  vowel system  ·  dagesh and begadkefat</text>
<line x1="18" y1="56" x2="462" y2="56" stroke="#000" stroke-width="0.5"/>
<text x="240" y="67" text-anchor="middle" class="H">— · —  PLACES OF ARTICULATION  ·  WHERE EACH SOUND IS MADE  — · —</text>
<line x1="22" y1="71" x2="458" y2="71" stroke="#000" stroke-width="0.3"/>
<path d="M45,88 Q45,70 65,68 Q95,65 110,80 Q120,90 118,108 Q116,130 108,148 Q100,165 88,170 Q75,172 68,162 Q58,148 55,130 Q48,115 45,100 Z" fill="none" stroke="#000" stroke-width="1.0"/>
<path d="M68,100 Q80,92 95,90 Q108,90 115,100" fill="none" stroke="#000" stroke-width="0.9"/>
<path d="M62,155 Q70,148 78,142 Q88,136 95,130 Q103,122 108,115" fill="none" stroke="#000" stroke-width="1.1"/>
<path d="M58,158 Q65,162 75,163 Q85,163 92,158" fill="none" stroke="#000" stroke-width="0.9"/>
<path d="M52,128 Q55,124 60,122 Q65,120 68,122" fill="none" stroke="#000" stroke-width="0.9"/>
<path d="M52,132 Q55,136 60,138 Q65,139 68,137" fill="none" stroke="#000" stroke-width="0.9"/>
<path d="M68,162 Q65,170 65,180" fill="none" stroke="#000" stroke-width="0.8"/>
<path d="M92,158 Q95,168 95,180" fill="none" stroke="#000" stroke-width="0.8"/>
<circle cx="52" cy="130" r="2.5" fill="#000" stroke="#000" stroke-width="1.0"/>
<text x="6" y="130" text-anchor="middle" class="Lx">LIPS</text>
<text x="6" y="139" text-anchor="middle" class="Lheb">בּ פּ מ</text>
<circle cx="65" cy="108" r="2.5" fill="#000" stroke="#000" stroke-width="1.0"/>
<text x="15" y="96" text-anchor="middle" class="Lx">TEETH</text>
<text x="15" y="104" text-anchor="middle" class="Lx">RIDGE</text>
<text x="15" y="113" text-anchor="middle" class="Lheb">ד ת ל נ ס ז</text>
<circle cx="85" cy="95" r="2.5" fill="#000" stroke="#000" stroke-width="1.0"/>
<text x="67" y="81" text-anchor="middle" class="Lx">PALATE</text>
<text x="67" y="90" text-anchor="middle" class="Lheb">שׁ יׁ</text>
<circle cx="108" cy="102" r="2.5" fill="#000" stroke="#000" stroke-width="1.0"/>
<text x="108" y="94" text-anchor="middle" class="Lx">SOFT</text>
<text x="108" y="102" text-anchor="middle" class="Lx">PALATE</text>
<text x="108" y="111" text-anchor="middle" class="Lheb">כּ גּ</text>
<circle cx="80" cy="145" r="2.5" fill="#000" stroke="#000" stroke-width="1.0"/>
<text x="54" y="159" text-anchor="middle" class="Lx">TONGUE</text>
<text x="54" y="167" text-anchor="middle" class="Lx">ROOT</text>
<text x="54" y="176" text-anchor="middle" class="Lheb">ח ע</text>
<circle cx="68" cy="172" r="2.5" fill="#000" stroke="#000" stroke-width="1.0"/>
<text x="42" y="184" text-anchor="middle" class="Lx">THROAT</text>
<text x="42" y="193" text-anchor="middle" class="Lheb">א ה</text>
<text x="195" y="75" text-anchor="start" class="Ls">CONSONANT GROUPS</text>
<rect x="195" y="77" width="260" height="12" fill="none" stroke="#000" stroke-width="0.5"/>
<text x="198" y="85" text-anchor="start" class="Lx">LABIAL</text>
<text x="320" y="85" text-anchor="middle" class="Lx">lips / teeth</text>
<text x="448" y="85" text-anchor="end" class="Lheb">ב פ מ ו</text>
<rect x="195" y="91" width="260" height="12" fill="none" stroke="#000" stroke-width="0.5"/>
<text x="198" y="99" text-anchor="start" class="Lx">DENTAL / ALVEOLAR</text>
<text x="320" y="99" text-anchor="middle" class="Lx">tongue tip</text>
<text x="448" y="99" text-anchor="end" class="Lheb">ד ת ל נ ס ז</text>
<rect x="195" y="105" width="260" height="12" fill="none" stroke="#000" stroke-width="0.5"/>
<text x="198" y="113" text-anchor="start" class="Lx">SIBILANT</text>
<text x="320" y="113" text-anchor="middle" class="Lx">hissing / hushing</text>
<text x="448" y="113" text-anchor="end" class="Lheb">שׁ שׂ צ ז ס</text>
<rect x="195" y="119" width="260" height="12" fill="none" stroke="#000" stroke-width="0.5"/>
<text x="198" y="127" text-anchor="start" class="Lx">PALATAL / VELAR</text>
<text x="320" y="127" text-anchor="middle" class="Lx">back of tongue</text>
<text x="448" y="127" text-anchor="end" class="Lheb">כ ג י</text>
<rect x="195" y="133" width="260" height="12" fill="none" stroke="#000" stroke-width="0.5"/>
<text x="198" y="141" text-anchor="start" class="Lx">UVULAR</text>
<text x="320" y="141" text-anchor="middle" class="Lx">deep throat</text>
<text x="448" y="141" text-anchor="end" class="Lheb">ק ר</text>
<rect x="195" y="147" width="260" height="12" fill="none" stroke="#000" stroke-width="0.5"/>
<text x="198" y="155" text-anchor="start" class="Lx">PHARYNGEAL</text>
<text x="320" y="155" text-anchor="middle" class="Lx">throat constrict</text>
<text x="448" y="155" text-anchor="end" class="Lheb">ח ע</text>
<rect x="195" y="161" width="260" height="12" fill="none" stroke="#000" stroke-width="0.5"/>
<text x="198" y="169" text-anchor="start" class="Lx">GLOTTAL</text>
<text x="320" y="169" text-anchor="middle" class="Lx">voice box start</text>
<text x="448" y="169" text-anchor="end" class="Lheb">א ה</text>
<line x1="22" y1="188" x2="458" y2="188" stroke="#000" stroke-width="0.5"/>
<text x="240" y="198" text-anchor="middle" class="H">— · —  THE GUTTURALS  ·  THE THROAT SOUNDS  — · —</text>
<line x1="22" y1="202" x2="458" y2="202" stroke="#000" stroke-width="0.3"/>
<text x="240" y="210" text-anchor="middle" class="Lx">four letters produced deep in the throat  ·  cannot take dagesh  ·  attract open a-vowels</text>
<rect x="22" y="215" width="108" height="38" fill="none" stroke="#000" stroke-width="0.9"/>
<text x="38" y="228" text-anchor="middle" class="Lheb">א</text>
<text x="84" y="224" text-anchor="middle" class="Ls">Aleph</text>
<text x="84" y="233" text-anchor="middle" class="Lx">/ʔ/  glottal stop</text>
<text x="84" y="241" text-anchor="middle" class="Lx">silent / catch in throat</text>
<text x="84" y="249" text-anchor="middle" class="Lx">like the pause in uh-oh</text>
<rect x="133" y="215" width="108" height="38" fill="none" stroke="#000" stroke-width="0.9"/>
<text x="149" y="228" text-anchor="middle" class="Lheb">ה</text>
<text x="195" y="224" text-anchor="middle" class="Ls">He</text>
<text x="195" y="233" text-anchor="middle" class="Lx">/h/  glottal /h/</text>
<text x="195" y="241" text-anchor="middle" class="Lx">breathy h at glottis</text>
<text x="195" y="249" text-anchor="middle" class="Lx">like English h but deeper</text>
<rect x="244" y="215" width="108" height="38" fill="none" stroke="#000" stroke-width="0.9"/>
<text x="260" y="228" text-anchor="middle" class="Lheb">ח</text>
<text x="306" y="224" text-anchor="middle" class="Ls">Chet</text>
<text x="306" y="233" text-anchor="middle" class="Lx">/ħ/  pharyngeal</text>
<text x="306" y="241" text-anchor="middle" class="Lx">scraping from throat</text>
<text x="306" y="249" text-anchor="middle" class="Lx">like Arabic ح — no English equiv</text>
<rect x="355" y="215" width="108" height="38" fill="none" stroke="#000" stroke-width="0.9"/>
<text x="371" y="228" text-anchor="middle" class="Lheb">ע</text>
<text x="417" y="224" text-anchor="middle" class="Ls">Ayin</text>
<text x="417" y="233" text-anchor="middle" class="Lx">/ʕ/  pharyngeal</text>
<text x="417" y="241" text-anchor="middle" class="Lx">voiced throat constrict</text>
<text x="417" y="249" text-anchor="middle" class="Lx">like Arabic ع — no English equiv</text>
<text x="240" y="258" text-anchor="middle" class="Lx">resh (ר) behaves like a guttural in many contexts · uvular trill /r/ produced near pharyngeals</text>
<line x1="22" y1="263" x2="458" y2="263" stroke="#000" stroke-width="0.5"/>
<text x="240" y="273" text-anchor="middle" class="H">— · —  BEGADKEFAT  ·  SIX LETTERS WITH TWO SOUNDS EACH  — · —</text>
<line x1="22" y1="277" x2="458" y2="277" stroke="#000" stroke-width="0.3"/>
<text x="240" y="285" text-anchor="middle" class="Lx">dagesh lene (dot inside letter) = hard stop  ·  no dagesh = soft fricative  ·  occurs after vowel</text>
<rect x="22" y="290" width="72" height="44" fill="none" stroke="#000" stroke-width="0.9"/>
<line x1="58" y1="290" x2="58" y2="334" stroke="#000" stroke-width="0.4"/>
<text x="40" y="302" text-anchor="middle" class="Lheb">בּ</text>
<text x="40" y="312" text-anchor="middle" class="Ls">/B/</text>
<text x="40" y="321" text-anchor="middle" class="Lx">boy</text>
<text x="76" y="302" text-anchor="middle" class="Lheb">ב</text>
<text x="76" y="312" text-anchor="middle" class="Ls">/V/</text>
<text x="76" y="321" text-anchor="middle" class="Lx">vine</text>
<line x1="48" y1="326" x2="67" y2="326" stroke="#000" stroke-width="0.7"/><polygon points="67,325 70,326 67,327" fill="#000"/>
<rect x="97" y="290" width="72" height="44" fill="none" stroke="#000" stroke-width="0.9"/>
<line x1="133" y1="290" x2="133" y2="334" stroke="#000" stroke-width="0.4"/>
<text x="115" y="302" text-anchor="middle" class="Lheb">גּ</text>
<text x="115" y="312" text-anchor="middle" class="Ls">/G/</text>
<text x="115" y="321" text-anchor="middle" class="Lx">go</text>
<text x="151" y="302" text-anchor="middle" class="Lheb">ג</text>
<text x="151" y="312" text-anchor="middle" class="Ls">/GH/</text>
<text x="151" y="321" text-anchor="middle" class="Lx">French r / gargle</text>
<line x1="123" y1="326" x2="142" y2="326" stroke="#000" stroke-width="0.7"/><polygon points="142,325 145,326 142,327" fill="#000"/>
<rect x="172" y="290" width="72" height="44" fill="none" stroke="#000" stroke-width="0.9"/>
<line x1="208" y1="290" x2="208" y2="334" stroke="#000" stroke-width="0.4"/>
<text x="190" y="302" text-anchor="middle" class="Lheb">דּ</text>
<text x="190" y="312" text-anchor="middle" class="Ls">/D/</text>
<text x="190" y="321" text-anchor="middle" class="Lx">door</text>
<text x="226" y="302" text-anchor="middle" class="Lheb">ד</text>
<text x="226" y="312" text-anchor="middle" class="Ls">/DH/</text>
<text x="226" y="321" text-anchor="middle" class="Lx">this (th voiced)</text>
<line x1="198" y1="326" x2="217" y2="326" stroke="#000" stroke-width="0.7"/><polygon points="217,325 220,326 217,327" fill="#000"/>
<rect x="247" y="290" width="72" height="44" fill="none" stroke="#000" stroke-width="0.9"/>
<line x1="283" y1="290" x2="283" y2="334" stroke="#000" stroke-width="0.4"/>
<text x="265" y="302" text-anchor="middle" class="Lheb">כּ</text>
<text x="265" y="312" text-anchor="middle" class="Ls">/K/</text>
<text x="265" y="321" text-anchor="middle" class="Lx">king</text>
<text x="301" y="302" text-anchor="middle" class="Lheb">כ</text>
<text x="301" y="312" text-anchor="middle" class="Ls">/KH/</text>
<text x="301" y="321" text-anchor="middle" class="Lx">Bach (German)</text>
<line x1="273" y1="326" x2="292" y2="326" stroke="#000" stroke-width="0.7"/><polygon points="292,325 295,326 292,327" fill="#000"/>
<rect x="322" y="290" width="72" height="44" fill="none" stroke="#000" stroke-width="0.9"/>
<line x1="358" y1="290" x2="358" y2="334" stroke="#000" stroke-width="0.4"/>
<text x="340" y="302" text-anchor="middle" class="Lheb">פּ</text>
<text x="340" y="312" text-anchor="middle" class="Ls">/P/</text>
<text x="340" y="321" text-anchor="middle" class="Lx">pick</text>
<text x="376" y="302" text-anchor="middle" class="Lheb">פ</text>
<text x="376" y="312" text-anchor="middle" class="Ls">/F/</text>
<text x="376" y="321" text-anchor="middle" class="Lx">five</text>
<line x1="348" y1="326" x2="367" y2="326" stroke="#000" stroke-width="0.7"/><polygon points="367,325 370,326 367,327" fill="#000"/>
<rect x="397" y="290" width="72" height="44" fill="none" stroke="#000" stroke-width="0.9"/>
<line x1="433" y1="290" x2="433" y2="334" stroke="#000" stroke-width="0.4"/>
<text x="415" y="302" text-anchor="middle" class="Lheb">תּ</text>
<text x="415" y="312" text-anchor="middle" class="Ls">/T/</text>
<text x="415" y="321" text-anchor="middle" class="Lx">top</text>
<text x="451" y="302" text-anchor="middle" class="Lheb">ת</text>
<text x="451" y="312" text-anchor="middle" class="Ls">/TH/</text>
<text x="451" y="321" text-anchor="middle" class="Lx">think (th unvoiced)</text>
<line x1="423" y1="326" x2="442" y2="326" stroke="#000" stroke-width="0.7"/><polygon points="442,325 445,326 442,327" fill="#000"/>
<text x="240" y="338" text-anchor="middle" class="Lx">Modern Hebrew retained only ב/ו  כ/ח  פ/ף  ·  Biblical Hebrew had all six</text>
<line x1="22" y1="343" x2="458" y2="343" stroke="#000" stroke-width="0.5"/>
<text x="240" y="353" text-anchor="middle" class="H">— · —  THE VOWEL SYSTEM  ·  TIBERIAN NIKKUD  — · —</text>
<line x1="22" y1="357" x2="458" y2="357" stroke="#000" stroke-width="0.3"/>
<text x="240" y="365" text-anchor="middle" class="Lx">Masoretes (7th–10th c. CE) added vowel points to preserve pronunciation  ·  written below/above consonant</text>
<text x="240" y="373" text-anchor="middle" class="Lx">Biblical Hebrew: 5 vowel qualities  ·  each long or short  ·  plus ultra-short (hataf) forms</text>
<rect x="22" y="378" width="46" height="34" fill="none" stroke="#000" stroke-width="0.8"/>
<text x="45" y="392" text-anchor="middle" class="Lheb">בַ</text>
<text x="45" y="402" text-anchor="middle" class="Lx">Patah</text>
<text x="45" y="410" text-anchor="middle" class="Lx">/a/</text>
<rect x="71" y="378" width="46" height="34" fill="none" stroke="#000" stroke-width="0.8"/>
<text x="94" y="392" text-anchor="middle" class="Lheb">בָ</text>
<text x="94" y="402" text-anchor="middle" class="Lx">Qamats</text>
<text x="94" y="410" text-anchor="middle" class="Lx">/aː/</text>
<rect x="120" y="378" width="46" height="34" fill="none" stroke="#000" stroke-width="0.8"/>
<text x="143" y="392" text-anchor="middle" class="Lheb">בֶ</text>
<text x="143" y="402" text-anchor="middle" class="Lx">Segol</text>
<text x="143" y="410" text-anchor="middle" class="Lx">/e/</text>
<rect x="169" y="378" width="46" height="34" fill="none" stroke="#000" stroke-width="0.8"/>
<text x="192" y="392" text-anchor="middle" class="Lheb">בֵ</text>
<text x="192" y="402" text-anchor="middle" class="Lx">Tsere</text>
<text x="192" y="410" text-anchor="middle" class="Lx">/eː/</text>
<rect x="218" y="378" width="46" height="34" fill="none" stroke="#000" stroke-width="0.8"/>
<text x="241" y="392" text-anchor="middle" class="Lheb">בִ</text>
<text x="241" y="402" text-anchor="middle" class="Lx">Hiriq</text>
<text x="241" y="410" text-anchor="middle" class="Lx">/i/</text>
<rect x="267" y="378" width="46" height="34" fill="none" stroke="#000" stroke-width="0.8"/>
<text x="290" y="392" text-anchor="middle" class="Lheb">בֹ</text>
<text x="290" y="402" text-anchor="middle" class="Lx">Holem</text>
<text x="290" y="410" text-anchor="middle" class="Lx">/oː/</text>
<rect x="316" y="378" width="46" height="34" fill="none" stroke="#000" stroke-width="0.8"/>
<text x="339" y="392" text-anchor="middle" class="Lheb">בֻ</text>
<text x="339" y="402" text-anchor="middle" class="Lx">Qibbuts</text>
<text x="339" y="410" text-anchor="middle" class="Lx">/u/</text>
<rect x="365" y="378" width="46" height="34" fill="none" stroke="#000" stroke-width="0.8"/>
<text x="388" y="392" text-anchor="middle" class="Lheb">בּוּ</text>
<text x="388" y="402" text-anchor="middle" class="Lx">Shuruq</text>
<text x="388" y="410" text-anchor="middle" class="Lx">/uː/</text>
<rect x="414" y="378" width="46" height="34" fill="none" stroke="#000" stroke-width="0.8"/>
<text x="437" y="392" text-anchor="middle" class="Lheb">בְ</text>
<text x="437" y="402" text-anchor="middle" class="Lx">Sheva</text>
<text x="437" y="410" text-anchor="middle" class="Lx">/ə/</text>
<text x="22" y="420" text-anchor="start" class="Lx">SHORT:</text>
<text x="22" y="428" text-anchor="start" class="Lx">patah · segol · hiriq · qibbuts</text>
<text x="240" y="420" text-anchor="start" class="Lx">LONG:</text>
<text x="240" y="428" text-anchor="start" class="Lx">qamats · tsere · holem · shuruq</text>
<line x1="22" y1="435" x2="458" y2="435" stroke="#000" stroke-width="0.3"/>
<text x="240" y="443" text-anchor="middle" class="Ls">ULTRA-SHORT (HATAF)  ·  under guttural letters only</text>
<rect x="48" y="447" width="130" height="20" fill="none" stroke="#000" stroke-width="0.7"/>
<text x="68" y="460" text-anchor="middle" class="Lheb">אֲ</text>
<text x="113" y="456" text-anchor="middle" class="Lx">Hataf Patah  /ă/  —  very short a</text>
<rect x="188" y="447" width="130" height="20" fill="none" stroke="#000" stroke-width="0.7"/>
<text x="208" y="460" text-anchor="middle" class="Lheb">אֱ</text>
<text x="253" y="456" text-anchor="middle" class="Lx">Hataf Segol  /ĕ/  —  very short e</text>
<rect x="328" y="447" width="130" height="20" fill="none" stroke="#000" stroke-width="0.7"/>
<text x="348" y="460" text-anchor="middle" class="Lheb">אֳ</text>
<text x="393" y="456" text-anchor="middle" class="Lx">Hataf Qamats  /ŏ/  —  very short o</text>
<line x1="22" y1="472" x2="458" y2="472" stroke="#000" stroke-width="0.5"/>
<text x="240" y="482" text-anchor="middle" class="H">— · —  SYLLABLE STRUCTURE  ·  STRESS  ·  KEY RULES  — · —</text>
<line x1="22" y1="486" x2="458" y2="486" stroke="#000" stroke-width="0.3"/>
<text x="22" y="497" text-anchor="start" class="Lx">OPEN SYLLABLE  (CV):</text>
<text x="22" y="507" text-anchor="start" class="Lx">consonant + vowel  ·  דָבָר da-BAR (word)  ·  stress usually final syllable</text>
<text x="22" y="518" text-anchor="start" class="Lx">CLOSED SYLLABLE  (CVC):</text>
<text x="22" y="528" text-anchor="start" class="Lx">consonant + vowel + consonant  ·  מֶלֶך ME-lekh (king)  ·  stress often penultimate</text>
<rect x="22" y="534" width="136" height="38" fill="none" stroke="#000" stroke-width="0.9"/>
<text x="90" y="543" text-anchor="middle" class="Ls">GUTTURALS</text>
<text x="90" y="552" text-anchor="middle" class="Ls">prefer A-vowels</text>
<text x="90" y="561" text-anchor="middle" class="Lx">שָמַע sha-MA (he heard)</text>
<text x="90" y="569" text-anchor="middle" class="Lx">Ayin attracts patah</text>
<rect x="165" y="534" width="136" height="38" fill="none" stroke="#000" stroke-width="0.9"/>
<text x="233" y="543" text-anchor="middle" class="Ls">DAGESH FORTE</text>
<text x="233" y="552" text-anchor="middle" class="Ls">doubles consonant</text>
<text x="233" y="561" text-anchor="middle" class="Lx">סַפֶּר sap-PER (he told)</text>
<text x="233" y="569" text-anchor="middle" class="Lx">dot = gemination</text>
<rect x="308" y="534" width="136" height="38" fill="none" stroke="#000" stroke-width="0.9"/>
<text x="376" y="543" text-anchor="middle" class="Ls">SHEVA NA</text>
<text x="376" y="552" text-anchor="middle" class="Ls">vocal between C’s</text>
<text x="376" y="561" text-anchor="middle" class="Lx">דְבָרִים d'-va-RIM (words)</text>
<text x="376" y="569" text-anchor="middle" class="Lx">sheva = quick schwa</text>
<line x1="22" y1="577" x2="458" y2="577" stroke="#000" stroke-width="0.5"/>
<text x="240" y="587" text-anchor="middle" class="H">— · —  CONNECT TO AUDIO DISC  ·  HEAR THESE SOUNDS  — · —</text>
<line x1="22" y1="591" x2="458" y2="591" stroke="#000" stroke-width="0.3"/>
<text x="240" y="600" text-anchor="middle" class="Lx">the audio disc for Biblical Hebrew demonstrates all consonants in sequence  ·  gutturals with Arabic comparison</text>
<text x="240" y="609" text-anchor="middle" class="Lx">then demonstrates all vowel points on a single root  ·  then the Shema (Deut 6:4) read aloud in full</text>
<rect x="22" y="612" width="436" height="18" fill="none" stroke="#000" stroke-width="0.8"/>
<text x="240" y="618" text-anchor="middle" class="Lheb">שְמַע יִשְׂרָאֵל יְהוָה אֱלֹהֵינוּ יְהוָה אֶחָד</text>
<text x="240" y="626" text-anchor="middle" class="Lx">Shːmaː Yisrāʾēl YHWH ʾĕlōhēνû YHWH ʾĕḥāḏ  ·  Hear O Israel, YHWH our God, YHWH is One</text>
<line x1="18" y1="633" x2="462" y2="633" stroke="#000" stroke-width="0.5"/>
<text x="240" y="641" text-anchor="middle" class="M">REMEMBER FORWARD · THE PATIENT MESSAGE · CC BY-SA 4.0 · rememberforward.org</text>
<line x1="18" y1="647" x2="462" y2="647" stroke="#000" stroke-width="1"/>
<text x="240" y="661" text-anchor="middle" class="Fb">THIS IS A PATIENT MESSAGE. IT WAS MADE FOR YOU, FREELY, BY PEOPLE WHO REMEMBERED FORWARD.</text>
<text x="240" y="672" text-anchor="middle" class="F">BUY IT · BUILD IT · BURY IT · FOR SOMEONE YOU WILL NEVER MEET</text>
</svg>