<?xml version="1.0" encoding="UTF-8"?>
<svg xmlns="http://www.w3.org/2000/svg" viewBox="0 0 480 680" width="480" height="680">
<defs><style>
text{font-family:Georgia,serif;}
.T{font-size:12px;font-weight:bold;letter-spacing:2px;}
.S{font-size:7px;letter-spacing:1.5px;}
.H{font-size:6.5px;font-weight:bold;letter-spacing:2.5px;}
.L{font-size:7px;}
.Ls{font-size:6px;}
.Lx{font-size:5.5px;}
.M{font-size:6px;}
.F{font-size:7px;font-style:italic;}
.Fb{font-size:7.5px;font-weight:bold;}
</style></defs>
<rect x="6" y="6" width="468" height="668" fill="none" stroke="black" stroke-width="3"/>
<rect x="12" y="12" width="456" height="656" fill="none" stroke="black" stroke-width="0.75"/>
<text x="240" y="32" text-anchor="middle" class="T" >SHONA</text>
<text x="240" y="50" text-anchor="middle" class="S" >Grammar &amp; Core Vocabulary</text>
<line x1="20" y1="60" x2="460" y2="60" stroke="black" stroke-width="0.3"/>
<text x="240" y="72" text-anchor="middle" class="H" >— SENTENCE STRUCTURE — SVO —</text>
<text x="240" y="82" text-anchor="middle" class="Ls" >Shona is Subject-Verb-Object. Verb agreement prefixes mirror noun class.</text>
<text x="240" y="92" text-anchor="middle" class="Ls" >Mwana adya sadza. Child 3SG.eat porridge = "The child is eating sadza."</text>
<line x1="20" y1="100" x2="460" y2="100" stroke="black" stroke-width="0.3"/>
<text x="240" y="109" text-anchor="middle" class="H" >— NOUN CLASS SYSTEM (BANTU) —</text>
<text x="240" y="119" text-anchor="middle" class="Ls" >Shona has ~15 noun classes (chi-/zvi-, mu-/mi-, mu-/va-, etc.) like all Bantu languages.</text>
<text x="90" y="129" text-anchor="middle" class="Ls" >mu-/va-</text>
<text x="310" y="129" text-anchor="middle" class="Lx" >persons: mwana (child) / vana (children)</text>
<text x="90" y="140" text-anchor="middle" class="Ls" >mu-/mi-</text>
<text x="310" y="140" text-anchor="middle" class="Lx" >trees/plants: muti (tree) / miti (trees)</text>
<text x="90" y="151" text-anchor="middle" class="Ls" >chi-/zvi-</text>
<text x="310" y="151" text-anchor="middle" class="Lx" >things: chibage (maize) / zvibage (maizes)</text>
<text x="90" y="162" text-anchor="middle" class="Ls" >i-/ma-</text>
<text x="310" y="162" text-anchor="middle" class="Lx" >mass/abstract: imba (house) / dzimba (houses)</text>
<text x="90" y="173" text-anchor="middle" class="Ls" >ri-/ma-</text>
<text x="310" y="173" text-anchor="middle" class="Lx" >body parts: rino (tooth) / mano (teeth)</text>
<text x="90" y="184" text-anchor="middle" class="Ls" >ru-/n-</text>
<text x="310" y="184" text-anchor="middle" class="Lx" >abstract/augmentative: rudo (love) / n- forms</text>
<text x="90" y="195" text-anchor="middle" class="Ls" >u-/ma-</text>
<text x="310" y="195" text-anchor="middle" class="Lx" >abstract: utano (health) / n- forms</text>
<text x="90" y="206" text-anchor="middle" class="Ls" >pa-/ku-/mu-</text>
<text x="310" y="206" text-anchor="middle" class="Lx" >locative classes: pano (here), kuenda (going)</text>
<line x1="20" y1="225" x2="460" y2="225" stroke="black" stroke-width="0.3"/>
<text x="240" y="234" text-anchor="middle" class="H" >— VERB MORPHOLOGY —</text>
<text x="240" y="244" text-anchor="middle" class="Ls" >Verb template: Subject prefix + Tense marker + Object prefix + Root + Final vowel.</text>
<text x="130" y="254" text-anchor="middle" class="L" >ndinoda</text>
<text x="320" y="254" text-anchor="middle" class="Ls" >I love (ndi-no-da)</text>
<text x="130" y="264" text-anchor="middle" class="L" >ari-da</text>
<text x="320" y="264" text-anchor="middle" class="Ls" >he/she loves (a-ri-da)</text>
<text x="130" y="274" text-anchor="middle" class="L" >nda-ku-ya</text>
<text x="320" y="274" text-anchor="middle" class="Ls" >I came (H tone = perfect)</text>
<text x="130" y="284" text-anchor="middle" class="L" >ndichaenda</text>
<text x="320" y="284" text-anchor="middle" class="Ls" >I will go (ndi-cha-end-a)</text>
<text x="130" y="294" text-anchor="middle" class="L" >ndakauya</text>
<text x="320" y="294" text-anchor="middle" class="Ls" >I had come (pluperfect)</text>
<text x="130" y="304" text-anchor="middle" class="L" >enda!</text>
<text x="320" y="304" text-anchor="middle" class="Ls" >go! (imperative)</text>
<text x="130" y="314" text-anchor="middle" class="L" >handidi</text>
<text x="320" y="314" text-anchor="middle" class="Ls" >I don't want (ha-ndi-di)</text>
<text x="130" y="324" text-anchor="middle" class="L" >tinofarira</text>
<text x="320" y="324" text-anchor="middle" class="Ls" >we like (ti-no-far-ir-a)</text>
<line x1="20" y1="340" x2="460" y2="340" stroke="black" stroke-width="0.3"/>
<text x="240" y="349" text-anchor="middle" class="H" >— CORE VOCABULARY —</text>
<text x="50" y="359" text-anchor="middle" class="Ls" >mhoro</text>
<text x="175" y="359" text-anchor="middle" class="Lx" >hello</text>
<text x="50" y="369" text-anchor="middle" class="Ls" >waswera sei?</text>
<text x="175" y="369" text-anchor="middle" class="Lx" >how was your day?</text>
<text x="50" y="379" text-anchor="middle" class="Ls" >ndinofara</text>
<text x="175" y="379" text-anchor="middle" class="Lx" >I am happy</text>
<text x="50" y="389" text-anchor="middle" class="Ls" >ndinoda</text>
<text x="175" y="389" text-anchor="middle" class="Lx" >I love / I want</text>
<text x="50" y="399" text-anchor="middle" class="Ls" >tatenda</text>
<text x="175" y="399" text-anchor="middle" class="Lx" >thank you</text>
<text x="50" y="409" text-anchor="middle" class="Ls" >ndiregerei</text>
<text x="175" y="409" text-anchor="middle" class="Lx" >please / forgive me</text>
<text x="50" y="419" text-anchor="middle" class="Ls" >hongu</text>
<text x="175" y="419" text-anchor="middle" class="Lx" >yes</text>
<text x="50" y="429" text-anchor="middle" class="Ls" >kwete</text>
<text x="175" y="429" text-anchor="middle" class="Lx" >no</text>
<text x="50" y="439" text-anchor="middle" class="Ls" >mwana</text>
<text x="175" y="439" text-anchor="middle" class="Lx" >child</text>
<text x="50" y="449" text-anchor="middle" class="Ls" >mai</text>
<text x="175" y="449" text-anchor="middle" class="Lx" >mother</text>
<text x="50" y="459" text-anchor="middle" class="Ls" >baba</text>
<text x="175" y="459" text-anchor="middle" class="Lx" >father</text>
<text x="50" y="469" text-anchor="middle" class="Ls" >imba</text>
<text x="175" y="469" text-anchor="middle" class="Lx" >house</text>
<text x="50" y="479" text-anchor="middle" class="Ls" >mvura</text>
<text x="175" y="479" text-anchor="middle" class="Lx" >water</text>
<text x="50" y="489" text-anchor="middle" class="Ls" >moto</text>
<text x="175" y="489" text-anchor="middle" class="Lx" >fire</text>
<text x="285" y="359" text-anchor="middle" class="Ls" >nyika</text>
<text x="410" y="359" text-anchor="middle" class="Lx" >country/earth</text>
<text x="285" y="369" text-anchor="middle" class="Ls" >munhu</text>
<text x="410" y="369" text-anchor="middle" class="Lx" >person</text>
<text x="285" y="379" text-anchor="middle" class="Ls" >nguva</text>
<text x="410" y="379" text-anchor="middle" class="Lx" >time</text>
<text x="285" y="389" text-anchor="middle" class="Ls" >mwedzi</text>
<text x="410" y="389" text-anchor="middle" class="Lx" >moon</text>
<text x="285" y="399" text-anchor="middle" class="Ls" >nyeredzi</text>
<text x="410" y="399" text-anchor="middle" class="Lx" >star</text>
<text x="285" y="409" text-anchor="middle" class="Ls" >moyo</text>
<text x="410" y="409" text-anchor="middle" class="Lx" >heart</text>
<text x="285" y="419" text-anchor="middle" class="Ls" >rudo</text>
<text x="410" y="419" text-anchor="middle" class="Lx" >love</text>
<text x="285" y="429" text-anchor="middle" class="Ls" >rusununguko</text>
<text x="410" y="429" text-anchor="middle" class="Lx" >freedom</text>
<text x="285" y="439" text-anchor="middle" class="Ls" >kuyeuka</text>
<text x="410" y="439" text-anchor="middle" class="Lx" >memory/remember</text>
<text x="285" y="449" text-anchor="middle" class="Ls" >mangwana</text>
<text x="410" y="449" text-anchor="middle" class="Lx" >tomorrow / future</text>
<text x="285" y="459" text-anchor="middle" class="Ls" >nyika yose</text>
<text x="410" y="459" text-anchor="middle" class="Lx" >the whole world</text>
<text x="285" y="469" text-anchor="middle" class="Ls" >zvakanaka</text>
<text x="410" y="469" text-anchor="middle" class="Lx" >good things / it is good</text>
<text x="285" y="479" text-anchor="middle" class="Ls" >hupenyu</text>
<text x="410" y="479" text-anchor="middle" class="Lx" >life</text>
<line x1="20" y1="610" x2="460" y2="610" stroke="black" stroke-width="0.3"/>
<text x="240" y="622" text-anchor="middle" class="M" >REMEMBER FORWARD — PLATE 36C — SHONA: GRAMMAR — rememberforward.org — CC BY-SA 4.0</text>
<line x1="20" y1="633" x2="460" y2="633" stroke="black" stroke-width="0.3"/>
<text x="240" y="648" text-anchor="middle" class="Fb" >THIS IS A PATIENT MESSAGE. IT WAS MADE FOR YOU, FREELY, BY PEOPLE WHO REMEMBERED FORWARD.</text>
<text x="240" y="663" text-anchor="middle" class="F" >BUY IT · BUILD IT · BURY IT · FOR SOMEONE YOU WILL NEVER MEET</text>
</svg>
