<?xml version="1.0" encoding="UTF-8"?>
<svg xmlns="http://www.w3.org/2000/svg" viewBox="0 0 480 680" width="480" height="680">
<style>
  text { font-family: Georgia, serif; }
  .T  { font-size:12px; font-weight:bold; letter-spacing:2px; }
  .S  { font-size:7px; letter-spacing:1.5px; }
  .H  { font-size:6.5px; font-weight:bold; letter-spacing:2.5px; }
  .L  { font-size:7px; }
  .Ls { font-size:6px; }
  .Lx { font-size:5.5px; }
  .M  { font-size:6px; letter-spacing:1px; }
  .F  { font-size:7px; font-style:italic; }
  .Fb { font-size:7.5px; font-weight:bold; }
</style>
<rect x="0" y="0" width="480" height="680" fill="white"/>
<rect x="6" y="6" width="468" height="668" fill="none" stroke="black" stroke-width="3"/>
<rect x="12" y="12" width="456" height="656" fill="none" stroke="black" stroke-width="0.75"/>
<text x="240" y="32" text-anchor="middle" class="T" >PORTUGUESE — GRAMMAR · VOCABULARY</text>
<text x="240" y="50" text-anchor="middle" class="S" >SERIES 27C OF 60 · REMEMBER FORWARD</text>
<line x1="20" y1="58" x2="460" y2="58" stroke="black" stroke-width="0.3"/>
<text x="240" y="68" text-anchor="middle" class="H" >— SVO — NULL SUBJECT — TWO GENDERS —</text>
<text x="240" y="79" text-anchor="middle" class="L" >Portuguese is SVO, null-subject, two genders (M/F). Very similar structure to Spanish.</text>
<text x="240" y="89" text-anchor="middle" class="Ls" >Key differences from Spanish: nasal vowels, personal infinitive, future subjunctive, mesoclisis.</text>
<line x1="20" y1="97" x2="460" y2="97" stroke="black" stroke-width="0.3"/>
<text x="240" y="106" text-anchor="middle" class="H" >— VERB CONJUGATION — falar "to speak" —</text>
<text x="105" y="116" text-anchor="middle" class="Lx" >Present Indicative</text>
<text x="355" y="116" text-anchor="middle" class="Lx" >Preterite</text>
<text x="42" y="125" text-anchor="middle" class="Lx" >eu</text>
<text x="110" y="125" text-anchor="middle" class="Ls" >falo</text>
<text x="200" y="125" text-anchor="middle" class="Lx" >I speak</text>
<text x="275" y="125" text-anchor="middle" class="Lx" >eu</text>
<text x="345" y="125" text-anchor="middle" class="Ls" >falei</text>
<text x="435" y="125" text-anchor="start" class="Lx" >I spoke</text>
<text x="42" y="136" text-anchor="middle" class="Lx" >tu</text>
<text x="110" y="136" text-anchor="middle" class="Ls" >falas</text>
<text x="200" y="136" text-anchor="middle" class="Lx" >you (inf)</text>
<text x="275" y="136" text-anchor="middle" class="Lx" >tu</text>
<text x="345" y="136" text-anchor="middle" class="Ls" >falaste</text>
<text x="435" y="136" text-anchor="start" class="Lx" >you</text>
<text x="42" y="147" text-anchor="middle" class="Lx" >ele/ela</text>
<text x="110" y="147" text-anchor="middle" class="Ls" >fala</text>
<text x="200" y="147" text-anchor="middle" class="Lx" >he/she</text>
<text x="275" y="147" text-anchor="middle" class="Lx" >ele/ela</text>
<text x="345" y="147" text-anchor="middle" class="Ls" >falou</text>
<text x="435" y="147" text-anchor="start" class="Lx" >he/she</text>
<text x="42" y="158" text-anchor="middle" class="Lx" >nós</text>
<text x="110" y="158" text-anchor="middle" class="Ls" >falamos</text>
<text x="200" y="158" text-anchor="middle" class="Lx" >we</text>
<text x="275" y="158" text-anchor="middle" class="Lx" >nós</text>
<text x="345" y="158" text-anchor="middle" class="Ls" >falámos</text>
<text x="435" y="158" text-anchor="start" class="Lx" >we</text>
<text x="42" y="169" text-anchor="middle" class="Lx" >vós</text>
<text x="110" y="169" text-anchor="middle" class="Ls" >falais</text>
<text x="200" y="169" text-anchor="middle" class="Lx" >you pl (archaic)</text>
<text x="275" y="169" text-anchor="middle" class="Lx" >vós</text>
<text x="345" y="169" text-anchor="middle" class="Ls" >flastes</text>
<text x="435" y="169" text-anchor="start" class="Lx" >you pl</text>
<text x="42" y="180" text-anchor="middle" class="Lx" >eles</text>
<text x="110" y="180" text-anchor="middle" class="Ls" >falam</text>
<text x="200" y="180" text-anchor="middle" class="Lx" >they</text>
<text x="275" y="180" text-anchor="middle" class="Lx" >eles</text>
<text x="345" y="180" text-anchor="middle" class="Ls" >falaram</text>
<text x="435" y="180" text-anchor="start" class="Lx" >they</text>
<line x1="20" y1="199" x2="460" y2="199" stroke="black" stroke-width="0.3"/>
<text x="240" y="208" text-anchor="middle" class="H" >— PERSONAL INFINITIVE — UNIQUE FEATURE —</text>
<text x="240" y="219" text-anchor="middle" class="L" >Portuguese is rare in having an INFLECTED infinitive — it takes subject endings even in the infinitive.</text>
<text x="240" y="229" text-anchor="middle" class="Ls" >Standard: "É importante trabalhar" (It is important to work — impersonal)</text>
<text x="240" y="238" text-anchor="middle" class="Ls" >Personal: "É importante trabalharmos" (It is important for us to work — specified subject)</text>
<text x="240" y="247" text-anchor="middle" class="Lx" >Forms: trabalhar / trabalhares / trabalhar / trabalharmos / trabalhardes / trabalharem</text>
<line x1="20" y1="255" x2="460" y2="255" stroke="black" stroke-width="0.3"/>
<text x="240" y="264" text-anchor="middle" class="H" >— FUTURE SUBJUNCTIVE — ANOTHER UNIQUE FEATURE —</text>
<text x="240" y="275" text-anchor="middle" class="Ls" >Portuguese retains the future subjunctive, lost in Spanish: used in temporal/conditional clauses.</text>
<text x="240" y="284" text-anchor="middle" class="Ls" >"Quando chegar" = "When (he/she) arrives" (future sub.) — Spanish uses present sub. here.</text>
<text x="240" y="293" text-anchor="middle" class="Ls" >"Se você quiser" = "If you want" — future sub.; Spanish: "Si quieres" (present indicative).</text>
<line x1="20" y1="301" x2="460" y2="301" stroke="black" stroke-width="0.3"/>
<text x="240" y="310" text-anchor="middle" class="H" >— CORE VOCABULARY — 25 WORDS —</text>
<text x="50" y="320" text-anchor="middle" class="Ls" >sim / não</text>
<text x="175" y="320" text-anchor="middle" class="Lx" >yes / no</text>
<text x="50" y="330" text-anchor="middle" class="Ls" >eu / você</text>
<text x="175" y="330" text-anchor="middle" class="Lx" >I / you</text>
<text x="50" y="340" text-anchor="middle" class="Ls" >isto / isso</text>
<text x="175" y="340" text-anchor="middle" class="Lx" >this / that</text>
<text x="50" y="350" text-anchor="middle" class="Ls" >onde</text>
<text x="175" y="350" text-anchor="middle" class="Lx" >where</text>
<text x="50" y="360" text-anchor="middle" class="Ls" >o que</text>
<text x="175" y="360" text-anchor="middle" class="Lx" >what</text>
<text x="50" y="370" text-anchor="middle" class="Ls" >quem</text>
<text x="175" y="370" text-anchor="middle" class="Lx" >who</text>
<text x="50" y="380" text-anchor="middle" class="Ls" >quando</text>
<text x="175" y="380" text-anchor="middle" class="Lx" >when</text>
<text x="50" y="390" text-anchor="middle" class="Ls" >por quê</text>
<text x="175" y="390" text-anchor="middle" class="Lx" >why</text>
<text x="50" y="400" text-anchor="middle" class="Ls" >água</text>
<text x="175" y="400" text-anchor="middle" class="Lx" >water</text>
<text x="50" y="410" text-anchor="middle" class="Ls" >fogo</text>
<text x="175" y="410" text-anchor="middle" class="Lx" >fire</text>
<text x="50" y="420" text-anchor="middle" class="Ls" >terra</text>
<text x="175" y="420" text-anchor="middle" class="Lx" >earth</text>
<text x="50" y="430" text-anchor="middle" class="Ls" >pessoa</text>
<text x="175" y="430" text-anchor="middle" class="Lx" >person</text>
<text x="50" y="440" text-anchor="middle" class="Ls" >livro</text>
<text x="175" y="440" text-anchor="middle" class="Lx" >book</text>
<text x="280" y="320" text-anchor="middle" class="Ls" >tempo</text>
<text x="405" y="320" text-anchor="middle" class="Lx" >time</text>
<text x="280" y="330" text-anchor="middle" class="Ls" >lua</text>
<text x="405" y="330" text-anchor="middle" class="Lx" >moon</text>
<text x="280" y="340" text-anchor="middle" class="Ls" >estrela</text>
<text x="405" y="340" text-anchor="middle" class="Lx" >star</text>
<text x="280" y="350" text-anchor="middle" class="Ls" >coração</text>
<text x="405" y="350" text-anchor="middle" class="Lx" >heart</text>
<text x="280" y="360" text-anchor="middle" class="Ls" >amor</text>
<text x="405" y="360" text-anchor="middle" class="Lx" >love</text>
<text x="280" y="370" text-anchor="middle" class="Ls" >liberdade</text>
<text x="405" y="370" text-anchor="middle" class="Lx" >freedom</text>
<text x="280" y="380" text-anchor="middle" class="Ls" >memória</text>
<text x="405" y="380" text-anchor="middle" class="Lx" >memory</text>
<text x="280" y="390" text-anchor="middle" class="Ls" >futuro</text>
<text x="405" y="390" text-anchor="middle" class="Lx" >future</text>
<text x="280" y="400" text-anchor="middle" class="Ls" >mundo</text>
<text x="405" y="400" text-anchor="middle" class="Lx" >world</text>
<text x="280" y="410" text-anchor="middle" class="Ls" >bom / mau</text>
<text x="405" y="410" text-anchor="middle" class="Lx" >good / bad</text>
<text x="280" y="420" text-anchor="middle" class="Ls" >tudo</text>
<text x="405" y="420" text-anchor="middle" class="Lx" >everything</text>
<text x="280" y="430" text-anchor="middle" class="Ls" >vida</text>
<text x="405" y="430" text-anchor="middle" class="Lx" >life</text>
<line x1="20" y1="453" x2="460" y2="453" stroke="black" stroke-width="0.3"/>
<text x="240" y="462" text-anchor="middle" class="H" >— SER VS ESTAR AND FICAR —</text>
<text x="240" y="473" text-anchor="middle" class="L" >Portuguese has three "to be" verbs: ser (identity), estar (state/position), ficar (become/stay).</text>
<text x="240" y="483" text-anchor="middle" class="Ls" >Ela é professora (She IS a teacher — ser, identity).</text>
<text x="240" y="492" text-anchor="middle" class="Ls" >Ela está cansada (She IS tired — estar, state).</text>
<text x="240" y="501" text-anchor="middle" class="Ls" >Ela ficou triste (She BECAME sad / She STAYED sad — ficar, change or continuation of state).</text>
<text x="240" y="510" text-anchor="middle" class="Ls" >Ficar distinguishes Portuguese from Spanish, which uses quedarse or ponerse for similar meanings.</text>
<line x1="20" y1="625" x2="460" y2="625" stroke="black" stroke-width="0.3"/>
<text x="240" y="620" text-anchor="middle" class="M" >SERIES 27 · PORTUGUESE · PLATE C · GRAMMAR · CC BY-SA 4.0 · REMEMBERFORWARD.ORG</text>
<line x1="20" y1="633" x2="460" y2="633" stroke="black" stroke-width="0.3"/>
<text x="240" y="648" text-anchor="middle" class="Fb" >THIS IS A PATIENT MESSAGE. IT WAS MADE FOR YOU, FREELY, BY PEOPLE WHO REMEMBERED FORWARD.</text>
<text x="240" y="663" text-anchor="middle" class="F" >BUY IT · BUILD IT · BURY IT · FOR SOMEONE YOU WILL NEVER MEET</text>
</svg>
