<?xml version="1.0" encoding="UTF-8"?>
<svg xmlns="http://www.w3.org/2000/svg" viewBox="0 0 480 680" width="480" height="680">
<style>
  text { font-family: Georgia, serif; }
  .T{font-size:12px;font-weight:bold;letter-spacing:2px}
  .S{font-size:7px;letter-spacing:1.5px}
  .H{font-size:6.5px;font-weight:bold;letter-spacing:2.5px}
  .L{font-size:7px} .Ls{font-size:6px} .Lx{font-size:5.5px}
  .M{font-size:6px;letter-spacing:1px}
  .F{font-size:7px;font-style:italic}
  .Fb{font-size:7.5px;font-weight:bold}
</style>
<rect x="0" y="0" width="480" height="680" fill="white"/>
<rect x="6" y="6" width="468" height="668" fill="none" stroke="black" stroke-width="3"/>
<rect x="12" y="12" width="456" height="656" fill="none" stroke="black" stroke-width="0.75"/>
<text x="240" y="32" text-anchor="middle" class="T" >SOMALI — GRAMMAR · VOCABULARY</text>
<text x="240" y="50" text-anchor="middle" class="S" >SERIES 32C OF 60 · REMEMBER FORWARD</text>
<line x1="20" y1="58" x2="460" y2="58" stroke="black" stroke-width="0.3"/>
<text x="240" y="68" text-anchor="middle" class="H" >— SOV — CASE SYSTEM — FOCUS MARKING —</text>
<text x="240" y="79" text-anchor="middle" class="L" >Somali is SOV with a complex system of case, gender, focus, and definiteness.</text>
<text x="240" y="89" text-anchor="middle" class="Ls" >Two genders: masculine and feminine. Definiteness marked by suffixes: -ka (M def), -ta (F def).</text>
<text x="240" y="98" text-anchor="middle" class="Ls" >FOCUS: a critical feature — subject and object can be marked with focus particles changing emphasis.</text>
<line x1="20" y1="106" x2="460" y2="106" stroke="black" stroke-width="0.3"/>
<text x="240" y="115" text-anchor="middle" class="H" >— CASES AND DEFINITENESS —</text>
<text x="85" y="125" text-anchor="middle" class="Lx" >Absolute (indef.)</text>
<text x="215" y="125" text-anchor="middle" class="Lx" >No suffix</text>
<text x="375" y="125" text-anchor="middle" class="Lx" >nin (a man), naag (a woman)</text>
<text x="85" y="139" text-anchor="middle" class="Lx" >Nominative (def.)</text>
<text x="215" y="139" text-anchor="middle" class="Lx" >M: -ku / -ka   F: -tu / -ta</text>
<text x="375" y="139" text-anchor="middle" class="Lx" >ninku (the man [subj]), naagtu (the woman)</text>
<text x="85" y="153" text-anchor="middle" class="Lx" >Genitive</text>
<text x="215" y="153" text-anchor="middle" class="Lx" >M: -ka   F: -ta</text>
<text x="375" y="153" text-anchor="middle" class="Lx" >guriga ninka (the man's house)</text>
<text x="85" y="167" text-anchor="middle" class="Lx" >Dative</text>
<text x="215" y="167" text-anchor="middle" class="Lx" >M: -ka   F: -ta + -nimo</text>
<text x="375" y="167" text-anchor="middle" class="Lx" >give TO the man</text>
<text x="85" y="181" text-anchor="middle" class="Lx" >Locative</text>
<text x="215" y="181" text-anchor="middle" class="Lx" >-ka / -ta</text>
<text x="375" y="181" text-anchor="middle" class="Lx" >in the house: guriga (the house + loc)</text>
<line x1="20" y1="198" x2="460" y2="198" stroke="black" stroke-width="0.3"/>
<text x="240" y="207" text-anchor="middle" class="H" >— VERB CONJUGATION — yiri "said" —</text>
<text x="240" y="218" text-anchor="middle" class="Ls" >Somali verbs are highly complex — they inflect for tense, aspect, mood, person, number, gender, and focus.</text>
<text x="55" y="228" text-anchor="middle" class="Lx" >Subject</text>
<text x="130" y="228" text-anchor="middle" class="Lx" >Pronoun</text>
<text x="240" y="228" text-anchor="middle" class="Lx" >Focus+aux (present)</text>
<text x="55" y="237" text-anchor="middle" class="Ls" >Aniga</text>
<text x="130" y="237" text-anchor="middle" class="Lx" >I</text>
<text x="240" y="237" text-anchor="middle" class="Ls" >waxaan</text>
<text x="55" y="248" text-anchor="middle" class="Ls" >Adiga</text>
<text x="130" y="248" text-anchor="middle" class="Lx" >you</text>
<text x="240" y="248" text-anchor="middle" class="Ls" >waxaad</text>
<text x="55" y="259" text-anchor="middle" class="Ls" >Isaga</text>
<text x="130" y="259" text-anchor="middle" class="Lx" >he</text>
<text x="240" y="259" text-anchor="middle" class="Ls" >wuxuu</text>
<text x="55" y="270" text-anchor="middle" class="Ls" >Iyada</text>
<text x="130" y="270" text-anchor="middle" class="Lx" >she</text>
<text x="240" y="270" text-anchor="middle" class="Ls" >waxay</text>
<text x="55" y="281" text-anchor="middle" class="Ls" >Annaga</text>
<text x="130" y="281" text-anchor="middle" class="Lx" >we</text>
<text x="240" y="281" text-anchor="middle" class="Ls" >waxaynu</text>
<text x="55" y="292" text-anchor="middle" class="Ls" >Idinka</text>
<text x="130" y="292" text-anchor="middle" class="Lx" >you pl</text>
<text x="240" y="292" text-anchor="middle" class="Ls" >waxaydin</text>
<text x="55" y="303" text-anchor="middle" class="Ls" >Iyaga</text>
<text x="130" y="303" text-anchor="middle" class="Lx" >they</text>
<text x="240" y="303" text-anchor="middle" class="Ls" >waxay</text>
<line x1="20" y1="316" x2="460" y2="316" stroke="black" stroke-width="0.3"/>
<text x="240" y="325" text-anchor="middle" class="H" >— CORE VOCABULARY — 25 WORDS —</text>
<text x="50" y="335" text-anchor="middle" class="Ls" >haa / maya</text>
<text x="175" y="335" text-anchor="middle" class="Lx" >yes / no</text>
<text x="50" y="345" text-anchor="middle" class="Ls" >aniga / adiga</text>
<text x="175" y="345" text-anchor="middle" class="Lx" >I / you</text>
<text x="50" y="355" text-anchor="middle" class="Ls" >tan / taas</text>
<text x="175" y="355" text-anchor="middle" class="Lx" >this / that</text>
<text x="50" y="365" text-anchor="middle" class="Ls" >xaggee?</text>
<text x="175" y="365" text-anchor="middle" class="Lx" >where</text>
<text x="50" y="375" text-anchor="middle" class="Ls" >maxay?</text>
<text x="175" y="375" text-anchor="middle" class="Lx" >what</text>
<text x="50" y="385" text-anchor="middle" class="Ls" >cidee?</text>
<text x="175" y="385" text-anchor="middle" class="Lx" >who</text>
<text x="50" y="395" text-anchor="middle" class="Ls" >goorma?</text>
<text x="175" y="395" text-anchor="middle" class="Lx" >when</text>
<text x="50" y="405" text-anchor="middle" class="Ls" >maxaa yeelay?</text>
<text x="175" y="405" text-anchor="middle" class="Lx" >why</text>
<text x="50" y="415" text-anchor="middle" class="Ls" >biyo</text>
<text x="175" y="415" text-anchor="middle" class="Lx" >water</text>
<text x="50" y="425" text-anchor="middle" class="Ls" >dab</text>
<text x="175" y="425" text-anchor="middle" class="Lx" >fire</text>
<text x="50" y="435" text-anchor="middle" class="Ls" >dhul</text>
<text x="175" y="435" text-anchor="middle" class="Lx" >land/earth</text>
<text x="50" y="445" text-anchor="middle" class="Ls" >qof</text>
<text x="175" y="445" text-anchor="middle" class="Lx" >person</text>
<text x="50" y="455" text-anchor="middle" class="Ls" >buug</text>
<text x="175" y="455" text-anchor="middle" class="Lx" >book</text>
<text x="280" y="335" text-anchor="middle" class="Ls" >waqti</text>
<text x="405" y="335" text-anchor="middle" class="Lx" >time</text>
<text x="280" y="345" text-anchor="middle" class="Ls" >dayax</text>
<text x="405" y="345" text-anchor="middle" class="Lx" >moon</text>
<text x="280" y="355" text-anchor="middle" class="Ls" >xiddig</text>
<text x="405" y="355" text-anchor="middle" class="Lx" >star</text>
<text x="280" y="365" text-anchor="middle" class="Ls" >qalbi</text>
<text x="405" y="365" text-anchor="middle" class="Lx" >heart</text>
<text x="280" y="375" text-anchor="middle" class="Ls" >jacayl</text>
<text x="405" y="375" text-anchor="middle" class="Lx" >love</text>
<text x="280" y="385" text-anchor="middle" class="Ls" >xorriyad</text>
<text x="405" y="385" text-anchor="middle" class="Lx" >freedom</text>
<text x="280" y="395" text-anchor="middle" class="Ls" >xusuus</text>
<text x="405" y="395" text-anchor="middle" class="Lx" >memory</text>
<text x="280" y="405" text-anchor="middle" class="Ls" >mustaqbal</text>
<text x="405" y="405" text-anchor="middle" class="Lx" >future</text>
<text x="280" y="415" text-anchor="middle" class="Ls" >adduunyo</text>
<text x="405" y="415" text-anchor="middle" class="Lx" >world</text>
<text x="280" y="425" text-anchor="middle" class="Ls" >wanaagsan / xun</text>
<text x="405" y="425" text-anchor="middle" class="Lx" >good / bad</text>
<text x="280" y="435" text-anchor="middle" class="Ls" >wax kasta</text>
<text x="405" y="435" text-anchor="middle" class="Lx" >everything</text>
<text x="280" y="445" text-anchor="middle" class="Ls" >nolol</text>
<text x="405" y="445" text-anchor="middle" class="Lx" >life</text>
<line x1="20" y1="468" x2="460" y2="468" stroke="black" stroke-width="0.3"/>
<text x="240" y="477" text-anchor="middle" class="H" >— FOCUS SYSTEM —</text>
<text x="240" y="488" text-anchor="middle" class="Ls" >Somali distinguishes SUBJECT FOCUS (waa), OBJECT/VERB FOCUS (baa/ayaa), and NON-VERBAL sentences.</text>
<text x="240" y="497" text-anchor="middle" class="Ls" >Ninku wuu tegay (the man went — neutral) vs Ninku buu tegay (the MAN went — subject focus).</text>
<text x="240" y="506" text-anchor="middle" class="Ls" >This is one of the most complex focus systems in any language.</text>
<line x1="20" y1="625" x2="460" y2="625" stroke="black" stroke-width="0.3"/>
<text x="240" y="620" text-anchor="middle" class="M" >SERIES 32 · SOMALI · PLATE C · GRAMMAR · CC BY-SA 4.0 · REMEMBERFORWARD.ORG</text>
<line x1="20" y1="633" x2="460" y2="633" stroke="black" stroke-width="0.3"/>
<text x="240" y="648" text-anchor="middle" class="Fb" >THIS IS A PATIENT MESSAGE. IT WAS MADE FOR YOU, FREELY, BY PEOPLE WHO REMEMBERED FORWARD.</text>
<text x="240" y="663" text-anchor="middle" class="F" >BUY IT · BUILD IT · BURY IT · FOR SOMEONE YOU WILL NEVER MEET</text>
</svg>
