<?xml version="1.0" encoding="utf-8"?>
<svg xmlns="http://www.w3.org/2000/svg" viewBox="0 0 480 680" width="480" height="680">
<style>
  .T  { font: bold 12px/1 Georgia,serif; letter-spacing: 2px; }
  .S  { font: 7px/1 Georgia,serif; letter-spacing: 1.5px; }
  .H  { font: bold 6.5px/1 Georgia,serif; letter-spacing: 2.5px; }
  .L  { font: 7px/1.35 Georgia,serif; }
  .Ls { font: 6px/1.35 Georgia,serif; }
  .Lx { font: 5.5px/1.35 Georgia,serif; }
  .Lg { font: italic 8px/1.2 Georgia,serif; }
  .M  { font: 6px/1 Georgia,serif; letter-spacing: 0.5px; }
  .F  { font: italic 7px/1 Georgia,serif; }
  .Fb { font: bold 7.5px/1 Georgia,serif; }
</style>
<rect x="6" y="6" width="468" height="668" fill="none" stroke="#111" stroke-width="3"/>
<rect x="12" y="12" width="456" height="656" fill="none" stroke="#111" stroke-width="0.75"/>
<text x="240" y="32" text-anchor="middle" class="T">FRENCH SIGN LANGUAGE (LSF)</text>
<text x="240" y="47" text-anchor="middle" class="S">LANGUE DES SIGNES FRANÇAISE · MANUAL ALPHABET · SERIES 64A</text>
<line x1="24" y1="55" x2="456" y2="55" stroke="#111" stroke-width="0.3"/>
<text x="240" y="65" text-anchor="middle" class="Lx">LSF — Langue des Signes Française — is the sign language of France and parts of French-speaking</text>
<text x="240" y="74" text-anchor="middle" class="Lx">Europe. c. 100,000 native signers. LSF is the PARENT LANGUAGE OF ASL: in 1817, French Deaf</text>
<text x="240" y="83" text-anchor="middle" class="Lx">teacher Laurent Clerc brought LSF to the USA with Thomas Hopkins Gallaudet to found the</text>
<text x="240" y="92" text-anchor="middle" class="Lx">American School for the Deaf. ~58% of modern ASL signs are cognate with historical LSF.</text>
<line x1="24" y1="100" x2="456" y2="100" stroke="#111" stroke-width="0.3"/>
<line x1="30" y1="107" x2="118" y2="107" stroke="#111" stroke-width="0.3"/>
<text x="240" y="111" text-anchor="middle" class="H">— HISTORICAL LINEAGE —</text>
<line x1="362" y1="107" x2="450" y2="107" stroke="#111" stroke-width="0.3"/>
<rect x="36" y="118" width="404" height="52" fill="none" stroke="#555" stroke-width="0.5"/>
<text x="240" y="130" text-anchor="middle" class="H">OLD FRENCH SIGN LANGUAGE  (Paris Deaf community, 18th century)</text>
<line x1="240" y1="134" x2="240" y2="142" stroke="#555" stroke-width="0.7"/>
<line x1="120" y1="142" x2="360" y2="142" stroke="#555" stroke-width="0.7"/>
<line x1="120" y1="142" x2="120" y2="150" stroke="#555" stroke-width="0.7"/>
<line x1="360" y1="142" x2="360" y2="150" stroke="#555" stroke-width="0.7"/>
<text x="120" y="158" text-anchor="middle" class="Lx">LSF (modern, France)</text>
<text x="360" y="158" text-anchor="middle" class="Lx">ASL (USA/Canada, 1817+)</text>
<text x="240" y="180" text-anchor="middle" class="Lx">LSF and ASL diverged after 1817 and are now distinct languages (though still cognate-rich).</text>
<line x1="24" y1="190" x2="456" y2="190" stroke="#111" stroke-width="0.3"/>
<line x1="30" y1="198" x2="118" y2="198" stroke="#111" stroke-width="0.3"/>
<text x="240" y="202" text-anchor="middle" class="H">— LSF ONE-HANDED MANUAL ALPHABET —</text>
<line x1="362" y1="198" x2="450" y2="198" stroke="#111" stroke-width="0.3"/>
<text x="240" y="208" text-anchor="middle" class="Lx">LSF uses a one-handed fingerspelling alphabet. It differs from ASL in 4 letters: H, J, X, T.</text>
<rect x="37.5" y="244.5" width="15.0" height="11.0" rx="2.5" fill="none" stroke="#111" stroke-width="0.75"/>
<rect x="31.5" y="248.0" width="6.0" height="5.0" rx="1.5" fill="none" stroke="#111" stroke-width="0.75"/>
<text x="45" y="264.5" text-anchor="middle" font-family="Georgia,serif" font-size="7.5" fill="#111">A</text>
<rect x="68.5" y="244.5" width="15.0" height="11.0" rx="2.5" fill="none" stroke="#111" stroke-width="0.75"/>
<rect x="69.2" y="233.5" width="2.6" height="11.0" rx="1.5" fill="none" stroke="#111" stroke-width="0.75"/>
<rect x="72.9" y="233.5" width="2.6" height="11.0" rx="1.5" fill="none" stroke="#111" stroke-width="0.75"/>
<rect x="76.5" y="233.5" width="2.6" height="11.0" rx="1.5" fill="none" stroke="#111" stroke-width="0.75"/>
<rect x="80.2" y="233.5" width="2.6" height="11.0" rx="1.5" fill="none" stroke="#111" stroke-width="0.75"/>
<line x1="69.5" y1="252.0" x2="82.5" y2="252.0" stroke="#111" stroke-width="0.75"/>
<text x="76" y="264.5" text-anchor="middle" font-family="Georgia,serif" font-size="7.5" fill="#111">B</text>
<path d="M113.9,240.2 A9,9 0 1,0 100.1,240.2" fill="none" stroke="#111" stroke-width="0.75"/>
<text x="107" y="264.5" text-anchor="middle" font-family="Georgia,serif" font-size="7.5" fill="#111">C</text>
<rect x="130.5" y="244.5" width="15.0" height="11.0" rx="2.5" fill="none" stroke="#111" stroke-width="0.75"/>
<rect x="131.2" y="233.5" width="2.6" height="11.0" rx="1.5" fill="none" stroke="#111" stroke-width="0.75"/>
<rect x="134.9" y="240.5" width="2.6" height="4.0" rx="1.5" fill="none" stroke="#111" stroke-width="0.75"/>
<rect x="138.5" y="240.5" width="2.6" height="4.0" rx="1.5" fill="none" stroke="#111" stroke-width="0.75"/>
<rect x="142.2" y="240.5" width="2.6" height="4.0" rx="1.5" fill="none" stroke="#111" stroke-width="0.75"/>
<rect x="126.5" y="237.5" width="4.0" height="7.0" rx="1.5" fill="none" stroke="#111" stroke-width="0.75"/>
<text x="138" y="264.5" text-anchor="middle" font-family="Georgia,serif" font-size="7.5" fill="#111">D</text>
<rect x="161.5" y="244.5" width="15.0" height="11.0" rx="2.5" fill="none" stroke="#111" stroke-width="0.75"/>
<rect x="162.2" y="242.5" width="2.6" height="2.0" rx="1.5" fill="none" stroke="#111" stroke-width="0.75"/>
<rect x="165.9" y="242.5" width="2.6" height="2.0" rx="1.5" fill="none" stroke="#111" stroke-width="0.75"/>
<rect x="169.5" y="242.5" width="2.6" height="2.0" rx="1.5" fill="none" stroke="#111" stroke-width="0.75"/>
<rect x="173.2" y="242.5" width="2.6" height="2.0" rx="1.5" fill="none" stroke="#111" stroke-width="0.75"/>
<line x1="162.5" y1="252.0" x2="175.5" y2="252.0" stroke="#111" stroke-width="0.75"/>
<text x="169" y="264.5" text-anchor="middle" font-family="Georgia,serif" font-size="7.5" fill="#111">E</text>
<rect x="192.5" y="244.5" width="15.0" height="11.0" rx="2.5" fill="none" stroke="#111" stroke-width="0.75"/>
<rect x="196.9" y="234.5" width="2.6" height="10.0" rx="1.5" fill="none" stroke="#111" stroke-width="0.75"/>
<rect x="200.5" y="234.5" width="2.6" height="10.0" rx="1.5" fill="none" stroke="#111" stroke-width="0.75"/>
<rect x="204.2" y="234.5" width="2.6" height="10.0" rx="1.5" fill="none" stroke="#111" stroke-width="0.75"/>
<circle cx="196.2" cy="241.5" r="3.0" fill="none" stroke="#111" stroke-width="0.75"/>
<text x="200" y="264.5" text-anchor="middle" font-family="Georgia,serif" font-size="7.5" fill="#111">F</text>
<rect x="221.0" y="247.0" width="10.0" height="10.0" rx="2" fill="none" stroke="#111" stroke-width="0.75"/>
<rect x="231.0" y="250.0" width="9.0" height="3.0" rx="1" fill="none" stroke="#111" stroke-width="0.75"/>
<rect x="221.0" y="243.0" width="3.5" height="5.0" rx="1" fill="none" stroke="#111" stroke-width="0.75"/>
<text x="231" y="264.5" text-anchor="middle" font-family="Georgia,serif" font-size="7.5" fill="#111">G</text>
<rect x="252.0" y="245.0" width="10.0" height="12.0" rx="2" fill="none" stroke="#111" stroke-width="0.75"/>
<rect x="262.0" y="246.0" width="9.0" height="3.0" rx="1" fill="none" stroke="#111" stroke-width="0.75"/>
<rect x="262.0" y="251.0" width="9.0" height="3.0" rx="1" fill="none" stroke="#111" stroke-width="0.75"/>
<text x="262" y="264.5" text-anchor="middle" font-family="Georgia,serif" font-size="7.5" fill="#111">H</text>
<rect x="285.5" y="244.5" width="15.0" height="11.0" rx="2.5" fill="none" stroke="#111" stroke-width="0.75"/>
<rect x="297.2" y="233.5" width="2.6" height="11.0" rx="1.5" fill="none" stroke="#111" stroke-width="0.75"/>
<rect x="279.5" y="248.0" width="6.0" height="5.0" rx="1.5" fill="none" stroke="#111" stroke-width="0.75"/>
<text x="293" y="264.5" text-anchor="middle" font-family="Georgia,serif" font-size="7.5" fill="#111">I</text>
<rect x="316.5" y="244.5" width="15.0" height="11.0" rx="2.5" fill="none" stroke="#111" stroke-width="0.75"/>
<rect x="328.2" y="233.5" width="2.6" height="11.0" rx="1.5" fill="none" stroke="#111" stroke-width="0.75"/>
<rect x="310.5" y="248.0" width="6.0" height="5.0" rx="1.5" fill="none" stroke="#111" stroke-width="0.75"/>
<circle cx="332.0" cy="242.0" r="1.2" fill="none" stroke="#111" stroke-width="0.75"/>
<circle cx="335.0" cy="246.0" r="1.2" fill="none" stroke="#111" stroke-width="0.75"/>
<text x="324" y="264.5" text-anchor="middle" font-family="Georgia,serif" font-size="7.5" fill="#111">J</text>
<rect x="347.5" y="244.5" width="15.0" height="11.0" rx="2.5" fill="none" stroke="#111" stroke-width="0.75"/>
<rect x="348.2" y="233.5" width="2.6" height="11.0" rx="1.5" fill="none" stroke="#111" stroke-width="0.75"/>
<rect x="351.9" y="235.5" width="2.6" height="9.0" rx="1.5" fill="none" stroke="#111" stroke-width="0.75"/>
<rect x="343.5" y="237.5" width="4.0" height="7.0" rx="1.5" fill="none" stroke="#111" stroke-width="0.75"/>
<text x="355" y="264.5" text-anchor="middle" font-family="Georgia,serif" font-size="7.5" fill="#111">K</text>
<rect x="378.5" y="244.5" width="15.0" height="11.0" rx="2.5" fill="none" stroke="#111" stroke-width="0.75"/>
<rect x="379.2" y="233.5" width="2.6" height="11.0" rx="1.5" fill="none" stroke="#111" stroke-width="0.75"/>
<rect x="370.5" y="248.0" width="8.0" height="5.0" rx="1.5" fill="none" stroke="#111" stroke-width="0.75"/>
<text x="386" y="264.5" text-anchor="middle" font-family="Georgia,serif" font-size="7.5" fill="#111">L</text>
<rect x="409.5" y="244.5" width="15.0" height="11.0" rx="2.5" fill="none" stroke="#111" stroke-width="0.75"/>
<rect x="410.2" y="241.5" width="2.6" height="3.0" rx="1.5" fill="none" stroke="#111" stroke-width="0.75"/>
<rect x="413.9" y="241.5" width="2.6" height="3.0" rx="1.5" fill="none" stroke="#111" stroke-width="0.75"/>
<rect x="417.5" y="241.5" width="2.6" height="3.0" rx="1.5" fill="none" stroke="#111" stroke-width="0.75"/>
<line x1="410.5" y1="252.0" x2="423.5" y2="252.0" stroke="#111" stroke-width="0.75"/>
<text x="417" y="264.5" text-anchor="middle" font-family="Georgia,serif" font-size="7.5" fill="#111">M</text>
<rect x="37.5" y="288.5" width="15.0" height="11.0" rx="2.5" fill="none" stroke="#111" stroke-width="0.75"/>
<rect x="38.2" y="285.5" width="2.6" height="3.0" rx="1.5" fill="none" stroke="#111" stroke-width="0.75"/>
<rect x="41.9" y="285.5" width="2.6" height="3.0" rx="1.5" fill="none" stroke="#111" stroke-width="0.75"/>
<line x1="38.5" y1="296.0" x2="51.5" y2="296.0" stroke="#111" stroke-width="0.75"/>
<text x="45" y="308.5" text-anchor="middle" font-family="Georgia,serif" font-size="7.5" fill="#111">N</text>
<circle cx="76.0" cy="290.0" r="9.0" fill="none" stroke="#111" stroke-width="0.75"/>
<text x="76" y="308.5" text-anchor="middle" font-family="Georgia,serif" font-size="7.5" fill="#111">O</text>
<rect x="102.0" y="290.0" width="10.0" height="11.0" rx="2" fill="none" stroke="#111" stroke-width="0.75"/>
<rect x="98.0" y="290.0" width="8.0" height="3.0" rx="1" fill="none" stroke="#111" stroke-width="0.75"/>
<rect x="98.0" y="295.0" width="8.0" height="3.0" rx="1" fill="none" stroke="#111" stroke-width="0.75"/>
<rect x="112.0" y="286.0" width="3.5" height="6.0" rx="1" fill="none" stroke="#111" stroke-width="0.75"/>
<text x="107" y="308.5" text-anchor="middle" font-family="Georgia,serif" font-size="7.5" fill="#111">P</text>
<rect x="133.0" y="286.0" width="10.0" height="10.0" rx="2" fill="none" stroke="#111" stroke-width="0.75"/>
<rect x="137.0" y="296.0" width="3.0" height="8.0" rx="1" fill="none" stroke="#111" stroke-width="0.75"/>
<rect x="143.0" y="290.0" width="6.0" height="3.0" rx="1" fill="none" stroke="#111" stroke-width="0.75"/>
<text x="138" y="308.5" text-anchor="middle" font-family="Georgia,serif" font-size="7.5" fill="#111">Q</text>
<rect x="161.5" y="288.5" width="15.0" height="11.0" rx="2.5" fill="none" stroke="#111" stroke-width="0.75"/>
<rect x="161.2" y="278.5" width="2.6" height="10.0" rx="1.5" fill="none" stroke="#111" stroke-width="0.75"/>
<rect x="166.9" y="278.5" width="2.6" height="10.0" rx="1.5" fill="none" stroke="#111" stroke-width="0.75"/>
<line x1="164.8" y1="282.5" x2="165.9" y2="278.5" stroke="#111" stroke-width="0.75"/>
<rect x="155.5" y="292.0" width="6.0" height="5.0" rx="1.5" fill="none" stroke="#111" stroke-width="0.75"/>
<text x="169" y="308.5" text-anchor="middle" font-family="Georgia,serif" font-size="7.5" fill="#111">R</text>
<rect x="192.5" y="288.5" width="15.0" height="11.0" rx="2.5" fill="none" stroke="#111" stroke-width="0.75"/>
<line x1="193.5" y1="290.5" x2="206.5" y2="290.5" stroke="#111" stroke-width="0.75"/>
<line x1="193.5" y1="296.0" x2="206.5" y2="296.0" stroke="#111" stroke-width="0.75"/>
<text x="200" y="308.5" text-anchor="middle" font-family="Georgia,serif" font-size="7.5" fill="#111">S</text>
<rect x="223.5" y="288.5" width="15.0" height="11.0" rx="2.5" fill="none" stroke="#111" stroke-width="0.75"/>
<rect x="224.2" y="284.5" width="2.6" height="4.0" rx="1.5" fill="none" stroke="#111" stroke-width="0.75"/>
<rect x="227.9" y="284.5" width="2.6" height="4.0" rx="1.5" fill="none" stroke="#111" stroke-width="0.75"/>
<rect x="226.8" y="282.5" width="1.1" height="5.0" rx="1" fill="none" stroke="#111" stroke-width="0.75"/>
<text x="231" y="308.5" text-anchor="middle" font-family="Georgia,serif" font-size="7.5" fill="#111">T</text>
<rect x="254.5" y="288.5" width="15.0" height="11.0" rx="2.5" fill="none" stroke="#111" stroke-width="0.75"/>
<rect x="255.2" y="277.5" width="2.6" height="11.0" rx="1.5" fill="none" stroke="#111" stroke-width="0.75"/>
<rect x="258.9" y="277.5" width="2.6" height="11.0" rx="1.5" fill="none" stroke="#111" stroke-width="0.75"/>
<rect x="248.5" y="292.0" width="6.0" height="5.0" rx="1.5" fill="none" stroke="#111" stroke-width="0.75"/>
<text x="262" y="308.5" text-anchor="middle" font-family="Georgia,serif" font-size="7.5" fill="#111">U</text>
<rect x="285.5" y="288.5" width="15.0" height="11.0" rx="2.5" fill="none" stroke="#111" stroke-width="0.75"/>
<rect x="284.7" y="277.5" width="2.6" height="11.0" rx="1.5" fill="none" stroke="#111" stroke-width="0.75"/>
<rect x="291.4" y="277.5" width="2.6" height="11.0" rx="1.5" fill="none" stroke="#111" stroke-width="0.75"/>
<rect x="279.5" y="292.0" width="6.0" height="5.0" rx="1.5" fill="none" stroke="#111" stroke-width="0.75"/>
<text x="293" y="308.5" text-anchor="middle" font-family="Georgia,serif" font-size="7.5" fill="#111">V</text>
<rect x="316.5" y="288.5" width="15.0" height="11.0" rx="2.5" fill="none" stroke="#111" stroke-width="0.75"/>
<rect x="317.2" y="277.5" width="2.6" height="11.0" rx="1.5" fill="none" stroke="#111" stroke-width="0.75"/>
<rect x="320.9" y="277.5" width="2.6" height="11.0" rx="1.5" fill="none" stroke="#111" stroke-width="0.75"/>
<rect x="324.5" y="277.5" width="2.6" height="11.0" rx="1.5" fill="none" stroke="#111" stroke-width="0.75"/>
<rect x="310.5" y="292.0" width="6.0" height="5.0" rx="1.5" fill="none" stroke="#111" stroke-width="0.75"/>
<text x="324" y="308.5" text-anchor="middle" font-family="Georgia,serif" font-size="7.5" fill="#111">W</text>
<rect x="347.5" y="288.5" width="15.0" height="11.0" rx="2.5" fill="none" stroke="#111" stroke-width="0.75"/>
<rect x="348.2" y="281.5" width="2.6" height="7.0" rx="1.5" fill="none" stroke="#111" stroke-width="0.75"/>
<line x1="350.8" y1="281.5" x2="353.8" y2="278.5" stroke="#111" stroke-width="0.75"/>
<rect x="341.5" y="292.0" width="6.0" height="5.0" rx="1.5" fill="none" stroke="#111" stroke-width="0.75"/>
<text x="355" y="308.5" text-anchor="middle" font-family="Georgia,serif" font-size="7.5" fill="#111">X</text>
<rect x="378.5" y="288.5" width="15.0" height="11.0" rx="2.5" fill="none" stroke="#111" stroke-width="0.75"/>
<rect x="390.2" y="277.5" width="2.6" height="11.0" rx="1.5" fill="none" stroke="#111" stroke-width="0.75"/>
<rect x="370.5" y="292.0" width="8.0" height="5.0" rx="1.5" fill="none" stroke="#111" stroke-width="0.75"/>
<text x="386" y="308.5" text-anchor="middle" font-family="Georgia,serif" font-size="7.5" fill="#111">Y</text>
<rect x="409.5" y="288.5" width="15.0" height="11.0" rx="2.5" fill="none" stroke="#111" stroke-width="0.75"/>
<rect x="410.2" y="277.5" width="2.6" height="11.0" rx="1.5" fill="none" stroke="#111" stroke-width="0.75"/>
<rect x="403.5" y="292.0" width="6.0" height="5.0" rx="1.5" fill="none" stroke="#111" stroke-width="0.75"/>
<circle cx="425.0" cy="285.0" r="1.2" fill="none" stroke="#111" stroke-width="0.75"/>
<circle cx="427.0" cy="288.0" r="1.2" fill="none" stroke="#111" stroke-width="0.75"/>
<text x="417" y="308.5" text-anchor="middle" font-family="Georgia,serif" font-size="7.5" fill="#111">Z</text>
<line x1="24" y1="314" x2="456" y2="314" stroke="#111" stroke-width="0.3"/>
<line x1="30" y1="320" x2="118" y2="320" stroke="#111" stroke-width="0.3"/>
<text x="240" y="324" text-anchor="middle" class="H">— LSF vs ASL ALPHABET DIFFERENCES —</text>
<line x1="362" y1="320" x2="450" y2="320" stroke="#111" stroke-width="0.3"/>
<text x="36" y="332" text-anchor="start" class="Ls">H:</text>
<text x="55" y="332" text-anchor="start" class="Lx">LSF: LSF: index+middle together, palm out, sideways</text>
<text x="55" y="340" text-anchor="start" class="Lx">ASL: ASL: index+middle sideways (similar but distinct palm orientation)</text>
<text x="36" y="350" text-anchor="start" class="Ls">J:</text>
<text x="55" y="350" text-anchor="start" class="Lx">LSF: LSF: J traced with index in the air</text>
<text x="55" y="358" text-anchor="start" class="Lx">ASL: ASL: pinky up, trace J in air (both motion letters)</text>
<text x="36" y="368" text-anchor="start" class="Ls">T:</text>
<text x="55" y="368" text-anchor="start" class="Lx">LSF: LSF: index+middle V, thumb between (different)</text>
<text x="55" y="376" text-anchor="start" class="Lx">ASL: ASL: thumb between index+middle of fist</text>
<text x="36" y="386" text-anchor="start" class="Ls">X:</text>
<text x="55" y="386" text-anchor="start" class="Lx">LSF: LSF: hooked index, touch thumb</text>
<text x="55" y="394" text-anchor="start" class="Lx">ASL: ASL: hooked index (very similar)</text>
<line x1="24" y1="607" x2="456" y2="607" stroke="#111" stroke-width="0.3"/>
<text x="240" y="616" text-anchor="middle" class="M">PLATE 64A  ·  SERIES 64  ·  FRENCH SIGN LANGUAGE (LSF)  ·  FRANCE · ~100,000 NATIVE SIGNERS · PARENT OF ASL</text>
<line x1="24" y1="622" x2="456" y2="622" stroke="#111" stroke-width="0.3"/>
<text x="240" y="631" text-anchor="middle" class="M">CC BY-SA 4.0  ·  rememberforward.org  ·  DOI 10.5281/zenodo.19433177</text>
<line x1="24" y1="638" x2="456" y2="638" stroke="#111" stroke-width="0.5"/>
<text x="240" y="649" text-anchor="middle" class="Fb">THIS IS A PATIENT MESSAGE. IT WAS MADE FOR YOU, FREELY, BY PEOPLE WHO REMEMBERED FORWARD.</text>
<text x="240" y="663" text-anchor="middle" class="F">BUY IT · BUILD IT · BURY IT · FOR SOMEONE YOU WILL NEVER MEET</text>
</svg>
