<svg viewBox="0 0 480 680" xmlns="http://www.w3.org/2000/svg">
<defs><style>
  text{font-family:Georgia,serif;fill:#000;}
  .T{font-size:13px;font-weight:bold;letter-spacing:2px;}
  .S{font-size:7.5px;letter-spacing:1.5px;}
  .H{font-size:7px;font-weight:bold;letter-spacing:2.5px;}
  .L{font-size:7px;}
  .Ls{font-size:6px;}
  .Lx{font-size:5.5px;}
  .M{font-size:6px;letter-spacing:1px;}
  .F{font-size:7px;font-style:italic;}
  .Fb{font-size:7px;font-weight:bold;}
</style></defs>
<rect x="6" y="6" width="468" height="668" rx="4" fill="none" stroke="#000" stroke-width="3"/>
<rect x="12" y="12" width="456" height="656" rx="2" fill="none" stroke="#000" stroke-width="0.75"/>
<text x="240" y="34" text-anchor="middle" class="T">PLATE 9  ·  AUDIO PLAYBACK</text>
<line x1="22" y1="40" x2="458" y2="40" stroke="#000" stroke-width="0.75"/>
<text x="240" y="51" text-anchor="middle" class="S">how a groove stores sound  ·  how a needle reads it  ·  how to build a player with found materials</text>
<line x1="22" y1="57" x2="458" y2="57" stroke="#000" stroke-width="0.5"/>
<line x1="22" y1="56" x2="458" y2="56" stroke="#000" stroke-width="0.3"/>
<text x="240" y="65" text-anchor="middle" class="H">— · —  THE GROOVE  — · —</text>
<line x1="22" y1="70" x2="458" y2="70" stroke="#000" stroke-width="0.3"/>
<line x1="22" y1="100" x2="175" y2="100" stroke="#000" stroke-width="1.0"/>
<line x1="65" y1="100" x2="98" y2="125" stroke="#000" stroke-width="1.0"/>
<line x1="131" y1="100" x2="98" y2="125" stroke="#000" stroke-width="1.0"/>
<circle cx="98" cy="122" r="4" fill="none" stroke="#000" stroke-width="0.8"/>
<text x="98" y="95" text-anchor="middle" class="Lx">GROOVE CROSS-SECTION</text>
<text x="30" y="105" text-anchor="middle" class="Lx">wall</text>
<text x="165" y="105" text-anchor="middle" class="Lx">wall</text>
<text x="98" y="136" text-anchor="middle" class="Lx">stylus tip</text>
<text x="98" y="143" text-anchor="middle" class="Lx">(radius ~0.5–2.5 mil)</text>
<text x="320" y="77" text-anchor="middle" class="Lx">GROOVE FROM ABOVE</text>
<line x1="200" y1="110" x2="450" y2="110" stroke="#000" stroke-width="0.3"/>
<polyline points="200,110.0 201,111.25333233564304 202,112.48689887164855 203,113.68124552684678 204,114.81753674101715 205,115.87785252292473 206,116.8454710592869 207,117.70513242775789 208,118.44327925502014 209,119.0482705246602 210,119.51056516295154 211,119.82287250728689 212,119.98026728428272 213,119.98026728428272 214,119.82287250728689 215,119.51056516295154 216,119.0482705246602 217,118.44327925502014 218,117.70513242775789 219,116.8454710592869 220,115.87785252292473 221,114.81753674101715 222,113.68124552684678 223,112.48689887164855 224,111.25333233564305 225,110.0 226,108.74666766435696 227,107.51310112835145 228,106.31875447315322 229,105.18246325898285 230,104.12214747707527 231,103.15452894071312 232,102.29486757224211 233,101.55672074497984 234,100.9517294753398 235,100.48943483704846 236,100.17712749271311 237,100.01973271571728 238,100.01973271571728 239,100.17712749271311 240,100.48943483704846 241,100.9517294753398 242,101.55672074497986 243,102.29486757224211 244,103.1545289407131 245,104.12214747707526 246,105.18246325898284 247,106.31875447315322 248,107.51310112835145 249,108.74666766435695 250,110.0 251,111.25333233564304 252,112.48689887164855 253,113.68124552684678 254,114.81753674101715 255,115.87785252292473 256,116.8454710592869 257,117.70513242775789 258,118.44327925502014 259,119.0482705246602 260,119.51056516295154 261,119.82287250728689 262,119.98026728428272 263,119.98026728428272 264,119.82287250728689 265,119.51056516295154 266,119.0482705246602 267,118.44327925502014 268,117.70513242775789 269,116.84547105928688 270,115.87785252292474 271,114.81753674101715 272,113.68124552684678 273,112.48689887164855 274,111.25333233564304 275,110.0 276,108.74666766435696 277,107.51310112835145 278,106.31875447315323 279,105.18246325898285 280,104.12214747707527 281,103.15452894071312 282,102.29486757224213 283,101.55672074497984 284,100.9517294753398 285,100.48943483704846 286,100.17712749271311 287,100.01973271571728 288,100.01973271571728 289,100.17712749271311 290,100.48943483704846 291,100.9517294753398 292,101.55672074497984 293,102.2948675722421 294,103.15452894071312 295,104.12214747707526 296,105.18246325898284 297,106.31875447315322 298,107.51310112835145 299,108.74666766435696 300,110.0 301,111.25333233564304 302,112.48689887164855 303,113.68124552684677 304,114.81753674101715 305,115.87785252292473 306,116.8454710592869 307,117.70513242775789 308,118.44327925502014 309,119.04827052466018 310,119.51056516295154 311,119.82287250728689 312,119.98026728428272 313,119.98026728428272 314,119.82287250728689 315,119.51056516295154 316,119.0482705246602 317,118.44327925502014 318,117.7051324277579 319,116.8454710592869 320,115.87785252292475 321,114.81753674101715 322,113.68124552684678 323,112.48689887164856 324,111.25333233564307 325,110.00000000000003 326,108.74666766435695 327,107.51310112835145 328,106.3187544731532 329,105.18246325898285 330,104.12214747707527 331,103.15452894071312 332,102.2948675722421 333,101.55672074497984 334,100.9517294753398 335,100.48943483704846 336,100.17712749271311 337,100.01973271571728 338,100.01973271571728 339,100.17712749271311 340,100.48943483704846 341,100.9517294753398 342,101.55672074497986 343,102.29486757224211 344,103.1545289407131 345,104.12214747707526 346,105.18246325898284 347,106.31875447315323 348,107.51310112835147 349,108.74666766435696 350,109.99999999999999 351,111.25333233564302 352,112.48689887164852 353,113.68124552684678 354,114.81753674101715 355,115.87785252292473 356,116.84547105928688 357,117.70513242775787 358,118.44327925502016 359,119.0482705246602 360,119.51056516295154 361,119.82287250728689 362,119.98026728428272 363,119.98026728428272 364,119.82287250728689 365,119.51056516295155 366,119.04827052466018 367,118.44327925502014 368,117.70513242775789 369,116.8454710592869 370,115.87785252292474 371,114.81753674101716 372,113.6812455268468 373,112.48689887164858 374,111.25333233564308 375,110.00000000000004 376,108.74666766435698 377,107.51310112835144 378,106.31875447315322 379,105.18246325898285 380,104.12214747707527 381,103.15452894071312 382,102.29486757224213 383,101.55672074497987 384,100.95172947533982 385,100.48943483704846 386,100.17712749271311 387,100.01973271571728 388,100.01973271571728 389,100.17712749271311 390,100.48943483704846 391,100.9517294753398 392,101.55672074497984 393,102.29486757224208 394,103.1545289407131 395,104.12214747707526 396,105.18246325898284 397,106.31875447315319 398,107.51310112835145 399,108.74666766435695 400,109.99999999999999 401,111.25333233564302 402,112.48689887164852 403,113.68124552684678 404,114.81753674101715 405,115.87785252292473 406,116.84547105928688 407,117.70513242775787 408,118.44327925502016 409,119.0482705246602 410,119.51056516295154 411,119.82287250728689 412,119.98026728428272 413,119.98026728428272 414,119.82287250728689 415,119.51056516295154 416,119.0482705246602 417,118.44327925502016 418,117.70513242775792 419,116.8454710592869 420,115.87785252292474 421,114.81753674101714 422,113.68124552684677 423,112.48689887164855 424,111.25333233564305 425,110.00000000000001 426,108.74666766435698 427,107.51310112835148 428,106.31875447315325 429,105.18246325898288 430,104.12214747707525 431,103.1545289407131 432,102.2948675722421 433,101.55672074497986 434,100.9517294753398 435,100.48943483704846 436,100.17712749271311 437,100.01973271571728 438,100.01973271571728 439,100.17712749271311 440,100.48943483704845 441,100.95172947533982 442,101.55672074497986 443,102.29486757224211 444,103.1545289407131 445,104.12214747707526 446,105.18246325898284 447,106.31875447315319 448,107.51310112835142 449,108.74666766435692 450,109.99999999999996" fill="none" stroke="#000" stroke-width="1.0"/>
<text x="200" y="125" text-anchor="start" class="Lx">silence</text>
<text x="320" y="125" text-anchor="middle" class="Lx">louder / higher freq</text>
<line x1="22" y1="130" x2="458" y2="130" stroke="#000" stroke-width="0.3"/>
<text x="50" y="139" text-anchor="start" class="Ls">78 RPM</text>
<text x="115" y="139" text-anchor="start" class="Lx">shellac · pre-1950 · 3–5 min/side · wide groove</text>
<text x="50" y="147" text-anchor="start" class="Ls">33⅓ RPM</text>
<text x="115" y="147" text-anchor="start" class="Lx">vinyl LP · from 1948 · 20–30 min/side</text>
<text x="50" y="155" text-anchor="start" class="Ls">45 RPM</text>
<text x="115" y="155" text-anchor="start" class="Lx">vinyl single · from 1949 · 4–6 min/side</text>
<line x1="22" y1="154" x2="458" y2="154" stroke="#000" stroke-width="0.3"/>
<text x="240" y="163" text-anchor="middle" class="H">— · —  THE STYLUS  (NEEDLE)  — · —</text>
<line x1="22" y1="168" x2="458" y2="168" stroke="#000" stroke-width="0.3"/>
<polyline points="60,170 60,205" fill="none" stroke="#000" stroke-width="1.5"/>
<line x1="60" y1="205" x2="75" y2="230" stroke="#000" stroke-width="1.2"/>
<circle cx="75" cy="233" r="2.5" fill="#000" stroke="#000" stroke-width="0.6"/>
<text x="45" y="176" text-anchor="end" class="Lx">shank</text>
<text x="35" y="210" text-anchor="end" class="Lx">cantilever</text>
<text x="85" y="235" text-anchor="start" class="Lx">tip</text>
<text x="60" y="245" text-anchor="middle" class="Lx">NEEDLE ANATOMY</text>
<text x="175" y="173" text-anchor="middle" class="Lx">CONICAL TIP</text>
<polyline points="155,175 175,210 195,175" fill="none" stroke="#000" stroke-width="0.8"/>
<circle cx="175" cy="210" r="3" fill="none" stroke="#000" stroke-width="0.7"/>
<text x="175" y="220" text-anchor="middle" class="Lx">side wear</text>
<text x="175" y="226" text-anchor="middle" class="Lx">(wider contact)</text>
<text x="265" y="173" text-anchor="middle" class="Lx">ELLIPTICAL TIP</text>
<polyline points="245,175 255,215 265,175" fill="none" stroke="#000" stroke-width="0.8"/>
<polyline points="265,175 275,215 285,175" fill="none" stroke="#000" stroke-width="0.8"/>
<circle cx="265" cy="215" r="2" fill="none" stroke="#000" stroke-width="0.7"/>
<text x="265" y="224" text-anchor="middle" class="Lx">better HF tracking</text>
<text x="390" y="173" text-anchor="middle" class="Lx">MATERIALS</text>
<text x="340" y="182" text-anchor="start" class="Ls">steel pin</text>
<text x="340" y="189" text-anchor="start" class="Lx">  works · wears fast</text>
<text x="340" y="199" text-anchor="start" class="Ls">cactus spine</text>
<text x="340" y="206" text-anchor="start" class="Lx">  traditional 78 RPM use</text>
<text x="340" y="216" text-anchor="start" class="Ls">thorn (hardwood)</text>
<text x="340" y="223" text-anchor="start" class="Lx">  file to point, ~2 per side</text>
<text x="340" y="233" text-anchor="start" class="Ls">bone splinter</text>
<text x="340" y="240" text-anchor="start" class="Lx">  file and polish tip</text>
<text x="340" y="250" text-anchor="start" class="Ls">sapphire/diamond</text>
<text x="340" y="257" text-anchor="start" class="Lx">  commercial · 500+ hrs</text>
<line x1="22" y1="253" x2="458" y2="253" stroke="#000" stroke-width="0.3"/>
<text x="240" y="259" text-anchor="middle" class="Lx">tip must be smooth · sharp point · radius matched to groove width · clean before each side</text>
<line x1="22" y1="258" x2="458" y2="258" stroke="#000" stroke-width="0.3"/>
<text x="240" y="267" text-anchor="middle" class="H">— · —  THE TONE ARM  — · —</text>
<line x1="22" y1="272" x2="458" y2="272" stroke="#000" stroke-width="0.3"/>
<circle cx="60" cy="300" r="4" fill="none" stroke="#000" stroke-width="1.0"/>
<line x1="60" y1="300" x2="200" y2="295" stroke="#000" stroke-width="1.5"/>
<rect x="196" y="289" width="12" height="12" fill="none" stroke="#000" stroke-width="0.8"/>
<circle cx="202" cy="302" r="2.5" fill="#000" stroke="#000" stroke-width="0.6"/>
<rect x="30" y="298" width="16" height="10" fill="none" stroke="#000" stroke-width="0.8"/>
<text x="30" y="315" text-anchor="middle" class="Lx">counterweight</text>
<text x="60" y="312" text-anchor="middle" class="Lx">pivot</text>
<text x="204" y="314" text-anchor="start" class="Lx">cartridge</text>
<line x1="202" y1="307" x2="202" y2="315" stroke="#000" stroke-width="0.6"/>
<polygon points="198,313 202,315 198,317" fill="#000" stroke="#000" stroke-width="0.5"/>
<text x="214" y="315" text-anchor="start" class="Lx">1–3 g</text>
<text x="230" y="273" text-anchor="start" class="Lx">pivot must swing freely in horizontal AND vertical plane</text>
<text x="230" y="282" text-anchor="start" class="Lx">tracking force: 1–3 g for vinyl · 3–7 g for shellac 78s</text>
<text x="230" y="291" text-anchor="start" class="Lx">too heavy → groove damage  ·  too light → skipping</text>
<text x="230" y="300" text-anchor="start" class="Lx">anti-skate force balances inward groove drag (can skip for basic use)</text>
<text x="230" y="309" text-anchor="start" class="Lx">arm length: longer = less tracking error across record radius</text>
<line x1="22" y1="329" x2="458" y2="329" stroke="#000" stroke-width="0.3"/>
<text x="240" y="338" text-anchor="middle" class="H">— · —  SIGNAL PATH  — · —</text>
<line x1="22" y1="343" x2="458" y2="343" stroke="#000" stroke-width="0.3"/>
<rect x="22" y="348" width="52" height="22" fill="none" stroke="#000" stroke-width="0.8"/>
<text x="48.0" y="357" text-anchor="middle" class="Lx">GROOVE</text>
<text x="48.0" y="366" text-anchor="middle" class="Lx">WIGGLE</text>
<line x1="74" y1="359" x2="79" y2="359" stroke="#000" stroke-width="0.6"/>
<polygon points="75,357 79,359 75,361" fill="#000" stroke="#000" stroke-width="0.5"/>
<rect x="79" y="348" width="52" height="22" fill="none" stroke="#000" stroke-width="0.8"/>
<text x="105.0" y="357" text-anchor="middle" class="Lx">STYLUS</text>
<text x="105.0" y="366" text-anchor="middle" class="Lx">VIBRATES</text>
<line x1="131" y1="359" x2="136" y2="359" stroke="#000" stroke-width="0.6"/>
<polygon points="132,357 136,359 132,361" fill="#000" stroke="#000" stroke-width="0.5"/>
<rect x="136" y="348" width="52" height="22" fill="none" stroke="#000" stroke-width="0.8"/>
<text x="162.0" y="357" text-anchor="middle" class="Lx">CANTILEVER</text>
<text x="162.0" y="366" text-anchor="middle" class="Lx">BENDS</text>
<line x1="188" y1="359" x2="193" y2="359" stroke="#000" stroke-width="0.6"/>
<polygon points="189,357 193,359 189,361" fill="#000" stroke="#000" stroke-width="0.5"/>
<rect x="193" y="348" width="52" height="22" fill="none" stroke="#000" stroke-width="0.8"/>
<text x="219.0" y="357" text-anchor="middle" class="Lx">MAGNET</text>
<text x="219.0" y="366" text-anchor="middle" class="Lx">MOVES</text>
<line x1="245" y1="359" x2="250" y2="359" stroke="#000" stroke-width="0.6"/>
<polygon points="246,357 250,359 246,361" fill="#000" stroke="#000" stroke-width="0.5"/>
<rect x="250" y="348" width="52" height="22" fill="none" stroke="#000" stroke-width="0.8"/>
<text x="276.0" y="357" text-anchor="middle" class="Lx">COIL</text>
<text x="276.0" y="366" text-anchor="middle" class="Lx">VOLTAGE</text>
<line x1="302" y1="359" x2="307" y2="359" stroke="#000" stroke-width="0.6"/>
<polygon points="303,357 307,359 303,361" fill="#000" stroke="#000" stroke-width="0.5"/>
<rect x="307" y="348" width="52" height="22" fill="none" stroke="#000" stroke-width="0.8"/>
<text x="333.0" y="362" text-anchor="middle" class="Lx">AMP</text>
<line x1="359" y1="359" x2="364" y2="359" stroke="#000" stroke-width="0.6"/>
<polygon points="360,357 364,359 360,361" fill="#000" stroke="#000" stroke-width="0.5"/>
<rect x="364" y="348" width="52" height="22" fill="none" stroke="#000" stroke-width="0.8"/>
<text x="390.0" y="357" text-anchor="middle" class="Lx">SPEAKER</text>
<text x="390.0" y="366" text-anchor="middle" class="Lx">CONE</text>
<line x1="22" y1="374" x2="458" y2="374" stroke="#000" stroke-width="0.3"/>
<text x="240" y="381" text-anchor="middle" class="Lx">moving magnet (MM): magnet on cantilever · coil fixed · output ~5mV</text>
<text x="240" y="388" text-anchor="middle" class="Lx">moving coil (MC): coil on cantilever · magnet fixed · output ~0.2mV · needs more amplification</text>
<line x1="22" y1="388" x2="458" y2="388" stroke="#000" stroke-width="0.3"/>
<text x="240" y="397" text-anchor="middle" class="H">— · —  MINIMAL BUILD  —  NO ELECTRICITY REQUIRED  — · —</text>
<line x1="22" y1="402" x2="458" y2="402" stroke="#000" stroke-width="0.3"/>
<polyline points="59.37822173508929,505.0 58.19366849987511,502.86300939501234 57.08441675905831,500.6859802752354 56.051817965017946,498.47156501530606 55.09713018032488,496.22246153911385 54.221516544986414,493.9414100327968 53.42604385933926,491.6311896062463 52.71168128431768,489.29461490718995 52.07929916068025,486.93453269197676 51.5296679486336,484.55381835724313 51.06345728914543,482.1553724366851 50.68123518809007,479.74211706720456 50.383467324220874,477.3169924287358 50.1705164818123,474.88295316208877 50.0426421086633,472.4429647691751 50.0,470.0 50.0426421086633,467.5570352308249 50.1705164818123,465.11704683791123 50.383467324220874,462.6830075712643 50.681235188090085,460.25788293279544 51.06345728914543,457.8446275633149 51.529667948633616,455.4461816427568 52.07929916068025,453.0654673080233 52.71168128431768,450.70538509281005 53.426043859339245,448.3688103937537 54.221516544986414,446.0585899672032 55.09713018032488,443.77753846088615 56.05181796501794,441.528434984694 57.084416759058314,439.3140197247646 58.193668499875116,437.13699060498766 59.3782217350893,435.0 60.63663326905017,432.90565150367564 61.96736992114708,430.85649675704775 63.36881039375368,428.8550323395269 64.83924724752946,426.9036967272039 66.37688898167154,425.00486732194224 67.9798622165824,423.16085755487995 69.64621397629443,421.3739140678702 71.37391406787019,419.6462139762944 73.16085755487993,417.9798622165824 75.00486732194224,416.3768889816715 76.90369672720394,414.83924724752944 78.85503233952687,413.3688103937537 80.85649675704774,411.96736992114705 82.90565150367564,410.6366332690502 84.99999999999997,409.3782217350893 87.13699060498764,408.1936684998751 89.31401972476456,407.08441675905834 91.528434984694,406.0518179650179 93.77753846088613,405.0971301803249 96.0585899672032,404.2215165449864 98.36881039375368,403.42604385933925 100.70538509281008,402.71168128431765 103.06546730802326,402.07929916068025 105.44618164275681,401.52966794863363 107.84462756331487,401.06345728914545 110.2578829327954,400.6812351880901 112.68300757126427,400.3834673242209 115.1170468379112,400.1705164818123 117.55703523082495,400.0426421086633 119.99999999999999,400.0 122.44296476917509,400.0426421086633 124.88295316208877,400.1705164818123 127.31699242873572,400.3834673242209 129.7421170672046,400.68123518809006 132.1553724366851,401.06345728914545 134.55381835724316,401.52966794863363 136.93453269197673,402.07929916068025 139.29461490718995,402.7116812843177 141.6311896062463,403.42604385933925 143.94141003279682,404.2215165449864 146.22246153911385,405.0971301803249 148.471565015306,406.0518179650179 150.6859802752354,407.0844167590583 152.86300939501234,408.1936684998751 155.0,409.3782217350893 157.09434849632433,410.63663326905015 159.1435032429523,411.9673699211471 161.1449676604731,413.3688103937537 163.0963032727961,414.83924724752944 164.99513267805776,416.3768889816715 166.83914244512005,417.9798622165824 168.6260859321298,419.6462139762944 170.35378602370557,421.37391406787015 172.0201377834176,423.16085755487995 173.62311101832844,425.00486732194224 175.16075275247056,426.9036967272039 176.63118960624632,428.8550323395269 178.03263007885295,430.85649675704775 179.3633667309498,432.90565150367564 180.6217782649107,435.0 181.80633150012488,437.13699060498766 182.9155832409417,439.31401972476453 183.94818203498207,441.528434984694 184.90286981967512,443.77753846088615 185.7784834550136,446.0585899672032 186.57395614066075,448.3688103937537 187.28831871568232,450.70538509281005 187.92070083931975,453.06546730802324 188.47033205136637,455.4461816427568 188.93654271085455,457.8446275633149 189.31876481190992,460.2578829327954 189.61653267577913,462.6830075712643 189.82948351818771,465.11704683791123 189.9573578913367,467.55703523082497 190.0,470.0 189.9573578913367,472.4429647691751 189.82948351818771,474.88295316208877 189.61653267577913,477.3169924287357 189.31876481190994,479.74211706720456 188.93654271085455,482.15537243668507 188.47033205136637,484.55381835724313 187.92070083931975,486.9345326919767 187.2883187156823,489.29461490718995 186.57395614066075,491.6311896062463 185.7784834550136,493.94141003279685 184.90286981967512,496.22246153911385 183.94818203498204,498.47156501530606 182.9155832409417,500.6859802752354 181.8063315001249,502.86300939501234" fill="none" stroke="#000" stroke-width="0.8"/>
<polyline points="76.69872981077806,495.0 75.44967379058161,492.69952498697734 74.32272711786996,490.33683215379 73.32097867513991,487.918397477265 72.44717418524232,485.45084971874735 71.70370868554659,482.94095225512604 71.09261996330972,480.39558454088797 70.61558297024311,477.82172325201157 70.27390523158633,475.22642316338266 70.0685232622713,472.6167978121472 70.0,470.0 70.0685232622713,467.3832021878528 70.27390523158633,464.77357683661734 70.61558297024311,462.1782767479885 71.09261996330972,459.60441545911203 71.70370868554659,457.05904774487396 72.44717418524232,454.54915028125265 73.32097867513991,452.08160252273495 74.32272711786996,449.66316784621 75.44967379058161,447.30047501302266 76.69872981077808,445.0 78.0664716027288,442.76804824924864 79.54915028125262,440.61073738537635 81.14270192715146,438.5339804475081 82.84275872613028,436.5434696820571 84.64466094067262,434.6446609406726 86.5434696820571,432.8427587261303 88.5339804475081,431.14270192715145 90.61073738537634,429.54915028125265 92.76804824924865,428.06647160272877 94.99999999999997,426.6987298107781 97.30047501302266,425.44967379058164 99.66316784621,424.32272711786993 102.08160252273497,423.32097867513994 104.54915028125262,422.4471741852423 107.05904774487396,421.7037086855466 109.604415459112,421.09261996330974 112.17827674798845,420.6155829702431 114.77357683661734,420.27390523158635 117.38320218785279,420.0685232622713 119.99999999999999,420.0 122.6167978121472,420.0685232622713 125.22642316338265,420.27390523158635 127.82172325201154,420.6155829702431 130.39558454088797,421.09261996330974 132.940952255126,421.7037086855466 135.45084971874735,422.4471741852423 137.91839747726502,423.32097867513994 140.33683215379,424.32272711786993 142.69952498697734,425.4496737905816 145.0,426.69872981077805 147.23195175075134,428.06647160272877 149.38926261462365,429.54915028125265 151.46601955249187,431.14270192715145 153.4565303179429,432.8427587261303 155.35533905932738,434.6446609406726 157.15724127386972,436.5434696820571 158.85729807284852,438.5339804475081 160.45084971874735,440.61073738537635 161.9335283972712,442.76804824924864 163.30127018922192,445.0 164.5503262094184,447.30047501302266 165.67727288213004,449.66316784621 166.67902132486006,452.08160252273495 167.55282581475768,454.5491502812526 168.2962913144534,457.05904774487396 168.90738003669028,459.60441545911203 169.3844170297569,462.17827674798843 169.72609476841367,464.77357683661734 169.9314767377287,467.38320218785276 170.0,470.0 169.9314767377287,472.6167978121472 169.72609476841367,475.22642316338266 169.3844170297569,477.8217232520115 168.90738003669028,480.39558454088797 168.2962913144534,482.94095225512604 167.55282581475768,485.45084971874735 166.6790213248601,487.918397477265 165.67727288213004,490.33683215379 164.55032620941842,492.69952498697734" fill="none" stroke="#000" stroke-width="0.3"/>
<polyline points="72.36860279185586,497.5 70.99464116963978,494.9694774856751 69.75499982965695,492.370515369169 68.6530765426539,489.7102372249915 67.69189160376655,486.9959346906221 66.87407955410126,484.2350474806386 66.20188195964069,481.4351429949768 65.67714126726743,478.6038955772127 65.30129575474497,475.74906547972097 65.07537558849845,472.87847759336194 65.0,470.0 65.07537558849845,467.1215224066381 65.30129575474497,464.25093452027903 65.67714126726742,461.3961044227873 66.2018819596407,458.5648570050232 66.87407955410124,455.7649525193614 67.69189160376655,453.0040653093779 68.6530765426539,450.28976277500846 69.75499982965695,447.629484630831 70.99464116963976,445.03052251432496 72.36860279185588,442.5 73.87311876300168,440.0448530741735 75.50406530937789,437.671811123914 77.2569721198666,435.3873784922589 79.12703459874331,433.1978166502628 81.10912703473988,431.1091270347399 83.19781665026281,429.1270345987433 85.38737849225892,427.25697211986665 87.67181112391397,425.5040653093779 90.04485307417352,423.8731187630017 92.49999999999997,422.3686027918559 95.03052251432491,420.99464116963975 97.629484630831,419.7549998296569 100.28976277500846,418.65307654265393 103.00406530937789,417.6918916037666 105.76495251936137,416.87407955410123 108.56485700502321,416.2018819596407 111.39610442278729,415.6771412672674 114.25093452027906,415.30129575474496 117.12152240663806,415.07537558849845 119.99999999999999,415.0 122.87847759336192,415.07537558849845 125.74906547972091,415.30129575474496 128.60389557721268,415.6771412672674 131.43514299497676,416.2018819596407 134.23504748063863,416.87407955410123 136.9959346906221,417.6918916037665 139.71023722499152,418.65307654265393 142.370515369169,419.7549998296569 144.96947748567507,420.99464116963975 147.5,422.3686027918559 149.95514692582645,423.8731187630017 152.32818887608602,425.5040653093779 154.61262150774107,427.2569721198666 156.80218334973716,429.1270345987433 158.8908729652601,431.10912703473986 160.8729654012567,433.1978166502628 162.74302788013338,435.3873784922589 164.4959346906221,437.671811123914 166.12688123699832,440.0448530741735 167.6313972081441,442.5 169.00535883036022,445.0305225143249 170.24500017034305,447.629484630831 171.3469234573461,450.28976277500846 172.30810839623345,453.0040653093779 173.12592044589877,455.7649525193614 173.7981180403593,458.5648570050232 174.32285873273258,461.3961044227873 174.69870424525504,464.2509345202791 174.92462441150155,467.12152240663806 175.0,470.0 174.92462441150155,472.87847759336194 174.69870424525504,475.7490654797209 174.32285873273258,478.6038955772127 173.7981180403593,481.4351429949768 173.12592044589877,484.2350474806386 172.30810839623345,486.9959346906221 171.3469234573461,489.7102372249915 170.24500017034305,492.370515369169 169.00535883036025,494.96947748567504" fill="none" stroke="#000" stroke-width="0.3"/>
<polyline points="68.03847577293368,500.0 66.53960854869794,497.2394299843728 65.18727254144395,494.404198584548 63.98517441016789,491.502076972718 62.93660902229079,488.54101966249686 62.044450422655906,485.5291427061513 61.31114395597166,482.47470144906555 60.73869956429174,479.38606790241386 60.3286862779036,476.2717077960592 60.08222791472557,473.14015737457663 60.0,470.0 60.08222791472557,466.85984262542337 60.3286862779036,463.7282922039408 60.738699564291736,460.61393209758614 61.311143955971666,457.52529855093445 62.0444504226559,454.4708572938488 62.93660902229078,451.45898033750314 63.98517441016789,448.49792302728196 65.18727254144395,445.595801415452 66.53960854869793,442.7605700156272 68.03847577293368,440.0 69.67976592327456,437.3216578990984 71.45898033750315,434.7328848624516 73.37124231258176,432.24077653700976 75.41131047135634,429.8521636184685 77.57359312880715,427.57359312880715 79.85216361846851,425.41131047135633 82.24077653700974,423.3712423125818 84.73288486245161,421.45898033750314 87.32165789909838,419.67976592327454 89.99999999999997,418.0384757729337 92.76057001562718,416.5396085486979 95.595801415452,415.1872725414439 98.49792302728196,413.98517441016793 101.45898033750315,412.9366090222908 104.47085729384877,412.0444504226559 107.52529855093441,411.31114395597166 110.61393209758614,410.7386995642917 113.7282922039408,410.3286862779036 116.85984262542334,410.0822279147256 119.99999999999999,410.0 123.14015737457663,410.0822279147256 126.27170779605918,410.3286862779036 129.38606790241383,410.7386995642917 132.47470144906558,411.31114395597166 135.52914270615122,412.04445042265587 138.54101966249684,412.9366090222908 141.50207697271802,413.9851744101679 144.404198584548,415.1872725414439 147.2394299843728,416.5396085486979 150.0,418.0384757729337 152.6783421009016,419.67976592327454 155.2671151375484,421.45898033750314 157.75922346299024,423.3712423125817 160.14783638153148,425.41131047135633 162.42640687119285,427.57359312880715 164.58868952864367,429.8521636184685 166.62875768741824,432.2407765370097 168.54101966249684,434.7328848624516 170.32023407672546,437.3216578990984 171.96152422706632,440.0 173.46039145130206,442.7605700156272 174.81272745855605,445.595801415452 176.0148255898321,448.49792302728196 177.06339097770922,451.45898033750314 177.9555495773441,454.4708572938488 178.68885604402834,457.5252985509344 179.26130043570825,460.61393209758614 179.6713137220964,463.7282922039408 179.91777208527444,466.8598426254233 180.0,470.0 179.91777208527444,473.14015737457663 179.67131372209641,476.27170779605916 179.26130043570828,479.38606790241386 178.68885604402834,482.47470144906555 177.9555495773441,485.5291427061512 177.06339097770922,488.5410196624968 176.0148255898321,491.50207697271804 174.81272745855605,494.40419858454806 173.4603914513021,497.2394299843728" fill="none" stroke="#000" stroke-width="0.3"/>
<polyline points="63.70834875401148,502.5 62.08457592775609,499.50938248307057 60.61954525323095,496.437881799927 59.31727227768189,493.2939167204445 58.18132644081502,490.08610463437157 57.21482129121057,486.82323793166387 56.42040595230263,483.51425990315437 55.800257861316055,480.168240227615 55.35607680106223,476.79435011239747 55.0890802409527,473.4018371557913 55.0,470.0 55.0890802409527,466.5981628442087 55.35607680106223,463.20564988760253 55.80025786131604,459.831759772385 56.42040595230264,456.48574009684563 57.21482129121056,453.17676206833613 58.18132644081501,449.91389536562843 59.31727227768189,446.70608327955546 60.619545253230946,443.562118200073 62.084575927756084,440.4906175169295 63.70834875401149,437.5 65.48641308354743,434.59846272402325 67.4138953656284,431.79395860098924 69.4855125052969,429.09417458176057 71.69558634396938,426.5065105866742 74.03805922287441,424.03805922287444 76.50651058667422,421.69558634396935 79.09417458176054,419.4855125052969 81.79395860098924,417.41389536562843 84.59846272402325,415.4864130835474 87.49999999999997,413.70834875401147 90.49061751692945,412.0845759277561 93.562118200073,410.61954525323097 96.70608327955546,409.3172722776819 99.9138953656284,408.18132644081504 103.17676206833616,407.21482129121057 106.48574009684562,406.42040595230264 109.83175977238498,405.800257861316 113.20564988760253,405.3560768010622 116.59816284420862,405.0890802409527 119.99999999999999,405.0 123.40183715579136,405.0890802409527 126.79435011239744,405.3560768010622 130.168240227615,405.800257861316 133.51425990315437,406.42040595230264 136.8232379316638,407.21482129121057 140.08610463437157,408.18132644081504 143.2939167204445,409.31727227768187 146.43788179992697,410.6195452532309 149.50938248307054,412.0845759277561 152.5,413.70834875401147 155.40153727597672,415.4864130835474 158.20604139901073,417.4138953656284 160.90582541823943,419.4855125052969 163.49348941332576,421.69558634396935 165.96194077712556,424.0380592228744 168.30441365603062,426.5065105866742 170.51448749470308,429.0941745817605 172.58610463437157,431.79395860098924 174.51358691645257,434.59846272402325 176.2916512459885,437.5 177.91542407224392,440.49061751692943 179.38045474676906,443.562118200073 180.6827277223181,446.70608327955546 181.818673559185,449.9138953656284 182.78517870878943,453.17676206833613 183.57959404769736,456.48574009684563 184.19974213868394,459.831759772385 184.64392319893778,463.20564988760253 184.91091975904732,466.5981628442086 185.0,470.0 184.91091975904732,473.4018371557913 184.64392319893778,476.79435011239747 184.19974213868397,480.168240227615 183.57959404769736,483.51425990315437 182.78517870878943,486.8232379316638 181.818673559185,490.08610463437157 180.6827277223181,493.29391672044454 179.38045474676903,496.437881799927 177.91542407224392,499.5093824830705" fill="none" stroke="#000" stroke-width="0.3"/>
<text x="120" y="545" text-anchor="middle" class="Lx">RECORD</text>
<text x="120" y="553" text-anchor="middle" class="Lx">(spinning)</text>
<polyline points="28.70834875401149,382.5 63.70834875401149,437.5 98.7083487540115,377.5" fill="none" stroke="#000" stroke-width="0.9"/>
<line x1="28.70834875401149" y1="382.5" x2="98.7083487540115" y2="377.5" stroke="#000" stroke-width="0.9"/>
<circle cx="63.70834875401149" cy="437.5" r="2" fill="#000" stroke="#000" stroke-width="0.7"/>
<text x="48.70834875401149" y="449.5" text-anchor="middle" class="Lx">pin/thorn</text>
<text x="63.70834875401149" y="374.5" text-anchor="middle" class="Lx">paper/card</text>
<text x="63.70834875401149" y="381.5" text-anchor="middle" class="Lx">cone (horn)</text>
<text x="230" y="405" text-anchor="start" class="Lx">1. Cut stiff paper into a cone, ~15 cm wide opening.</text>
<text x="230" y="413" text-anchor="start" class="Lx">2. Push a steel pin or thorn through the tip.</text>
<text x="230" y="421" text-anchor="start" class="Lx">3. Build a spindle: rotate record at correct RPM.</text>
<text x="230" y="429" text-anchor="start" class="Lx">   78 RPM ≈ 1.3 rev/sec  ·  33⅓ RPM ≈ 0.56 rev/sec</text>
<text x="230" y="437" text-anchor="start" class="Lx">4. Lower pin gently into outer groove, ~1-2 g pressure.</text>
<text x="230" y="445" text-anchor="start" class="Lx">5. Cone amplifies stylus vibration acoustically.</text>
<text x="230" y="453" text-anchor="start" class="Lx">6. Move arm inward at same rate groove spirals (~0.5mm/rev).</text>
<text x="230" y="461" text-anchor="start" class="Lx"></text>
<text x="230" y="469" text-anchor="start" class="Lx">Expected volume: low (like a whisper) but intelligible.</text>
<text x="230" y="477" text-anchor="start" class="Lx">One play wears a thorn tip — resharpen or replace.</text>
<text x="230" y="485" text-anchor="start" class="Lx">Steel pins last longer but may damage soft vinyl.</text>
<text x="230" y="493" text-anchor="start" class="Lx">Shellac 78s are more tolerant of improvised needles.</text>
<line x1="22" y1="503" x2="458" y2="503" stroke="#000" stroke-width="0.3"/>
<text x="240" y="510" text-anchor="middle" class="Lx">STEREO: left channel = 45° inner wall modulation  ·  right channel = 45° outer wall  ·  mono = equal lateral</text>
<text x="240" y="518" text-anchor="middle" class="Lx">a mono cartridge plays stereo records safely  ·  a stereo cartridge plays mono records safely</text>
<line x1="22" y1="523" x2="458" y2="523" stroke="#000" stroke-width="0.3"/>
<text x="240" y="530" text-anchor="middle" class="Lx">RECORD CARE: keep dry · brush before play · store vertically · never stack flat · inner sleeve protects</text>
<text x="240" y="538" text-anchor="middle" class="Lx">PLAYBACK LIMIT: vinyl ~300–1000 plays at correct force  ·  shellac ~100–300 plays  ·  thorn: 1 play</text>
<text x="240" y="546" text-anchor="middle" class="Lx">see Plate 8 for wave physics  ·  see Plate 10 for electrical generation  ·  amplifier from Plate 4</text>
<line x1="18" y1="615" x2="462" y2="615" stroke="#000" stroke-width="0.5"/>
<text x="240" y="624" text-anchor="middle" class="M">REMEMBER FORWARD · THE PATIENT MESSAGE · CC BY-SA 4.0 · rememberforward.org</text>
<line x1="18" y1="630" x2="462" y2="630" stroke="#000" stroke-width="1"/>
<text x="240" y="648" text-anchor="middle" class="Fb">THIS IS A PATIENT MESSAGE. IT WAS MADE FOR YOU, FREELY, BY PEOPLE WHO REMEMBERED FORWARD.</text>
<text x="240" y="663" text-anchor="middle" class="F">UNDERSTAND IT · BUILD WITH IT · LEAVE MORE CAPSULES FOR OTHERS</text>
</svg>
