<?xml version="1.0" encoding="UTF-8"?>
<svg xmlns="http://www.w3.org/2000/svg" viewBox="0 0 480 680" width="480" height="680">
<rect width="480" height="680" fill="white"/>
<defs><marker id="arr" viewBox="0 0 10 10" refX="8" refY="5" markerWidth="5" markerHeight="5" orient="auto"><path d="M 1 2 L 8 5 L 1 8" fill="none" stroke="black" stroke-width="1.5"/></marker></defs>
<!-- OUTER BORDER -->
<rect x="6" y="6" width="468" height="668" rx="4" fill="none" stroke="black" stroke-width="3"/>
<!-- INNER BORDER -->
<rect x="12" y="12" width="456" height="656" rx="2" fill="none" stroke="black" stroke-width="0.75"/>
<!-- HEADER -->
<text x="240" y="34" font-family="Georgia,serif" font-size="12.5" font-weight="bold" text-anchor="middle" fill="black" letter-spacing="3">PLATE 2 OF [N] — WATER · FIRE · SHELTER</text>
<line x1="18" y1="40" x2="462" y2="40" stroke="black" stroke-width="1"/>
<text x="240" y="52" font-family="Georgia,serif" font-size="7.5" text-anchor="middle" fill="black" letter-spacing="1.5">TIER 1 — IMMEDIATE SURVIVAL · USE THIS FIRST · SEE PLATE 1 FOR ROSETTA INDEX</text>
<line x1="18" y1="57" x2="462" y2="57" stroke="black" stroke-width="0.5"/>
<!-- CONTENT -->
<text x="240" y="70" font-family="Georgia,serif" font-size="9.5" font-weight="bold" text-anchor="middle" fill="black" letter-spacing="3">SECTION 1 — WATER</text>
<line x1="18" y1="75" x2="462" y2="75" stroke="black" stroke-width="0.5"/>

<!-- SOLAR STILL -->
<line x1="40" y1="152" x2="148" y2="152" stroke="black" stroke-width="1.25"/>
<path d="M 44 152 Q 94 118 144 152" fill="none" stroke="black" stroke-width="1.25"/>
<path d="M 44 152 Q 94 138 144 152" fill="none" stroke="black" stroke-width="1" stroke-dasharray="3,2"/>
<line x1="94" y1="138" x2="94" y2="144" stroke="black" stroke-width="0.75"/>
<path d="M 87 144 L 87 154 L 101 154 L 101 144" fill="none" stroke="black" stroke-width="1"/>
<ellipse cx="66" cy="148" rx="8" ry="4" fill="none" stroke="black" stroke-width="1"/>
<ellipse cx="122" cy="148" rx="8" ry="4" fill="none" stroke="black" stroke-width="1"/>
<circle cx="94" cy="92" r="11" fill="none" stroke="black" stroke-width="1.5"/>
<line x1="94" y1="78" x2="94" y2="74" stroke="black" stroke-width="1.25"/>
<line x1="94" y1="106" x2="94" y2="110" stroke="black" stroke-width="1.25"/>
<line x1="80" y1="92" x2="76" y2="92" stroke="black" stroke-width="1.25"/>
<line x1="108" y1="92" x2="112" y2="92" stroke="black" stroke-width="1.25"/>
<line x1="84" y1="82" x2="81" y2="79" stroke="black" stroke-width="1"/>
<line x1="104" y1="102" x2="107" y2="105" stroke="black" stroke-width="1"/>
<line x1="104" y1="82" x2="107" y2="79" stroke="black" stroke-width="1"/>
<line x1="84" y1="102" x2="81" y2="105" stroke="black" stroke-width="1"/>
<text x="94" y="168" font-family="Georgia,serif" font-size="9.5" font-weight="bold" text-anchor="middle" fill="black">SOLAR STILL</text>
<text x="94" y="180" font-family="Georgia,serif" font-size="7.5" text-anchor="middle" fill="black" font-style="italic">dig pit · plastic · collect drip</text>
<!-- SAND FILTER -->
<path d="M 195 105 L 192 152 L 242 152 L 239 105 Z" fill="none" stroke="black" stroke-width="1.5"/>
<line x1="194" y1="120" x2="240" y2="120" stroke="black" stroke-width="0.75" stroke-dasharray="3,2"/>
<line x1="193" y1="135" x2="241" y2="135" stroke="black" stroke-width="0.75" stroke-dasharray="3,2"/>
<text x="217" y="115" font-family="Georgia,serif" font-size="8" text-anchor="middle" fill="black">CHARCOAL</text>
<text x="217" y="129" font-family="Georgia,serif" font-size="8" text-anchor="middle" fill="black">SAND</text>
<text x="217" y="146" font-family="Georgia,serif" font-size="8" text-anchor="middle" fill="black">GRAVEL</text>
<line x1="217" y1="98" x2="217" y2="104" stroke="black" stroke-width="1" marker-end="url(#arr)"/>
<line x1="217" y1="152" x2="217" y2="160" stroke="black" stroke-width="1"/>
<path d="M 211 160 Q 217 168 223 160" fill="none" stroke="black" stroke-width="1"/>
<text x="217" y="178" font-family="Georgia,serif" font-size="9.5" font-weight="bold" text-anchor="middle" fill="black">SAND FILTER</text>
<text x="217" y="190" font-family="Georgia,serif" font-size="7.5" text-anchor="middle" fill="black" font-style="italic">pour through · then boil</text>
<!-- BOIL POT -->
<path d="M 300 128 L 296 152 L 358 152 L 354 128 Z" fill="none" stroke="black" stroke-width="1.5"/>
<path d="M 296 130 Q 329 124 362 130" fill="none" stroke="black" stroke-width="1"/>
<line x1="293" y1="140" x2="285" y2="140" stroke="black" stroke-width="1.5"/>
<line x1="361" y1="140" x2="369" y2="140" stroke="black" stroke-width="1.5"/>
<path d="M 314 124 Q 312 114 314 106" fill="none" stroke="black" stroke-width="1"/>
<path d="M 323 124 Q 321 113 323 104" fill="none" stroke="black" stroke-width="1"/>
<path d="M 335 124 Q 333 113 335 104" fill="none" stroke="black" stroke-width="1"/>
<path d="M 344 124 Q 342 114 344 106" fill="none" stroke="black" stroke-width="1"/>
<line x1="296" y1="158" x2="358" y2="158" stroke="black" stroke-width="1"/>
<path d="M 308 158 Q 312 148 316 158" fill="none" stroke="black" stroke-width="1"/>
<path d="M 320 158 Q 325 146 330 158" fill="none" stroke="black" stroke-width="1"/>
<path d="M 340 158 Q 344 148 348 158" fill="none" stroke="black" stroke-width="1"/>
<!-- SODIS bottle -->
<rect x="396" y="112" width="13" height="36" rx="4" fill="none" stroke="black" stroke-width="1.25"/>
<rect x="400" y="108" width="5" height="5" rx="1" fill="none" stroke="black" stroke-width="1"/>
<circle cx="420" cy="120" r="8" fill="none" stroke="black" stroke-width="1.25"/>
<line x1="420" y1="109" x2="420" y2="106" stroke="black" stroke-width="1"/>
<line x1="420" y1="131" x2="420" y2="134" stroke="black" stroke-width="1"/>
<line x1="409" y1="120" x2="406" y2="120" stroke="black" stroke-width="1"/>
<line x1="431" y1="120" x2="434" y2="120" stroke="black" stroke-width="1"/>
<text x="329" y="172" font-family="Georgia,serif" font-size="9.5" font-weight="bold" text-anchor="middle" fill="black">BOIL / SODIS</text>
<text x="329" y="184" font-family="Georgia,serif" font-size="7.5" text-anchor="middle" fill="black" font-style="italic">1 min sea level · 3 min &gt;2000m · 6 hrs sun</text>
<line x1="18" y1="185" x2="462" y2="185" stroke="black" stroke-width="0.5"/>
<text x="240" y="195" font-family="Georgia,serif" font-size="8" text-anchor="middle" fill="black" letter-spacing="0.5">✗ SEAWATER  ✗ URINE — both worsen dehydration faster than not drinking</text>
<line x1="18" y1="202" x2="462" y2="202" stroke="black" stroke-width="0.5"/>
<text x="240" y="215" font-family="Georgia,serif" font-size="9.5" font-weight="bold" text-anchor="middle" fill="black" letter-spacing="3">SECTION 2 — FIRE</text>
<line x1="18" y1="220" x2="462" y2="220" stroke="black" stroke-width="0.5"/>
<!-- BOW DRILL — center large -->
<rect x="154" y="310" width="172" height="14" rx="2" fill="none" stroke="black" stroke-width="1.5"/>
<path d="M 240 310 L 234 324 L 246 324 Z" fill="none" stroke="black" stroke-width="1"/>
<line x1="240" y1="248" x2="240" y2="310" stroke="black" stroke-width="2.5"/>
<ellipse cx="240" cy="251" rx="16" ry="9" fill="none" stroke="black" stroke-width="1.5"/>
<path d="M 172 280 Q 240 262 308 280" fill="none" stroke="black" stroke-width="2"/>
<path d="M 172 280 Q 240 285 308 280" fill="none" stroke="black" stroke-width="1" stroke-dasharray="4,2"/>
<circle cx="172" cy="280" r="4" fill="none" stroke="black" stroke-width="1.5"/>
<circle cx="308" cy="280" r="4" fill="none" stroke="black" stroke-width="1.5"/>
<ellipse cx="240" cy="334" rx="30" ry="12" fill="none" stroke="black" stroke-width="1.25"/>
<path d="M 232 330 Q 235 322 237 330 Q 240 320 243 330 Q 246 323 249 330" fill="none" stroke="black" stroke-width="1"/>
<text x="158" y="259" font-family="Georgia,serif" font-size="7.5" fill="black" font-style="italic">handhold</text>
<line x1="170" y1="257" x2="225" y2="253" stroke="black" stroke-width="0.5"/>
<text x="140" y="322" font-family="Georgia,serif" font-size="7.5" fill="black" font-style="italic">fireboard</text>
<line x1="154" y1="319" x2="154" y2="319" stroke="black" stroke-width="0.5"/>
<text x="240" y="357" font-family="Georgia,serif" font-size="7.5" text-anchor="middle" fill="black" font-style="italic">coal forms in notch · transfer to tinder bundle · blow gently from below</text>

<!-- THREE FIRE LAYS - small row -->
<!-- Teepee -->
<text x="100" y="378" font-family="Georgia,serif" font-size="8.5" font-weight="bold" text-anchor="middle" fill="black">TEEPEE</text>
<line x1="100" y1="398" x2="85" y2="418" stroke="black" stroke-width="1.5"/>
<line x1="100" y1="398" x2="93" y2="418" stroke="black" stroke-width="1.5"/>
<line x1="100" y1="398" x2="100" y2="418" stroke="black" stroke-width="1.5"/>
<line x1="100" y1="398" x2="107" y2="418" stroke="black" stroke-width="1.5"/>
<line x1="100" y1="398" x2="115" y2="418" stroke="black" stroke-width="1.5"/>
<line x1="83" y1="418" x2="117" y2="418" stroke="black" stroke-width="1"/>
<text x="100" y="430" font-family="Georgia,serif" font-size="7" text-anchor="middle" fill="black" font-style="italic">ignition</text>

<!-- Log cabin -->
<text x="240" y="378" font-family="Georgia,serif" font-size="8.5" font-weight="bold" text-anchor="middle" fill="black">LOG CABIN</text>
<rect x="214" y="384" width="52" height="8" rx="1" fill="none" stroke="black" stroke-width="1.25"/>
<rect x="208" y="395" width="64" height="8" rx="1" fill="none" stroke="black" stroke-width="1.25"/>
<rect x="214" y="406" width="52" height="8" rx="1" fill="none" stroke="black" stroke-width="1.25"/>
<text x="240" y="426" font-family="Georgia,serif" font-size="7" text-anchor="middle" fill="black" font-style="italic">cooking · sustained heat</text>

<!-- Star fire -->
<text x="380" y="378" font-family="Georgia,serif" font-size="8.5" font-weight="bold" text-anchor="middle" fill="black">STAR FIRE</text>
<circle cx="380" cy="402" r="9" fill="none" stroke="black" stroke-width="1.25"/>
<line x1="380" y1="393" x2="380" y2="378" stroke="black" stroke-width="2.5"/>
<line x1="380" y1="411" x2="380" y2="418" stroke="black" stroke-width="2.5"/>
<line x1="371" y1="402" x2="358" y2="402" stroke="black" stroke-width="2.5"/>
<line x1="389" y1="402" x2="402" y2="402" stroke="black" stroke-width="2.5"/>
<line x1="373" y1="395" x2="363" y2="385" stroke="black" stroke-width="2.5"/>
<line x1="387" y1="409" x2="397" y2="419" stroke="black" stroke-width="2.5"/>
<text x="380" y="430" font-family="Georgia,serif" font-size="7" text-anchor="middle" fill="black" font-style="italic">fuel economy</text>
<line x1="18" y1="437" x2="462" y2="437" stroke="black" stroke-width="0.5"/>
<text x="240" y="447" font-family="Georgia,serif" font-size="8" text-anchor="middle" fill="black" letter-spacing="0.5">BEST WOODS: willow · cedar · cottonwood · basswood · dry mullein stalk</text>
<line x1="18" y1="454" x2="462" y2="454" stroke="black" stroke-width="0.5"/>
<text x="240" y="466" font-family="Georgia,serif" font-size="9.5" font-weight="bold" text-anchor="middle" fill="black" letter-spacing="3">SECTION 3 — SHELTER</text>
<line x1="18" y1="471" x2="462" y2="471" stroke="black" stroke-width="0.5"/>
<!-- DEBRIS HUT -->
<line x1="28" y1="550" x2="200" y2="550" stroke="black" stroke-width="1.5"/>
<line x1="42" y1="550" x2="42" y2="488" stroke="black" stroke-width="1.5"/>
<line x1="42" y1="488" x2="42" y2="488" stroke="black" stroke-width="1"/>
<line x1="38" y1="494" x2="42" y2="488" stroke="black" stroke-width="1.25"/>
<line x1="46" y1="494" x2="42" y2="488" stroke="black" stroke-width="1.25"/>
<line x1="42" y1="488" x2="194" y2="550" stroke="black" stroke-width="2"/>
<line x1="55" y1="547" x2="68" y2="520" stroke="black" stroke-width="1"/>
<line x1="70" y1="549" x2="85" y2="523" stroke="black" stroke-width="1"/>
<line x1="88" y1="550" x2="104" y2="527" stroke="black" stroke-width="1"/>
<line x1="106" y1="550" x2="122" y2="532" stroke="black" stroke-width="1"/>
<line x1="124" y1="550" x2="140" y2="537" stroke="black" stroke-width="1"/>
<line x1="142" y1="550" x2="158" y2="541" stroke="black" stroke-width="1"/>
<line x1="160" y1="550" x2="175" y2="545" stroke="black" stroke-width="1"/>
<path d="M 178 548 Q 183 537 194 550" fill="none" stroke="black" stroke-width="1.25"/>
<text x="110" y="566" font-family="Georgia,serif" font-size="9.5" font-weight="bold" text-anchor="middle" fill="black">DEBRIS HUT</text>
<text x="110" y="578" font-family="Georgia,serif" font-size="7.5" text-anchor="middle" fill="black" font-style="italic">60–90cm debris · interior barely body-size · COLD CLIMATES</text>
<!-- A-FRAME -->
<line x1="248" y1="550" x2="452" y2="550" stroke="black" stroke-width="1.5"/>
<line x1="265" y1="550" x2="265" y2="496" stroke="black" stroke-width="1.5"/>
<line x1="435" y1="550" x2="435" y2="496" stroke="black" stroke-width="1.5"/>
<line x1="261" y1="502" x2="265" y2="496" stroke="black" stroke-width="1"/>
<line x1="269" y1="502" x2="265" y2="496" stroke="black" stroke-width="1"/>
<line x1="431" y1="502" x2="435" y2="496" stroke="black" stroke-width="1"/>
<line x1="439" y1="502" x2="435" y2="496" stroke="black" stroke-width="1"/>
<line x1="265" y1="497" x2="435" y2="497" stroke="black" stroke-width="2"/>
<line x1="274" y1="497" x2="252" y2="550" stroke="black" stroke-width="1"/>
<line x1="290" y1="497" x2="274" y2="550" stroke="black" stroke-width="1"/>
<line x1="307" y1="497" x2="297" y2="550" stroke="black" stroke-width="1"/>
<line x1="324" y1="497" x2="318" y2="550" stroke="black" stroke-width="1"/>
<line x1="341" y1="497" x2="340" y2="550" stroke="black" stroke-width="1"/>
<line x1="358" y1="497" x2="362" y2="550" stroke="black" stroke-width="1"/>
<line x1="375" y1="497" x2="384" y2="550" stroke="black" stroke-width="1"/>
<line x1="392" y1="497" x2="407" y2="550" stroke="black" stroke-width="1"/>
<line x1="409" y1="497" x2="430" y2="550" stroke="black" stroke-width="1"/>
<line x1="244" y1="550" x2="244" y2="524" stroke="black" stroke-width="1"/>
<path d="M 238 527 Q 244 516 250 527 Q 244 520 238 527" fill="none" stroke="black" stroke-width="1"/>
<text x="244" y="560" font-family="Georgia,serif" font-size="7" text-anchor="middle" fill="black">fire</text>
<text x="350" y="566" font-family="Georgia,serif" font-size="9.5" font-weight="bold" text-anchor="middle" fill="black">A-FRAME</text>
<text x="350" y="578" font-family="Georgia,serif" font-size="7.5" text-anchor="middle" fill="black" font-style="italic">open side faces fire · MILD CLIMATES · tropical: raise off ground</text>
<line x1="18" y1="578" x2="462" y2="578" stroke="black" stroke-width="0.5"/>
<text x="240" y="589" font-family="Georgia,serif" font-size="8" text-anchor="middle" fill="black" letter-spacing="0.5">⚠  ALWAYS INSULATE FROM GROUND · 15cm dry leaves or bark between you and earth</text>
<text x="240" y="600" font-family="Georgia,serif" font-size="8" text-anchor="middle" fill="black" letter-spacing="0.5">cold ground draws heat from body faster than cold air · hypothermia kills before hunger</text>
<line x1="18" y1="608" x2="462" y2="608" stroke="black" stroke-width="0.5"/>
<!-- METADATA STRIP -->
<line x1="6" y1="616" x2="474" y2="616" stroke="black" stroke-width="0.75"/>
<text x="240" y="626" font-family="Georgia,serif" font-size="6.5" text-anchor="middle" fill="black" letter-spacing="0.8">CC BY-SA 4.0 · PLATE g OF [N] · BURIED: [YEAR] · GPS: [LATITUDE, LONGITUDE] · LANDMARK: [DESCRIPTION]</text>
<line x1="6" y1="630" x2="474" y2="630" stroke="black" stroke-width="0.75"/>
<!-- FOOTER BANNER -->
<text x="240" y="649" font-family="Georgia,serif" font-size="11" font-weight="bold" text-anchor="middle" fill="black" font-style="italic">THIS IS A PATIENT MESSAGE. IT WAS MADE FOR YOU, FREELY, BY PEOPLE WHO REMEMBERED FORWARD.</text>
<text x="240" y="664" font-family="Georgia,serif" font-size="8.5" text-anchor="middle" fill="black">BUY IT · BUILD IT · BURY IT · FOR SOMEONE YOU WILL NEVER MEET</text>
</svg>