<?xml version="1.0" encoding="UTF-8"?>
<svg xmlns="http://www.w3.org/2000/svg" viewBox="0 0 480 680" width="480" height="680">
<rect width="480" height="680" fill="white"/>
<defs><marker id="arr" viewBox="0 0 10 10" refX="8" refY="5" markerWidth="5" markerHeight="5" orient="auto"><path d="M 1 2 L 8 5 L 1 8" fill="none" stroke="black" stroke-width="1.5"/></marker></defs>
<!-- OUTER BORDER -->
<rect x="6" y="6" width="468" height="668" rx="4" fill="none" stroke="black" stroke-width="3"/>
<!-- INNER BORDER -->
<rect x="12" y="12" width="456" height="656" rx="2" fill="none" stroke="black" stroke-width="0.75"/>
<!-- HEADER -->
<text x="240" y="34" font-family="Georgia,serif" font-size="12.5" font-weight="bold" text-anchor="middle" fill="black" letter-spacing="3">PLATE 4 OF [N] — TECHNOLOGY RE-FOUNDATION</text>
<line x1="18" y1="40" x2="462" y2="40" stroke="black" stroke-width="1"/>
<text x="240" y="52" font-family="Georgia,serif" font-size="7.5" text-anchor="middle" fill="black" letter-spacing="1.5">TIER 3 — IRON · CHARCOAL · GLASS · MATHEMATICS · PRINTING</text>
<line x1="18" y1="57" x2="462" y2="57" stroke="black" stroke-width="0.5"/>
<!-- CONTENT -->
<text x="240" y="70" font-family="Georgia,serif" font-size="9.5" font-weight="bold" text-anchor="middle" fill="black" letter-spacing="3">SECTION 1 — IRON SMELTING</text>
<line x1="18" y1="75" x2="462" y2="75" stroke="black" stroke-width="0.5"/>

<!-- BLOOMERY FURNACE cross section -->
<path d="M 110 230 L 102 118 L 210 118 L 202 230" fill="none" stroke="black" stroke-width="2"/>
<path d="M 118 230 L 112 126 L 200 126 L 194 230" fill="none" stroke="black" stroke-width="1"/>
<line x1="114" y1="158" x2="196" y2="158" stroke="black" stroke-width="0.5" stroke-dasharray="3,2"/>
<line x1="113" y1="178" x2="197" y2="178" stroke="black" stroke-width="0.5" stroke-dasharray="3,2"/>
<line x1="113" y1="198" x2="197" y2="198" stroke="black" stroke-width="0.5" stroke-dasharray="3,2"/>
<text x="156" y="148" font-family="Georgia,serif" font-size="7.5" text-anchor="middle" fill="black">charcoal</text>
<text x="156" y="170" font-family="Georgia,serif" font-size="7.5" text-anchor="middle" fill="black">ore</text>
<text x="156" y="190" font-family="Georgia,serif" font-size="7.5" text-anchor="middle" fill="black">charcoal</text>
<text x="156" y="212" font-family="Georgia,serif" font-size="7.5" text-anchor="middle" fill="black">ore</text>
<!-- Tuyere + bellows -->
<rect x="200" y="170" width="28" height="8" fill="none" stroke="black" stroke-width="1.25"/>
<path d="M 228 165 L 254 170 L 254 186 L 228 182 Z" fill="none" stroke="black" stroke-width="1.25"/>
<line x1="234" y1="170" x2="254" y2="172" stroke="black" stroke-width="0.5"/>
<line x1="234" y1="176" x2="254" y2="177" stroke="black" stroke-width="0.5"/>
<line x1="234" y1="182" x2="254" y2="183" stroke="black" stroke-width="0.5"/>
<text x="248" y="163" font-family="Georgia,serif" font-size="7" text-anchor="middle" fill="black">bellows</text>
<line x1="196" y1="174" x2="185" y2="174" stroke="black" stroke-width="0.75" marker-end="url(#arr)"/>
<text x="225" y="198" font-family="Georgia,serif" font-size="6.5" fill="black" font-style="italic">continuous</text>
<text x="225" y="207" font-family="Georgia,serif" font-size="6.5" fill="black" font-style="italic">air needed</text>
<!-- Slag tap -->
<path d="M 118 225 L 114 232 L 126 232 L 122 225" fill="none" stroke="black" stroke-width="1"/>
<text x="92" y="242" font-family="Georgia,serif" font-size="6.5" fill="black">slag tap</text>
<!-- Bloom -->
<ellipse cx="156" cy="232" rx="26" ry="7" fill="none" stroke="black" stroke-width="1.5"/>
<!-- Ground -->
<line x1="70" y1="230" x2="248" y2="230" stroke="black" stroke-width="1.5"/>
<text x="156" y="248" font-family="Georgia,serif" font-size="9.5" font-weight="bold" text-anchor="middle" fill="black">BLOOMERY FURNACE</text>
<text x="156" y="260" font-family="Georgia,serif" font-size="7.5" text-anchor="middle" fill="black" font-style="italic">1100–1200°C · 4–8 hrs · alternate ore &amp; charcoal · tap slag regularly</text>
<!-- CHARCOAL KILN -->
<path d="M 300 228 Q 370 186 440 228 L 440 235 Q 370 193 300 235 Z" fill="none" stroke="black" stroke-width="1.5"/>
<line x1="304" y1="208" x2="298" y2="216" stroke="black" stroke-width="0.5"/>
<line x1="316" y1="198" x2="310" y2="207" stroke="black" stroke-width="0.5"/>
<line x1="330" y1="192" x2="325" y2="201" stroke="black" stroke-width="0.5"/>
<line x1="344" y1="188" x2="339" y2="198" stroke="black" stroke-width="0.5"/>
<line x1="358" y1="188" x2="354" y2="198" stroke="black" stroke-width="0.5"/>
<line x1="372" y1="190" x2="369" y2="200" stroke="black" stroke-width="0.5"/>
<line x1="386" y1="194" x2="383" y2="204" stroke="black" stroke-width="0.5"/>
<line x1="400" y1="202" x2="398" y2="212" stroke="black" stroke-width="0.5"/>
<line x1="412" y1="212" x2="411" y2="221" stroke="black" stroke-width="0.5"/>
<ellipse cx="370" cy="190" rx="6" ry="4" fill="none" stroke="black" stroke-width="1"/>
<circle cx="315" cy="232" r="3" fill="none" stroke="black" stroke-width="0.75"/>
<circle cx="330" cy="233" r="3" fill="none" stroke="black" stroke-width="0.75"/>
<circle cx="410" cy="232" r="3" fill="none" stroke="black" stroke-width="0.75"/>
<circle cx="425" cy="231" r="3" fill="none" stroke="black" stroke-width="0.75"/>
<path d="M 370 186 Q 368 178 370 170" fill="none" stroke="black" stroke-width="1"/>
<line x1="300" y1="230" x2="440" y2="230" stroke="black" stroke-width="1.5"/>
<text x="370" y="250" font-family="Georgia,serif" font-size="9.5" font-weight="bold" text-anchor="middle" fill="black">CHARCOAL KILN</text>
<text x="370" y="262" font-family="Georgia,serif" font-size="7.5" text-anchor="middle" fill="black" font-style="italic">cover wood dome with soil · fire top · seal when smoke turns blue-gray · cool 24 hrs</text>
<line x1="18" y1="264" x2="462" y2="264" stroke="black" stroke-width="0.5"/>
<text x="240" y="274" font-family="Georgia,serif" font-size="8" text-anchor="middle" fill="black" letter-spacing="0.5">HARDWOOD ONLY for charcoal: oak · hickory · beech · maple · ash · NO PINE</text>
<text x="240" y="285" font-family="Georgia,serif" font-size="8" text-anchor="middle" fill="black" letter-spacing="0.5">Steel from wrought iron: pack in clay with charcoal · seal · fire 8–12 hrs → cementation</text>
<line x1="18" y1="293" x2="462" y2="293" stroke="black" stroke-width="0.5"/>
<text x="240" y="305" font-family="Georgia,serif" font-size="9.5" font-weight="bold" text-anchor="middle" fill="black" letter-spacing="3">SECTION 2 — GLASS &amp; OPTICS</text>
<line x1="18" y1="310" x2="462" y2="310" stroke="black" stroke-width="0.5"/>
<!-- Glass batch recipe panel -->
<rect x="28" y="311" width="200" height="70" fill="none" stroke="black" stroke-width="1"/>
<line x1="28" y1="325" x2="228" y2="325" stroke="black" stroke-width="0.5"/>
<line x1="118" y1="311" x2="118" y2="381" stroke="black" stroke-width="0.5"/>
<text x="73" y="321" font-family="Georgia,serif" font-size="7.5" font-weight="bold" text-anchor="middle" fill="black">INGREDIENT</text>
<text x="173" y="321" font-family="Georgia,serif" font-size="7.5" font-weight="bold" text-anchor="middle" fill="black">AMOUNT</text>
<text x="36" y="337" font-family="Georgia,serif" font-size="7" fill="black">Silica (quartz sand)</text>
<text x="173" y="337" font-family="Georgia,serif" font-size="7" text-anchor="middle" fill="black">60%</text>
<line x1="28" y1="340" x2="228" y2="340" stroke="black" stroke-width="0.25"/>
<text x="36" y="352" font-family="Georgia,serif" font-size="7" fill="black">Wood ash (potash)</text>
<text x="173" y="352" font-family="Georgia,serif" font-size="7" text-anchor="middle" fill="black">35%</text>
<line x1="28" y1="355" x2="228" y2="355" stroke="black" stroke-width="0.25"/>
<text x="36" y="367" font-family="Georgia,serif" font-size="7" fill="black">Limestone (crushed)</text>
<text x="173" y="367" font-family="Georgia,serif" font-size="7" text-anchor="middle" fill="black">5%</text>
<line x1="28" y1="370" x2="228" y2="370" stroke="black" stroke-width="0.25"/>
<text x="128" y="380" font-family="Georgia,serif" font-size="6.5" text-anchor="middle" fill="black" font-style="italic">frit 900°C → working glass 1000–1100°C</text>
<!-- Blowpipe -->
<line x1="248" y1="350" x2="340" y2="350" stroke="black" stroke-width="3"/>
<ellipse cx="342" cy="350" rx="18" ry="13" fill="none" stroke="black" stroke-width="1.5"/>
<line x1="238" y1="350" x2="248" y2="350" stroke="black" stroke-width="0.75" stroke-dasharray="2,2"/>
<text x="240" y="345" font-family="Georgia,serif" font-size="7" fill="black">blow</text>
<path d="M 290 342 Q 296 337 302 342" fill="none" stroke="black" stroke-width="0.75" marker-end="url(#arr)"/>
<text x="290" y="335" font-family="Georgia,serif" font-size="6.5" fill="black" font-style="italic">rotate</text>
<text x="380" y="345" font-family="Georgia,serif" font-size="7.5" font-weight="bold" fill="black">BLOWPIPE</text>
<text x="380" y="356" font-family="Georgia,serif" font-size="7" fill="black" font-style="italic">anneal: cool</text>
<text x="380" y="366" font-family="Georgia,serif" font-size="7" fill="black" font-style="italic">−50°C/hr</text>
<text x="380" y="376" font-family="Georgia,serif" font-size="7" fill="black" font-style="italic">no fast cooling</text>
<line x1="18" y1="390" x2="462" y2="390" stroke="black" stroke-width="0.5"/>
<!-- Microscope + lens -->
<rect x="40" y="396" width="14" height="50" fill="none" stroke="black" stroke-width="1.5"/>
<ellipse cx="47" cy="398" rx="11" ry="4" fill="none" stroke="black" stroke-width="1.5"/>
<ellipse cx="47" cy="444" rx="8" ry="3" fill="none" stroke="black" stroke-width="1.5"/>
<rect x="32" y="448" width="30" height="4" fill="none" stroke="black" stroke-width="1"/>
<line x1="47" y1="455" x2="47" y2="462" stroke="black" stroke-width="0.75" stroke-dasharray="2,2"/>
<line x1="47" y1="394" x2="47" y2="448" stroke="black" stroke-width="0.5" stroke-dasharray="2,2"/>
<text x="70" y="403" font-family="Georgia,serif" font-size="7.5" fill="black">eyepiece</text>
<text x="70" y="426" font-family="Georgia,serif" font-size="7.5" fill="black">15–20cm tube</text>
<text x="70" y="447" font-family="Georgia,serif" font-size="7.5" fill="black">objective lens</text>
<text x="70" y="458" font-family="Georgia,serif" font-size="7.5" fill="black">mirror below</text>
<line x1="68" y1="401" x2="55" y2="399" stroke="black" stroke-width="0.5"/>
<line x1="68" y1="424" x2="55" y2="424" stroke="black" stroke-width="0.5"/>
<line x1="68" y1="445" x2="55" y2="445" stroke="black" stroke-width="0.5"/>
<line x1="68" y1="456" x2="62" y2="453" stroke="black" stroke-width="0.5"/>
<!-- Grinding lens -->
<path d="M 180 448 Q 218 434 256 448" fill="none" stroke="black" stroke-width="1.5"/>
<line x1="180" y1="448" x2="180" y2="456" stroke="black" stroke-width="1"/>
<line x1="256" y1="448" x2="256" y2="456" stroke="black" stroke-width="1"/>
<ellipse cx="218" cy="442" rx="20" ry="6" fill="none" stroke="black" stroke-width="1.5"/>
<path d="M 204 440 Q 218 434 232 440" fill="none" stroke="black" stroke-width="0.75" marker-end="url(#arr)"/>
<text x="218" y="428" font-family="Georgia,serif" font-size="7" text-anchor="middle" fill="black" font-style="italic">grind on concave stone</text>
<text x="218" y="465" font-family="Georgia,serif" font-size="7" text-anchor="middle" fill="black" font-style="italic">sand → ash → leather polish</text>
<text x="140" y="478" font-family="Georgia,serif" font-size="9.5" font-weight="bold" text-anchor="middle" fill="black">MICROSCOPE 100–200×</text>
<text x="140" y="490" font-family="Georgia,serif" font-size="7.5" text-anchor="middle" fill="black" font-style="italic">sees bacteria &amp; cells · transforms understanding of disease</text>
<line x1="18" y1="488" x2="462" y2="488" stroke="black" stroke-width="0.5"/>
<text x="240" y="500" font-family="Georgia,serif" font-size="9.5" font-weight="bold" text-anchor="middle" fill="black" letter-spacing="3">SECTION 3 — MATHEMATICS &amp; PRINTING</text>
<line x1="18" y1="505" x2="462" y2="505" stroke="black" stroke-width="0.5"/>
<!-- Pythagorean theorem -->
<polygon points="318,548 318,596 372,596" fill="none" stroke="black" stroke-width="1.5"/>
<rect x="318" y="587" width="9" height="9" fill="none" stroke="black" stroke-width="0.75"/>
<text x="310" y="573" font-family="Georgia,serif" font-size="10" text-anchor="middle" fill="black" font-style="italic">a</text>
<text x="345" y="608" font-family="Georgia,serif" font-size="10" text-anchor="middle" fill="black" font-style="italic">b</text>
<text x="350" y="566" font-family="Georgia,serif" font-size="10" text-anchor="middle" fill="black" font-style="italic">c</text>
<text x="412" y="556" font-family="Georgia,serif" font-size="14" font-weight="bold" text-anchor="middle" fill="black" font-style="italic">a²+b²=c²</text>
<text x="412" y="572" font-family="Georgia,serif" font-size="7.5" text-anchor="middle" fill="black" font-style="italic">3-4-5 = perfect right angle</text>
<text x="412" y="583" font-family="Georgia,serif" font-size="7.5" text-anchor="middle" fill="black" font-style="italic">use for square building corners</text>
<text x="412" y="597" font-family="Georgia,serif" font-size="14" font-weight="bold" text-anchor="middle" fill="black">π ≈ 3.14159</text>
<!-- Woodblock -->
<rect x="52" y="510" width="48" height="28" rx="2" fill="none" stroke="black" stroke-width="1.5"/>
<line x1="56" y1="514" x2="60" y2="518" stroke="black" stroke-width="0.5"/>
<line x1="56" y1="522" x2="60" y2="526" stroke="black" stroke-width="0.5"/>
<line x1="56" y1="530" x2="60" y2="534" stroke="black" stroke-width="0.5"/>
<text x="76" y="528" font-family="Georgia,serif" font-size="8" text-anchor="middle" fill="black" transform="scale(-1,1) translate(-152,0)">abc</text>
<line x1="108" y1="523" x2="124" y2="523" stroke="black" stroke-width="1" marker-end="url(#arr)"/>
<rect x="126" y="510" width="36" height="28" rx="2" fill="none" stroke="black" stroke-width="1.25"/>
<text x="144" y="528" font-family="Georgia,serif" font-size="9" text-anchor="middle" fill="black">abc</text>
<text x="186" y="523" font-family="Georgia,serif" font-size="7" text-anchor="middle" fill="black" font-style="italic">press</text>
<text x="144" y="548" font-family="Georgia,serif" font-size="9.5" font-weight="bold" text-anchor="middle" fill="black">WOODBLOCK PRINT</text>
<text x="144" y="560" font-family="Georgia,serif" font-size="7.5" text-anchor="middle" fill="black" font-style="italic">carve wood in mirror image · ink · press paper · one block = one page</text>
<line x1="18" y1="562" x2="462" y2="562" stroke="black" stroke-width="0.5"/>
<text x="240" y="572" font-family="Georgia,serif" font-size="8" text-anchor="middle" fill="black" letter-spacing="0.5">SEQUENCE: charcoal → iron → ceramics → glass → lens → microscope → printing press</text>
<text x="240" y="583" font-family="Georgia,serif" font-size="8" text-anchor="middle" fill="black" letter-spacing="0.5">each technology enables the next · do not skip steps</text>
<line x1="18" y1="591" x2="462" y2="591" stroke="black" stroke-width="0.5"/>
<text x="240" y="601" font-family="Georgia,serif" font-size="8" text-anchor="middle" fill="black" letter-spacing="0.5">GERM THEORY: specific organisms cause specific diseases · wash hands · boil water · separate raw/cooked</text>
<line x1="18" y1="609" x2="462" y2="609" stroke="black" stroke-width="0.5"/>
<!-- METADATA STRIP -->
<line x1="6" y1="616" x2="474" y2="616" stroke="black" stroke-width="0.75"/>
<text x="240" y="626" font-family="Georgia,serif" font-size="6.5" text-anchor="middle" fill="black" letter-spacing="0.8">CC BY-SA 4.0 · PLATE g OF [N] · BURIED: [YEAR] · GPS: [LATITUDE, LONGITUDE] · LANDMARK: [DESCRIPTION]</text>
<line x1="6" y1="630" x2="474" y2="630" stroke="black" stroke-width="0.75"/>
<!-- FOOTER BANNER -->
<text x="240" y="649" font-family="Georgia,serif" font-size="11" font-weight="bold" text-anchor="middle" fill="black" font-style="italic">THIS IS A PATIENT MESSAGE. IT WAS MADE FOR YOU, FREELY, BY PEOPLE WHO REMEMBERED FORWARD.</text>
<text x="240" y="664" font-family="Georgia,serif" font-size="8.5" text-anchor="middle" fill="black">BUY IT · BUILD IT · BURY IT · FOR SOMEONE YOU WILL NEVER MEET</text>
</svg>