<svg viewBox="0 0 480 680" xmlns="http://www.w3.org/2000/svg">
<defs>
  <style>
    text { font-family: Georgia,serif; fill: #000; }
    .title { font-size:13px; font-weight:bold; letter-spacing:2px; }
    .sub   { font-size:7.5px; letter-spacing:1.5px; }
    .sh    { font-size:7px; font-weight:bold; letter-spacing:2.5px; }
    .lab   { font-size:7px; }
    .labsm { font-size:6px; }
    .labxs { font-size:5.5px; }
    .meta  { font-size:6px; letter-spacing:1px; }
    .foot  { font-size:7px; font-style:italic; }
    .footb { font-size:7px; font-weight:bold; }
  </style>
</defs>
<!-- outer / inner borders -->
<rect x="6" y="6" width="468" height="668" rx="4" fill="none" stroke="#000" stroke-width="3"/>
<rect x="12" y="12" width="456" height="656" rx="2" fill="none" stroke="#000" stroke-width="0.75"/>
<!-- header -->
<text x="240" y="34" text-anchor="middle" class="title">PLATE 10  ·  ELECTRICAL PHENOMENA</text>
<line x1="18" y1="40" x2="462" y2="40" stroke="#000" stroke-width="0.75"/>
<text x="240" y="51" text-anchor="middle" class="sub">charge is a force of nature  ·  it can be stored, released, and controlled</text>
<line x1="18" y1="57" x2="462" y2="57" stroke="#000" stroke-width="0.5"/>
<text x="240" y="70" text-anchor="middle" class="sh">— · —  STATIC CHARGE  — · —</text>
<line x1="22" y1="75" x2="458" y2="75" stroke="#000" stroke-width="0.3"/>
<rect x="28" y="90" width="80" height="22" fill="none" stroke="#000" stroke-width="1.0"/>
<text x="68" y="105" text-anchor="middle" class="labxs">AMBER  ROD</text>
<path d="M118,90 Q124,96 130,90 Q136,96 142,90 Q148,96 154,90 L154,112 Q148,106 142,112 Q136,106 130,112 Q124,106 118,112 Z" fill="none" stroke="#000" stroke-width="0.9"/>
<text x="136" y="125" text-anchor="middle" class="labxs">WOOL</text>
<path d="M112,94 C107,101 107,101 112,108" fill="none" stroke="#000" stroke-width="0.7" marker-end="url(#ah)"/>
<circle cx="52" cy="80" r="2" fill="none" stroke="#000" stroke-width="0.6"/>
<line x1="52" y1="72" x2="52" y2="76" stroke="#000" stroke-width="0.7"/><polygon points="51,76 52,79 53,76" fill="#000"/>
<circle cx="42" cy="85" r="2" fill="none" stroke="#000" stroke-width="0.6"/>
<line x1="42" y1="77" x2="42" y2="81" stroke="#000" stroke-width="0.7"/><polygon points="41,81 42,84 43,81" fill="#000"/>
<circle cx="60" cy="78" r="2" fill="none" stroke="#000" stroke-width="0.6"/>
<line x1="60" y1="70" x2="60" y2="74" stroke="#000" stroke-width="0.7"/><polygon points="59,74 60,77 61,74" fill="#000"/>
<circle cx="70" cy="82" r="2" fill="none" stroke="#000" stroke-width="0.6"/>
<line x1="70" y1="74" x2="70" y2="78" stroke="#000" stroke-width="0.7"/><polygon points="69,78 70,81 71,78" fill="#000"/>
<circle cx="48" cy="76" r="2" fill="none" stroke="#000" stroke-width="0.6"/>
<line x1="48" y1="68" x2="48" y2="72" stroke="#000" stroke-width="0.7"/><polygon points="47,72 48,75 49,72" fill="#000"/>
<circle cx="36" cy="90" r="2" fill="none" stroke="#000" stroke-width="0.6"/>
<line x1="36" y1="82" x2="36" y2="86" stroke="#000" stroke-width="0.7"/><polygon points="35,86 36,89 37,86" fill="#000"/>
<text x="90" y="140" text-anchor="middle" class="labxs">friction separates charge</text>
<text x="90" y="150" text-anchor="middle" class="labxs">unlike charges attract</text>
<text x="310" y="82" text-anchor="middle" class="labsm">+ CHARGE</text>
<text x="380" y="82" text-anchor="middle" class="labsm">− CHARGE</text>
<text x="295" y="100" text-anchor="middle" class="labxs">+</text>
<text x="390" y="100" text-anchor="middle" class="labxs">−</text>
<text x="300" y="108" text-anchor="middle" class="labxs">+</text>
<text x="385" y="108" text-anchor="middle" class="labxs">−</text>
<text x="305" y="116" text-anchor="middle" class="labxs">+</text>
<text x="380" y="116" text-anchor="middle" class="labxs">−</text>
<text x="310" y="124" text-anchor="middle" class="labxs">+</text>
<text x="375" y="124" text-anchor="middle" class="labxs">−</text>
<text x="315" y="132" text-anchor="middle" class="labxs">+</text>
<text x="370" y="132" text-anchor="middle" class="labxs">−</text>
<line x1="330" y1="118" x2="360" y2="118" stroke="#000" stroke-width="1.5"/>
<polygon points="356,114 364,118 356,122" fill="#000"/>
<polygon points="334,114 326,118 334,122" fill="#000"/>
<text x="344" y="134" text-anchor="middle" class="labxs">ATTRACTION</text>
<text x="344" y="150" text-anchor="middle" class="labxs">opposites attract</text>
<line x1="22" y1="158" x2="458" y2="158" stroke="#000" stroke-width="0.3"/>
<text x="240" y="169" text-anchor="middle" class="sh">— · —  THE CAPACITOR — STORING CHARGE  — · —</text>
<line x1="22" y1="173" x2="458" y2="173" stroke="#000" stroke-width="0.3"/>
<rect x="60" y="195" width="30" height="50" fill="none" stroke="#000" stroke-width="1.2"/>
<rect x="92" y="195" width="28" height="50" fill="none" stroke="#000" stroke-width="0.5"/>
<line x1="92" y1="199" x2="120" y2="203" stroke="#000" stroke-width="0.4"/>
<line x1="92" y1="205" x2="120" y2="209" stroke="#000" stroke-width="0.4"/>
<line x1="92" y1="211" x2="120" y2="215" stroke="#000" stroke-width="0.4"/>
<line x1="92" y1="217" x2="120" y2="221" stroke="#000" stroke-width="0.4"/>
<line x1="92" y1="223" x2="120" y2="227" stroke="#000" stroke-width="0.4"/>
<line x1="92" y1="229" x2="120" y2="233" stroke="#000" stroke-width="0.4"/>
<line x1="92" y1="235" x2="120" y2="239" stroke="#000" stroke-width="0.4"/>
<line x1="92" y1="241" x2="120" y2="245" stroke="#000" stroke-width="0.4"/>
<rect x="122" y="195" width="30" height="50" fill="none" stroke="#000" stroke-width="1.2"/>
<text x="78" y="207" text-anchor="middle" class="labxs">+</text>
<text x="134" y="207" text-anchor="middle" class="labxs">−</text>
<text x="78" y="217" text-anchor="middle" class="labxs">+</text>
<text x="134" y="217" text-anchor="middle" class="labxs">−</text>
<text x="78" y="227" text-anchor="middle" class="labxs">+</text>
<text x="134" y="227" text-anchor="middle" class="labxs">−</text>
<text x="78" y="237" text-anchor="middle" class="labxs">+</text>
<text x="134" y="237" text-anchor="middle" class="labxs">−</text>
<text x="75" y="253" text-anchor="middle" class="labxs">METAL</text>
<text x="106" y="253" text-anchor="middle" class="labxs">INSULATOR</text>
<text x="137" y="253" text-anchor="middle" class="labxs">METAL</text>
<rect x="25" y="261" width="155" height="22" fill="none" stroke="#000" stroke-width="0.7"/>
<text x="103" y="271" text-anchor="middle" class="labxs">THE ARK OF THE COVENANT:</text>
<text x="103" y="281" text-anchor="middle" class="labxs">OUTER GOLD + ACACIA WOOD + INNER GOLD</text>
<rect x="230" y="195" width="40" height="50" fill="none" stroke="#000" stroke-width="1.0"/>
<rect x="310" y="195" width="40" height="50" fill="none" stroke="#000" stroke-width="1.0"/>
<polyline points="270,220 278,212 286,228 294,212 302,224 310,220" fill="none" stroke="#000" stroke-width="1.5"/>
<text x="290" y="189" text-anchor="middle" class="labsm">DISCHARGE</text>
<text x="250" y="253" text-anchor="middle" class="labxs">CONDUCTOR</text>
<text x="330" y="253" text-anchor="middle" class="labxs">CONDUCTOR</text>
<text x="290" y="263" text-anchor="middle" class="labxs">small gap + high charge = ARC</text>
<text x="290" y="273" text-anchor="middle" class="labxs">arc produces LIGHT + SOUND</text>
<line x1="188" y1="220" x2="221" y2="220" stroke="#000" stroke-width="0.7"/><polygon points="221,218 226,220 221,222" fill="#000"/>
<text x="207" y="216" text-anchor="middle" class="labxs">discharge</text>
<line x1="22" y1="255" x2="458" y2="255" stroke="#000" stroke-width="0.3"/>
<text x="240" y="266" text-anchor="middle" class="sh">— · —  PLASMA ARC — LIGHT AND SOUND FROM ELECTRICITY  — · —</text>
<line x1="22" y1="270" x2="458" y2="270" stroke="#000" stroke-width="0.3"/>
<rect x="60" y="282" width="16" height="30" fill="none" stroke="#000" stroke-width="1.0"/>
<rect x="120" y="282" width="16" height="30" fill="none" stroke="#000" stroke-width="1.0"/>
<polyline points="76,297 84,289 92,305 100,289 108,301 120,297" fill="none" stroke="#000" stroke-width="1.8"/>
<line x1="120.0" y1="297.0" x2="130.0" y2="297.0" stroke="#000" stroke-width="0.7"/>
<line x1="114.9" y1="311.1" x2="122.5" y2="317.6" stroke="#000" stroke-width="0.7"/>
<line x1="101.8" y1="318.7" x2="103.6" y2="328.5" stroke="#000" stroke-width="0.7"/>
<line x1="87.0" y1="316.1" x2="82.0" y2="324.7" stroke="#000" stroke-width="0.7"/>
<line x1="77.3" y1="304.5" x2="67.9" y2="307.9" stroke="#000" stroke-width="0.7"/>
<line x1="77.3" y1="289.5" x2="67.9" y2="286.1" stroke="#000" stroke-width="0.7"/>
<line x1="87.0" y1="277.9" x2="82.0" y2="269.3" stroke="#000" stroke-width="0.7"/>
<line x1="101.8" y1="275.3" x2="103.6" y2="265.5" stroke="#000" stroke-width="0.7"/>
<line x1="114.9" y1="282.9" x2="122.5" y2="276.4" stroke="#000" stroke-width="0.7"/>
<text x="98" y="322" text-anchor="middle" class="labxs">LIGHT</text>
<path d="M136,285 Q144,297 136,309" fill="none" stroke="#000" stroke-width="0.8"/>
<path d="M150,285 Q158,297 150,309" fill="none" stroke="#000" stroke-width="0.8"/>
<path d="M164,285 Q172,297 164,309" fill="none" stroke="#000" stroke-width="0.8"/>
<text x="175" y="310" text-anchor="middle" class="labxs">SOUND</text>
<text x="280" y="286" text-anchor="middle" class="labxs">The plasma arc is the highest-fidelity</text>
<text x="280" y="297" text-anchor="middle" class="labxs">speaker possible — plasma has no mass</text>
<text x="280" y="308" text-anchor="middle" class="labxs">to resist movement. Any audio signal</text>
<text x="280" y="319" text-anchor="middle" class="labxs">passed through the arc is reproduced</text>
<text x="280" y="330" text-anchor="middle" class="labxs">with perfect accuracy.</text>
<line x1="22" y1="338" x2="458" y2="338" stroke="#000" stroke-width="0.3"/>
<text x="240" y="349" text-anchor="middle" class="sh">— · —  LIGHTNING — NATURE'S CAPACITOR  — · —</text>
<line x1="22" y1="353" x2="458" y2="353" stroke="#000" stroke-width="0.3"/>
<ellipse cx="110" cy="378" rx="55" ry="22" fill="none" stroke="#000" stroke-width="1.0"/>
<ellipse cx="90" cy="370" rx="28" ry="16" fill="none" stroke="#000" stroke-width="1.0"/>
<ellipse cx="130" cy="370" rx="28" ry="16" fill="none" stroke="#000" stroke-width="1.0"/>
<text x="94" y="382" text-anchor="middle" class="labxs">−</text>
<text x="102" y="382" text-anchor="middle" class="labxs">−</text>
<text x="110" y="382" text-anchor="middle" class="labxs">−</text>
<text x="118" y="382" text-anchor="middle" class="labxs">−</text>
<text x="126" y="382" text-anchor="middle" class="labxs">−</text>
<line x1="50" y1="408" x2="170" y2="408" stroke="#000" stroke-width="1.5"/>
<line x1="55" y1="408" x2="50" y2="415" stroke="#000" stroke-width="0.8"/>
<line x1="65" y1="408" x2="60" y2="415" stroke="#000" stroke-width="0.8"/>
<line x1="75" y1="408" x2="70" y2="415" stroke="#000" stroke-width="0.8"/>
<line x1="85" y1="408" x2="80" y2="415" stroke="#000" stroke-width="0.8"/>
<line x1="95" y1="408" x2="90" y2="415" stroke="#000" stroke-width="0.8"/>
<line x1="105" y1="408" x2="100" y2="415" stroke="#000" stroke-width="0.8"/>
<line x1="115" y1="408" x2="110" y2="415" stroke="#000" stroke-width="0.8"/>
<line x1="125" y1="408" x2="120" y2="415" stroke="#000" stroke-width="0.8"/>
<line x1="135" y1="408" x2="130" y2="415" stroke="#000" stroke-width="0.8"/>
<line x1="145" y1="408" x2="140" y2="415" stroke="#000" stroke-width="0.8"/>
<line x1="155" y1="408" x2="150" y2="415" stroke="#000" stroke-width="0.8"/>
<line x1="165" y1="408" x2="160" y2="415" stroke="#000" stroke-width="0.8"/>
<text x="75" y="406" text-anchor="middle" class="labxs">+</text>
<text x="91" y="406" text-anchor="middle" class="labxs">+</text>
<text x="107" y="406" text-anchor="middle" class="labxs">+</text>
<text x="123" y="406" text-anchor="middle" class="labxs">+</text>
<polyline points="110,400 104,392 112,382 106,373 118,362 112,353" fill="none" stroke="#000" stroke-width="2.5"/>
<text x="310" y="365" text-anchor="middle" class="labxs">CLOUD = negative conductor</text>
<text x="310" y="377" text-anchor="middle" class="labxs">EARTH = positive conductor</text>
<text x="310" y="389" text-anchor="middle" class="labxs">AIR = insulator between them</text>
<text x="310" y="401" text-anchor="middle" class="labxs">LIGHTNING = capacitor discharge</text>
<text x="310" y="413" text-anchor="middle" class="labxs">same force as amber + wool at scale</text>
<line x1="22" y1="420" x2="458" y2="420" stroke="#000" stroke-width="0.3"/>
<text x="240" y="431" text-anchor="middle" class="sh">— · —  ELECTROMAGNETIC INDUCTION  — · —</text>
<line x1="22" y1="435" x2="458" y2="435" stroke="#000" stroke-width="0.3"/>
<ellipse cx="160" cy="472" rx="8" ry="18" fill="none" stroke="#000" stroke-width="0.9"/>
<ellipse cx="176" cy="472" rx="8" ry="18" fill="none" stroke="#000" stroke-width="0.9"/>
<ellipse cx="192" cy="472" rx="8" ry="18" fill="none" stroke="#000" stroke-width="0.9"/>
<ellipse cx="208" cy="472" rx="8" ry="18" fill="none" stroke="#000" stroke-width="0.9"/>
<ellipse cx="224" cy="472" rx="8" ry="18" fill="none" stroke="#000" stroke-width="0.9"/>
<ellipse cx="240" cy="472" rx="8" ry="18" fill="none" stroke="#000" stroke-width="0.9"/>
<ellipse cx="256" cy="472" rx="8" ry="18" fill="none" stroke="#000" stroke-width="0.9"/>
<ellipse cx="272" cy="472" rx="8" ry="18" fill="none" stroke="#000" stroke-width="0.9"/>
<line x1="72" y1="472" x2="152" y2="472" stroke="#000" stroke-width="0.9"/>
<line x1="272" y1="472" x2="310" y2="472" stroke="#000" stroke-width="0.9"/>
<rect x="28" y="456" width="40" height="32" fill="none" stroke="#000" stroke-width="1.2"/>
<text x="48" y="468" text-anchor="middle" class="lab">N</text>
<text x="48" y="480" text-anchor="middle" class="lab">S</text>
<line x1="70" y1="472" x2="85" y2="472" stroke="#000" stroke-width="0.7"/><polygon points="85,470 90,472 85,474" fill="#000"/>
<text x="80" y="486" text-anchor="middle" class="labxs">MOVE</text>
<circle cx="326" cy="472" r="18" fill="none" stroke="#000" stroke-width="1.0"/>
<line x1="326" y1="472" x2="336" y2="460" stroke="#000" stroke-width="1.0"/>
<path d="M312,477 A18,18 0 0,1 340,477" fill="none" stroke="#000" stroke-width="0.6"/>
<text x="326" y="500" text-anchor="middle" class="labxs">CURRENT</text>
<text x="240" y="500" text-anchor="middle" class="labxs">moving a magnet through a coil produces electrical current</text>
<text x="240" y="512" text-anchor="middle" class="labxs">magnet + coil + rotation = ALL generators · ALL motors · ALL modern power</text>
<line x1="22" y1="518" x2="458" y2="518" stroke="#000" stroke-width="0.3"/>
<text x="240" y="529" text-anchor="middle" class="sh">— · —  ONE FORCE  ·  MANY FORMS  ·  THE COMPLETE LADDER  — · —</text>
<line x1="22" y1="533" x2="458" y2="533" stroke="#000" stroke-width="0.3"/>
<rect x="44" y="548" width="72" height="32" fill="none" stroke="#000" stroke-width="0.8"/>
<text x="80" y="559" text-anchor="middle" class="labxs">AMBER +</text>
<text x="80" y="569" text-anchor="middle" class="labxs">WOOL</text>
<text x="80" y="588" text-anchor="middle" class="labxs">static</text>
<text x="80" y="596" text-anchor="middle" class="labxs">charge</text>
<line x1="117" y1="564" x2="119" y2="564" stroke="#000" stroke-width="0.7"/><polygon points="119,562 123,564 119,566" fill="#000"/>
<rect x="124" y="548" width="72" height="32" fill="none" stroke="#000" stroke-width="0.8"/>
<text x="160" y="559" text-anchor="middle" class="labxs">LEYDEN</text>
<text x="160" y="569" text-anchor="middle" class="labxs">JAR</text>
<text x="160" y="588" text-anchor="middle" class="labxs">stored</text>
<text x="160" y="596" text-anchor="middle" class="labxs">charge</text>
<line x1="197" y1="564" x2="199" y2="564" stroke="#000" stroke-width="0.7"/><polygon points="199,562 203,564 199,566" fill="#000"/>
<rect x="204" y="548" width="72" height="32" fill="none" stroke="#000" stroke-width="0.8"/>
<text x="240" y="559" text-anchor="middle" class="labxs">ARC</text>
<text x="240" y="569" text-anchor="middle" class="labxs">SPARK</text>
<text x="240" y="588" text-anchor="middle" class="labxs">plasma</text>
<text x="240" y="596" text-anchor="middle" class="labxs">light+sound</text>
<line x1="277" y1="564" x2="279" y2="564" stroke="#000" stroke-width="0.7"/><polygon points="279,562 283,564 279,566" fill="#000"/>
<rect x="284" y="548" width="72" height="32" fill="none" stroke="#000" stroke-width="0.8"/>
<text x="320" y="559" text-anchor="middle" class="labxs">MAGNET</text>
<text x="320" y="569" text-anchor="middle" class="labxs">+ COIL</text>
<text x="320" y="588" text-anchor="middle" class="labxs">induced</text>
<text x="320" y="596" text-anchor="middle" class="labxs">current</text>
<line x1="357" y1="564" x2="359" y2="564" stroke="#000" stroke-width="0.7"/><polygon points="359,562 363,564 359,566" fill="#000"/>
<rect x="364" y="548" width="72" height="32" fill="none" stroke="#000" stroke-width="0.8"/>
<text x="400" y="559" text-anchor="middle" class="labxs">COIL</text>
<text x="400" y="569" text-anchor="middle" class="labxs">+ CURRENT</text>
<text x="400" y="588" text-anchor="middle" class="labxs">electromagnet</text>
<text x="400" y="596" text-anchor="middle" class="labxs">& motor</text>
<text x="240" y="605" text-anchor="middle" class="labxs">all electricity is the same force at different scales and configurations</text>
<!-- metadata strip -->
<line x1="18" y1="615" x2="462" y2="615" stroke="#000" stroke-width="0.5"/>
<text x="240" y="624" text-anchor="middle" class="meta">REMEMBER FORWARD · THE PATIENT MESSAGE · CC BY-SA 4.0 · rememberforward.org</text>
<line x1="18" y1="630" x2="462" y2="630" stroke="#000" stroke-width="1"/>
<!-- footer banner -->
<text x="240" y="648" text-anchor="middle" class="footb">THIS IS A PATIENT MESSAGE. IT WAS MADE FOR YOU, FREELY, BY PEOPLE WHO REMEMBERED FORWARD.</text>
<text x="240" y="663" text-anchor="middle" class="foot">UNDERSTAND IT · BUILD WITH IT · LEAVE MORE CAPSULES FOR OTHERS</text>
</svg>