<svg viewBox="0 0 480 680" xmlns="http://www.w3.org/2000/svg">
<defs><style>
  text{font-family:Georgia,serif;fill:#000;}
  .T{font-size:13px;font-weight:bold;letter-spacing:2px;}
  .S{font-size:7.5px;letter-spacing:1.5px;}
  .H{font-size:7px;font-weight:bold;letter-spacing:2.5px;}
  .L{font-size:7px;}
  .Ls{font-size:6px;}
  .Lx{font-size:5.5px;}
  .M{font-size:6px;letter-spacing:1px;}
  .F{font-size:7px;font-style:italic;}
  .Fb{font-size:7px;font-weight:bold;}
</style></defs>
<rect x="6" y="6" width="468" height="668" rx="4" fill="none" stroke="#000" stroke-width="3"/>
<rect x="12" y="12" width="456" height="656" rx="2" fill="none" stroke="#000" stroke-width="0.75"/>
<text x="240" y="34" text-anchor="middle" class="T">PLATE 11  ·  ENERGY GENERATION</text>
<line x1="18" y1="40" x2="462" y2="40" stroke="#000" stroke-width="0.75"/>
<text x="240" y="51" text-anchor="middle" class="S">mechanical  ·  electrical  ·  chemical  ·  osmotic  ·  from materials in any environment</text>
<line x1="18" y1="57" x2="462" y2="57" stroke="#000" stroke-width="0.5"/>
<text x="240" y="69" text-anchor="middle" class="H">— · —  THE WATER WHEEL  —  PRIMARY MECHANICAL POWER  — · —</text>
<line x1="22" y1="73" x2="458" y2="73" stroke="#000" stroke-width="0.3"/>
<circle cx="95" cy="118" r="40" fill="none" stroke="#000" stroke-width="1.2"/>
<line x1="123.0" y1="118.0" x2="135.0" y2="118.0" stroke="#000" stroke-width="2.0"/>
<line x1="114.8" y1="137.8" x2="123.3" y2="146.3" stroke="#000" stroke-width="2.0"/>
<line x1="95.0" y1="146.0" x2="95.0" y2="158.0" stroke="#000" stroke-width="2.0"/>
<line x1="75.2" y1="137.8" x2="66.7" y2="146.3" stroke="#000" stroke-width="2.0"/>
<line x1="67.0" y1="118.0" x2="55.0" y2="118.0" stroke="#000" stroke-width="2.0"/>
<line x1="75.2" y1="98.2" x2="66.7" y2="89.7" stroke="#000" stroke-width="2.0"/>
<line x1="95.0" y1="90.0" x2="95.0" y2="78.0" stroke="#000" stroke-width="2.0"/>
<line x1="114.8" y1="98.2" x2="123.3" y2="89.7" stroke="#000" stroke-width="2.0"/>
<circle cx="95" cy="118" r="5" fill="none" stroke="#000" stroke-width="1.0"/>
<line x1="87" y1="58" x2="135" y2="58" stroke="#000" stroke-width="1.5"/>
<line x1="87" y1="68" x2="135" y2="68" stroke="#000" stroke-width="1.5"/>
<line x1="105" y1="70" x2="105" y2="77" stroke="#000" stroke-width="0.7"/><polygon points="104,77 105,80 106,77" fill="#000"/>
<line x1="115" y1="70" x2="115" y2="77" stroke="#000" stroke-width="0.7"/><polygon points="114,77 115,80 116,77" fill="#000"/>
<line x1="125" y1="70" x2="125" y2="77" stroke="#000" stroke-width="0.7"/><polygon points="124,77 125,80 126,77" fill="#000"/>
<text x="115" y="81" text-anchor="middle" class="Lx">MILLRACE</text>
<path d="M140,118 A45,45 0 0,1 95,73" fill="none" stroke="#000" stroke-width="0.8" stroke-dasharray="3,2"/>
<polygon points="91,70 98,75 92,81" fill="#000"/>
<text x="220" y="84" text-anchor="start" class="Lx">OVERSHOT: 60–85% efficient</text>
<text x="220" y="94" text-anchor="start" class="Lx">water falls onto TOP of wheel</text>
<text x="220" y="104" text-anchor="start" class="Lx">axle drives millstone, pump, or bellows</text>
<text x="220" y="114" text-anchor="start" class="Lx">connect axle to coil (Plate 10) = electricity</text>
<text x="220" y="124" text-anchor="start" class="Lx">undershot: place in flowing river</text>
<text x="220" y="134" text-anchor="start" class="Lx">1m head x 1m³/sec ≈ 7 watts</text>
<text x="220" y="144" text-anchor="start" class="Lx">build from: wood + river + axle + millstones</text>
<line x1="22" y1="160" x2="458" y2="160" stroke="#000" stroke-width="0.3"/>
<text x="240" y="171" text-anchor="middle" class="H">— · —  WIND TURBINE  —  SECONDARY POWER  — · —</text>
<line x1="22" y1="175" x2="458" y2="175" stroke="#000" stroke-width="0.3"/>
<circle cx="90" cy="208" r="6" fill="none" stroke="#000" stroke-width="1.0"/>
<polygon points="85.0,208.4 90.0,254.0 95.0,208.4" fill="none" stroke="#000" stroke-width="1.2"/>
<polygon points="92.1,203.5 50.2,185.0 87.1,212.1" fill="none" stroke="#000" stroke-width="1.2"/>
<polygon points="92.9,212.1 129.8,185.0 87.9,203.5" fill="none" stroke="#000" stroke-width="1.2"/>
<line x1="90" y1="214" x2="90" y2="248" stroke="#000" stroke-width="1.5"/>
<line x1="18" y1="188" x2="34" y2="188" stroke="#000" stroke-width="0.7"/><polygon points="34,186 38,188 34,190" fill="#000"/>
<line x1="18" y1="200" x2="34" y2="200" stroke="#000" stroke-width="0.7"/><polygon points="34,198 38,200 34,202" fill="#000"/>
<line x1="18" y1="216" x2="34" y2="216" stroke="#000" stroke-width="0.7"/><polygon points="34,214 38,216 34,218" fill="#000"/>
<text x="28" y="181" text-anchor="middle" class="Lx">WIND</text>
<text x="220" y="188" text-anchor="start" class="Lx">blade angle: 15–25° from wind direction</text>
<text x="220" y="198" text-anchor="start" class="Lx">3 blades: best balance of torque and speed</text>
<text x="220" y="208" text-anchor="start" class="Lx">tower height: above turbulence — taller = steadier wind</text>
<text x="220" y="218" text-anchor="start" class="Lx">axle → generator coil (Plate 10) → electricity</text>
<text x="220" y="228" text-anchor="start" class="Lx">or: axle → pump → water storage = gravity battery</text>
<line x1="22" y1="236" x2="458" y2="236" stroke="#000" stroke-width="0.3"/>
<text x="240" y="247" text-anchor="middle" class="H">— · —  CHARCOAL CAPACITOR  —  STORING ELECTRICAL CHARGE  — · —</text>
<line x1="22" y1="251" x2="458" y2="251" stroke="#000" stroke-width="0.3"/>
<rect x="22" y="270" width="16" height="52" fill="none" stroke="#000" stroke-width="1.2"/>
<text x="30" y="263" text-anchor="middle" class="Lx">METAL</text>
<circle cx="38.0" cy="272" r="1.2" fill="none" stroke="#000" stroke-width="0.5"/>
<circle cx="41.0" cy="278" r="1.2" fill="none" stroke="#000" stroke-width="0.5"/>
<circle cx="40.0" cy="284" r="1.2" fill="none" stroke="#000" stroke-width="0.5"/>
<circle cx="39.0" cy="290" r="1.2" fill="none" stroke="#000" stroke-width="0.5"/>
<circle cx="38.0" cy="296" r="1.2" fill="none" stroke="#000" stroke-width="0.5"/>
<circle cx="41.0" cy="302" r="1.2" fill="none" stroke="#000" stroke-width="0.5"/>
<circle cx="40.0" cy="308" r="1.2" fill="none" stroke="#000" stroke-width="0.5"/>
<circle cx="39.0" cy="314" r="1.2" fill="none" stroke="#000" stroke-width="0.5"/>
<circle cx="42.0" cy="272" r="1.2" fill="none" stroke="#000" stroke-width="0.5"/>
<circle cx="45.0" cy="278" r="1.2" fill="none" stroke="#000" stroke-width="0.5"/>
<circle cx="44.0" cy="284" r="1.2" fill="none" stroke="#000" stroke-width="0.5"/>
<circle cx="43.0" cy="290" r="1.2" fill="none" stroke="#000" stroke-width="0.5"/>
<circle cx="42.0" cy="296" r="1.2" fill="none" stroke="#000" stroke-width="0.5"/>
<circle cx="45.0" cy="302" r="1.2" fill="none" stroke="#000" stroke-width="0.5"/>
<circle cx="44.0" cy="308" r="1.2" fill="none" stroke="#000" stroke-width="0.5"/>
<circle cx="43.0" cy="314" r="1.2" fill="none" stroke="#000" stroke-width="0.5"/>
<circle cx="46.0" cy="272" r="1.2" fill="none" stroke="#000" stroke-width="0.5"/>
<circle cx="49.0" cy="278" r="1.2" fill="none" stroke="#000" stroke-width="0.5"/>
<circle cx="48.0" cy="284" r="1.2" fill="none" stroke="#000" stroke-width="0.5"/>
<circle cx="47.0" cy="290" r="1.2" fill="none" stroke="#000" stroke-width="0.5"/>
<circle cx="46.0" cy="296" r="1.2" fill="none" stroke="#000" stroke-width="0.5"/>
<circle cx="49.0" cy="302" r="1.2" fill="none" stroke="#000" stroke-width="0.5"/>
<circle cx="48.0" cy="308" r="1.2" fill="none" stroke="#000" stroke-width="0.5"/>
<circle cx="47.0" cy="314" r="1.2" fill="none" stroke="#000" stroke-width="0.5"/>
<circle cx="50.0" cy="272" r="1.2" fill="none" stroke="#000" stroke-width="0.5"/>
<circle cx="53.0" cy="278" r="1.2" fill="none" stroke="#000" stroke-width="0.5"/>
<circle cx="52.0" cy="284" r="1.2" fill="none" stroke="#000" stroke-width="0.5"/>
<circle cx="51.0" cy="290" r="1.2" fill="none" stroke="#000" stroke-width="0.5"/>
<circle cx="50.0" cy="296" r="1.2" fill="none" stroke="#000" stroke-width="0.5"/>
<circle cx="53.0" cy="302" r="1.2" fill="none" stroke="#000" stroke-width="0.5"/>
<circle cx="52.0" cy="308" r="1.2" fill="none" stroke="#000" stroke-width="0.5"/>
<circle cx="51.0" cy="314" r="1.2" fill="none" stroke="#000" stroke-width="0.5"/>
<circle cx="54.0" cy="272" r="1.2" fill="none" stroke="#000" stroke-width="0.5"/>
<circle cx="57.0" cy="278" r="1.2" fill="none" stroke="#000" stroke-width="0.5"/>
<circle cx="56.0" cy="284" r="1.2" fill="none" stroke="#000" stroke-width="0.5"/>
<circle cx="55.0" cy="290" r="1.2" fill="none" stroke="#000" stroke-width="0.5"/>
<circle cx="54.0" cy="296" r="1.2" fill="none" stroke="#000" stroke-width="0.5"/>
<circle cx="57.0" cy="302" r="1.2" fill="none" stroke="#000" stroke-width="0.5"/>
<circle cx="56.0" cy="308" r="1.2" fill="none" stroke="#000" stroke-width="0.5"/>
<circle cx="55.0" cy="314" r="1.2" fill="none" stroke="#000" stroke-width="0.5"/>
<circle cx="58.0" cy="272" r="1.2" fill="none" stroke="#000" stroke-width="0.5"/>
<circle cx="61.0" cy="278" r="1.2" fill="none" stroke="#000" stroke-width="0.5"/>
<circle cx="60.0" cy="284" r="1.2" fill="none" stroke="#000" stroke-width="0.5"/>
<circle cx="59.0" cy="290" r="1.2" fill="none" stroke="#000" stroke-width="0.5"/>
<circle cx="58.0" cy="296" r="1.2" fill="none" stroke="#000" stroke-width="0.5"/>
<circle cx="61.0" cy="302" r="1.2" fill="none" stroke="#000" stroke-width="0.5"/>
<circle cx="60.0" cy="308" r="1.2" fill="none" stroke="#000" stroke-width="0.5"/>
<circle cx="59.0" cy="314" r="1.2" fill="none" stroke="#000" stroke-width="0.5"/>
<circle cx="62.0" cy="272" r="1.2" fill="none" stroke="#000" stroke-width="0.5"/>
<circle cx="65.0" cy="278" r="1.2" fill="none" stroke="#000" stroke-width="0.5"/>
<circle cx="64.0" cy="284" r="1.2" fill="none" stroke="#000" stroke-width="0.5"/>
<circle cx="63.0" cy="290" r="1.2" fill="none" stroke="#000" stroke-width="0.5"/>
<circle cx="62.0" cy="296" r="1.2" fill="none" stroke="#000" stroke-width="0.5"/>
<circle cx="65.0" cy="302" r="1.2" fill="none" stroke="#000" stroke-width="0.5"/>
<circle cx="64.0" cy="308" r="1.2" fill="none" stroke="#000" stroke-width="0.5"/>
<circle cx="63.0" cy="314" r="1.2" fill="none" stroke="#000" stroke-width="0.5"/>
<circle cx="66.0" cy="272" r="1.2" fill="none" stroke="#000" stroke-width="0.5"/>
<circle cx="69.0" cy="278" r="1.2" fill="none" stroke="#000" stroke-width="0.5"/>
<circle cx="68.0" cy="284" r="1.2" fill="none" stroke="#000" stroke-width="0.5"/>
<circle cx="67.0" cy="290" r="1.2" fill="none" stroke="#000" stroke-width="0.5"/>
<circle cx="66.0" cy="296" r="1.2" fill="none" stroke="#000" stroke-width="0.5"/>
<circle cx="69.0" cy="302" r="1.2" fill="none" stroke="#000" stroke-width="0.5"/>
<circle cx="68.0" cy="308" r="1.2" fill="none" stroke="#000" stroke-width="0.5"/>
<circle cx="67.0" cy="314" r="1.2" fill="none" stroke="#000" stroke-width="0.5"/>
<circle cx="70.0" cy="272" r="1.2" fill="none" stroke="#000" stroke-width="0.5"/>
<circle cx="73.0" cy="278" r="1.2" fill="none" stroke="#000" stroke-width="0.5"/>
<circle cx="72.0" cy="284" r="1.2" fill="none" stroke="#000" stroke-width="0.5"/>
<circle cx="71.0" cy="290" r="1.2" fill="none" stroke="#000" stroke-width="0.5"/>
<circle cx="70.0" cy="296" r="1.2" fill="none" stroke="#000" stroke-width="0.5"/>
<circle cx="73.0" cy="302" r="1.2" fill="none" stroke="#000" stroke-width="0.5"/>
<circle cx="72.0" cy="308" r="1.2" fill="none" stroke="#000" stroke-width="0.5"/>
<circle cx="71.0" cy="314" r="1.2" fill="none" stroke="#000" stroke-width="0.5"/>
<circle cx="74.0" cy="272" r="1.2" fill="none" stroke="#000" stroke-width="0.5"/>
<circle cx="77.0" cy="278" r="1.2" fill="none" stroke="#000" stroke-width="0.5"/>
<circle cx="76.0" cy="284" r="1.2" fill="none" stroke="#000" stroke-width="0.5"/>
<circle cx="75.0" cy="290" r="1.2" fill="none" stroke="#000" stroke-width="0.5"/>
<circle cx="74.0" cy="296" r="1.2" fill="none" stroke="#000" stroke-width="0.5"/>
<circle cx="77.0" cy="302" r="1.2" fill="none" stroke="#000" stroke-width="0.5"/>
<circle cx="76.0" cy="308" r="1.2" fill="none" stroke="#000" stroke-width="0.5"/>
<circle cx="75.0" cy="314" r="1.2" fill="none" stroke="#000" stroke-width="0.5"/>
<circle cx="78.0" cy="272" r="1.2" fill="none" stroke="#000" stroke-width="0.5"/>
<circle cx="81.0" cy="278" r="1.2" fill="none" stroke="#000" stroke-width="0.5"/>
<circle cx="80.0" cy="284" r="1.2" fill="none" stroke="#000" stroke-width="0.5"/>
<circle cx="79.0" cy="290" r="1.2" fill="none" stroke="#000" stroke-width="0.5"/>
<circle cx="78.0" cy="296" r="1.2" fill="none" stroke="#000" stroke-width="0.5"/>
<circle cx="81.0" cy="302" r="1.2" fill="none" stroke="#000" stroke-width="0.5"/>
<circle cx="80.0" cy="308" r="1.2" fill="none" stroke="#000" stroke-width="0.5"/>
<circle cx="79.0" cy="314" r="1.2" fill="none" stroke="#000" stroke-width="0.5"/>
<circle cx="82.0" cy="272" r="1.2" fill="none" stroke="#000" stroke-width="0.5"/>
<circle cx="85.0" cy="278" r="1.2" fill="none" stroke="#000" stroke-width="0.5"/>
<circle cx="84.0" cy="284" r="1.2" fill="none" stroke="#000" stroke-width="0.5"/>
<circle cx="83.0" cy="290" r="1.2" fill="none" stroke="#000" stroke-width="0.5"/>
<circle cx="82.0" cy="296" r="1.2" fill="none" stroke="#000" stroke-width="0.5"/>
<circle cx="85.0" cy="302" r="1.2" fill="none" stroke="#000" stroke-width="0.5"/>
<circle cx="84.0" cy="308" r="1.2" fill="none" stroke="#000" stroke-width="0.5"/>
<circle cx="83.0" cy="314" r="1.2" fill="none" stroke="#000" stroke-width="0.5"/>
<circle cx="86.0" cy="272" r="1.2" fill="none" stroke="#000" stroke-width="0.5"/>
<circle cx="89.0" cy="278" r="1.2" fill="none" stroke="#000" stroke-width="0.5"/>
<circle cx="88.0" cy="284" r="1.2" fill="none" stroke="#000" stroke-width="0.5"/>
<circle cx="87.0" cy="290" r="1.2" fill="none" stroke="#000" stroke-width="0.5"/>
<circle cx="86.0" cy="296" r="1.2" fill="none" stroke="#000" stroke-width="0.5"/>
<circle cx="89.0" cy="302" r="1.2" fill="none" stroke="#000" stroke-width="0.5"/>
<circle cx="88.0" cy="308" r="1.2" fill="none" stroke="#000" stroke-width="0.5"/>
<circle cx="87.0" cy="314" r="1.2" fill="none" stroke="#000" stroke-width="0.5"/>
<rect x="38" y="270" width="52" height="52" fill="none" stroke="#000" stroke-width="0.5"/>
<text x="64" y="263" text-anchor="middle" class="Lx">CHARCOAL</text>
<rect x="92" y="270" width="16" height="52" fill="none" stroke="#000" stroke-width="1.2"/>
<text x="100" y="263" text-anchor="middle" class="Lx">METAL</text>
<text x="30" y="282" text-anchor="middle" class="Lx">+</text>
<text x="100" y="282" text-anchor="middle" class="Lx">−</text>
<text x="30" y="292" text-anchor="middle" class="Lx">+</text>
<text x="100" y="292" text-anchor="middle" class="Lx">−</text>
<text x="30" y="302" text-anchor="middle" class="Lx">+</text>
<text x="100" y="302" text-anchor="middle" class="Lx">−</text>
<text x="30" y="312" text-anchor="middle" class="Lx">+</text>
<text x="100" y="312" text-anchor="middle" class="Lx">−</text>
<path d="M112,290 L120,282 L130,298 L140,286 L150,292" fill="none" stroke="#000" stroke-width="1.5"/>
<text x="131" y="308" text-anchor="middle" class="Lx">DISCHARGE</text>
<text x="131" y="316" text-anchor="middle" class="Lx">ARC</text>
<text x="220" y="262" text-anchor="start" class="Lx">500–3,000 m² surface area per gram of charcoal</text>
<text x="220" y="272" text-anchor="start" class="Lx">enormous surface area = large charge storage</text>
<text x="220" y="282" text-anchor="start" class="Lx">no chemical reaction — charge/discharge unlimited</text>
<text x="220" y="292" text-anchor="start" class="Lx">electrolyte: saltwater, soil moisture, urine</text>
<text x="220" y="302" text-anchor="start" class="Lx">recharge by: triboelectric (motion), solar arc,</text>
<text x="220" y="312" text-anchor="start" class="Lx">          or generator (Plate 10)</text>
<rect x="215" y="317" width="235" height="18" fill="none" stroke="#000" stroke-width="0.6"/>
<text x="332" y="326" text-anchor="middle" class="Lx">ARK OF COVENANT: outer gold + acacia + inner gold + charcoal = supercapacitor</text>
<line x1="22" y1="338" x2="458" y2="338" stroke="#000" stroke-width="0.3"/>
<text x="240" y="349" text-anchor="middle" class="H">— · —  OSMOTIC POWER  —  ELECTRICITY FROM SALINITY GRADIENT  — · —</text>
<line x1="22" y1="353" x2="458" y2="353" stroke="#000" stroke-width="0.3"/>
<rect x="22" y="362" width="90" height="55" fill="none" stroke="#000" stroke-width="1.0"/>
<rect x="130" y="362" width="90" height="55" fill="none" stroke="#000" stroke-width="1.0"/>
<line x1="114" y1="362" x2="114" y2="417" stroke="#000" stroke-width="1.5"/>
<circle cx="114" cy="368" r="2.5" fill="#000"/>
<circle cx="114" cy="376" r="2.5" fill="#000"/>
<circle cx="114" cy="384" r="2.5" fill="#000"/>
<circle cx="114" cy="392" r="2.5" fill="#000"/>
<circle cx="114" cy="400" r="2.5" fill="#000"/>
<circle cx="114" cy="408" r="2.5" fill="#000"/>
<circle cx="35" cy="375" r="2.5" fill="none" stroke="#000" stroke-width="0.6"/>
<circle cx="47" cy="390" r="2.5" fill="none" stroke="#000" stroke-width="0.6"/>
<circle cx="59" cy="375" r="2.5" fill="none" stroke="#000" stroke-width="0.6"/>
<circle cx="71" cy="390" r="2.5" fill="none" stroke="#000" stroke-width="0.6"/>
<circle cx="83" cy="375" r="2.5" fill="none" stroke="#000" stroke-width="0.6"/>
<circle cx="95" cy="390" r="2.5" fill="none" stroke="#000" stroke-width="0.6"/>
<circle cx="140" cy="370" r="3" fill="none" stroke="#000" stroke-width="0.7"/>
<circle cx="155" cy="370" r="2" fill="none" stroke="#000" stroke-width="0.6"/>
<circle cx="170" cy="370" r="2" fill="none" stroke="#000" stroke-width="0.6"/>
<circle cx="185" cy="370" r="3" fill="none" stroke="#000" stroke-width="0.7"/>
<circle cx="140" cy="385" r="2" fill="none" stroke="#000" stroke-width="0.6"/>
<circle cx="155" cy="385" r="2" fill="none" stroke="#000" stroke-width="0.6"/>
<circle cx="170" cy="385" r="3" fill="none" stroke="#000" stroke-width="0.7"/>
<circle cx="185" cy="385" r="2" fill="none" stroke="#000" stroke-width="0.6"/>
<circle cx="140" cy="400" r="2" fill="none" stroke="#000" stroke-width="0.6"/>
<circle cx="155" cy="400" r="3" fill="none" stroke="#000" stroke-width="0.7"/>
<circle cx="170" cy="400" r="2" fill="none" stroke="#000" stroke-width="0.6"/>
<circle cx="185" cy="400" r="2" fill="none" stroke="#000" stroke-width="0.6"/>
<text x="67" y="358" text-anchor="middle" class="Lx">FRESHWATER</text>
<text x="175" y="358" text-anchor="middle" class="Lx">SALTWATER</text>
<text x="114" y="422" text-anchor="middle" class="Lx">MEMBRANE</text>
<line x1="116" y1="373" x2="125" y2="373" stroke="#000" stroke-width="0.7"/><polygon points="125,372 128,373 125,374" fill="#000"/>
<line x1="116" y1="385" x2="125" y2="385" stroke="#000" stroke-width="0.7"/><polygon points="125,384 128,385 125,386" fill="#000"/>
<line x1="116" y1="397" x2="125" y2="397" stroke="#000" stroke-width="0.7"/><polygon points="125,396 128,397 125,398" fill="#000"/>
<line x1="116" y1="409" x2="125" y2="409" stroke="#000" stroke-width="0.7"/><polygon points="125,408 128,409 125,410" fill="#000"/>
<text x="122" y="360" text-anchor="start" class="Lx">ions →</text>
<line x1="22" y1="389" x2="10" y2="389" stroke="#000" stroke-width="0.9"/>
<line x1="10" y1="389" x2="10" y2="440" stroke="#000" stroke-width="0.9"/>
<line x1="10" y1="440" x2="220" y2="440" stroke="#000" stroke-width="0.9"/>
<line x1="220" y1="440" x2="220" y2="389" stroke="#000" stroke-width="0.9"/>
<line x1="220" y1="389" x2="220" y2="389" stroke="#000" stroke-width="0.9"/>
<circle cx="115" cy="440" r="10" fill="none" stroke="#000" stroke-width="0.9"/>
<line x1="115" y1="440" x2="121" y2="433" stroke="#000" stroke-width="0.8"/>
<text x="115" y="458" text-anchor="middle" class="Lx">CURRENT</text>
<text x="260" y="362" text-anchor="start" class="Lx">ions move from high to low</text>
<text x="260" y="372" text-anchor="start" class="Lx">concentration through membrane</text>
<text x="260" y="382" text-anchor="start" class="Lx">→ charge separation → current</text>
<text x="260" y="395" text-anchor="start" class="Lx">membrane materials:</text>
<text x="260" y="405" text-anchor="start" class="Lx">animal gut, clay, plant cellulose</text>
<text x="260" y="415" text-anchor="start" class="Lx">best locations: river mouth,</text>
<text x="260" y="425" text-anchor="start" class="Lx">coastal estuary, salt lake shore</text>
<line x1="22" y1="448" x2="458" y2="448" stroke="#000" stroke-width="0.3"/>
<text x="240" y="459" text-anchor="middle" class="H">— · —  THE ENERGY SEQUENCE  —  GENERATE → STORE → USE  — · —</text>
<line x1="22" y1="463" x2="458" y2="463" stroke="#000" stroke-width="0.3"/>
<rect x="56" y="490" width="80" height="28" fill="none" stroke="#000" stroke-width="0.9"/>
<text x="96" y="500" text-anchor="middle" class="Lx">WATER</text>
<text x="96" y="510" text-anchor="middle" class="Lx">WHEEL</text>
<line x1="137" y1="504" x2="306" y2="504" stroke="#000" stroke-width="0.7"/><polygon points="306,502 310,504 306,506" fill="#000"/>
<rect x="156" y="490" width="80" height="28" fill="none" stroke="#000" stroke-width="0.9"/>
<text x="196" y="500" text-anchor="middle" class="Lx">WIND</text>
<text x="196" y="510" text-anchor="middle" class="Lx">TURBINE</text>
<line x1="237" y1="504" x2="306" y2="504" stroke="#000" stroke-width="0.7"/><polygon points="306,502 310,504 306,506" fill="#000"/>
<rect x="256" y="490" width="80" height="28" fill="none" stroke="#000" stroke-width="0.9"/>
<text x="296" y="500" text-anchor="middle" class="Lx">OSMOTIC</text>
<text x="296" y="510" text-anchor="middle" class="Lx">MEMBRANE</text>
<line x1="337" y1="504" x2="358" y2="504" stroke="#000" stroke-width="0.7"/><polygon points="358,502 362,504 358,506" fill="#000"/>
<rect x="310" y="483" width="80" height="28" fill="none" stroke="#000" stroke-width="0.9"/>
<text x="350" y="494" text-anchor="middle" class="Lx">GENERATOR</text>
<text x="350" y="504" text-anchor="middle" class="Lx">(Plate 10)</text>
<line x1="391" y1="497" x2="416" y2="497" stroke="#000" stroke-width="0.7"/><polygon points="416,495 420,497 416,499" fill="#000"/>
<rect x="420" y="483" width="40" height="28" fill="none" stroke="#000" stroke-width="0.9"/>
<text x="440" y="494" text-anchor="middle" class="Lx">CHARCOAL</text>
<text x="440" y="504" text-anchor="middle" class="Lx">CAP.</text>
<line x1="336" y1="518" x2="440" y2="518" stroke="#000" stroke-width="0.6" stroke-dasharray="2,2"/>
<line x1="438" y1="518" x2="456" y2="518" stroke="#000" stroke-width="0.7"/><polygon points="456,516 460,518 456,520" fill="#000"/>
<line x1="440" y1="511" x2="440" y2="531" stroke="#000" stroke-width="0.7"/><polygon points="438,531 440,535 442,531" fill="#000"/>
<rect x="400" y="535" width="80" height="28" fill="none" stroke="#000" stroke-width="0.9"/>
<text x="440" y="546" text-anchor="middle" class="Lx">TOOLS</text>
<text x="440" y="556" text-anchor="middle" class="Lx">LIGHT  ARC</text>
<text x="240" y="572" text-anchor="middle" class="Ls">PRIORITY SEQUENCE:</text>
<text x="240" y="581" text-anchor="middle" class="Lx">1. Build water wheel first — most reliable, continuous, highest power</text>
<text x="240" y="590" text-anchor="middle" class="Lx">2. Add wind turbine — operates when water is unavailable or insufficient</text>
<text x="240" y="599" text-anchor="middle" class="Lx">3. Add osmotic membrane at coastal/estuarine site — supplementary continuous source</text>
<text x="240" y="608" text-anchor="middle" class="Lx">see Plate 10 for generator construction · see Plate 9 for audio playback using stored energy</text>
<line x1="18" y1="615" x2="462" y2="615" stroke="#000" stroke-width="0.5"/>
<text x="240" y="624" text-anchor="middle" class="M">REMEMBER FORWARD · THE PATIENT MESSAGE · CC BY-SA 4.0 · rememberforward.org</text>
<line x1="18" y1="630" x2="462" y2="630" stroke="#000" stroke-width="1"/>
<text x="240" y="648" text-anchor="middle" class="Fb">THIS IS A PATIENT MESSAGE. IT WAS MADE FOR YOU, FREELY, BY PEOPLE WHO REMEMBERED FORWARD.</text>
<text x="240" y="663" text-anchor="middle" class="F">UNDERSTAND IT · BUILD WITH IT · LEAVE MORE CAPSULES FOR OTHERS</text>
</svg>