<?xml version="1.0" encoding="UTF-8"?>
<svg xmlns="http://www.w3.org/2000/svg" viewBox="0 0 480 680" width="480" height="680">
<rect width="480" height="680" fill="white"/>
<defs><marker id="arr" viewBox="0 0 10 10" refX="8" refY="5" markerWidth="5" markerHeight="5" orient="auto"><path d="M 1 2 L 8 5 L 1 8" fill="none" stroke="black" stroke-width="1.5"/></marker></defs>
<!-- OUTER BORDER -->
<rect x="6" y="6" width="468" height="668" rx="4" fill="none" stroke="black" stroke-width="3"/>
<!-- INNER BORDER -->
<rect x="12" y="12" width="456" height="656" rx="2" fill="none" stroke="black" stroke-width="0.75"/>
<!-- HEADER -->
<text x="240" y="34" font-family="Georgia,serif" font-size="12.5" font-weight="bold" text-anchor="middle" fill="black" letter-spacing="3">PLATE 3 OF [N] — AGRICULTURE &amp; SEEDS</text>
<line x1="18" y1="40" x2="462" y2="40" stroke="black" stroke-width="1"/>
<text x="240" y="52" font-family="Georgia,serif" font-size="7.5" text-anchor="middle" fill="black" letter-spacing="1.5">TIER 2 — GROWING FOOD · SEED SAVING · SOIL · START HERE ONCE STABLE</text>
<line x1="18" y1="57" x2="462" y2="57" stroke="black" stroke-width="0.5"/>
<!-- CONTENT -->
<text x="240" y="70" font-family="Georgia,serif" font-size="9.5" font-weight="bold" text-anchor="middle" fill="black" letter-spacing="3">SECTION 1 — SOIL &amp; PLANTING</text>
<line x1="18" y1="75" x2="462" y2="75" stroke="black" stroke-width="0.5"/>

<!-- THREE SISTERS mound -->
<ellipse cx="130" cy="150" rx="60" ry="22" fill="none" stroke="black" stroke-width="1.5"/>
<line x1="130" y1="128" x2="130" y2="70" stroke="black" stroke-width="2"/>
<path d="M 130 95 Q 148 88 152 97" fill="none" stroke="black" stroke-width="1.25"/>
<path d="M 130 95 Q 112 88 108 97" fill="none" stroke="black" stroke-width="1.25"/>
<path d="M 130 112 Q 146 106 149 115" fill="none" stroke="black" stroke-width="1.25"/>
<path d="M 130 112 Q 114 106 111 115" fill="none" stroke="black" stroke-width="1.25"/>
<line x1="130" y1="70" x2="126" y2="65" stroke="black" stroke-width="0.75"/>
<line x1="130" y1="70" x2="130" y2="65" stroke="black" stroke-width="0.75"/>
<line x1="130" y1="70" x2="134" y2="65" stroke="black" stroke-width="0.75"/>
<path d="M 130 130 Q 138 120 140 110 Q 142 100 138 93" fill="none" stroke="black" stroke-width="0.75" stroke-dasharray="2,2"/>
<ellipse cx="141" cy="107" rx="7" ry="4" fill="none" stroke="black" stroke-width="0.75" transform="rotate(-20,141,107)"/>
<path d="M 130 162 Q 88 164 70 174" fill="none" stroke="black" stroke-width="1.25"/>
<path d="M 130 162 Q 172 164 190 174" fill="none" stroke="black" stroke-width="1.25"/>
<ellipse cx="72" cy="177" rx="14" ry="9" fill="none" stroke="black" stroke-width="1.25"/>
<ellipse cx="90" cy="171" rx="12" ry="8" fill="none" stroke="black" stroke-width="1.25"/>
<ellipse cx="188" cy="177" rx="14" ry="9" fill="none" stroke="black" stroke-width="1.25"/>
<ellipse cx="170" cy="171" rx="12" ry="8" fill="none" stroke="black" stroke-width="1.25"/>
<text x="50" y="164" font-family="Georgia,serif" font-size="7" fill="black" font-style="italic">SQUASH</text>
<text x="145" y="83" font-family="Georgia,serif" font-size="7" fill="black" font-style="italic">CORN</text>
<text x="148" y="96" font-family="Georgia,serif" font-size="7" fill="black" font-style="italic">BEANS</text>
<text x="130" y="196" font-family="Georgia,serif" font-size="9.5" font-weight="bold" text-anchor="middle" fill="black">THREE SISTERS</text>
<text x="130" y="208" font-family="Georgia,serif" font-size="7.5" text-anchor="middle" fill="black" font-style="italic">corn=structure · beans=nitrogen · squash=mulch · mounds 90cm apart</text>
<!-- COMPOST HEAP -->
<path d="M 300 186 Q 370 152 440 186 L 440 192 Q 370 158 300 192 Z" fill="none" stroke="black" stroke-width="1.5"/>
<path d="M 312 183 Q 370 162 428 183" fill="none" stroke="black" stroke-width="0.75" stroke-dasharray="3,2"/>
<path d="M 305 187 Q 370 168 435 187" fill="none" stroke="black" stroke-width="0.75" stroke-dasharray="3,2"/>
<text x="280" y="174" font-family="Georgia,serif" font-size="7" fill="black" font-style="italic">greens</text>
<text x="280" y="184" font-family="Georgia,serif" font-size="7" fill="black" font-style="italic">(N)</text>
<text x="280" y="194" font-family="Georgia,serif" font-size="7" fill="black" font-style="italic">browns</text>
<text x="280" y="204" font-family="Georgia,serif" font-size="7" fill="black" font-style="italic">(C)</text>
<line x1="298" y1="178" x2="308" y2="173" stroke="black" stroke-width="0.5"/>
<line x1="298" y1="190" x2="305" y2="187" stroke="black" stroke-width="0.5"/>
<text x="370" y="210" font-family="Georgia,serif" font-size="9.5" font-weight="bold" text-anchor="middle" fill="black">COMPOST</text>
<text x="370" y="222" font-family="Georgia,serif" font-size="7.5" text-anchor="middle" fill="black" font-style="italic">3 parts brown : 1 green · turn weekly · ready 6–8 weeks</text>
<line x1="18" y1="222" x2="462" y2="222" stroke="black" stroke-width="0.5"/>
<text x="240" y="232" font-family="Georgia,serif" font-size="8" text-anchor="middle" fill="black" letter-spacing="0.5">⚠  NIXTAMALIZE CORN: 1 cup corn + 1 tbsp wood ash + water · boil 20 min · soak overnight · rinse</text>
<text x="240" y="243" font-family="Georgia,serif" font-size="8" text-anchor="middle" fill="black" letter-spacing="0.5">SKIP THIS → PELLAGRA (fatal niacin deficiency) in corn-dependent diets</text>
<line x1="18" y1="250" x2="462" y2="250" stroke="black" stroke-width="0.5"/>
<text x="240" y="262" font-family="Georgia,serif" font-size="9.5" font-weight="bold" text-anchor="middle" fill="black" letter-spacing="3">SECTION 2 — SEED SAVING</text>
<line x1="18" y1="267" x2="462" y2="267" stroke="black" stroke-width="0.5"/>
<!-- TOMATO ferment -->
<circle cx="76" cy="304" r="18" fill="none" stroke="black" stroke-width="1.5"/>
<path d="M 70 288 Q 76 282 82 288" fill="none" stroke="black" stroke-width="1"/>
<line x1="76" y1="285" x2="76" y2="280" stroke="black" stroke-width="1"/>
<line x1="98" y1="304" x2="116" y2="304" stroke="black" stroke-width="1" marker-end="url(#arr)"/>
<rect x="118" y="292" width="22" height="28" rx="2" fill="none" stroke="black" stroke-width="1.25"/>
<text x="129" y="311" font-family="Georgia,serif" font-size="7" text-anchor="middle" fill="black">3 days</text>
<line x1="142" y1="304" x2="158" y2="304" stroke="black" stroke-width="1" marker-end="url(#arr)"/>
<circle cx="165" cy="301" r="3" fill="none" stroke="black" stroke-width="1"/>
<circle cx="172" cy="307" r="3" fill="none" stroke="black" stroke-width="1"/>
<circle cx="160" cy="308" r="3" fill="none" stroke="black" stroke-width="1"/>
<text x="122" y="336" font-family="Georgia,serif" font-size="9.5" font-weight="bold" text-anchor="middle" fill="black">TOMATO</text>
<text x="122" y="348" font-family="Georgia,serif" font-size="7.5" text-anchor="middle" fill="black" font-style="italic">ferment pulp 3 days · rinse · dry · 5–10m isolation · 4–7 yr storage</text>
<!-- BEAN pods drying -->
<path d="M 258 290 Q 270 282 282 290 Q 294 298 306 290 Q 318 282 330 290 Q 342 298 354 290" fill="none" stroke="black" stroke-width="1.25"/>
<ellipse cx="270" cy="296" rx="10" ry="5" fill="none" stroke="black" stroke-width="1.25"/>
<ellipse cx="294" cy="293" rx="10" ry="5" fill="none" stroke="black" stroke-width="1.25"/>
<ellipse cx="318" cy="296" rx="10" ry="5" fill="none" stroke="black" stroke-width="1.25"/>
<ellipse cx="342" cy="293" rx="10" ry="5" fill="none" stroke="black" stroke-width="1.25"/>
<text x="306" y="316" font-family="Georgia,serif" font-size="9.5" font-weight="bold" text-anchor="middle" fill="black">BEANS / PEAS</text>
<text x="306" y="328" font-family="Georgia,serif" font-size="7.5" text-anchor="middle" fill="black" font-style="italic">let pods dry on plant · shell · dry 2 more weeks · 3–5 yr storage</text>
<!-- Seed storage jar -->
<rect x="188" y="354" width="36" height="52" rx="4" fill="none" stroke="black" stroke-width="1.5"/>
<rect x="194" y="350" width="24" height="7" rx="2" fill="none" stroke="black" stroke-width="1.25"/>
<rect x="192" y="360" width="12" height="16" rx="1" fill="none" stroke="black" stroke-width="0.75"/>
<line x1="192" y1="360" x2="198" y2="364" stroke="black" stroke-width="0.5"/>
<line x1="204" y1="360" x2="198" y2="364" stroke="black" stroke-width="0.5"/>
<rect x="208" y="360" width="12" height="16" rx="1" fill="none" stroke="black" stroke-width="0.75"/>
<rect x="192" y="380" width="12" height="16" rx="1" fill="none" stroke="black" stroke-width="0.75"/>
<rect x="208" y="380" width="12" height="16" rx="1" fill="none" stroke="black" stroke-width="0.75"/>
<rect x="193" y="397" width="27" height="6" rx="1" fill="none" stroke="black" stroke-width="0.75" stroke-dasharray="2,1"/>
<text x="206" y="402" font-family="Georgia,serif" font-size="5.5" text-anchor="middle" fill="black">silica gel</text>
<text x="206" y="420" font-family="Georgia,serif" font-size="9.5" font-weight="bold" text-anchor="middle" fill="black">SEED STORAGE</text>
<text x="206" y="432" font-family="Georgia,serif" font-size="7.5" text-anchor="middle" fill="black" font-style="italic">paper envelopes · sealed glass jar · silica gel · cool + dark + dry</text>
<text x="240" y="432" font-family="Georgia,serif" font-size="8" text-anchor="middle" fill="black" letter-spacing="0.5">every 10°C cooler ≈ doubles seed lifespan · underground cellar ideal</text>
<line x1="18" y1="440" x2="462" y2="440" stroke="black" stroke-width="0.5"/>
<text x="240" y="453" font-family="Georgia,serif" font-size="9.5" font-weight="bold" text-anchor="middle" fill="black" letter-spacing="3">SECTION 3 — ISOLATION DISTANCES</text>
<line x1="18" y1="458" x2="462" y2="458" stroke="black" stroke-width="0.5"/>
<!-- Isolation table -->
<rect x="60" y="458" width="360" height="130" fill="none" stroke="black" stroke-width="1"/>
<line x1="60" y1="472" x2="420" y2="472" stroke="black" stroke-width="0.75"/>
<line x1="240" y1="458" x2="240" y2="588" stroke="black" stroke-width="0.5"/>
<text x="150" y="469" font-family="Georgia,serif" font-size="8" font-weight="bold" text-anchor="middle" fill="black">CROP</text>
<text x="330" y="469" font-family="Georgia,serif" font-size="8" font-weight="bold" text-anchor="middle" fill="black">MIN. ISOLATION</text>
<text x="68" y="482" font-family="Georgia,serif" font-size="7.5" fill="black">Tomatoes</text>
<text x="330" y="482" font-family="Georgia,serif" font-size="7.5" text-anchor="middle" fill="black">5–10 m</text>
<line x1="60" y1="486" x2="420" y2="486" stroke="black" stroke-width="0.25"/>
<text x="68" y="495" font-family="Georgia,serif" font-size="7.5" fill="black">Beans / Peas</text>
<text x="330" y="495" font-family="Georgia,serif" font-size="7.5" text-anchor="middle" fill="black">1–3 m</text>
<line x1="60" y1="499" x2="420" y2="499" stroke="black" stroke-width="0.25"/>
<text x="68" y="508" font-family="Georgia,serif" font-size="7.5" fill="black">Squash / Pumpkin</text>
<text x="330" y="508" font-family="Georgia,serif" font-size="7.5" text-anchor="middle" fill="black">400 m+</text>
<line x1="60" y1="512" x2="420" y2="512" stroke="black" stroke-width="0.25"/>
<text x="68" y="521" font-family="Georgia,serif" font-size="7.5" fill="black">Corn (wind)</text>
<text x="330" y="521" font-family="Georgia,serif" font-size="7.5" text-anchor="middle" fill="black">400 m+</text>
<line x1="60" y1="525" x2="420" y2="525" stroke="black" stroke-width="0.25"/>
<text x="68" y="534" font-family="Georgia,serif" font-size="7.5" fill="black">Kale / Brassicas</text>
<text x="330" y="534" font-family="Georgia,serif" font-size="7.5" text-anchor="middle" fill="black">1,500 m+</text>
<line x1="60" y1="538" x2="420" y2="538" stroke="black" stroke-width="0.25"/>
<text x="68" y="547" font-family="Georgia,serif" font-size="7.5" fill="black">Lettuce</text>
<text x="330" y="547" font-family="Georgia,serif" font-size="7.5" text-anchor="middle" fill="black">1–2 m</text>
<line x1="60" y1="551" x2="420" y2="551" stroke="black" stroke-width="0.25"/>
<text x="68" y="560" font-family="Georgia,serif" font-size="7.5" fill="black">Peppers</text>
<text x="330" y="560" font-family="Georgia,serif" font-size="7.5" text-anchor="middle" fill="black">100–500 m</text>
<line x1="60" y1="564" x2="420" y2="564" stroke="black" stroke-width="0.25"/>
<text x="68" y="573" font-family="Georgia,serif" font-size="7.5" fill="black">Garlic (cloves)</text>
<text x="330" y="573" font-family="Georgia,serif" font-size="7.5" text-anchor="middle" fill="black">self · no cross</text>
<line x1="18" y1="594" x2="462" y2="594" stroke="black" stroke-width="0.5"/>
<text x="240" y="604" font-family="Georgia,serif" font-size="8" text-anchor="middle" fill="black" letter-spacing="0.5">ALSO GROW: garlic · amaranth · sweet potato · sunflower · kale · medicinal herbs</text>
<line x1="18" y1="612" x2="462" y2="612" stroke="black" stroke-width="0.5"/>
<!-- METADATA STRIP -->
<line x1="6" y1="616" x2="474" y2="616" stroke="black" stroke-width="0.75"/>
<text x="240" y="626" font-family="Georgia,serif" font-size="6.5" text-anchor="middle" fill="black" letter-spacing="0.8">CC BY-SA 4.0 · PLATE g OF [N] · BURIED: [YEAR] · GPS: [LATITUDE, LONGITUDE] · LANDMARK: [DESCRIPTION]</text>
<line x1="6" y1="630" x2="474" y2="630" stroke="black" stroke-width="0.75"/>
<!-- FOOTER BANNER -->
<text x="240" y="649" font-family="Georgia,serif" font-size="11" font-weight="bold" text-anchor="middle" fill="black" font-style="italic">THIS IS A PATIENT MESSAGE. IT WAS MADE FOR YOU, FREELY, BY PEOPLE WHO REMEMBERED FORWARD.</text>
<text x="240" y="664" font-family="Georgia,serif" font-size="8.5" text-anchor="middle" fill="black">BUY IT · BUILD IT · BURY IT · FOR SOMEONE YOU WILL NEVER MEET</text>
</svg>