<svg viewBox="0 0 480 680" xmlns="http://www.w3.org/2000/svg">
<defs><style>
  text{font-family:Georgia,serif;fill:#000;}
  .T{font-size:12px;font-weight:bold;letter-spacing:2px;}
  .S{font-size:7px;letter-spacing:1.5px;}
  .H{font-size:6.5px;font-weight:bold;letter-spacing:2.5px;}
  .L{font-size:7px;}
  .Ls{font-size:6px;}
  .Lx{font-size:5.5px;}
  .Lp{font-size:11px;}
  .Lmod{font-size:9px;}
  .M{font-size:6px;letter-spacing:1px;}
  .F{font-size:7px;font-style:italic;}
  .Fb{font-size:7.5px;font-weight:bold;}
</style></defs>
<!-- Borders -->
<rect x="6" y="6" width="468" height="668" rx="4" fill="none" stroke="#000" stroke-width="3"/>
<rect x="12" y="12" width="456" height="656" rx="2" fill="none" stroke="#000" stroke-width="0.75"/>
<!-- Header -->
<text x="240" y="32" text-anchor="middle" class="T">PLATE 09A  ·  BIBLICAL HEBREW</text>
<line x1="18" y1="39" x2="462" y2="39" stroke="#000" stroke-width="0.75"/>
<text x="240" y="50" text-anchor="middle" class="S">K'TAV IVRI  ·  PALEO-HEBREW  ·  PRE-EXILE SCRIPT  ·  c.1000–500 BCE</text>
<line x1="18" y1="56" x2="462" y2="56" stroke="#000" stroke-width="0.5"/>
<text x="240" y="66" text-anchor="middle" class="H">— · —  THE 22 LETTERS OF THE ALEPH-BET  — · —</text>
<line x1="22" y1="70" x2="458" y2="70" stroke="#000" stroke-width="0.3"/>
<text x="43.81818181818181" y="92" text-anchor="middle" class="Lp">𐤀</text>
<text x="43.81818181818181" y="102" text-anchor="middle" class="Lmod">א</text>
<text x="43.81818181818181" y="111" text-anchor="middle" class="Lx">Aleph</text>
<text x="43.81818181818181" y="120" text-anchor="middle" class="Lx">1</text>
<text x="83.45454545454545" y="92" text-anchor="middle" class="Lp">𐤁</text>
<text x="83.45454545454545" y="102" text-anchor="middle" class="Lmod">ב</text>
<text x="83.45454545454545" y="111" text-anchor="middle" class="Lx">Beth</text>
<text x="83.45454545454545" y="120" text-anchor="middle" class="Lx">2</text>
<text x="123.09090909090908" y="92" text-anchor="middle" class="Lp">𐤂</text>
<text x="123.09090909090908" y="102" text-anchor="middle" class="Lmod">ג</text>
<text x="123.09090909090908" y="111" text-anchor="middle" class="Lx">Gimel</text>
<text x="123.09090909090908" y="120" text-anchor="middle" class="Lx">3</text>
<text x="162.72727272727272" y="92" text-anchor="middle" class="Lp">𐤃</text>
<text x="162.72727272727272" y="102" text-anchor="middle" class="Lmod">ד</text>
<text x="162.72727272727272" y="111" text-anchor="middle" class="Lx">Daleth</text>
<text x="162.72727272727272" y="120" text-anchor="middle" class="Lx">4</text>
<text x="202.36363636363635" y="92" text-anchor="middle" class="Lp">𐤄</text>
<text x="202.36363636363635" y="102" text-anchor="middle" class="Lmod">ה</text>
<text x="202.36363636363635" y="111" text-anchor="middle" class="Lx">He</text>
<text x="202.36363636363635" y="120" text-anchor="middle" class="Lx">5</text>
<text x="241.99999999999997" y="92" text-anchor="middle" class="Lp">𐤅</text>
<text x="241.99999999999997" y="102" text-anchor="middle" class="Lmod">ו</text>
<text x="241.99999999999997" y="111" text-anchor="middle" class="Lx">Vav</text>
<text x="241.99999999999997" y="120" text-anchor="middle" class="Lx">6</text>
<text x="281.6363636363636" y="92" text-anchor="middle" class="Lp">𐤆</text>
<text x="281.6363636363636" y="102" text-anchor="middle" class="Lmod">ז</text>
<text x="281.6363636363636" y="111" text-anchor="middle" class="Lx">Zayin</text>
<text x="281.6363636363636" y="120" text-anchor="middle" class="Lx">7</text>
<text x="321.27272727272725" y="92" text-anchor="middle" class="Lp">𐤇</text>
<text x="321.27272727272725" y="102" text-anchor="middle" class="Lmod">ח</text>
<text x="321.27272727272725" y="111" text-anchor="middle" class="Lx">Chet</text>
<text x="321.27272727272725" y="120" text-anchor="middle" class="Lx">8</text>
<text x="360.9090909090909" y="92" text-anchor="middle" class="Lp">𐤈</text>
<text x="360.9090909090909" y="102" text-anchor="middle" class="Lmod">ט</text>
<text x="360.9090909090909" y="111" text-anchor="middle" class="Lx">Tet</text>
<text x="360.9090909090909" y="120" text-anchor="middle" class="Lx">9</text>
<text x="400.5454545454545" y="92" text-anchor="middle" class="Lp">𐤉</text>
<text x="400.5454545454545" y="102" text-anchor="middle" class="Lmod">י</text>
<text x="400.5454545454545" y="111" text-anchor="middle" class="Lx">Yod</text>
<text x="400.5454545454545" y="120" text-anchor="middle" class="Lx">10</text>
<text x="440.18181818181813" y="92" text-anchor="middle" class="Lp">𐤊</text>
<text x="440.18181818181813" y="102" text-anchor="middle" class="Lmod">כ</text>
<text x="440.18181818181813" y="111" text-anchor="middle" class="Lx">Kaph</text>
<text x="440.18181818181813" y="120" text-anchor="middle" class="Lx">20</text>
<text x="43.81818181818181" y="144" text-anchor="middle" class="Lp">𐤋</text>
<text x="43.81818181818181" y="154" text-anchor="middle" class="Lmod">ל</text>
<text x="43.81818181818181" y="163" text-anchor="middle" class="Lx">Lamed</text>
<text x="43.81818181818181" y="172" text-anchor="middle" class="Lx">30</text>
<text x="83.45454545454545" y="144" text-anchor="middle" class="Lp">𐤌</text>
<text x="83.45454545454545" y="154" text-anchor="middle" class="Lmod">מ</text>
<text x="83.45454545454545" y="163" text-anchor="middle" class="Lx">Mem</text>
<text x="83.45454545454545" y="172" text-anchor="middle" class="Lx">40</text>
<text x="123.09090909090908" y="144" text-anchor="middle" class="Lp">𐤍</text>
<text x="123.09090909090908" y="154" text-anchor="middle" class="Lmod">נ</text>
<text x="123.09090909090908" y="163" text-anchor="middle" class="Lx">Nun</text>
<text x="123.09090909090908" y="172" text-anchor="middle" class="Lx">50</text>
<text x="162.72727272727272" y="144" text-anchor="middle" class="Lp">𐤎</text>
<text x="162.72727272727272" y="154" text-anchor="middle" class="Lmod">ס</text>
<text x="162.72727272727272" y="163" text-anchor="middle" class="Lx">Samekh</text>
<text x="162.72727272727272" y="172" text-anchor="middle" class="Lx">60</text>
<text x="202.36363636363635" y="144" text-anchor="middle" class="Lp">𐤏</text>
<text x="202.36363636363635" y="154" text-anchor="middle" class="Lmod">ע</text>
<text x="202.36363636363635" y="163" text-anchor="middle" class="Lx">Ayin</text>
<text x="202.36363636363635" y="172" text-anchor="middle" class="Lx">70</text>
<text x="241.99999999999997" y="144" text-anchor="middle" class="Lp">𐤐</text>
<text x="241.99999999999997" y="154" text-anchor="middle" class="Lmod">פ</text>
<text x="241.99999999999997" y="163" text-anchor="middle" class="Lx">Pe</text>
<text x="241.99999999999997" y="172" text-anchor="middle" class="Lx">80</text>
<text x="281.6363636363636" y="144" text-anchor="middle" class="Lp">𐤑</text>
<text x="281.6363636363636" y="154" text-anchor="middle" class="Lmod">צ</text>
<text x="281.6363636363636" y="163" text-anchor="middle" class="Lx">Tsade</text>
<text x="281.6363636363636" y="172" text-anchor="middle" class="Lx">90</text>
<text x="321.27272727272725" y="144" text-anchor="middle" class="Lp">𐤒</text>
<text x="321.27272727272725" y="154" text-anchor="middle" class="Lmod">ק</text>
<text x="321.27272727272725" y="163" text-anchor="middle" class="Lx">Qoph</text>
<text x="321.27272727272725" y="172" text-anchor="middle" class="Lx">100</text>
<text x="360.9090909090909" y="144" text-anchor="middle" class="Lp">𐤓</text>
<text x="360.9090909090909" y="154" text-anchor="middle" class="Lmod">ר</text>
<text x="360.9090909090909" y="163" text-anchor="middle" class="Lx">Resh</text>
<text x="360.9090909090909" y="172" text-anchor="middle" class="Lx">200</text>
<text x="400.5454545454545" y="144" text-anchor="middle" class="Lp">𐤔</text>
<text x="400.5454545454545" y="154" text-anchor="middle" class="Lmod">ש</text>
<text x="400.5454545454545" y="163" text-anchor="middle" class="Lx">Shin</text>
<text x="400.5454545454545" y="172" text-anchor="middle" class="Lx">300</text>
<text x="440.18181818181813" y="144" text-anchor="middle" class="Lp">𐤕</text>
<text x="440.18181818181813" y="154" text-anchor="middle" class="Lmod">ת</text>
<text x="440.18181818181813" y="163" text-anchor="middle" class="Lx">Tav</text>
<text x="440.18181818181813" y="172" text-anchor="middle" class="Lx">400</text>
<line x1="22" y1="180" x2="458" y2="180" stroke="#000" stroke-width="0.5"/>
<text x="240" y="73" text-anchor="middle" class="Lx" fill="#000">&#x2190; read right to left  ·  Paleo glyph (top)  ·  Modern equiv  ·  Name  ·  Gematria value &#x2192;</text>
<text x="240" y="190" text-anchor="middle" class="H">— · —  PICTOGRAPHIC ORIGINS  — · —</text>
<line x1="22" y1="194" x2="458" y2="194" stroke="#000" stroke-width="0.3"/>
<text x="51.25" y="210" text-anchor="middle" style="font-size:13px;">𐤀</text>
<text x="51.25" y="220" text-anchor="middle" class="Lx">Aleph</text>
<text x="51.25" y="229" text-anchor="middle" class="Lx" fill="#333">Ox head</text>
<text x="105.75" y="210" text-anchor="middle" style="font-size:13px;">𐤁</text>
<text x="105.75" y="220" text-anchor="middle" class="Lx">Beth</text>
<text x="105.75" y="229" text-anchor="middle" class="Lx" fill="#333">House</text>
<text x="160.25" y="210" text-anchor="middle" style="font-size:13px;">𐤃</text>
<text x="160.25" y="220" text-anchor="middle" class="Lx">Daleth</text>
<text x="160.25" y="229" text-anchor="middle" class="Lx" fill="#333">Door</text>
<text x="214.75" y="210" text-anchor="middle" style="font-size:13px;">𐤉</text>
<text x="214.75" y="220" text-anchor="middle" class="Lx">Yod</text>
<text x="214.75" y="229" text-anchor="middle" class="Lx" fill="#333">Hand</text>
<text x="269.25" y="210" text-anchor="middle" style="font-size:13px;">𐤌</text>
<text x="269.25" y="220" text-anchor="middle" class="Lx">Mem</text>
<text x="269.25" y="229" text-anchor="middle" class="Lx" fill="#333">Water</text>
<text x="323.75" y="210" text-anchor="middle" style="font-size:13px;">𐤏</text>
<text x="323.75" y="220" text-anchor="middle" class="Lx">Ayin</text>
<text x="323.75" y="229" text-anchor="middle" class="Lx" fill="#333">Eye</text>
<text x="378.25" y="210" text-anchor="middle" style="font-size:13px;">𐤓</text>
<text x="378.25" y="220" text-anchor="middle" class="Lx">Resh</text>
<text x="378.25" y="229" text-anchor="middle" class="Lx" fill="#333">Head</text>
<text x="432.75" y="210" text-anchor="middle" style="font-size:13px;">𐤔</text>
<text x="432.75" y="220" text-anchor="middle" class="Lx">Shin</text>
<text x="432.75" y="229" text-anchor="middle" class="Lx" fill="#333">Teeth</text>
<line x1="22" y1="233" x2="458" y2="233" stroke="#000" stroke-width="0.3"/>
<text x="240" y="241" text-anchor="middle" class="Lx">every letter was originally a picture  ·  the alphabet evolved from these pictographs  ·  later became abstract letter forms</text>
<line x1="22" y1="246" x2="458" y2="246" stroke="#000" stroke-width="0.5"/>
<text x="240" y="255" text-anchor="middle" class="H">— · —  GEMATRIA  ·  MAYAN DOT-BAR BRIDGE  — · —</text>
<line x1="22" y1="259" x2="458" y2="259" stroke="#000" stroke-width="0.3"/>
<text x="45.8" y="273" text-anchor="middle" style="font-size:11px;">𐤀</text>
<text x="45.8" y="282" text-anchor="middle" class="Lx">=</text>
<circle cx="45.8" cy="295.0" r="2.0" fill="#000"/>
<circle cx="45.8" cy="295.0" r="2.0" fill="#000"/>
<text x="45.8" y="309" text-anchor="middle" class="Lx">1</text>
<text x="89.39999999999999" y="273" text-anchor="middle" style="font-size:11px;">𐤁</text>
<text x="89.39999999999999" y="282" text-anchor="middle" class="Lx">=</text>
<circle cx="85.8" cy="295.0" r="2.0" fill="#000"/>
<circle cx="93.0" cy="295.0" r="2.0" fill="#000"/>
<circle cx="85.8" cy="295.0" r="2.0" fill="#000"/>
<circle cx="93.0" cy="295.0" r="2.0" fill="#000"/>
<text x="89.39999999999999" y="309" text-anchor="middle" class="Lx">2</text>
<text x="133.0" y="273" text-anchor="middle" style="font-size:11px;">𐤂</text>
<text x="133.0" y="282" text-anchor="middle" class="Lx">=</text>
<circle cx="128.2" cy="295.0" r="2.0" fill="#000"/>
<circle cx="133.0" cy="295.0" r="2.0" fill="#000"/>
<circle cx="137.8" cy="295.0" r="2.0" fill="#000"/>
<circle cx="128.2" cy="295.0" r="2.0" fill="#000"/>
<circle cx="133.0" cy="295.0" r="2.0" fill="#000"/>
<circle cx="137.8" cy="295.0" r="2.0" fill="#000"/>
<text x="133.0" y="309" text-anchor="middle" class="Lx">3</text>
<text x="176.60000000000002" y="273" text-anchor="middle" style="font-size:11px;">𐤃</text>
<text x="176.60000000000002" y="282" text-anchor="middle" class="Lx">=</text>
<circle cx="171.2" cy="295.0" r="2.0" fill="#000"/>
<circle cx="174.8" cy="295.0" r="2.0" fill="#000"/>
<circle cx="178.4" cy="295.0" r="2.0" fill="#000"/>
<circle cx="182.0" cy="295.0" r="2.0" fill="#000"/>
<circle cx="171.2" cy="295.0" r="2.0" fill="#000"/>
<circle cx="174.8" cy="295.0" r="2.0" fill="#000"/>
<circle cx="178.4" cy="295.0" r="2.0" fill="#000"/>
<circle cx="182.0" cy="295.0" r="2.0" fill="#000"/>
<text x="176.60000000000002" y="309" text-anchor="middle" class="Lx">4</text>
<text x="220.20000000000002" y="273" text-anchor="middle" style="font-size:11px;">𐤄</text>
<text x="220.20000000000002" y="282" text-anchor="middle" class="Lx">=</text>
<rect x="213.0" y="293.6" width="14.4" height="2.8" fill="#000"/>
<rect x="213.0" y="293.6" width="14.4" height="2.8" fill="#000"/>
<text x="220.20000000000002" y="309" text-anchor="middle" class="Lx">5</text>
<text x="263.8" y="273" text-anchor="middle" style="font-size:11px;">𐤅</text>
<text x="263.8" y="282" text-anchor="middle" class="Lx">=</text>
<rect x="256.6" y="290.8" width="14.4" height="2.8" fill="#000"/>
<circle cx="263.8" cy="297.8" r="2.0" fill="#000"/>
<rect x="256.6" y="290.8" width="14.4" height="2.8" fill="#000"/>
<circle cx="263.8" cy="297.8" r="2.0" fill="#000"/>
<text x="263.8" y="309" text-anchor="middle" class="Lx">6</text>
<text x="307.40000000000003" y="273" text-anchor="middle" style="font-size:11px;">𐤆</text>
<text x="307.40000000000003" y="282" text-anchor="middle" class="Lx">=</text>
<rect x="300.2" y="290.8" width="14.4" height="2.8" fill="#000"/>
<circle cx="303.8" cy="297.8" r="2.0" fill="#000"/>
<circle cx="311.0" cy="297.8" r="2.0" fill="#000"/>
<rect x="300.2" y="290.8" width="14.4" height="2.8" fill="#000"/>
<circle cx="303.8" cy="297.8" r="2.0" fill="#000"/>
<circle cx="311.0" cy="297.8" r="2.0" fill="#000"/>
<text x="307.40000000000003" y="309" text-anchor="middle" class="Lx">7</text>
<text x="351.0" y="273" text-anchor="middle" style="font-size:11px;">𐤇</text>
<text x="351.0" y="282" text-anchor="middle" class="Lx">=</text>
<rect x="343.8" y="290.8" width="14.4" height="2.8" fill="#000"/>
<circle cx="346.2" cy="297.8" r="2.0" fill="#000"/>
<circle cx="351.0" cy="297.8" r="2.0" fill="#000"/>
<circle cx="355.8" cy="297.8" r="2.0" fill="#000"/>
<rect x="343.8" y="290.8" width="14.4" height="2.8" fill="#000"/>
<circle cx="346.2" cy="297.8" r="2.0" fill="#000"/>
<circle cx="351.0" cy="297.8" r="2.0" fill="#000"/>
<circle cx="355.8" cy="297.8" r="2.0" fill="#000"/>
<text x="351.0" y="309" text-anchor="middle" class="Lx">8</text>
<text x="394.6" y="273" text-anchor="middle" style="font-size:11px;">𐤈</text>
<text x="394.6" y="282" text-anchor="middle" class="Lx">=</text>
<rect x="387.4" y="290.8" width="14.4" height="2.8" fill="#000"/>
<circle cx="389.2" cy="297.8" r="2.0" fill="#000"/>
<circle cx="392.8" cy="297.8" r="2.0" fill="#000"/>
<circle cx="396.4" cy="297.8" r="2.0" fill="#000"/>
<circle cx="400.0" cy="297.8" r="2.0" fill="#000"/>
<rect x="387.4" y="290.8" width="14.4" height="2.8" fill="#000"/>
<circle cx="389.2" cy="297.8" r="2.0" fill="#000"/>
<circle cx="392.8" cy="297.8" r="2.0" fill="#000"/>
<circle cx="396.4" cy="297.8" r="2.0" fill="#000"/>
<circle cx="400.0" cy="297.8" r="2.0" fill="#000"/>
<text x="394.6" y="309" text-anchor="middle" class="Lx">9</text>
<text x="438.20000000000005" y="273" text-anchor="middle" style="font-size:11px;">𐤉</text>
<text x="438.20000000000005" y="282" text-anchor="middle" class="Lx">=</text>
<rect x="431.0" y="290.8" width="14.4" height="2.8" fill="#000"/>
<rect x="431.0" y="296.4" width="14.4" height="2.8" fill="#000"/>
<rect x="431.0" y="290.8" width="14.4" height="2.8" fill="#000"/>
<rect x="431.0" y="296.4" width="14.4" height="2.8" fill="#000"/>
<text x="438.20000000000005" y="309" text-anchor="middle" class="Lx">10</text>
<line x1="22" y1="315" x2="458" y2="315" stroke="#000" stroke-width="0.3"/>
<text x="240" y="322" text-anchor="middle" class="Lx">Aleph=1, Beth=2 ... Yod=10, Kaph=20, Lamed=30 ... Qoph=100, Resh=200, Shin=300, Tav=400</text>
<line x1="22" y1="327" x2="458" y2="327" stroke="#000" stroke-width="0.5"/>
<text x="240" y="336" text-anchor="middle" class="H">— · —  CORE VOCABULARY  — · —</text>
<line x1="22" y1="340" x2="458" y2="340" stroke="#000" stroke-width="0.3"/>
<text x="96.66666666666667" y="354" text-anchor="middle" class="Lx">Water</text>
<text x="96.66666666666667" y="365" text-anchor="middle" style="font-size:10px;">𐤌𐤉𐤌</text>
<text x="96.66666666666667" y="374" text-anchor="middle" class="Lx">ma-yim</text>
<text x="242.0" y="354" text-anchor="middle" class="Lx">Fire</text>
<text x="242.0" y="365" text-anchor="middle" style="font-size:10px;">𐤀𐤔</text>
<text x="242.0" y="374" text-anchor="middle" class="Lx">esh</text>
<text x="387.33333333333337" y="354" text-anchor="middle" class="Lx">Earth</text>
<text x="387.33333333333337" y="365" text-anchor="middle" style="font-size:10px;">𐤀𐤓𐤑</text>
<text x="387.33333333333337" y="374" text-anchor="middle" class="Lx">e-rets</text>
<text x="96.66666666666667" y="390" text-anchor="middle" class="Lx">Sky</text>
<text x="96.66666666666667" y="401" text-anchor="middle" style="font-size:10px;">𐤔𐤌𐤉𐤌</text>
<text x="96.66666666666667" y="410" text-anchor="middle" class="Lx">sha-ma-yim</text>
<text x="242.0" y="390" text-anchor="middle" class="Lx">Sun</text>
<text x="242.0" y="401" text-anchor="middle" style="font-size:10px;">𐤔𐤌𐤔</text>
<text x="242.0" y="410" text-anchor="middle" class="Lx">she-mesh</text>
<text x="387.33333333333337" y="390" text-anchor="middle" class="Lx">Man</text>
<text x="387.33333333333337" y="401" text-anchor="middle" style="font-size:10px;">𐤀𐤉𐤔</text>
<text x="387.33333333333337" y="410" text-anchor="middle" class="Lx">ish</text>
<text x="96.66666666666667" y="426" text-anchor="middle" class="Lx">Woman</text>
<text x="96.66666666666667" y="437" text-anchor="middle" style="font-size:10px;">𐤀𐤔𐤄</text>
<text x="96.66666666666667" y="446" text-anchor="middle" class="Lx">i-sha</text>
<text x="242.0" y="426" text-anchor="middle" class="Lx">God/El</text>
<text x="242.0" y="437" text-anchor="middle" style="font-size:10px;">𐤀𐤋</text>
<text x="242.0" y="446" text-anchor="middle" class="Lx">el</text>
<text x="387.33333333333337" y="426" text-anchor="middle" class="Lx">King</text>
<text x="387.33333333333337" y="437" text-anchor="middle" style="font-size:10px;">𐤌𐤋𐤊</text>
<text x="387.33333333333337" y="446" text-anchor="middle" class="Lx">me-lekh</text>
<text x="96.66666666666667" y="462" text-anchor="middle" class="Lx">House</text>
<text x="96.66666666666667" y="473" text-anchor="middle" style="font-size:10px;">𐤁𐤉𐤕</text>
<text x="96.66666666666667" y="482" text-anchor="middle" class="Lx">ba-yit</text>
<text x="242.0" y="462" text-anchor="middle" class="Lx">Life</text>
<text x="242.0" y="473" text-anchor="middle" style="font-size:10px;">𐤇𐤉𐤉𐤌</text>
<text x="242.0" y="482" text-anchor="middle" class="Lx">chai-yim</text>
<text x="387.33333333333337" y="462" text-anchor="middle" class="Lx">Peace</text>
<text x="387.33333333333337" y="473" text-anchor="middle" style="font-size:10px;">𐤔𐤋𐤅𐤌</text>
<text x="387.33333333333337" y="482" text-anchor="middle" class="Lx">sha-lom</text>
<line x1="22" y1="490" x2="458" y2="490" stroke="#000" stroke-width="0.5"/>
<text x="240" y="499" text-anchor="middle" class="H">— · —  THE BRIDGE PHRASE  — · —</text>
<line x1="22" y1="503" x2="458" y2="503" stroke="#000" stroke-width="0.3"/>
<text x="240" y="525" text-anchor="middle" style="font-size:14px;">𐤆𐤄 𐤍𐤏𐤔𐤄 𐤁𐤔𐤁𐤉𐤋𐤊  ·  𐤁𐤇𐤅𐤐𐤔𐤉  ·  𐤌𐤀𐤕 𐤀𐤍𐤔𐤉𐤌 𐤔𐤀𐤇𐤁𐤅 𐤀𐤕 𐤄𐤎𐤉𐤃</text>
<text x="240" y="539" text-anchor="middle" class="Lx">ze na'aseh bishvilkha  ·  b'chofshi  ·  me'et anashim she'ahavu et ha-atid</text>
<line x1="40" y1="544" x2="440" y2="544" stroke="#000" stroke-width="0.3"/>
<text x="240" y="552" text-anchor="middle" class="Lx">THIS WAS MADE FOR YOU, FREELY, BY PEOPLE WHO CARED ABOUT THE FUTURE</text>
<rect x="22" y="557" width="436" height="50" fill="none" stroke="#000" stroke-width="0.6"/>
<text x="240" y="568" text-anchor="middle" class="H">SCRIPT NOTES</text>
<text x="240" y="578" text-anchor="middle" class="Lx">Read right to left  ·  22 consonants, no written vowels (consonantal abjad)  ·  No final letter forms</text>
<text x="240" y="588" text-anchor="middle" class="Lx">Used: c.1000–500 BCE  ·  Siloam inscription, Bar Kochba coins  ·  Ancestor of Greek and Latin alphabets</text>
<text x="240" y="598" text-anchor="middle" class="Lx">Same letter names and gematria values as Modern Hebrew (Plate 12A)  ·  Only the letter forms differ</text>
<line x1="18" y1="615" x2="462" y2="615" stroke="#000" stroke-width="0.5"/>
<text x="240" y="624" text-anchor="middle" class="M">REMEMBER FORWARD · THE PATIENT MESSAGE · CC BY-SA 4.0 · rememberforward.org</text>
<line x1="18" y1="630" x2="462" y2="630" stroke="#000" stroke-width="1"/>
<text x="240" y="648" text-anchor="middle" class="Fb">THIS IS A PATIENT MESSAGE. IT WAS MADE FOR YOU, FREELY, BY PEOPLE WHO REMEMBERED FORWARD.</text>
<text x="240" y="663" text-anchor="middle" class="F">BUY IT · BUILD IT · BURY IT · FOR SOMEONE YOU WILL NEVER MEET</text>
</svg>
