<svg viewBox="0 0 480 680" xmlns="http://www.w3.org/2000/svg">
<defs>
  <style>
    text { font-family: Georgia,serif; fill: #000; }
    .title { font-size:13px; font-weight:bold; letter-spacing:2px; }
    .sub   { font-size:7.5px; letter-spacing:1.5px; }
    .sh    { font-size:7px; font-weight:bold; letter-spacing:2.5px; }
    .lab   { font-size:7px; }
    .labsm { font-size:6px; }
    .labxs { font-size:5.5px; }
    .meta  { font-size:6px; letter-spacing:1px; }
    .foot  { font-size:7px; font-style:italic; }
    .footb { font-size:7px; font-weight:bold; }
  </style>
</defs>
<!-- outer / inner borders -->
<rect x="6" y="6" width="468" height="668" rx="4" fill="none" stroke="#000" stroke-width="3"/>
<rect x="12" y="12" width="456" height="656" rx="2" fill="none" stroke="#000" stroke-width="0.75"/>
<!-- header -->
<text x="240" y="34" text-anchor="middle" class="title">PLATE 8  ·  PHYSICS OF SOUND</text>
<line x1="18" y1="40" x2="462" y2="40" stroke="#000" stroke-width="0.75"/>
<text x="240" y="51" text-anchor="middle" class="sub">sound is a wave  ·  the wave has shape  ·  the shape can be stored</text>
<line x1="18" y1="57" x2="462" y2="57" stroke="#000" stroke-width="0.5"/>
<text x="240" y="70" text-anchor="middle" class="sh">— · —  THE WAVE  — · —</text>
<line x1="22" y1="75" x2="458" y2="75" stroke="#000" stroke-width="0.3"/>
<ellipse cx="105" cy="122" rx="14" ry="8" fill="none" stroke="#000" stroke-width="0.7"/>
<ellipse cx="105" cy="122" rx="32" ry="19" fill="none" stroke="#000" stroke-width="0.7"/>
<ellipse cx="105" cy="122" rx="52" ry="31" fill="none" stroke="#000" stroke-width="0.7"/>
<ellipse cx="105" cy="122" rx="74" ry="44" fill="none" stroke="#000" stroke-width="0.7"/>
<circle cx="105" cy="122" r="2.5" fill="#000"/>
<text x="105" y="80" text-anchor="middle" class="labsm">IN WATER</text>
<text x="105" y="156" text-anchor="middle" class="labxs">disturbance spreads as rings</text>
<line x1="210" y1="122" x2="460" y2="122" stroke="#000" stroke-width="0.4" stroke-dasharray="2,2"/>
<polyline points="218.0,122.0 221.0,119.4 224.0,116.9 227.0,114.4 230.0,112.0 233.0,109.8 236.0,107.7 239.0,105.8 242.0,104.2 245.0,102.8 248.0,101.7 251.0,100.8 254.0,100.3 257.0,100.0 260.0,100.1 263.0,100.4 266.0,101.1 269.0,102.0 272.0,103.2 275.0,104.7 278.0,106.4 281.0,108.4 284.0,110.5 287.0,112.8 290.0,115.2 293.0,117.7 296.0,120.3 299.0,122.9 302.0,125.4 305.0,128.0 308.0,130.4 311.0,132.7 314.0,134.9 317.0,136.9 320.0,138.7 323.0,140.3 326.0,141.6 329.0,142.6 332.0,143.4 335.0,143.8 338.0,144.0 341.0,143.8 344.0,143.4 347.0,142.6 350.0,141.6 353.0,140.3 356.0,138.7 359.0,136.9 362.0,134.9 365.0,132.7 368.0,130.4 371.0,128.0 374.0,125.4 377.0,122.9 380.0,120.3 383.0,117.7 386.0,115.2 389.0,112.8 392.0,110.5 395.0,108.4 398.0,106.4 401.0,104.7 404.0,103.2 407.0,102.0 410.0,101.1 413.0,100.4 416.0,100.1 419.0,100.0 422.0,100.3 425.0,100.8 428.0,101.7 431.0,102.8 434.0,104.2 437.0,105.8 440.0,107.7 443.0,109.8 446.0,112.0 449.0,114.4 452.0,116.9 455.0,119.4 458.0,122.0" fill="none" stroke="#000" stroke-width="1.2"/>
<text x="335" y="80" text-anchor="middle" class="labsm">IN AIR</text>
<text x="282" y="126" text-anchor="middle" class="labxs">C</text>
<text x="310" y="106" text-anchor="middle" class="labxs">R</text>
<text x="340" y="126" text-anchor="middle" class="labxs">C</text>
<text x="370" y="106" text-anchor="middle" class="labxs">R</text>
<text x="335" y="156" text-anchor="middle" class="labxs">C=compression  R=rarefaction</text>
<text x="240" y="166" text-anchor="middle" class="labxs">frequency = pitch  ·  amplitude = loudness  ·  wavelength = spacing</text>
<line x1="22" y1="170" x2="458" y2="170" stroke="#000" stroke-width="0.3"/>
<text x="240" y="181" text-anchor="middle" class="sh">— · —  VIBRATING STRING  — · —</text>
<line x1="22" y1="185" x2="458" y2="185" stroke="#000" stroke-width="0.3"/>
<circle cx="30" cy="210" r="2" fill="#000"/>
<circle cx="210" cy="210" r="2" fill="#000"/>
<line x1="30" y1="210" x2="210" y2="210" stroke="#000" stroke-width="0.9"/>
<text x="220" y="213" text-anchor="start" class="labxs">AT REST</text>
<text x="220" y="220" text-anchor="start" class="labxs">(no vibration)</text>
<circle cx="30" cy="230" r="2" fill="#000"/>
<circle cx="210" cy="230" r="2" fill="#000"/>
<polyline points="30.0,230.0 32.2,229.5 34.5,229.1 36.8,228.6 39.0,228.1 41.2,227.7 43.5,227.2 45.8,226.7 48.0,226.3 50.2,225.8 52.5,225.4 54.8,225.0 57.0,224.6 59.2,224.1 61.5,223.7 63.8,223.3 66.0,222.9 68.2,222.6 70.5,222.2 72.8,221.9 75.0,221.5 77.2,221.2 79.5,220.9 81.8,220.6 84.0,220.3 86.2,220.0 88.5,219.8 90.8,219.5 93.0,219.3 95.2,219.1 97.5,218.9 99.8,218.7 102.0,218.6 104.2,218.5 106.5,218.3 108.8,218.2 111.0,218.1 113.2,218.1 115.5,218.0 117.8,218.0 120.0,218.0 122.2,218.0 124.5,218.0 126.8,218.1 129.0,218.1 131.2,218.2 133.5,218.3 135.8,218.5 138.0,218.6 140.2,218.7 142.5,218.9 144.8,219.1 147.0,219.3 149.2,219.5 151.5,219.8 153.8,220.0 156.0,220.3 158.2,220.6 160.5,220.9 162.8,221.2 165.0,221.5 167.2,221.9 169.5,222.2 171.8,222.6 174.0,222.9 176.2,223.3 178.5,223.7 180.8,224.1 183.0,224.6 185.2,225.0 187.5,225.4 189.8,225.8 192.0,226.3 194.2,226.7 196.5,227.2 198.8,227.7 201.0,228.1 203.2,228.6 205.5,229.1 207.8,229.5 210.0,230.0" fill="none" stroke="#000" stroke-width="1.1"/>
<text x="220" y="233" text-anchor="start" class="labxs">FUNDAMENTAL</text>
<text x="220" y="240" text-anchor="start" class="labxs">(lowest pitch)</text>
<circle cx="30" cy="250" r="2" fill="#000"/>
<circle cx="210" cy="250" r="2" fill="#000"/>
<polyline points="30.0,250.0 32.2,249.1 34.5,248.1 36.8,247.2 39.0,246.3 41.2,245.4 43.5,244.6 45.8,243.7 48.0,242.9 50.2,242.2 52.5,241.5 54.8,240.9 57.0,240.3 59.2,239.8 61.5,239.3 63.8,238.9 66.0,238.6 68.2,238.3 70.5,238.1 72.8,238.0 75.0,238.0 77.2,238.0 79.5,238.1 81.8,238.3 84.0,238.6 86.2,238.9 88.5,239.3 90.8,239.8 93.0,240.3 95.2,240.9 97.5,241.5 99.8,242.2 102.0,242.9 104.2,243.7 106.5,244.6 108.8,245.4 111.0,246.3 113.2,247.2 115.5,248.1 117.8,249.1 120.0,250.0 122.2,250.9 124.5,251.9 126.8,252.8 129.0,253.7 131.2,254.6 133.5,255.4 135.8,256.3 138.0,257.1 140.2,257.8 142.5,258.5 144.8,259.1 147.0,259.7 149.2,260.2 151.5,260.7 153.8,261.1 156.0,261.4 158.2,261.7 160.5,261.9 162.8,262.0 165.0,262.0 167.2,262.0 169.5,261.9 171.8,261.7 174.0,261.4 176.2,261.1 178.5,260.7 180.8,260.2 183.0,259.7 185.2,259.1 187.5,258.5 189.8,257.8 192.0,257.1 194.2,256.3 196.5,255.4 198.8,254.6 201.0,253.7 203.2,252.8 205.5,251.9 207.8,250.9 210.0,250.0" fill="none" stroke="#000" stroke-width="1.1"/>
<text x="220" y="253" text-anchor="start" class="labxs">2ND HARMONIC</text>
<text x="220" y="260" text-anchor="start" class="labxs">(higher pitch)</text>
<text x="120" y="265" text-anchor="middle" class="labxs">more loops = more cycles per second = higher pitch</text>
<line x1="22" y1="270" x2="458" y2="270" stroke="#000" stroke-width="0.3"/>
<text x="240" y="281" text-anchor="middle" class="sh">— · —  THE RUBENS TUBE  — · —</text>
<line x1="22" y1="285" x2="458" y2="285" stroke="#000" stroke-width="0.3"/>
<rect x="30" y="330" width="380" height="18" fill="none" stroke="#000" stroke-width="1.2"/>
<circle cx="40" cy="330" r="2" fill="#000"/>
<circle cx="60" cy="330" r="2" fill="#000"/>
<circle cx="80" cy="330" r="2" fill="#000"/>
<circle cx="100" cy="330" r="2" fill="#000"/>
<circle cx="120" cy="330" r="2" fill="#000"/>
<circle cx="140" cy="330" r="2" fill="#000"/>
<circle cx="160" cy="330" r="2" fill="#000"/>
<circle cx="180" cy="330" r="2" fill="#000"/>
<circle cx="200" cy="330" r="2" fill="#000"/>
<circle cx="220" cy="330" r="2" fill="#000"/>
<circle cx="240" cy="330" r="2" fill="#000"/>
<circle cx="260" cy="330" r="2" fill="#000"/>
<circle cx="280" cy="330" r="2" fill="#000"/>
<circle cx="300" cy="330" r="2" fill="#000"/>
<circle cx="320" cy="330" r="2" fill="#000"/>
<circle cx="340" cy="330" r="2" fill="#000"/>
<circle cx="360" cy="330" r="2" fill="#000"/>
<circle cx="380" cy="330" r="2" fill="#000"/>
<circle cx="400" cy="330" r="2" fill="#000"/>
<line x1="40" y1="330" x2="40" y2="322.0" stroke="#000" stroke-width="1.2"/>
<circle cx="40" cy="322.0" r="2.5" fill="none" stroke="#000" stroke-width="0.7"/>
<line x1="60" y1="330" x2="60" y2="314.7530667371294" stroke="#000" stroke-width="1.2"/>
<circle cx="60" cy="314.7530667371294" r="2.5" fill="none" stroke="#000" stroke-width="0.7"/>
<line x1="80" y1="330" x2="80" y2="308.0" stroke="#000" stroke-width="1.2"/>
<circle cx="80" cy="308.0" r="2.5" fill="none" stroke="#000" stroke-width="0.7"/>
<line x1="100" y1="330" x2="100" y2="302.2010101267767" stroke="#000" stroke-width="1.2"/>
<circle cx="100" cy="302.2010101267767" r="2.5" fill="none" stroke="#000" stroke-width="0.7"/>
<line x1="120" y1="330" x2="120" y2="297.75128869403574" stroke="#000" stroke-width="1.2"/>
<circle cx="120" cy="297.75128869403574" r="2.5" fill="none" stroke="#000" stroke-width="0.7"/>
<line x1="140" y1="330" x2="140" y2="294.9540768639061" stroke="#000" stroke-width="1.2"/>
<circle cx="140" cy="294.9540768639061" r="2.5" fill="none" stroke="#000" stroke-width="0.7"/>
<line x1="160" y1="330" x2="160" y2="294.0" stroke="#000" stroke-width="1.2"/>
<circle cx="160" cy="294.0" r="2.5" fill="none" stroke="#000" stroke-width="0.7"/>
<line x1="180" y1="330" x2="180" y2="294.9540768639061" stroke="#000" stroke-width="1.2"/>
<circle cx="180" cy="294.9540768639061" r="2.5" fill="none" stroke="#000" stroke-width="0.7"/>
<line x1="200" y1="330" x2="200" y2="297.75128869403574" stroke="#000" stroke-width="1.2"/>
<circle cx="200" cy="297.75128869403574" r="2.5" fill="none" stroke="#000" stroke-width="0.7"/>
<line x1="220" y1="330" x2="220" y2="302.2010101267767" stroke="#000" stroke-width="1.2"/>
<circle cx="220" cy="302.2010101267767" r="2.5" fill="none" stroke="#000" stroke-width="0.7"/>
<line x1="240" y1="330" x2="240" y2="308.0" stroke="#000" stroke-width="1.2"/>
<circle cx="240" cy="308.0" r="2.5" fill="none" stroke="#000" stroke-width="0.7"/>
<line x1="260" y1="330" x2="260" y2="314.7530667371294" stroke="#000" stroke-width="1.2"/>
<circle cx="260" cy="314.7530667371294" r="2.5" fill="none" stroke="#000" stroke-width="0.7"/>
<line x1="280" y1="330" x2="280" y2="322.0" stroke="#000" stroke-width="1.2"/>
<circle cx="280" cy="322.0" r="2.5" fill="none" stroke="#000" stroke-width="0.7"/>
<line x1="300" y1="330" x2="300" y2="314.7530667371294" stroke="#000" stroke-width="1.2"/>
<circle cx="300" cy="314.7530667371294" r="2.5" fill="none" stroke="#000" stroke-width="0.7"/>
<line x1="320" y1="330" x2="320" y2="308.0" stroke="#000" stroke-width="1.2"/>
<circle cx="320" cy="308.0" r="2.5" fill="none" stroke="#000" stroke-width="0.7"/>
<line x1="340" y1="330" x2="340" y2="302.2010101267767" stroke="#000" stroke-width="1.2"/>
<circle cx="340" cy="302.2010101267767" r="2.5" fill="none" stroke="#000" stroke-width="0.7"/>
<line x1="360" y1="330" x2="360" y2="297.75128869403574" stroke="#000" stroke-width="1.2"/>
<circle cx="360" cy="297.75128869403574" r="2.5" fill="none" stroke="#000" stroke-width="0.7"/>
<line x1="380" y1="330" x2="380" y2="294.9540768639061" stroke="#000" stroke-width="1.2"/>
<circle cx="380" cy="294.9540768639061" r="2.5" fill="none" stroke="#000" stroke-width="0.7"/>
<line x1="400" y1="330" x2="400" y2="294.0" stroke="#000" stroke-width="1.2"/>
<circle cx="400" cy="294.0" r="2.5" fill="none" stroke="#000" stroke-width="0.7"/>
<line x1="418" y1="339" x2="453" y2="339" stroke="#000" stroke-width="0.7"/><polygon points="453,337 458,339 453,341" fill="#000"/>
<text x="440" y="352" text-anchor="middle" class="labxs">SOUND</text>
<text x="215" y="295" text-anchor="middle" class="labxs">flammable gas fills tube · sound waves create pressure pattern</text>
<text x="215" y="362" text-anchor="middle" class="labxs">flame height maps the wave's pressure  ·  build: metal tube + holes + any flammable gas</text>
<line x1="22" y1="368" x2="458" y2="368" stroke="#000" stroke-width="0.3"/>
<text x="240" y="379" text-anchor="middle" class="sh">— · —  THE GROOVE IS THE FROZEN WAVE  — · —</text>
<line x1="22" y1="383" x2="458" y2="383" stroke="#000" stroke-width="0.3"/>
<polyline points="26.0,430.0 28.8,426.7 31.7,423.5 34.5,420.6 37.3,418.1 40.2,416.1 43.0,414.8 45.8,414.1 48.7,414.1 51.5,414.8 54.3,416.1 57.2,418.1 60.0,420.6 62.8,423.5 65.7,426.7 68.5,430.0 71.3,433.3 74.2,436.5 77.0,439.4 79.8,441.9 82.7,443.9 85.5,445.2 88.3,445.9 91.2,445.9 94.0,445.2 96.8,443.9 99.7,441.9 102.5,439.4 105.3,436.5 108.2,433.3 111.0,430.0 113.8,426.7 116.7,423.5 119.5,420.6 122.3,418.1 125.2,416.1 128.0,414.8 130.8,414.1 133.7,414.1 136.5,414.8 139.3,416.1 142.2,418.1 145.0,420.6 147.8,423.5 150.7,426.7 153.5,430.0 156.3,433.3 159.2,436.5 162.0,439.4 164.8,441.9 167.7,443.9 170.5,445.2 173.3,445.9 176.2,445.9 179.0,445.2 181.8,443.9 184.7,441.9 187.5,439.4 190.3,436.5 193.2,433.3 196.0,430.0" fill="none" stroke="#000" stroke-width="1.2"/>
<text x="110" y="394" text-anchor="middle" class="labsm">SOUND WAVE</text>
<text x="110" y="470" text-anchor="middle" class="labxs">wave in air</text>
<line x1="202" y1="430" x2="237" y2="430" stroke="#000" stroke-width="0.7"/><polygon points="237,428 242,430 237,432" fill="#000"/>
<line x1="242" y1="455" x2="197" y2="455" stroke="#000" stroke-width="0.7"/><polygon points="197,453 202,455 197,457" fill="#000"/>
<text x="222" y="426" text-anchor="middle" class="lab">=</text>
<polyline points="248.0,422.0 251.5,419.9 255.0,417.9 258.5,416.1 262.0,414.6 265.5,413.3 269.0,412.5 272.5,412.1 276.0,412.1 279.5,412.5 283.0,413.3 286.5,414.6 290.0,416.1 293.5,417.9 297.0,419.9 300.5,422.0 304.0,424.1 307.5,426.1 311.0,427.9 314.5,429.4 318.0,430.7 321.5,431.5 325.0,431.9 328.5,431.9 332.0,431.5 335.5,430.7 339.0,429.4 342.5,427.9 346.0,426.1 349.5,424.1 353.0,422.0 356.5,419.9 360.0,417.9 363.5,416.1 367.0,414.6 370.5,413.3 374.0,412.5 377.5,412.1 381.0,412.1 384.5,412.5 388.0,413.3 391.5,414.6 395.0,416.1 398.5,417.9 402.0,419.9 405.5,422.0 409.0,424.1 412.5,426.1 416.0,427.9 419.5,429.4 423.0,430.7 426.5,431.5 430.0,431.9 433.5,431.9 437.0,431.5 440.5,430.7 444.0,429.4 447.5,427.9 451.0,426.1 454.5,424.1 458.0,422.0" fill="none" stroke="#000" stroke-width="1.1"/>
<polyline points="248.0,438.0 251.5,435.9 255.0,433.9 258.5,432.1 262.0,430.6 265.5,429.3 269.0,428.5 272.5,428.1 276.0,428.1 279.5,428.5 283.0,429.3 286.5,430.6 290.0,432.1 293.5,433.9 297.0,435.9 300.5,438.0 304.0,440.1 307.5,442.1 311.0,443.9 314.5,445.4 318.0,446.7 321.5,447.5 325.0,447.9 328.5,447.9 332.0,447.5 335.5,446.7 339.0,445.4 342.5,443.9 346.0,442.1 349.5,440.1 353.0,438.0 356.5,435.9 360.0,433.9 363.5,432.1 367.0,430.6 370.5,429.3 374.0,428.5 377.5,428.1 381.0,428.1 384.5,428.5 388.0,429.3 391.5,430.6 395.0,432.1 398.5,433.9 402.0,435.9 405.5,438.0 409.0,440.1 412.5,442.1 416.0,443.9 419.5,445.4 423.0,446.7 426.5,447.5 430.0,447.9 433.5,447.9 437.0,447.5 440.5,446.7 444.0,445.4 447.5,443.9 451.0,442.1 454.5,440.1 458.0,438.0" fill="none" stroke="#000" stroke-width="1.1"/>
<polygon points="347,410 359,410 353,422" fill="none" stroke="#000" stroke-width="0.9"/>
<line x1="353" y1="400" x2="353" y2="410" stroke="#000" stroke-width="0.8"/>
<text x="353" y="394" text-anchor="middle" class="labsm">GROOVE IN METAL</text>
<text x="353" y="470" text-anchor="middle" class="labxs">wall shape = wave shape</text>
<text x="240" y="483" text-anchor="middle" class="labxs">NEEDLE TRACKS GROOVE → NEEDLE VIBRATES → CONE AMPLIFIES → SOUND REPRODUCED</text>
<line x1="22" y1="488" x2="458" y2="488" stroke="#000" stroke-width="0.3"/>
<text x="240" y="499" text-anchor="middle" class="sh">— · —  THE COMPLETE CHAIN  — · —</text>
<line x1="22" y1="503" x2="458" y2="503" stroke="#000" stroke-width="0.3"/>
<rect x="30" y="525" width="60" height="28" fill="none" stroke="#000" stroke-width="0.9"/>
<text x="60" y="542" text-anchor="middle" class="labxs">VOICE</text>
<line x1="91" y1="539" x2="97" y2="539" stroke="#000" stroke-width="0.7"/><polygon points="97,537 101,539 97,541" fill="#000"/>
<rect x="102" y="525" width="60" height="28" fill="none" stroke="#000" stroke-width="0.9"/>
<text x="132" y="535" text-anchor="middle" class="labxs">AIR</text>
<text x="132" y="545" text-anchor="middle" class="labxs">WAVE</text>
<line x1="163" y1="539" x2="169" y2="539" stroke="#000" stroke-width="0.7"/><polygon points="169,537 173,539 169,541" fill="#000"/>
<rect x="174" y="525" width="60" height="28" fill="none" stroke="#000" stroke-width="0.9"/>
<text x="204" y="535" text-anchor="middle" class="labxs">GROOVE</text>
<text x="204" y="545" text-anchor="middle" class="labxs">IN METAL</text>
<line x1="235" y1="539" x2="241" y2="539" stroke="#000" stroke-width="0.7"/><polygon points="241,537 245,539 241,541" fill="#000"/>
<rect x="246" y="525" width="60" height="28" fill="none" stroke="#000" stroke-width="0.9"/>
<text x="276" y="535" text-anchor="middle" class="labxs">NEEDLE</text>
<text x="276" y="545" text-anchor="middle" class="labxs">READS</text>
<line x1="307" y1="539" x2="313" y2="539" stroke="#000" stroke-width="0.7"/><polygon points="313,537 317,539 313,541" fill="#000"/>
<rect x="318" y="525" width="60" height="28" fill="none" stroke="#000" stroke-width="0.9"/>
<text x="348" y="535" text-anchor="middle" class="labxs">CONE</text>
<text x="348" y="545" text-anchor="middle" class="labxs">SPEAKS</text>
<line x1="379" y1="539" x2="385" y2="539" stroke="#000" stroke-width="0.7"/><polygon points="385,537 389,539 385,541" fill="#000"/>
<rect x="390" y="525" width="60" height="28" fill="none" stroke="#000" stroke-width="0.9"/>
<text x="420" y="542" text-anchor="middle" class="labxs">VOICE</text>
<line x1="60" y1="557" x2="168.0" y2="557" stroke="#000" stroke-width="0.6"/>
<text x="96" y="567" text-anchor="middle" class="labxs">ENCODING</text>
<line x1="276" y1="557" x2="390" y2="557" stroke="#000" stroke-width="0.6"/>
<text x="333" y="567" text-anchor="middle" class="labxs">DECODING</text>
<text x="240" y="575" text-anchor="middle" class="labxs">this chain works at any scale · from the groove on the disc to the voice of the speaker</text>
<text x="240" y="590" text-anchor="middle" class="labxs">see Plate 9 for playback construction  ·  see audio disc for recorded language content</text>
<text x="240" y="608" text-anchor="middle" class="labxs">the flame shows the wave is real  ·  the groove proves the wave can be preserved</text>
<!-- metadata strip -->
<line x1="18" y1="615" x2="462" y2="615" stroke="#000" stroke-width="0.5"/>
<text x="240" y="624" text-anchor="middle" class="meta">REMEMBER FORWARD · THE PATIENT MESSAGE · CC BY-SA 4.0 · rememberforward.org</text>
<line x1="18" y1="630" x2="462" y2="630" stroke="#000" stroke-width="1"/>
<!-- footer banner -->
<text x="240" y="648" text-anchor="middle" class="footb">THIS WAS MADE FOR YOU, FREELY, BY PEOPLE WHO CARED ABOUT THE FUTURE.</text>
<text x="240" y="663" text-anchor="middle" class="foot">UNDERSTAND IT · BUILD WITH IT · LEAVE MORE CAPSULES FOR OTHERS</text>
</svg>